%TF.GenerationSoftware,KiCad,Pcbnew,(7.0.0)*%
%TF.CreationDate,2023-05-17T20:16:57-03:00*%
%TF.ProjectId,d3vk1t,6433766b-3174-42e6-9b69-6361645f7063,rev?*%
%TF.SameCoordinates,Original*%
%TF.FileFunction,Paste,Top*%
%TF.FilePolarity,Positive*%
%FSLAX46Y46*%
G04 Gerber Fmt 4.6, Leading zero omitted, Abs format (unit mm)*
G04 Created by KiCad (PCBNEW (7.0.0)) date 2023-05-17 20:16:57*
%MOMM*%
%LPD*%
G01*
G04 APERTURE LIST*
G04 Aperture macros list*
%AMRoundRect*
0 Rectangle with rounded corners*
0 $1 Rounding radius*
0 $2 $3 $4 $5 $6 $7 $8 $9 X,Y pos of 4 corners*
0 Add a 4 corners polygon primitive as box body*
4,1,4,$2,$3,$4,$5,$6,$7,$8,$9,$2,$3,0*
0 Add four circle primitives for the rounded corners*
1,1,$1+$1,$2,$3*
1,1,$1+$1,$4,$5*
1,1,$1+$1,$6,$7*
1,1,$1+$1,$8,$9*
0 Add four rect primitives between the rounded corners*
20,1,$1+$1,$2,$3,$4,$5,0*
20,1,$1+$1,$4,$5,$6,$7,0*
20,1,$1+$1,$6,$7,$8,$9,0*
20,1,$1+$1,$8,$9,$2,$3,0*%
G04 Aperture macros list end*
%ADD10C,0.010000*%
%ADD11RoundRect,0.140000X0.140000X0.170000X-0.140000X0.170000X-0.140000X-0.170000X0.140000X-0.170000X0*%
%ADD12RoundRect,0.135000X-0.185000X0.135000X-0.185000X-0.135000X0.185000X-0.135000X0.185000X0.135000X0*%
%ADD13R,1.500000X0.900000*%
%ADD14R,0.700000X0.700000*%
%ADD15RoundRect,0.140000X0.170000X-0.140000X0.170000X0.140000X-0.170000X0.140000X-0.170000X-0.140000X0*%
%ADD16RoundRect,0.140000X-0.170000X0.140000X-0.170000X-0.140000X0.170000X-0.140000X0.170000X0.140000X0*%
%ADD17R,2.000000X1.100000*%
%ADD18R,2.180000X1.600000*%
%ADD19R,1.600000X2.180000*%
%ADD20RoundRect,0.150000X-0.512500X-0.150000X0.512500X-0.150000X0.512500X0.150000X-0.512500X0.150000X0*%
%ADD21RoundRect,0.135000X-0.135000X-0.185000X0.135000X-0.185000X0.135000X0.185000X-0.135000X0.185000X0*%
%ADD22RoundRect,0.140000X-0.140000X-0.170000X0.140000X-0.170000X0.140000X0.170000X-0.140000X0.170000X0*%
%ADD23RoundRect,0.147500X0.147500X-0.727500X0.147500X0.727500X-0.147500X0.727500X-0.147500X-0.727500X0*%
%ADD24RoundRect,0.075000X0.700000X0.075000X-0.700000X0.075000X-0.700000X-0.075000X0.700000X-0.075000X0*%
%ADD25RoundRect,0.075000X0.075000X0.700000X-0.075000X0.700000X-0.075000X-0.700000X0.075000X-0.700000X0*%
%ADD26RoundRect,0.250000X0.475000X-0.250000X0.475000X0.250000X-0.475000X0.250000X-0.475000X-0.250000X0*%
%ADD27RoundRect,0.250000X0.650000X-0.325000X0.650000X0.325000X-0.650000X0.325000X-0.650000X-0.325000X0*%
%ADD28R,0.900000X0.800000*%
%ADD29RoundRect,0.250000X-0.312500X-0.625000X0.312500X-0.625000X0.312500X0.625000X-0.312500X0.625000X0*%
%ADD30RoundRect,0.135000X0.185000X-0.135000X0.185000X0.135000X-0.185000X0.135000X-0.185000X-0.135000X0*%
%ADD31R,0.701040X0.800100*%
%ADD32R,0.350000X0.430000*%
%ADD33R,0.430000X0.350000*%
%ADD34R,1.800000X1.000000*%
%ADD35RoundRect,0.225000X0.250000X-0.225000X0.250000X0.225000X-0.250000X0.225000X-0.250000X-0.225000X0*%
%ADD36RoundRect,0.225000X-0.250000X0.225000X-0.250000X-0.225000X0.250000X-0.225000X0.250000X0.225000X0*%
%ADD37RoundRect,0.135000X0.135000X0.185000X-0.135000X0.185000X-0.135000X-0.185000X0.135000X-0.185000X0*%
%ADD38R,0.700000X0.300000*%
%ADD39R,0.700000X1.000000*%
%ADD40RoundRect,0.225000X0.225000X0.250000X-0.225000X0.250000X-0.225000X-0.250000X0.225000X-0.250000X0*%
%ADD41RoundRect,0.250000X-0.625000X0.312500X-0.625000X-0.312500X0.625000X-0.312500X0.625000X0.312500X0*%
%ADD42RoundRect,0.021000X-0.409000X-0.189000X0.409000X-0.189000X0.409000X0.189000X-0.409000X0.189000X0*%
%ADD43R,1.800000X0.700000*%
%ADD44R,1.800000X1.600000*%
%ADD45R,2.600000X1.600000*%
%ADD46R,1.800000X2.000000*%
%ADD47R,0.350000X0.600000*%
%ADD48R,0.600000X0.350000*%
%ADD49RoundRect,0.225000X-0.225000X-0.250000X0.225000X-0.250000X0.225000X0.250000X-0.225000X0.250000X0*%
%ADD50RoundRect,0.250000X0.325000X0.650000X-0.325000X0.650000X-0.325000X-0.650000X0.325000X-0.650000X0*%
%ADD51R,2.000000X1.500000*%
%ADD52R,2.000000X3.800000*%
%ADD53R,2.000000X2.000000*%
G04 APERTURE END LIST*
%TO.C,IC3*%
G36*
X157547500Y-100260000D02*
G01*
X156607500Y-100260000D01*
X156607500Y-98740000D01*
X157547500Y-98740000D01*
X157547500Y-100260000D01*
G37*
D10*
X157547500Y-100260000D02*
X156607500Y-100260000D01*
X156607500Y-98740000D01*
X157547500Y-98740000D01*
X157547500Y-100260000D01*
%TD*%
D11*
%TO.C,C28*%
X179780000Y-109700000D03*
X178820000Y-109700000D03*
%TD*%
D12*
%TO.C,R3*%
X168216608Y-78496554D03*
X168216608Y-79516554D03*
%TD*%
D13*
%TO.C,U1*%
X169999999Y-76999999D03*
X169999999Y-78499999D03*
X169999999Y-79999999D03*
X169999999Y-81499999D03*
X169999999Y-82999999D03*
X169999999Y-84499999D03*
X169999999Y-85999999D03*
X169999999Y-87499999D03*
X169999999Y-88999999D03*
X187499999Y-88999999D03*
X187499999Y-87499999D03*
X187499999Y-85999999D03*
X187499999Y-84499999D03*
X187499999Y-82999999D03*
X187499999Y-81499999D03*
X187499999Y-79999999D03*
X187499999Y-78499999D03*
X187499999Y-76999999D03*
D14*
X178609999Y-82099999D03*
X179709999Y-82099999D03*
X180809999Y-82099999D03*
X178609999Y-83199999D03*
X179709999Y-83199999D03*
X180809999Y-83199999D03*
X178609999Y-84299999D03*
X179709999Y-84299999D03*
X180809999Y-84299999D03*
%TD*%
D15*
%TO.C,C3*%
X160000000Y-114380000D03*
X160000000Y-113420000D03*
%TD*%
D11*
%TO.C,C23*%
X187160000Y-113200000D03*
X186200000Y-113200000D03*
%TD*%
D16*
%TO.C,C4*%
X174900000Y-107820000D03*
X174900000Y-108780000D03*
%TD*%
D17*
%TO.C,D1*%
X147599999Y-87299999D03*
X147599999Y-88999999D03*
X147599999Y-90699999D03*
X152399999Y-90699999D03*
X152399999Y-88999999D03*
X152399999Y-87299999D03*
%TD*%
D15*
%TO.C,C18*%
X141100000Y-99667500D03*
X141100000Y-98707500D03*
%TD*%
D18*
%TO.C,SW1*%
X174209999Y-93299999D03*
X183389999Y-93299999D03*
%TD*%
D19*
%TO.C,SW4*%
X134399999Y-127389999D03*
X134399999Y-118209999D03*
%TD*%
D20*
%TO.C,IC7*%
X185862500Y-100350000D03*
X185862500Y-101300000D03*
X185862500Y-102250000D03*
X188137500Y-102250000D03*
X188137500Y-101300000D03*
X188137500Y-100350000D03*
%TD*%
D21*
%TO.C,R22*%
X135980000Y-84790500D03*
X137000000Y-84790500D03*
%TD*%
D22*
%TO.C,C16*%
X149248955Y-101505870D03*
X150208955Y-101505870D03*
%TD*%
D23*
%TO.C,IC5*%
X133495000Y-92066000D03*
X134765000Y-92066000D03*
X136035000Y-92066000D03*
X137305000Y-92066000D03*
X137305000Y-86666000D03*
X136035000Y-86666000D03*
X134765000Y-86666000D03*
X133495000Y-86666000D03*
%TD*%
D12*
%TO.C,R23*%
X131600000Y-109690000D03*
X131600000Y-110710000D03*
%TD*%
D21*
%TO.C,R18*%
X154790000Y-87300000D03*
X155810000Y-87300000D03*
%TD*%
D24*
%TO.C,IC1*%
X173075000Y-114150000D03*
X173075000Y-113650000D03*
X173075000Y-113150000D03*
X173075000Y-112650000D03*
X173075000Y-112150000D03*
X173075000Y-111650000D03*
X173075000Y-111150000D03*
X173075000Y-110650000D03*
X173075000Y-110150000D03*
X173075000Y-109650000D03*
X173075000Y-109150000D03*
X173075000Y-108650000D03*
X173075000Y-108150000D03*
X173075000Y-107650000D03*
X173075000Y-107150000D03*
X173075000Y-106650000D03*
D25*
X171150000Y-104725000D03*
X170650000Y-104725000D03*
X170150000Y-104725000D03*
X169650000Y-104725000D03*
X169150000Y-104725000D03*
X168650000Y-104725000D03*
X168150000Y-104725000D03*
X167650000Y-104725000D03*
X167150000Y-104725000D03*
X166650000Y-104725000D03*
X166150000Y-104725000D03*
X165650000Y-104725000D03*
X165150000Y-104725000D03*
X164650000Y-104725000D03*
X164150000Y-104725000D03*
X163650000Y-104725000D03*
D24*
X161725000Y-106650000D03*
X161725000Y-107150000D03*
X161725000Y-107650000D03*
X161725000Y-108150000D03*
X161725000Y-108650000D03*
X161725000Y-109150000D03*
X161725000Y-109650000D03*
X161725000Y-110150000D03*
X161725000Y-110650000D03*
X161725000Y-111150000D03*
X161725000Y-111650000D03*
X161725000Y-112150000D03*
X161725000Y-112650000D03*
X161725000Y-113150000D03*
X161725000Y-113650000D03*
X161725000Y-114150000D03*
D25*
X163650000Y-116075000D03*
X164150000Y-116075000D03*
X164650000Y-116075000D03*
X165150000Y-116075000D03*
X165650000Y-116075000D03*
X166150000Y-116075000D03*
X166650000Y-116075000D03*
X167150000Y-116075000D03*
X167650000Y-116075000D03*
X168150000Y-116075000D03*
X168650000Y-116075000D03*
X169150000Y-116075000D03*
X169650000Y-116075000D03*
X170150000Y-116075000D03*
X170650000Y-116075000D03*
X171150000Y-116075000D03*
%TD*%
D26*
%TO.C,C11*%
X167800000Y-75250000D03*
X167800000Y-73350000D03*
%TD*%
D12*
%TO.C,R4*%
X185797944Y-93302456D03*
X185797944Y-94322456D03*
%TD*%
D27*
%TO.C,C14*%
X101800000Y-97175000D03*
X101800000Y-94225000D03*
%TD*%
D28*
%TO.C,Y2*%
X177399999Y-108349999D03*
X178799999Y-108349999D03*
X178799999Y-107249999D03*
X177399999Y-107249999D03*
%TD*%
D29*
%TO.C,R6*%
X193809648Y-94200000D03*
X196734648Y-94200000D03*
%TD*%
D30*
%TO.C,R11*%
X143244664Y-97378358D03*
X143244664Y-96358358D03*
%TD*%
D19*
%TO.C,SW3*%
X127099999Y-127389999D03*
X127099999Y-118209999D03*
%TD*%
D11*
%TO.C,C20*%
X197180000Y-108400000D03*
X196220000Y-108400000D03*
%TD*%
D31*
%TO.C,D2*%
X136449959Y-81139879D03*
X134550039Y-81139879D03*
X135499999Y-83441119D03*
%TD*%
D21*
%TO.C,R21*%
X133980000Y-84790500D03*
X135000000Y-84790500D03*
%TD*%
D15*
%TO.C,C27*%
X121008409Y-87628077D03*
X121008409Y-86668077D03*
%TD*%
D32*
%TO.C,IC4*%
X142749999Y-99932499D03*
X143249999Y-99932499D03*
D33*
X143744999Y-99687499D03*
X143744999Y-99187499D03*
X143744999Y-98687499D03*
D32*
X143249999Y-98442499D03*
X142749999Y-98442499D03*
D33*
X142254999Y-98687499D03*
X142254999Y-99187499D03*
X142254999Y-99687499D03*
%TD*%
D22*
%TO.C,C1*%
X169920000Y-102900000D03*
X170880000Y-102900000D03*
%TD*%
D15*
%TO.C,C26*%
X138690996Y-87623939D03*
X138690996Y-86663939D03*
%TD*%
D22*
%TO.C,C31*%
X179420000Y-111850546D03*
X180380000Y-111850546D03*
%TD*%
D34*
%TO.C,Y1*%
X177599999Y-114349999D03*
X177599999Y-111849999D03*
%TD*%
D15*
%TO.C,C25*%
X136031490Y-94729475D03*
X136031490Y-93769475D03*
%TD*%
D35*
%TO.C,C8*%
X165800000Y-102700000D03*
X165800000Y-101150000D03*
%TD*%
D16*
%TO.C,C12*%
X167033263Y-78497490D03*
X167033263Y-79457490D03*
%TD*%
D36*
%TO.C,C6*%
X175100000Y-115025000D03*
X175100000Y-116575000D03*
%TD*%
D37*
%TO.C,R5*%
X167799689Y-86003800D03*
X166779689Y-86003800D03*
%TD*%
D38*
%TO.C,X1*%
X192229999Y-104999999D03*
X192229999Y-104499999D03*
X192229999Y-103999999D03*
X192229999Y-103499999D03*
X192229999Y-102999999D03*
X192229999Y-102499999D03*
X192229999Y-101499999D03*
X192229999Y-100999999D03*
X192229999Y-100499999D03*
X192229999Y-99999999D03*
X192229999Y-99499999D03*
X192229999Y-98999999D03*
D39*
X193529999Y-98899999D03*
D38*
X193529999Y-99749999D03*
X193529999Y-100249999D03*
X193529999Y-100749999D03*
X193529999Y-101249999D03*
X193529999Y-101749999D03*
X193529999Y-102249999D03*
X193529999Y-102749999D03*
X193529999Y-103249999D03*
X193529999Y-103749999D03*
X193529999Y-104249999D03*
D39*
X193529999Y-105099999D03*
%TD*%
D11*
%TO.C,C2*%
X171380000Y-117900000D03*
X170420000Y-117900000D03*
%TD*%
D30*
%TO.C,R24*%
X129600000Y-107700000D03*
X129600000Y-106680000D03*
%TD*%
D23*
%TO.C,IC6*%
X122595000Y-92066000D03*
X123865000Y-92066000D03*
X125135000Y-92066000D03*
X126405000Y-92066000D03*
X126405000Y-86666000D03*
X125135000Y-86666000D03*
X123865000Y-86666000D03*
X122595000Y-86666000D03*
%TD*%
D31*
%TO.C,Q2*%
X154304962Y-79939337D03*
X152405042Y-79939337D03*
X153355002Y-82240577D03*
%TD*%
D16*
%TO.C,C17*%
X147700000Y-98520000D03*
X147700000Y-99480000D03*
%TD*%
D22*
%TO.C,C5*%
X163420000Y-102900000D03*
X164380000Y-102900000D03*
%TD*%
D40*
%TO.C,C22*%
X197175000Y-109800000D03*
X195625000Y-109800000D03*
%TD*%
D31*
%TO.C,Q1*%
X159384178Y-79949379D03*
X157484258Y-79949379D03*
X158434218Y-82250619D03*
%TD*%
D15*
%TO.C,C32*%
X134400000Y-115680000D03*
X134400000Y-114720000D03*
%TD*%
D21*
%TO.C,R20*%
X154790000Y-90700000D03*
X155810000Y-90700000D03*
%TD*%
D41*
%TO.C,R9*%
X104400000Y-94237500D03*
X104400000Y-97162500D03*
%TD*%
D15*
%TO.C,C15*%
X127100000Y-115680000D03*
X127100000Y-114720000D03*
%TD*%
D30*
%TO.C,R27*%
X129600000Y-102010000D03*
X129600000Y-100990000D03*
%TD*%
D15*
%TO.C,C19*%
X140000000Y-99687500D03*
X140000000Y-98727500D03*
%TD*%
D42*
%TO.C,IC3*%
X155642500Y-98500000D03*
X155642500Y-99500000D03*
X155642500Y-100500000D03*
X158512500Y-100500000D03*
X158512500Y-99500000D03*
X158512500Y-98500000D03*
%TD*%
D43*
%TO.C,X2*%
X114749999Y-109714999D03*
X114749999Y-108614999D03*
X114749900Y-107524999D03*
X114749900Y-106414999D03*
X114749900Y-105334999D03*
X114749999Y-104224999D03*
X114749900Y-103134999D03*
X114749999Y-102034999D03*
D44*
X114249999Y-99549999D03*
D43*
X114749999Y-100944999D03*
D45*
X104599999Y-99549999D03*
D46*
X114324999Y-114499999D03*
D45*
X104599999Y-115399999D03*
%TD*%
D31*
%TO.C,D4*%
X125549959Y-81139879D03*
X123650039Y-81139879D03*
X124599999Y-83441119D03*
%TD*%
D22*
%TO.C,C29*%
X176320000Y-109700000D03*
X177280000Y-109700000D03*
%TD*%
D47*
%TO.C,IC2*%
X150749999Y-97839999D03*
X150249999Y-97839999D03*
X149749999Y-97839999D03*
X149249999Y-97839999D03*
D48*
X149089999Y-98499999D03*
X149089999Y-98999999D03*
X149089999Y-99499999D03*
D47*
X149249999Y-100159999D03*
X149749999Y-100159999D03*
X150249999Y-100159999D03*
X150749999Y-100159999D03*
D48*
X150909999Y-99499999D03*
X150909999Y-98999999D03*
X150909999Y-98499999D03*
%TD*%
D12*
%TO.C,R26*%
X129600000Y-103090000D03*
X129600000Y-104110000D03*
%TD*%
%TO.C,R1*%
X151052549Y-79946997D03*
X151052549Y-80966997D03*
%TD*%
D21*
%TO.C,R7*%
X186590000Y-97900000D03*
X187610000Y-97900000D03*
%TD*%
D49*
%TO.C,C7*%
X169725000Y-101400000D03*
X171275000Y-101400000D03*
%TD*%
D12*
%TO.C,R10*%
X152300000Y-99490000D03*
X152300000Y-100510000D03*
%TD*%
%TO.C,R17*%
X110600000Y-82590000D03*
X110600000Y-83610000D03*
%TD*%
D30*
%TO.C,R15*%
X117100000Y-100910000D03*
X117100000Y-99890000D03*
%TD*%
D37*
%TO.C,R16*%
X113261044Y-86151044D03*
X112241044Y-86151044D03*
%TD*%
D40*
%TO.C,C24*%
X187475000Y-114700000D03*
X185925000Y-114700000D03*
%TD*%
D21*
%TO.C,R13*%
X155590000Y-97000000D03*
X156610000Y-97000000D03*
%TD*%
D30*
%TO.C,R14*%
X131980289Y-87683337D03*
X131980289Y-86663337D03*
%TD*%
D37*
%TO.C,R12*%
X158610000Y-97000000D03*
X157590000Y-97000000D03*
%TD*%
D19*
%TO.C,SW2*%
X119799999Y-127389999D03*
X119799999Y-118209999D03*
%TD*%
D50*
%TO.C,C13*%
X196767148Y-91680000D03*
X193817148Y-91680000D03*
%TD*%
D51*
%TO.C,IC8*%
X197149999Y-116699999D03*
X197149999Y-114399999D03*
D52*
X190849999Y-114399999D03*
D51*
X197149999Y-112099999D03*
%TD*%
D22*
%TO.C,C30*%
X179420000Y-114350910D03*
X180380000Y-114350910D03*
%TD*%
D21*
%TO.C,R8*%
X186590000Y-104900000D03*
X187610000Y-104900000D03*
%TD*%
D15*
%TO.C,C9*%
X119800000Y-115680000D03*
X119800000Y-114720000D03*
%TD*%
D37*
%TO.C,R2*%
X156388446Y-78799055D03*
X155368446Y-78799055D03*
%TD*%
D16*
%TO.C,C21*%
X159915908Y-99500623D03*
X159915908Y-100460623D03*
%TD*%
D12*
%TO.C,R28*%
X129600000Y-109690000D03*
X129600000Y-110710000D03*
%TD*%
D53*
%TO.C,BZ1*%
X101699999Y-87099999D03*
X101699999Y-80099999D03*
X108699999Y-80099999D03*
X108699999Y-87099999D03*
%TD*%
D31*
%TO.C,Q3*%
X112245636Y-84895171D03*
X114145556Y-84895171D03*
X113195596Y-82593931D03*
%TD*%
D21*
%TO.C,R19*%
X154780000Y-89010000D03*
X155800000Y-89010000D03*
%TD*%
D30*
%TO.C,R25*%
X169145128Y-118910000D03*
X169145128Y-117890000D03*
%TD*%
D15*
%TO.C,C10*%
X166053324Y-75240951D03*
X166053324Y-74280951D03*
%TD*%
M02*
