%TF.GenerationSoftware,KiCad,Pcbnew,(7.0.0)*%
%TF.CreationDate,2023-05-17T20:16:57-03:00*%
%TF.ProjectId,d3vk1t,6433766b-3174-42e6-9b69-6361645f7063,rev?*%
%TF.SameCoordinates,Original*%
%TF.FileFunction,Copper,L4,Bot*%
%TF.FilePolarity,Positive*%
%FSLAX46Y46*%
G04 Gerber Fmt 4.6, Leading zero omitted, Abs format (unit mm)*
G04 Created by KiCad (PCBNEW (7.0.0)) date 2023-05-17 20:16:57*
%MOMM*%
%LPD*%
G01*
G04 APERTURE LIST*
G04 Aperture macros list*
%AMRoundRect*
0 Rectangle with rounded corners*
0 $1 Rounding radius*
0 $2 $3 $4 $5 $6 $7 $8 $9 X,Y pos of 4 corners*
0 Add a 4 corners polygon primitive as box body*
4,1,4,$2,$3,$4,$5,$6,$7,$8,$9,$2,$3,0*
0 Add four circle primitives for the rounded corners*
1,1,$1+$1,$2,$3*
1,1,$1+$1,$4,$5*
1,1,$1+$1,$6,$7*
1,1,$1+$1,$8,$9*
0 Add four rect primitives between the rounded corners*
20,1,$1+$1,$2,$3,$4,$5,0*
20,1,$1+$1,$4,$5,$6,$7,0*
20,1,$1+$1,$6,$7,$8,$9,0*
20,1,$1+$1,$8,$9,$2,$3,0*%
G04 Aperture macros list end*
%TA.AperFunction,ComponentPad*%
%ADD10R,1.700000X1.700000*%
%TD*%
%TA.AperFunction,ComponentPad*%
%ADD11O,1.700000X1.700000*%
%TD*%
%TA.AperFunction,ComponentPad*%
%ADD12C,0.400000*%
%TD*%
%TA.AperFunction,ComponentPad*%
%ADD13C,0.800000*%
%TD*%
%TA.AperFunction,ComponentPad*%
%ADD14C,6.400000*%
%TD*%
%TA.AperFunction,ComponentPad*%
%ADD15RoundRect,0.250000X0.600000X0.725000X-0.600000X0.725000X-0.600000X-0.725000X0.600000X-0.725000X0*%
%TD*%
%TA.AperFunction,ComponentPad*%
%ADD16O,1.700000X1.950000*%
%TD*%
%TA.AperFunction,ComponentPad*%
%ADD17O,2.200000X1.200000*%
%TD*%
%TA.AperFunction,ComponentPad*%
%ADD18O,2.700000X1.200000*%
%TD*%
%TA.AperFunction,ComponentPad*%
%ADD19O,2.600000X1.200000*%
%TD*%
%TA.AperFunction,ViaPad*%
%ADD20C,0.600000*%
%TD*%
%TA.AperFunction,Conductor*%
%ADD21C,0.150000*%
%TD*%
%TA.AperFunction,Conductor*%
%ADD22C,0.500000*%
%TD*%
G04 APERTURE END LIST*
D10*
%TO.P,J1,1,Pin_1*%
%TO.N,/mcu/USART1_RX*%
X147319999Y-127099999D03*
D11*
%TO.P,J1,2,Pin_2*%
%TO.N,/mcu/USART1_TX*%
X149859999Y-127099999D03*
%TO.P,J1,3,Pin_3*%
%TO.N,GND*%
X152399999Y-127099999D03*
%TD*%
D12*
%TO.P,U1,28,GND*%
%TO.N,GND*%
X179160000Y-82100000D03*
%TO.P,U1,29,GND*%
X180260000Y-82100000D03*
%TO.P,U1,30,GND*%
X178610000Y-82650000D03*
%TO.P,U1,31,GND*%
X179710000Y-82650000D03*
%TO.P,U1,32,GND*%
X180810000Y-82650000D03*
%TO.P,U1,33,GND*%
X179160000Y-83200000D03*
%TO.P,U1,34,GND*%
X180260000Y-83200000D03*
%TO.P,U1,35,GND*%
X178610000Y-83750000D03*
%TO.P,U1,36,GND*%
X179710000Y-83750000D03*
%TO.P,U1,37,GND*%
X180810000Y-83750000D03*
%TO.P,U1,38,GND*%
X179160000Y-84300000D03*
%TO.P,U1,39,GND*%
X180260000Y-84300000D03*
%TD*%
D13*
%TO.P,H4,1*%
%TO.N,N/C*%
X102600000Y-124000000D03*
X103302944Y-122302944D03*
X103302944Y-125697056D03*
X105000000Y-121600000D03*
D14*
X105000000Y-124000000D03*
D13*
X105000000Y-126400000D03*
X106697056Y-122302944D03*
X106697056Y-125697056D03*
X107400000Y-124000000D03*
%TD*%
D15*
%TO.P,J4,1,Pin_1*%
%TO.N,/comm/CAN_H*%
X138500000Y-73000000D03*
D16*
%TO.P,J4,2,Pin_2*%
%TO.N,/comm/CAN_L*%
X135999999Y-72999999D03*
%TO.P,J4,3,Pin_3*%
%TO.N,GND*%
X133499999Y-72999999D03*
%TD*%
D17*
%TO.P,X1,S1,SHIELD*%
%TO.N,Net-(C13-Pad1)*%
X192639999Y-106319999D03*
%TO.P,X1,S2,SHIELD*%
X192639999Y-97679999D03*
D18*
%TO.P,X1,S3,SHIELD*%
X197999999Y-106319999D03*
D19*
%TO.P,X1,S4,SHIELD*%
X197999999Y-97679999D03*
%TD*%
D10*
%TO.P,J3,1,Pin_1*%
%TO.N,+3.3V*%
X149849999Y-70999999D03*
D11*
%TO.P,J3,2,Pin_2*%
%TO.N,/wifi_ble/DTR*%
X152389999Y-70999999D03*
%TO.P,J3,3,Pin_3*%
%TO.N,GND*%
X154929999Y-70999999D03*
%TO.P,J3,4,Pin_4*%
%TO.N,/wifi_ble/RTS*%
X157469999Y-70999999D03*
%TO.P,J3,5,Pin_5*%
%TO.N,/wifi_ble/ESP_TX*%
X160009999Y-70999999D03*
%TO.P,J3,6,Pin_6*%
%TO.N,/wifi_ble/ESP_RX*%
X162549999Y-70999999D03*
%TD*%
D13*
%TO.P,H2,1*%
%TO.N,N/C*%
X192600000Y-74000000D03*
X193302944Y-72302944D03*
X193302944Y-75697056D03*
X195000000Y-71600000D03*
D14*
X195000000Y-74000000D03*
D13*
X195000000Y-76400000D03*
X196697056Y-72302944D03*
X196697056Y-75697056D03*
X197400000Y-74000000D03*
%TD*%
%TO.P,H3,1*%
%TO.N,N/C*%
X192600000Y-124000000D03*
X193302944Y-122302944D03*
X193302944Y-125697056D03*
X195000000Y-121600000D03*
D14*
X195000000Y-124000000D03*
D13*
X195000000Y-126400000D03*
X196697056Y-122302944D03*
X196697056Y-125697056D03*
X197400000Y-124000000D03*
%TD*%
D15*
%TO.P,J5,1,Pin_1*%
%TO.N,/comm/RS485_B*%
X125900000Y-73000000D03*
D16*
%TO.P,J5,2,Pin_2*%
%TO.N,/comm/RS485_A*%
X123399999Y-72999999D03*
%TO.P,J5,3,Pin_3*%
%TO.N,GND*%
X120899999Y-72999999D03*
%TD*%
D10*
%TO.P,J2,1,Pin_1*%
%TO.N,+3.3V*%
X158699999Y-127099999D03*
D11*
%TO.P,J2,2,Pin_2*%
%TO.N,/mcu/SWCLK*%
X161239999Y-127099999D03*
%TO.P,J2,3,Pin_3*%
%TO.N,GND*%
X163779999Y-127099999D03*
%TO.P,J2,4,Pin_4*%
%TO.N,/mcu/SWDIO*%
X166319999Y-127099999D03*
%TO.P,J2,5,Pin_5*%
%TO.N,/mcu/NRST*%
X168859999Y-127099999D03*
%TO.P,J2,6,Pin_6*%
%TO.N,/mcu/SWO*%
X171399999Y-127099999D03*
%TD*%
D13*
%TO.P,H1,1*%
%TO.N,N/C*%
X102600000Y-74000000D03*
X103302944Y-72302944D03*
X103302944Y-75697056D03*
X105000000Y-71600000D03*
D14*
X105000000Y-74000000D03*
D13*
X105000000Y-76400000D03*
X106697056Y-72302944D03*
X106697056Y-75697056D03*
X107400000Y-74000000D03*
%TD*%
D20*
%TO.N,ACC_INT*%
X170400000Y-111000000D03*
X168900000Y-109500000D03*
%TO.N,GND*%
X114251044Y-98076567D03*
%TO.N,I2C1_SDA*%
X155600000Y-103500000D03*
%TO.N,I2C1_SCL*%
X157700000Y-103600000D03*
X158614406Y-96119476D03*
%TO.N,I2C1_SDA*%
X155600000Y-96100000D03*
X144800000Y-108600000D03*
%TO.N,I2C1_SCL*%
X146000000Y-108600000D03*
%TO.N,GND*%
X185200000Y-113200000D03*
%TO.N,/mcu/USER*%
X175700000Y-107000000D03*
X172200000Y-122300000D03*
%TO.N,GND*%
X115076269Y-84891938D03*
X114063880Y-86155298D03*
%TO.N,+5V*%
X136982166Y-93774328D03*
X189400000Y-101300000D03*
X198600000Y-108700000D03*
X108700000Y-88900000D03*
X198600000Y-109800000D03*
X191200000Y-103500000D03*
X191300000Y-100500000D03*
%TO.N,+3.3V*%
X134400000Y-125410000D03*
X146877611Y-98520000D03*
X169743684Y-100347445D03*
X153170895Y-100503881D03*
X188200000Y-113200000D03*
X139170223Y-99669851D03*
X166000000Y-86000000D03*
X171409073Y-118728029D03*
X168222144Y-80297231D03*
X173891529Y-115034550D03*
X144160508Y-96357987D03*
X163434337Y-102075010D03*
X159200000Y-114400000D03*
X129600000Y-111600000D03*
X120041458Y-86618799D03*
X116300000Y-106400000D03*
X188800000Y-114800000D03*
X130700000Y-104100000D03*
X130700000Y-101000000D03*
X160800000Y-99500000D03*
X149249700Y-102340348D03*
X175720000Y-107800000D03*
X130700000Y-106700000D03*
X139633323Y-86661716D03*
X117100000Y-99100000D03*
X157584925Y-96125671D03*
X165200070Y-75228061D03*
X133580000Y-114700000D03*
%TO.N,GND*%
X145400000Y-89000000D03*
X119800000Y-125300000D03*
X181174755Y-114350910D03*
X184800000Y-114700000D03*
X192600000Y-93988663D03*
X197800000Y-118600000D03*
X127100000Y-125410000D03*
X196200000Y-118600000D03*
X173900000Y-116600000D03*
X139633323Y-87661219D03*
X139160099Y-98722487D03*
X181183332Y-111850620D03*
X146860221Y-99470223D03*
X168300000Y-118900000D03*
X120058764Y-87618152D03*
X177400000Y-106200000D03*
X178100000Y-109700000D03*
X145400000Y-90700000D03*
X184600000Y-101300000D03*
X104400000Y-93000000D03*
X126400000Y-88300000D03*
X164414337Y-102080336D03*
X144900000Y-100100000D03*
X186600000Y-104000000D03*
X175740224Y-108776567D03*
X167040598Y-80253165D03*
X190900000Y-99000000D03*
X166300000Y-73200000D03*
X171282032Y-100359902D03*
X160790614Y-100456729D03*
X192600000Y-91388663D03*
X150211045Y-102351691D03*
X116300000Y-104200000D03*
X165800000Y-100000000D03*
X124600000Y-84400000D03*
X135500000Y-82400000D03*
X190500000Y-104400000D03*
X185791716Y-95126591D03*
X159200000Y-113400000D03*
X168500000Y-89000000D03*
X170429073Y-118746985D03*
X150000000Y-96800000D03*
X118980000Y-114700000D03*
X154600000Y-99500000D03*
X126280000Y-114700000D03*
X134761716Y-93519104D03*
X101800000Y-93000000D03*
X195300000Y-108500000D03*
X136982166Y-94801605D03*
X145400000Y-87300000D03*
X186600126Y-97020430D03*
X131980288Y-88592573D03*
%TO.N,Net-(C13-Pad1)*%
X197972148Y-91700000D03*
X197972148Y-94300000D03*
%TO.N,/mcu/USER*%
X126280000Y-115700000D03*
%TO.N,/mcu/BOOT0*%
X133580000Y-115700000D03*
%TO.N,ACC_INT*%
X171700000Y-113636886D03*
X148600000Y-96800000D03*
%TO.N,ACC_CS*%
X153170895Y-99488656D03*
X166200000Y-108400000D03*
%TO.N,BARO_CS*%
X144135721Y-97381094D03*
X164900000Y-107800000D03*
%TO.N,SDIO_DET*%
X168000000Y-107200000D03*
X118000000Y-100900000D03*
%TO.N,SPI1_CLK*%
X164100000Y-94000000D03*
X154200000Y-94000000D03*
%TO.N,SPI1_MISO*%
X164000000Y-95000000D03*
X150750000Y-95200000D03*
%TO.N,SPI1_MOSI*%
X153300000Y-96100000D03*
X164000000Y-95900000D03*
X147400000Y-96100000D03*
%TO.N,USART3_RX*%
X121000000Y-92100000D03*
X164000000Y-96700000D03*
%TO.N,CAN_STB*%
X131980289Y-85877886D03*
X165156716Y-106054626D03*
%TO.N,BUZZER*%
X112240596Y-87091120D03*
X163296182Y-107650174D03*
%TO.N,SDIO_D2*%
X140000000Y-109700000D03*
X130600000Y-109700000D03*
%TO.N,/mcu/USART1_RX*%
X147367331Y-114789774D03*
%TO.N,USB_N*%
X182900000Y-100875000D03*
X155099479Y-113299479D03*
%TO.N,USB_P*%
X155700521Y-113900521D03*
X182900000Y-101725000D03*
%TO.N,/mcu/SWDIO*%
X162000000Y-117100000D03*
%TO.N,/mcu/SWCLK*%
X163300000Y-124100000D03*
X163657863Y-117829357D03*
%TO.N,/mcu/USART1_TX*%
X152700000Y-117800000D03*
%TO.N,USART3_TX*%
X126400000Y-93700000D03*
X164647206Y-114020430D03*
%TO.N,RS485_DE*%
X124500000Y-93800000D03*
X165900000Y-114025500D03*
%TO.N,/mcu/SWO*%
X166649475Y-119300000D03*
%TO.N,SDIO_D0*%
X159800000Y-116300000D03*
X167155545Y-114639837D03*
%TO.N,I2C1_SCL*%
X164400000Y-111400000D03*
%TO.N,I2C1_SDA*%
X165700000Y-110600000D03*
%TO.N,CAN1_RX*%
X138492578Y-92067320D03*
X164600000Y-109900000D03*
%TO.N,CAN1_TX*%
X163600000Y-109300000D03*
X132013324Y-92066687D03*
%TO.N,/usb/USB_CON_N*%
X194400000Y-102500000D03*
X191300000Y-101700000D03*
%TO.N,/wifi_ble/ESP_TX*%
X189000000Y-86000000D03*
%TO.N,/wifi_ble/ESP_RX*%
X189000000Y-87500000D03*
%TO.N,Net-(X1-CC2)*%
X188400000Y-97900000D03*
X194300000Y-100700000D03*
%TD*%
D21*
%TO.N,/mcu/USART1_TX*%
X149915000Y-118685000D02*
X149915000Y-126900000D01*
X150800000Y-117800000D02*
X149915000Y-118685000D01*
X152700000Y-117800000D02*
X150800000Y-117800000D01*
D22*
%TO.N,+5V*%
X108700000Y-101900000D02*
X108700000Y-88900000D01*
X110000000Y-103200000D02*
X108700000Y-101900000D01*
X122000000Y-103200000D02*
X110000000Y-103200000D01*
X124700000Y-91300000D02*
X123200000Y-92800000D01*
X132800000Y-94500000D02*
X129600000Y-91300000D01*
X129600000Y-91300000D02*
X124700000Y-91300000D01*
X123200000Y-92800000D02*
X123200000Y-102000000D01*
X135300000Y-94500000D02*
X132800000Y-94500000D01*
X123200000Y-102000000D02*
X122000000Y-103200000D01*
X136982166Y-93774328D02*
X136025672Y-93774328D01*
X136025672Y-93774328D02*
X135300000Y-94500000D01*
D21*
%TO.N,RS485_DE*%
X124500000Y-92900000D02*
X124500000Y-93800000D01*
X124800000Y-92600000D02*
X124500000Y-92900000D01*
X129400000Y-92600000D02*
X124800000Y-92600000D01*
X136050000Y-99250000D02*
X129400000Y-92600000D01*
X136050000Y-103050000D02*
X136050000Y-99250000D01*
X146500000Y-113500000D02*
X136050000Y-103050000D01*
X148400000Y-113500000D02*
X146500000Y-113500000D01*
X149875000Y-114975000D02*
X148400000Y-113500000D01*
X159438173Y-114975000D02*
X149875000Y-114975000D01*
X166900000Y-113400000D02*
X161000000Y-113400000D01*
X167000000Y-113900000D02*
X167000000Y-113500000D01*
X160000000Y-114413173D02*
X159438173Y-114975000D01*
X166874500Y-114025500D02*
X167000000Y-113900000D01*
X167000000Y-113500000D02*
X166900000Y-113400000D01*
X165900000Y-114025500D02*
X166874500Y-114025500D01*
X161000000Y-113400000D02*
X160000000Y-114400000D01*
X160000000Y-114400000D02*
X160000000Y-114413173D01*
%TO.N,USART3_TX*%
X148200000Y-114100000D02*
X149600000Y-115500000D01*
X149600000Y-115500000D02*
X159600000Y-115500000D01*
X159600000Y-115500000D02*
X161079570Y-114020430D01*
X134900000Y-98900000D02*
X134900000Y-102800000D01*
X161079570Y-114020430D02*
X164647206Y-114020430D01*
X134900000Y-102800000D02*
X146200000Y-114100000D01*
X129700000Y-93700000D02*
X134900000Y-98900000D01*
X146200000Y-114100000D02*
X148200000Y-114100000D01*
X126400000Y-93700000D02*
X129700000Y-93700000D01*
D22*
%TO.N,+5V*%
X108700000Y-84500000D02*
X108700000Y-88900000D01*
X150200000Y-90300000D02*
X143050000Y-83150000D01*
X167800000Y-90300000D02*
X150200000Y-90300000D01*
X110050000Y-83150000D02*
X108700000Y-84500000D01*
X187100000Y-98400000D02*
X175900000Y-98400000D01*
X175900000Y-98400000D02*
X167800000Y-90300000D01*
X143050000Y-83150000D02*
X110050000Y-83150000D01*
X189400000Y-100700000D02*
X187100000Y-98400000D01*
X189400000Y-101300000D02*
X189400000Y-100700000D01*
D21*
%TO.N,ACC_INT*%
X148600000Y-104700000D02*
X148600000Y-96800000D01*
X164500000Y-107200000D02*
X163000000Y-105700000D01*
X149600000Y-105700000D02*
X148600000Y-104700000D01*
X165113173Y-107200000D02*
X164500000Y-107200000D01*
X165475000Y-108925000D02*
X165475000Y-107561827D01*
X163000000Y-105700000D02*
X149600000Y-105700000D01*
X166050000Y-109500000D02*
X165475000Y-108925000D01*
X165475000Y-107561827D02*
X165113173Y-107200000D01*
X168900000Y-109500000D02*
X166050000Y-109500000D01*
X171636886Y-113700000D02*
X171700000Y-113636886D01*
X170400000Y-113200000D02*
X170900000Y-113700000D01*
X170400000Y-111000000D02*
X170400000Y-113200000D01*
X170900000Y-113700000D02*
X171636886Y-113700000D01*
%TO.N,BARO_CS*%
X149775174Y-107075174D02*
X144135721Y-101435721D01*
X163675174Y-107075174D02*
X149775174Y-107075174D01*
X164400000Y-107800000D02*
X163675174Y-107075174D01*
X144135721Y-101435721D02*
X144135721Y-97381094D01*
X164900000Y-107800000D02*
X164400000Y-107800000D01*
%TO.N,USB_N*%
X167002512Y-112450000D02*
X156302513Y-112450000D01*
X182900000Y-100875000D02*
X182650000Y-101125000D01*
X182650000Y-101125000D02*
X178327512Y-101125000D01*
X178327512Y-101125000D02*
X167002512Y-112450000D01*
X156302513Y-112450000D02*
X155453033Y-113299479D01*
X155453033Y-113299479D02*
X155099479Y-113299479D01*
%TO.N,USB_P*%
X182900000Y-101725000D02*
X182650000Y-101475000D01*
X178472488Y-101475000D02*
X167147488Y-112800000D01*
X182650000Y-101475000D02*
X178472488Y-101475000D01*
X155700521Y-113546967D02*
X155700521Y-113900521D01*
X167147488Y-112800000D02*
X156447488Y-112800000D01*
X156447488Y-112800000D02*
X155700521Y-113546967D01*
%TO.N,BUZZER*%
X121900000Y-101000000D02*
X121900000Y-92500000D01*
X120900000Y-102000000D02*
X121900000Y-101000000D01*
X116100000Y-88600000D02*
X116100000Y-101200000D01*
X116900000Y-102000000D02*
X120900000Y-102000000D01*
X114591120Y-87091120D02*
X116100000Y-88600000D01*
X116100000Y-101200000D02*
X116900000Y-102000000D01*
X112240596Y-87091120D02*
X114591120Y-87091120D01*
%TO.N,I2C1_SCL*%
X158614406Y-102085594D02*
X158614406Y-96119476D01*
X157700000Y-103000000D02*
X158614406Y-102085594D01*
X157700000Y-103600000D02*
X157700000Y-103000000D01*
%TO.N,I2C1_SDA*%
X155600000Y-96100000D02*
X155600000Y-103500000D01*
X144800000Y-110000000D02*
X144800000Y-108600000D01*
X146800000Y-112000000D02*
X145500000Y-110700000D01*
X162900000Y-112000000D02*
X146800000Y-112000000D01*
X145500000Y-110700000D02*
X144800000Y-110000000D01*
X165700000Y-111300000D02*
X165200000Y-111800000D01*
X165200000Y-111800000D02*
X165000000Y-112000000D01*
X165000000Y-112000000D02*
X162900000Y-112000000D01*
X165700000Y-110600000D02*
X165700000Y-111300000D01*
%TO.N,I2C1_SCL*%
X146000000Y-110000000D02*
X146000000Y-108600000D01*
X147400000Y-111400000D02*
X146000000Y-110000000D01*
X164400000Y-111400000D02*
X147400000Y-111400000D01*
%TO.N,CAN1_TX*%
X148300000Y-109300000D02*
X163600000Y-109300000D01*
X136666687Y-92066687D02*
X141000000Y-96400000D01*
X141000000Y-102000000D02*
X148300000Y-109300000D01*
X132013324Y-92066687D02*
X136666687Y-92066687D01*
X141000000Y-96400000D02*
X141000000Y-102000000D01*
%TO.N,CAN1_RX*%
X141800000Y-94400000D02*
X139467320Y-92067320D01*
X148700000Y-108500000D02*
X141800000Y-101600000D01*
X139467320Y-92067320D02*
X138492578Y-92067320D01*
X164200000Y-108500000D02*
X148700000Y-108500000D01*
X164600000Y-108900000D02*
X164200000Y-108500000D01*
X141800000Y-101600000D02*
X141800000Y-94400000D01*
X164600000Y-109900000D02*
X164600000Y-108900000D01*
%TO.N,BUZZER*%
X121900000Y-91900000D02*
X121900000Y-92500000D01*
X142400000Y-93500000D02*
X139600000Y-90700000D01*
X123100000Y-90700000D02*
X121900000Y-91900000D01*
X142400000Y-100800000D02*
X142400000Y-93500000D01*
X149250174Y-107650174D02*
X142400000Y-100800000D01*
X139600000Y-90700000D02*
X123100000Y-90700000D01*
X163296182Y-107650174D02*
X149250174Y-107650174D01*
%TO.N,SDIO_DET*%
X119600000Y-89400000D02*
X118000000Y-91000000D01*
X129700000Y-89400000D02*
X119600000Y-89400000D01*
X130300000Y-88800000D02*
X129700000Y-89400000D01*
X130300000Y-84800000D02*
X130300000Y-88800000D01*
X130600000Y-84500000D02*
X130300000Y-84800000D01*
X133100000Y-84500000D02*
X130600000Y-84500000D01*
X133500000Y-84900000D02*
X133100000Y-84500000D01*
X133500000Y-87800000D02*
X133500000Y-84900000D01*
X134200000Y-88500000D02*
X133500000Y-87800000D01*
X118000000Y-91000000D02*
X118000000Y-100900000D01*
X145286827Y-91400000D02*
X142386827Y-88500000D01*
X166500000Y-91400000D02*
X145286827Y-91400000D01*
X142386827Y-88500000D02*
X134200000Y-88500000D01*
X168000000Y-107200000D02*
X168000000Y-92900000D01*
X168000000Y-92900000D02*
X166500000Y-91400000D01*
%TO.N,CAN_STB*%
X132700000Y-88500000D02*
X132700000Y-87100000D01*
X165900000Y-92400000D02*
X144400000Y-92400000D01*
X141300000Y-89300000D02*
X133500000Y-89300000D01*
X166900000Y-102900000D02*
X166900000Y-93400000D01*
X133500000Y-89300000D02*
X132700000Y-88500000D01*
X165156716Y-104643284D02*
X166900000Y-102900000D01*
X165156716Y-106054626D02*
X165156716Y-104643284D01*
X166900000Y-93400000D02*
X165900000Y-92400000D01*
X144400000Y-92400000D02*
X141300000Y-89300000D01*
%TO.N,/mcu/SWO*%
X171400000Y-123000000D02*
X171400000Y-127100000D01*
X167200000Y-121700000D02*
X170100000Y-121700000D01*
X166649475Y-121149475D02*
X167200000Y-121700000D01*
X166649475Y-119300000D02*
X166649475Y-121149475D01*
X170100000Y-121700000D02*
X171400000Y-123000000D01*
%TO.N,/mcu/USER*%
X175600000Y-107100000D02*
X175700000Y-107000000D01*
X174800000Y-107100000D02*
X175600000Y-107100000D01*
X174500000Y-107400000D02*
X174800000Y-107100000D01*
X174500000Y-111500000D02*
X174500000Y-107400000D01*
X175400000Y-112400000D02*
X174500000Y-111500000D01*
X175400000Y-120600000D02*
X175400000Y-112400000D01*
X173700000Y-122300000D02*
X175400000Y-120600000D01*
X172200000Y-122300000D02*
X173700000Y-122300000D01*
%TO.N,/mcu/SWCLK*%
X163657863Y-123742137D02*
X163657863Y-117829357D01*
X163300000Y-124100000D02*
X163657863Y-123742137D01*
%TO.N,/mcu/SWDIO*%
X166320000Y-125600000D02*
X166320000Y-127100000D01*
X162000000Y-124600000D02*
X162300000Y-124900000D01*
X162000000Y-117100000D02*
X162000000Y-124600000D01*
X162300000Y-124900000D02*
X165620000Y-124900000D01*
X165620000Y-124900000D02*
X166320000Y-125600000D01*
%TO.N,BUZZER*%
X121900000Y-92500000D02*
X121900000Y-93200000D01*
%TO.N,ACC_CS*%
X166200000Y-107100000D02*
X166200000Y-108400000D01*
X164700000Y-106800000D02*
X165900000Y-106800000D01*
X154000000Y-103000000D02*
X155200000Y-104200000D01*
X154000000Y-99700000D02*
X154000000Y-103000000D01*
X164400000Y-106500000D02*
X164700000Y-106800000D01*
X153788656Y-99488656D02*
X154000000Y-99700000D01*
X165900000Y-106800000D02*
X166200000Y-107100000D01*
X155200000Y-104200000D02*
X163300000Y-104200000D01*
X153170895Y-99488656D02*
X153788656Y-99488656D01*
X163300000Y-104200000D02*
X164400000Y-105300000D01*
X164400000Y-105300000D02*
X164400000Y-106500000D01*
%TO.N,SPI1_CLK*%
X164100000Y-94000000D02*
X154200000Y-94000000D01*
%TO.N,SPI1_MISO*%
X150900000Y-94600000D02*
X162400000Y-94600000D01*
X150750000Y-95200000D02*
X150750000Y-94750000D01*
X162800000Y-95000000D02*
X164000000Y-95000000D01*
X162400000Y-94600000D02*
X162800000Y-95000000D01*
X150750000Y-94750000D02*
X150900000Y-94600000D01*
%TO.N,SPI1_MOSI*%
X147400000Y-96100000D02*
X153300000Y-96100000D01*
X161600000Y-95200000D02*
X153800000Y-95200000D01*
X164000000Y-95900000D02*
X162300000Y-95900000D01*
X162300000Y-95900000D02*
X161600000Y-95200000D01*
X153800000Y-95200000D02*
X153300000Y-95700000D01*
X153300000Y-95700000D02*
X153300000Y-96100000D01*
%TO.N,USART3_RX*%
X121000000Y-91900000D02*
X121000000Y-92100000D01*
X121100000Y-90300000D02*
X121000000Y-90400000D01*
X164000000Y-96700000D02*
X164900000Y-96700000D01*
X165100000Y-93600000D02*
X164700000Y-93200000D01*
X164700000Y-93200000D02*
X163600000Y-93200000D01*
X125000000Y-90100000D02*
X121300000Y-90100000D01*
X143100000Y-93200000D02*
X140000000Y-90100000D01*
X140000000Y-90100000D02*
X125000000Y-90100000D01*
X165200000Y-96400000D02*
X165200000Y-93700000D01*
X164900000Y-96700000D02*
X165200000Y-96400000D01*
X121000000Y-90400000D02*
X121000000Y-91900000D01*
X163600000Y-93200000D02*
X143100000Y-93200000D01*
X165200000Y-93700000D02*
X165100000Y-93600000D01*
X121300000Y-90100000D02*
X121100000Y-90300000D01*
%TO.N,CAN_STB*%
X132700000Y-85300000D02*
X132500000Y-85100000D01*
X132500000Y-85100000D02*
X132200000Y-85100000D01*
X132700000Y-87600000D02*
X132700000Y-87100000D01*
X132700000Y-87100000D02*
X132700000Y-85300000D01*
X131980289Y-85877886D02*
X131980289Y-85319711D01*
X131980289Y-85319711D02*
X132200000Y-85100000D01*
%TO.N,SDIO_D2*%
X140000000Y-109700000D02*
X130600000Y-109700000D01*
%TO.N,/mcu/USART1_RX*%
X147367331Y-114789774D02*
X147375000Y-114797443D01*
X147375000Y-114797443D02*
X147375000Y-126900000D01*
%TO.N,SDIO_D0*%
X159800000Y-116300000D02*
X161700000Y-116300000D01*
X167115708Y-114600000D02*
X167155545Y-114639837D01*
X161700000Y-116300000D02*
X163400000Y-114600000D01*
X163400000Y-114600000D02*
X167115708Y-114600000D01*
%TO.N,/usb/USB_CON_N*%
X193600000Y-101700000D02*
X191300000Y-101700000D01*
X194400000Y-102500000D02*
X193600000Y-101700000D01*
%TO.N,/wifi_ble/ESP_TX*%
X169600000Y-88300000D02*
X189900000Y-88300000D01*
X160010000Y-78710000D02*
X169600000Y-88300000D01*
X160010000Y-71000000D02*
X160010000Y-78710000D01*
X190500000Y-87700000D02*
X190500000Y-86200000D01*
X190500000Y-86200000D02*
X190300000Y-86000000D01*
X189900000Y-88300000D02*
X190500000Y-87700000D01*
X190300000Y-86000000D02*
X189000000Y-86000000D01*
%TO.N,/wifi_ble/ESP_RX*%
X162550000Y-71000000D02*
X162550000Y-80050000D01*
X170000000Y-87500000D02*
X189000000Y-87500000D01*
X162550000Y-80050000D02*
X170000000Y-87500000D01*
%TO.N,Net-(X1-CC2)*%
X193200000Y-99600000D02*
X194300000Y-100700000D01*
X190100000Y-99600000D02*
X193200000Y-99600000D01*
X188400000Y-97900000D02*
X190100000Y-99600000D01*
%TD*%
%TA.AperFunction,Conductor*%
%TO.N,Net-(C13-Pad1)*%
G36*
X199937500Y-90316613D02*
G01*
X199982887Y-90362000D01*
X199999500Y-90424000D01*
X199999500Y-107076000D01*
X199982887Y-107138000D01*
X199937500Y-107183387D01*
X199875500Y-107200000D01*
X191424000Y-107200000D01*
X191362000Y-107183387D01*
X191316613Y-107138000D01*
X191300000Y-107076000D01*
X191300000Y-105624000D01*
X191316613Y-105562000D01*
X191362000Y-105516613D01*
X191424000Y-105500000D01*
X196583674Y-105500000D01*
X196600000Y-105500000D01*
X196600000Y-98700000D01*
X196583674Y-98700000D01*
X191424842Y-98700000D01*
X191370006Y-98687216D01*
X191326477Y-98651500D01*
X191325635Y-98650403D01*
X191306583Y-98614770D01*
X191300000Y-98574903D01*
X191300000Y-96824000D01*
X191316613Y-96762000D01*
X191362000Y-96716613D01*
X191424000Y-96700000D01*
X196483674Y-96700000D01*
X196500000Y-96700000D01*
X196500000Y-90424000D01*
X196516613Y-90362000D01*
X196562000Y-90316613D01*
X196624000Y-90300000D01*
X199875500Y-90300000D01*
X199937500Y-90316613D01*
G37*
%TD.AperFunction*%
%TD*%
%TA.AperFunction,Conductor*%
%TO.N,+5V*%
G36*
X191596091Y-100009439D02*
G01*
X191636319Y-100036319D01*
X191663681Y-100063681D01*
X191690561Y-100103909D01*
X191700000Y-100151362D01*
X191700000Y-100876000D01*
X191683387Y-100938000D01*
X191638000Y-100983387D01*
X191576000Y-101000000D01*
X190700000Y-101000000D01*
X190700000Y-102100000D01*
X190800000Y-102200000D01*
X191043917Y-102200000D01*
X191091369Y-102209439D01*
X191156291Y-102236330D01*
X191300000Y-102255250D01*
X191443709Y-102236330D01*
X191446709Y-102235087D01*
X191500193Y-102233337D01*
X191551487Y-102256579D01*
X191587212Y-102300111D01*
X191600000Y-102354954D01*
X191600000Y-103776000D01*
X191583387Y-103838000D01*
X191538000Y-103883387D01*
X191476000Y-103900000D01*
X191000000Y-103900000D01*
X191000000Y-103905974D01*
X190990021Y-103915953D01*
X190980207Y-103933612D01*
X190929563Y-103966263D01*
X190869507Y-103971187D01*
X190814221Y-103947219D01*
X190784076Y-103924088D01*
X190784070Y-103924084D01*
X190777625Y-103919139D01*
X190691311Y-103883387D01*
X190651223Y-103866782D01*
X190651220Y-103866781D01*
X190643709Y-103863670D01*
X190635649Y-103862608D01*
X190635646Y-103862608D01*
X190508059Y-103845811D01*
X190500000Y-103844750D01*
X190491941Y-103845811D01*
X190364353Y-103862608D01*
X190364348Y-103862609D01*
X190356291Y-103863670D01*
X190348781Y-103866780D01*
X190348776Y-103866782D01*
X190229885Y-103916028D01*
X190229883Y-103916029D01*
X190222375Y-103919139D01*
X190215933Y-103924082D01*
X190215928Y-103924085D01*
X190113821Y-104002435D01*
X190113817Y-104002438D01*
X190107379Y-104007379D01*
X190102438Y-104013817D01*
X190102435Y-104013821D01*
X190024085Y-104115928D01*
X190024082Y-104115933D01*
X190019139Y-104122375D01*
X190016029Y-104129883D01*
X190016028Y-104129885D01*
X189966782Y-104248776D01*
X189966780Y-104248781D01*
X189963670Y-104256291D01*
X189962609Y-104264348D01*
X189962608Y-104264353D01*
X189945811Y-104391941D01*
X189944750Y-104400000D01*
X189963670Y-104543709D01*
X190019139Y-104677625D01*
X190107379Y-104792621D01*
X190222375Y-104880861D01*
X190356291Y-104936330D01*
X190500000Y-104955250D01*
X190643709Y-104936330D01*
X190777625Y-104880861D01*
X190800512Y-104863298D01*
X190863845Y-104838271D01*
X190930843Y-104850461D01*
X190981301Y-104896193D01*
X191000000Y-104961674D01*
X191000000Y-109000000D01*
X191016326Y-109000000D01*
X195043917Y-109000000D01*
X195091369Y-109009439D01*
X195156291Y-109036330D01*
X195300000Y-109055250D01*
X195443709Y-109036330D01*
X195508630Y-109009439D01*
X195556083Y-109000000D01*
X197783674Y-109000000D01*
X197800000Y-109000000D01*
X197800000Y-107824000D01*
X197816613Y-107762000D01*
X197862000Y-107716613D01*
X197924000Y-107700000D01*
X199276000Y-107700000D01*
X199338000Y-107716613D01*
X199383387Y-107762000D01*
X199400000Y-107824000D01*
X199400000Y-110276000D01*
X199383387Y-110338000D01*
X199338000Y-110383387D01*
X199276000Y-110400000D01*
X188924000Y-110400000D01*
X188862000Y-110383387D01*
X188816613Y-110338000D01*
X188800000Y-110276000D01*
X188800000Y-100251362D01*
X188809439Y-100203909D01*
X188836319Y-100163681D01*
X188963681Y-100036319D01*
X189003909Y-100009439D01*
X189051362Y-100000000D01*
X191548638Y-100000000D01*
X191596091Y-100009439D01*
G37*
%TD.AperFunction*%
%TD*%
M02*
