%TF.GenerationSoftware,KiCad,Pcbnew,(7.0.0)*%
%TF.CreationDate,2023-05-17T20:16:57-03:00*%
%TF.ProjectId,d3vk1t,6433766b-3174-42e6-9b69-6361645f7063,rev?*%
%TF.SameCoordinates,Original*%
%TF.FileFunction,Soldermask,Top*%
%TF.FilePolarity,Negative*%
%FSLAX46Y46*%
G04 Gerber Fmt 4.6, Leading zero omitted, Abs format (unit mm)*
G04 Created by KiCad (PCBNEW (7.0.0)) date 2023-05-17 20:16:57*
%MOMM*%
%LPD*%
G01*
G04 APERTURE LIST*
G04 Aperture macros list*
%AMRoundRect*
0 Rectangle with rounded corners*
0 $1 Rounding radius*
0 $2 $3 $4 $5 $6 $7 $8 $9 X,Y pos of 4 corners*
0 Add a 4 corners polygon primitive as box body*
4,1,4,$2,$3,$4,$5,$6,$7,$8,$9,$2,$3,0*
0 Add four circle primitives for the rounded corners*
1,1,$1+$1,$2,$3*
1,1,$1+$1,$4,$5*
1,1,$1+$1,$6,$7*
1,1,$1+$1,$8,$9*
0 Add four rect primitives between the rounded corners*
20,1,$1+$1,$2,$3,$4,$5,0*
20,1,$1+$1,$4,$5,$6,$7,0*
20,1,$1+$1,$6,$7,$8,$9,0*
20,1,$1+$1,$8,$9,$2,$3,0*%
G04 Aperture macros list end*
%ADD10R,1.700000X1.700000*%
%ADD11O,1.700000X1.700000*%
%ADD12RoundRect,0.140000X0.140000X0.170000X-0.140000X0.170000X-0.140000X-0.170000X0.140000X-0.170000X0*%
%ADD13RoundRect,0.135000X-0.185000X0.135000X-0.185000X-0.135000X0.185000X-0.135000X0.185000X0.135000X0*%
%ADD14R,1.500000X0.900000*%
%ADD15R,0.700000X0.700000*%
%ADD16RoundRect,0.140000X0.170000X-0.140000X0.170000X0.140000X-0.170000X0.140000X-0.170000X-0.140000X0*%
%ADD17RoundRect,0.140000X-0.170000X0.140000X-0.170000X-0.140000X0.170000X-0.140000X0.170000X0.140000X0*%
%ADD18R,2.000000X1.100000*%
%ADD19R,2.180000X1.600000*%
%ADD20R,1.600000X2.180000*%
%ADD21RoundRect,0.150000X-0.512500X-0.150000X0.512500X-0.150000X0.512500X0.150000X-0.512500X0.150000X0*%
%ADD22RoundRect,0.135000X-0.135000X-0.185000X0.135000X-0.185000X0.135000X0.185000X-0.135000X0.185000X0*%
%ADD23RoundRect,0.140000X-0.140000X-0.170000X0.140000X-0.170000X0.140000X0.170000X-0.140000X0.170000X0*%
%ADD24RoundRect,0.147500X0.147500X-0.727500X0.147500X0.727500X-0.147500X0.727500X-0.147500X-0.727500X0*%
%ADD25RoundRect,0.075000X0.700000X0.075000X-0.700000X0.075000X-0.700000X-0.075000X0.700000X-0.075000X0*%
%ADD26RoundRect,0.075000X0.075000X0.700000X-0.075000X0.700000X-0.075000X-0.700000X0.075000X-0.700000X0*%
%ADD27RoundRect,0.250000X0.475000X-0.250000X0.475000X0.250000X-0.475000X0.250000X-0.475000X-0.250000X0*%
%ADD28RoundRect,0.250000X0.650000X-0.325000X0.650000X0.325000X-0.650000X0.325000X-0.650000X-0.325000X0*%
%ADD29R,0.900000X0.800000*%
%ADD30RoundRect,0.250000X-0.312500X-0.625000X0.312500X-0.625000X0.312500X0.625000X-0.312500X0.625000X0*%
%ADD31RoundRect,0.135000X0.185000X-0.135000X0.185000X0.135000X-0.185000X0.135000X-0.185000X-0.135000X0*%
%ADD32C,0.800000*%
%ADD33C,6.400000*%
%ADD34R,0.701040X0.800100*%
%ADD35R,0.350000X0.430000*%
%ADD36R,0.430000X0.350000*%
%ADD37R,1.800000X1.000000*%
%ADD38RoundRect,0.225000X0.250000X-0.225000X0.250000X0.225000X-0.250000X0.225000X-0.250000X-0.225000X0*%
%ADD39RoundRect,0.225000X-0.250000X0.225000X-0.250000X-0.225000X0.250000X-0.225000X0.250000X0.225000X0*%
%ADD40RoundRect,0.250000X0.600000X0.725000X-0.600000X0.725000X-0.600000X-0.725000X0.600000X-0.725000X0*%
%ADD41O,1.700000X1.950000*%
%ADD42RoundRect,0.135000X0.135000X0.185000X-0.135000X0.185000X-0.135000X-0.185000X0.135000X-0.185000X0*%
%ADD43R,0.700000X0.300000*%
%ADD44R,0.700000X1.000000*%
%ADD45O,2.200000X1.200000*%
%ADD46O,2.700000X1.200000*%
%ADD47O,2.600000X1.200000*%
%ADD48RoundRect,0.225000X0.225000X0.250000X-0.225000X0.250000X-0.225000X-0.250000X0.225000X-0.250000X0*%
%ADD49RoundRect,0.250000X-0.625000X0.312500X-0.625000X-0.312500X0.625000X-0.312500X0.625000X0.312500X0*%
%ADD50RoundRect,0.021000X-0.409000X-0.189000X0.409000X-0.189000X0.409000X0.189000X-0.409000X0.189000X0*%
%ADD51R,1.500000X2.400000*%
%ADD52C,1.200000*%
%ADD53R,1.800000X0.700000*%
%ADD54R,1.800000X1.600000*%
%ADD55R,2.600000X1.600000*%
%ADD56R,1.800000X2.000000*%
%ADD57R,0.350000X0.600000*%
%ADD58R,0.600000X0.350000*%
%ADD59RoundRect,0.225000X-0.225000X-0.250000X0.225000X-0.250000X0.225000X0.250000X-0.225000X0.250000X0*%
%ADD60RoundRect,0.250000X0.325000X0.650000X-0.325000X0.650000X-0.325000X-0.650000X0.325000X-0.650000X0*%
%ADD61R,2.000000X1.500000*%
%ADD62R,2.000000X3.800000*%
%ADD63R,2.000000X2.000000*%
G04 APERTURE END LIST*
%TO.C,G\u002A\u002A\u002A*%
G36*
X182745475Y-123367317D02*
G01*
X182771670Y-123376386D01*
X182850514Y-123427852D01*
X182889389Y-123504587D01*
X182895837Y-123570179D01*
X182874382Y-123651274D01*
X182818773Y-123711295D01*
X182742146Y-123745563D01*
X182657633Y-123749398D01*
X182578370Y-123718120D01*
X182549854Y-123693441D01*
X182502376Y-123613558D01*
X182496234Y-123530587D01*
X182524452Y-123454504D01*
X182580050Y-123395282D01*
X182656050Y-123362895D01*
X182745475Y-123367317D01*
G37*
G36*
X182883307Y-121507394D02*
G01*
X183198996Y-121557724D01*
X183469828Y-121641900D01*
X183591729Y-121696749D01*
X183670126Y-121752103D01*
X183711276Y-121813809D01*
X183721649Y-121877284D01*
X183701434Y-121958440D01*
X183649298Y-122014886D01*
X183578008Y-122044451D01*
X183500328Y-122044966D01*
X183429026Y-122014261D01*
X183376866Y-121950165D01*
X183371220Y-121936852D01*
X183329569Y-121890552D01*
X183247196Y-121848586D01*
X183133364Y-121812720D01*
X182997334Y-121784721D01*
X182848368Y-121766356D01*
X182695728Y-121759392D01*
X182548676Y-121765594D01*
X182501699Y-121771002D01*
X182308527Y-121803360D01*
X182164552Y-121840960D01*
X182069173Y-121884008D01*
X182021792Y-121932710D01*
X182020059Y-121936852D01*
X181970412Y-122005241D01*
X181895211Y-122042839D01*
X181810805Y-122046228D01*
X181733538Y-122011994D01*
X181719679Y-121999635D01*
X181678325Y-121926237D01*
X181674374Y-121839412D01*
X181708344Y-121759559D01*
X181713423Y-121753242D01*
X181758524Y-121718698D01*
X181834840Y-121677694D01*
X181925926Y-121639053D01*
X181926774Y-121638739D01*
X182241106Y-121547889D01*
X182561981Y-121504112D01*
X182883307Y-121507394D01*
G37*
G36*
X181434857Y-122069369D02*
G01*
X181495606Y-122125102D01*
X181518997Y-122211905D01*
X181519099Y-122220019D01*
X181511038Y-122306536D01*
X181480168Y-122360676D01*
X181415118Y-122397969D01*
X181379345Y-122410862D01*
X181291549Y-122463498D01*
X181204466Y-122557999D01*
X181121616Y-122686261D01*
X181046519Y-122840180D01*
X180982695Y-123011650D01*
X180933666Y-123192566D01*
X180902951Y-123374825D01*
X180893866Y-123528559D01*
X180898547Y-123624492D01*
X180913478Y-123677321D01*
X180929112Y-123691381D01*
X180973478Y-123731871D01*
X181000637Y-123800527D01*
X181004162Y-123876640D01*
X180996293Y-123907896D01*
X180945211Y-123984099D01*
X180871707Y-124020781D01*
X180786812Y-124015649D01*
X180704111Y-123968635D01*
X180676083Y-123942792D01*
X180657144Y-123915817D01*
X180645508Y-123877949D01*
X180639387Y-123819431D01*
X180636997Y-123730502D01*
X180636551Y-123601404D01*
X180636550Y-123599522D01*
X180651815Y-123297626D01*
X180699804Y-123025619D01*
X180783381Y-122773226D01*
X180905410Y-122530170D01*
X180958539Y-122444160D01*
X181065058Y-122290791D01*
X181162943Y-122172237D01*
X181248956Y-122091832D01*
X181319857Y-122052907D01*
X181341929Y-122049684D01*
X181434857Y-122069369D01*
G37*
G36*
X182802375Y-121996211D02*
G01*
X182866248Y-122037172D01*
X182964891Y-122090697D01*
X183030434Y-122099733D01*
X183128485Y-122122756D01*
X183213285Y-122183816D01*
X183271178Y-122270904D01*
X183286512Y-122324955D01*
X183288433Y-122367781D01*
X183279302Y-122418758D01*
X183256093Y-122486338D01*
X183215783Y-122578973D01*
X183155345Y-122705117D01*
X183137531Y-122741272D01*
X183075479Y-122861684D01*
X183015937Y-122968140D01*
X182964468Y-123051317D01*
X182926635Y-123101890D01*
X182917329Y-123110386D01*
X182842994Y-123138894D01*
X182724362Y-123150451D01*
X182695640Y-123150768D01*
X182568014Y-123142488D01*
X182485174Y-123117345D01*
X182473950Y-123110386D01*
X182442468Y-123074010D01*
X182395323Y-123001633D01*
X182338079Y-122902579D01*
X182276297Y-122786172D01*
X182253748Y-122741272D01*
X182188037Y-122605841D01*
X182143177Y-122505943D01*
X182116144Y-122433127D01*
X182103914Y-122378940D01*
X182103461Y-122334930D01*
X182104767Y-122324955D01*
X182142280Y-122228748D01*
X182214131Y-122152034D01*
X182306664Y-122106822D01*
X182360846Y-122099733D01*
X182466698Y-122075337D01*
X182525031Y-122037172D01*
X182620881Y-121984486D01*
X182695640Y-121974610D01*
X182802375Y-121996211D01*
G37*
G36*
X184113626Y-122072881D02*
G01*
X184198772Y-122141223D01*
X184297374Y-122252835D01*
X184407582Y-122405844D01*
X184432740Y-122444160D01*
X184569113Y-122686372D01*
X184666018Y-122934272D01*
X184726317Y-123198137D01*
X184752875Y-123488242D01*
X184754729Y-123599522D01*
X184754296Y-123729176D01*
X184751940Y-123818540D01*
X184745877Y-123877374D01*
X184734319Y-123915436D01*
X184715481Y-123942487D01*
X184687576Y-123968284D01*
X184687168Y-123968635D01*
X184600265Y-124018415D01*
X184513887Y-124018374D01*
X184455791Y-123989677D01*
X184402945Y-123926100D01*
X184384960Y-123845456D01*
X184401388Y-123764888D01*
X184451780Y-123701538D01*
X184463529Y-123693810D01*
X184485958Y-123653669D01*
X184496384Y-123566245D01*
X184497238Y-123518638D01*
X184486374Y-123362555D01*
X184456379Y-123196345D01*
X184410641Y-123027952D01*
X184352548Y-122865320D01*
X184285490Y-122716391D01*
X184212856Y-122589110D01*
X184138033Y-122491419D01*
X184064411Y-122431263D01*
X184027428Y-122417391D01*
X183936121Y-122379970D01*
X183884534Y-122312111D01*
X183871797Y-122235581D01*
X183892376Y-122144499D01*
X183947858Y-122079362D01*
X184028866Y-122050307D01*
X184043783Y-122049684D01*
X184113626Y-122072881D01*
G37*
G36*
X184457944Y-124274203D02*
G01*
X184520095Y-124333435D01*
X184547129Y-124417809D01*
X184547462Y-124428898D01*
X184530345Y-124501378D01*
X184483004Y-124599313D01*
X184411459Y-124713640D01*
X184321729Y-124835296D01*
X184219831Y-124955218D01*
X184149128Y-125028728D01*
X183967169Y-125185414D01*
X183760260Y-125325638D01*
X183540295Y-125443263D01*
X183319171Y-125532154D01*
X183108783Y-125586178D01*
X183052444Y-125594334D01*
X182974748Y-125599419D01*
X182925348Y-125588051D01*
X182883719Y-125554782D01*
X182877068Y-125547773D01*
X182830223Y-125467999D01*
X182826152Y-125386744D01*
X182859746Y-125315936D01*
X182925893Y-125267503D01*
X183003443Y-125252837D01*
X183069311Y-125261066D01*
X183114099Y-125280937D01*
X183114843Y-125281656D01*
X183144709Y-125293514D01*
X183198997Y-125286383D01*
X183287358Y-125258824D01*
X183301276Y-125253873D01*
X183572931Y-125130426D01*
X183818214Y-124965719D01*
X184032505Y-124762990D01*
X184078250Y-124709714D01*
X184142355Y-124627414D01*
X184178635Y-124565368D01*
X184194387Y-124508172D01*
X184197117Y-124458756D01*
X184214946Y-124355336D01*
X184265913Y-124285399D01*
X184346240Y-124253405D01*
X184372290Y-124251852D01*
X184457944Y-124274203D01*
G37*
G36*
X183802591Y-122623175D02*
G01*
X183810990Y-122625830D01*
X183890178Y-122668028D01*
X183955413Y-122730834D01*
X183992833Y-122799295D01*
X183996920Y-122826351D01*
X184016943Y-122866160D01*
X184066806Y-122910841D01*
X184084891Y-122922457D01*
X184171583Y-122999138D01*
X184215799Y-123096524D01*
X184214790Y-123205052D01*
X184187439Y-123279248D01*
X184167569Y-123343682D01*
X184174697Y-123379347D01*
X184193259Y-123442234D01*
X184194120Y-123527863D01*
X184177845Y-123612379D01*
X184168625Y-123636365D01*
X184121188Y-123693868D01*
X184045984Y-123742964D01*
X183965111Y-123770955D01*
X183930577Y-123773152D01*
X183888944Y-123768231D01*
X183809096Y-123757162D01*
X183702264Y-123741554D01*
X183579679Y-123723013D01*
X183571502Y-123721755D01*
X183415416Y-123695311D01*
X183300832Y-123668404D01*
X183219351Y-123636695D01*
X183162575Y-123595845D01*
X183122107Y-123541512D01*
X183091138Y-123473509D01*
X183060151Y-123386194D01*
X183045458Y-123315282D01*
X183050526Y-123251875D01*
X183078823Y-123187081D01*
X183133818Y-123112002D01*
X183218978Y-123017744D01*
X183302487Y-122931405D01*
X183428903Y-122805633D01*
X183529713Y-122714657D01*
X183611201Y-122654700D01*
X183679654Y-122621985D01*
X183741355Y-122612736D01*
X183802591Y-122623175D01*
G37*
G36*
X181106548Y-124272910D02*
G01*
X181165760Y-124333109D01*
X181192846Y-124427988D01*
X181194162Y-124458756D01*
X181199236Y-124522511D01*
X181219323Y-124579469D01*
X181261719Y-124645036D01*
X181313029Y-124709714D01*
X181519295Y-124920982D01*
X181757650Y-125094994D01*
X182023471Y-125228514D01*
X182090003Y-125253873D01*
X182183301Y-125284085D01*
X182241319Y-125293690D01*
X182273709Y-125284127D01*
X182276436Y-125281656D01*
X182332113Y-125256402D01*
X182408240Y-125255489D01*
X182482669Y-125276990D01*
X182520467Y-125302886D01*
X182562458Y-125374588D01*
X182564376Y-125453130D01*
X182532180Y-125525714D01*
X182471834Y-125579543D01*
X182389297Y-125601817D01*
X182381219Y-125601841D01*
X182321617Y-125593957D01*
X182232544Y-125574407D01*
X182132054Y-125547215D01*
X182120073Y-125543626D01*
X181971677Y-125496123D01*
X181853406Y-125450736D01*
X181746497Y-125398861D01*
X181632190Y-125331894D01*
X181564680Y-125288953D01*
X181429633Y-125191042D01*
X181295400Y-125074776D01*
X181168072Y-124947423D01*
X181053739Y-124816250D01*
X180958493Y-124688522D01*
X180888424Y-124571508D01*
X180849624Y-124472474D01*
X180843817Y-124428898D01*
X180865932Y-124342328D01*
X180924537Y-124279512D01*
X181008017Y-124252188D01*
X181018989Y-124251852D01*
X181106548Y-124272910D01*
G37*
G36*
X183221292Y-123820533D02*
G01*
X183322496Y-123859796D01*
X183453364Y-123923461D01*
X183535396Y-123966297D01*
X183651607Y-124030106D01*
X183753783Y-124090539D01*
X183832583Y-124141757D01*
X183878666Y-124177918D01*
X183884452Y-124184575D01*
X183917751Y-124269039D01*
X183921107Y-124368905D01*
X183896065Y-124462846D01*
X183860422Y-124515748D01*
X183811950Y-124557287D01*
X183775383Y-124576933D01*
X183772836Y-124577172D01*
X183752383Y-124598374D01*
X183746581Y-124633477D01*
X183726919Y-124713468D01*
X183677633Y-124796028D01*
X183612912Y-124860442D01*
X183577746Y-124879936D01*
X183499655Y-124896022D01*
X183434386Y-124895317D01*
X183342894Y-124905484D01*
X183296750Y-124929828D01*
X183191017Y-124982168D01*
X183086073Y-124985131D01*
X183029105Y-124966644D01*
X182962174Y-124924834D01*
X182912435Y-124873447D01*
X182912285Y-124873213D01*
X182894944Y-124828048D01*
X182872983Y-124744050D01*
X182848843Y-124631938D01*
X182824965Y-124502427D01*
X182817382Y-124456598D01*
X182793442Y-124301151D01*
X182780301Y-124185623D01*
X182779995Y-124100656D01*
X182794559Y-124036892D01*
X182826029Y-123984975D01*
X182876440Y-123935545D01*
X182942003Y-123883685D01*
X183010107Y-123837249D01*
X183073653Y-123810451D01*
X183141196Y-123804482D01*
X183221292Y-123820533D01*
G37*
G36*
X181703213Y-122619497D02*
G01*
X181770412Y-122648891D01*
X181849815Y-122705028D01*
X181947709Y-122791684D01*
X182070377Y-122912637D01*
X182088792Y-122931405D01*
X182198245Y-123045352D01*
X182274992Y-123133606D01*
X182322502Y-123205061D01*
X182344243Y-123268612D01*
X182343682Y-123333155D01*
X182324288Y-123407586D01*
X182300141Y-123473509D01*
X182269454Y-123541401D01*
X182231718Y-123593052D01*
X182178997Y-123632312D01*
X182103355Y-123663032D01*
X181996854Y-123689060D01*
X181851557Y-123714247D01*
X181782241Y-123724735D01*
X181641077Y-123745771D01*
X181540785Y-123760412D01*
X181472630Y-123768891D01*
X181427874Y-123771441D01*
X181397781Y-123768291D01*
X181373614Y-123759675D01*
X181346637Y-123745824D01*
X181328868Y-123736762D01*
X181266094Y-123691914D01*
X181223045Y-123637201D01*
X181222513Y-123636056D01*
X181200703Y-123557470D01*
X181195789Y-123469655D01*
X181208323Y-123396509D01*
X181216582Y-123379347D01*
X181221861Y-123329156D01*
X181203840Y-123279248D01*
X181170988Y-123168606D01*
X181185202Y-123062696D01*
X181243735Y-122971084D01*
X181306388Y-122922457D01*
X181362104Y-122879523D01*
X181392477Y-122836548D01*
X181394359Y-122826351D01*
X181415822Y-122759999D01*
X181470971Y-122692974D01*
X181545943Y-122640224D01*
X181580289Y-122625830D01*
X181641933Y-122613069D01*
X181703213Y-122619497D01*
G37*
G36*
X182336503Y-123820437D02*
G01*
X182429851Y-123870149D01*
X182518228Y-123939483D01*
X182585342Y-124017379D01*
X182594284Y-124032125D01*
X182608264Y-124062724D01*
X182615567Y-124099296D01*
X182615765Y-124150795D01*
X182608427Y-124226176D01*
X182593123Y-124334393D01*
X182573897Y-124456598D01*
X182550655Y-124589576D01*
X182526319Y-124708788D01*
X182503332Y-124803515D01*
X182484136Y-124863035D01*
X182478937Y-124873301D01*
X182433853Y-124917994D01*
X182365361Y-124962168D01*
X182294930Y-124993667D01*
X182252256Y-125001611D01*
X182217814Y-124991757D01*
X182160223Y-124969077D01*
X182154358Y-124966545D01*
X182096266Y-124936089D01*
X182061172Y-124908244D01*
X182060057Y-124906611D01*
X182026818Y-124892394D01*
X181967805Y-124892963D01*
X181963211Y-124893650D01*
X181882421Y-124894662D01*
X181813533Y-124880114D01*
X181746786Y-124833562D01*
X181687672Y-124758312D01*
X181650549Y-124675194D01*
X181644699Y-124635163D01*
X181623166Y-124582237D01*
X181593889Y-124564448D01*
X181528704Y-124519851D01*
X181484728Y-124443418D01*
X181465617Y-124350187D01*
X181475027Y-124255191D01*
X181503190Y-124191546D01*
X181544899Y-124151875D01*
X181622268Y-124098627D01*
X181724691Y-124037312D01*
X181841560Y-123973436D01*
X181962268Y-123912509D01*
X182076209Y-123860038D01*
X182172774Y-123821532D01*
X182241357Y-123802499D01*
X182254474Y-123801408D01*
X182336503Y-123820437D01*
G37*
G36*
X179053137Y-123447572D02*
G01*
X179567902Y-123447572D01*
X179569231Y-123587574D01*
X179574271Y-123684643D01*
X179585303Y-123745873D01*
X179604607Y-123778358D01*
X179634464Y-123789193D01*
X179676534Y-123785581D01*
X179740420Y-123773602D01*
X179782696Y-123763961D01*
X179796291Y-123735948D01*
X179808829Y-123664384D01*
X179819379Y-123555767D01*
X179824543Y-123472087D01*
X179861053Y-123105063D01*
X179933525Y-122766747D01*
X180044863Y-122448272D01*
X180197970Y-122140767D01*
X180329101Y-121930919D01*
X180388139Y-121841554D01*
X180434778Y-121767273D01*
X180462934Y-121717971D01*
X180468447Y-121704123D01*
X180451923Y-121675244D01*
X180410861Y-121628892D01*
X180397099Y-121615322D01*
X180325751Y-121546966D01*
X180187957Y-121695800D01*
X180048368Y-121874284D01*
X179919798Y-122092102D01*
X179805844Y-122339094D01*
X179710103Y-122605097D01*
X179636172Y-122879952D01*
X179587646Y-123153496D01*
X179568124Y-123415568D01*
X179567902Y-123447572D01*
X179053137Y-123447572D01*
X179053050Y-123418485D01*
X179057419Y-123248605D01*
X179066498Y-123085809D01*
X179080131Y-122941463D01*
X179098161Y-122826933D01*
X179101257Y-122812935D01*
X179181496Y-122514589D01*
X179278162Y-122233841D01*
X179388809Y-121973823D01*
X179510987Y-121737665D01*
X179642250Y-121528499D01*
X179780148Y-121349454D01*
X179922235Y-121203661D01*
X180066063Y-121094252D01*
X180209182Y-121024357D01*
X180349147Y-120997107D01*
X180483508Y-121015633D01*
X180501575Y-121021998D01*
X180566627Y-121057202D01*
X180646397Y-121120338D01*
X180744574Y-121214896D01*
X180864845Y-121344366D01*
X180973981Y-121469056D01*
X181195391Y-121726753D01*
X181017889Y-121922380D01*
X180873457Y-122089629D01*
X180758181Y-122243635D01*
X180660905Y-122400821D01*
X180570474Y-122577611D01*
X180565209Y-122588802D01*
X180449866Y-122892437D01*
X180378059Y-123214161D01*
X180351047Y-123545276D01*
X180370088Y-123877083D01*
X180374297Y-123908036D01*
X180409208Y-124152298D01*
X180307449Y-124179737D01*
X180052890Y-124244479D01*
X179840384Y-124289627D01*
X179666081Y-124315532D01*
X179526130Y-124322542D01*
X179416680Y-124311010D01*
X179333881Y-124281286D01*
X179315355Y-124270024D01*
X179205472Y-124168067D01*
X179120305Y-124031513D01*
X179085783Y-123941520D01*
X179069756Y-123856967D01*
X179059062Y-123734032D01*
X179053545Y-123584083D01*
X179053137Y-123447572D01*
G37*
G36*
X184215331Y-121704123D02*
G01*
X184922832Y-121704123D01*
X184936037Y-121732341D01*
X184971600Y-121791846D01*
X185023438Y-121872742D01*
X185062179Y-121930919D01*
X185241734Y-122229095D01*
X185379796Y-122533439D01*
X185479263Y-122852825D01*
X185543038Y-123196124D01*
X185569711Y-123483473D01*
X185585984Y-123763871D01*
X185673571Y-123779345D01*
X185736197Y-123790537D01*
X185774718Y-123797655D01*
X185777007Y-123798114D01*
X185794793Y-123779991D01*
X185807946Y-123745103D01*
X185818626Y-123670877D01*
X185823253Y-123560542D01*
X185822248Y-123427617D01*
X185816029Y-123285622D01*
X185805015Y-123148077D01*
X185789625Y-123028501D01*
X185784904Y-123001730D01*
X185725284Y-122749043D01*
X185643969Y-122495969D01*
X185545525Y-122252763D01*
X185434521Y-122029684D01*
X185315525Y-121836989D01*
X185203322Y-121695800D01*
X185065528Y-121546966D01*
X184994180Y-121615322D01*
X184948647Y-121663681D01*
X184924173Y-121698895D01*
X184922832Y-121704123D01*
X184215331Y-121704123D01*
X184417298Y-121469056D01*
X184556947Y-121310543D01*
X184671682Y-121189610D01*
X184765192Y-121102768D01*
X184841163Y-121046525D01*
X184889704Y-121021998D01*
X185023094Y-120996872D01*
X185162427Y-121017956D01*
X185305255Y-121082119D01*
X185449130Y-121186231D01*
X185591605Y-121327161D01*
X185730232Y-121501778D01*
X185862561Y-121706951D01*
X185986147Y-121939550D01*
X186098540Y-122196443D01*
X186197293Y-122474501D01*
X186279958Y-122770592D01*
X186290022Y-122812935D01*
X186308703Y-122921973D01*
X186323010Y-123062545D01*
X186332787Y-123223283D01*
X186337878Y-123392822D01*
X186338127Y-123559796D01*
X186333378Y-123712837D01*
X186323476Y-123840580D01*
X186308265Y-123931659D01*
X186305496Y-123941520D01*
X186238813Y-124092219D01*
X186142171Y-124215825D01*
X186075925Y-124270024D01*
X185986991Y-124309122D01*
X185868337Y-124324661D01*
X185715740Y-124316609D01*
X185524977Y-124284937D01*
X185435837Y-124265369D01*
X185317304Y-124237481D01*
X185205415Y-124210482D01*
X185116705Y-124188392D01*
X185083831Y-124179804D01*
X184982071Y-124152298D01*
X185016983Y-123908036D01*
X185040423Y-123576612D01*
X185017692Y-123245061D01*
X184950047Y-122922082D01*
X184838748Y-122616374D01*
X184826070Y-122588802D01*
X184735694Y-122410374D01*
X184639119Y-122252499D01*
X184525191Y-122098757D01*
X184382753Y-121932724D01*
X184373390Y-121922380D01*
X184195888Y-121726753D01*
X184215331Y-121704123D01*
G37*
G36*
X179527162Y-125207767D02*
G01*
X180068288Y-125207767D01*
X180087142Y-125273453D01*
X180139076Y-125364173D01*
X180218256Y-125473490D01*
X180318847Y-125594964D01*
X180435015Y-125722159D01*
X180560925Y-125848636D01*
X180690742Y-125967956D01*
X180818631Y-126073682D01*
X180918891Y-126146334D01*
X181083252Y-126249022D01*
X181256678Y-126344584D01*
X181430002Y-126428977D01*
X181594058Y-126498160D01*
X181739680Y-126548093D01*
X181857702Y-126574732D01*
X181897909Y-126578023D01*
X181940840Y-126572572D01*
X181964233Y-126545285D01*
X181978943Y-126482643D01*
X181980069Y-126475703D01*
X181987753Y-126408971D01*
X181987103Y-126366256D01*
X181984744Y-126360397D01*
X181957216Y-126347659D01*
X181893531Y-126323562D01*
X181805092Y-126292334D01*
X181758593Y-126276523D01*
X181606851Y-126222251D01*
X181475483Y-126166505D01*
X181349002Y-126101442D01*
X181211919Y-126019221D01*
X181079460Y-125932640D01*
X180881889Y-125785178D01*
X180687277Y-125612213D01*
X180510706Y-125428169D01*
X180375840Y-125259619D01*
X180321432Y-125185246D01*
X180278418Y-125129929D01*
X180254591Y-125103604D01*
X180252738Y-125102689D01*
X180207501Y-125114239D01*
X180149540Y-125141872D01*
X180097332Y-125175059D01*
X180069356Y-125203276D01*
X180068288Y-125207767D01*
X179527162Y-125207767D01*
X179522846Y-125179423D01*
X179527560Y-125038007D01*
X179562257Y-124928537D01*
X179633317Y-124838825D01*
X179742806Y-124759286D01*
X179803257Y-124726315D01*
X179892479Y-124682177D01*
X180000578Y-124631273D01*
X180117658Y-124578005D01*
X180233825Y-124526774D01*
X180339184Y-124481979D01*
X180423839Y-124448023D01*
X180477897Y-124429305D01*
X180489858Y-124427024D01*
X180509470Y-124447708D01*
X180542497Y-124501621D01*
X180577207Y-124567990D01*
X180750426Y-124865227D01*
X180963003Y-125133565D01*
X181210934Y-125368964D01*
X181490214Y-125567387D01*
X181662415Y-125662653D01*
X181838963Y-125739660D01*
X182038603Y-125808317D01*
X182239246Y-125861813D01*
X182405207Y-125891717D01*
X182552197Y-125910082D01*
X182534636Y-126188307D01*
X182517788Y-126394877D01*
X182495318Y-126577636D01*
X182468392Y-126729925D01*
X182438173Y-126845088D01*
X182407823Y-126913514D01*
X182321989Y-127000579D01*
X182199834Y-127061720D01*
X182048612Y-127095636D01*
X181875575Y-127101025D01*
X181687977Y-127076586D01*
X181607068Y-127057243D01*
X181286374Y-126947583D01*
X180964095Y-126794229D01*
X180648925Y-126602470D01*
X180349558Y-126377594D01*
X180075030Y-126125240D01*
X179874732Y-125905272D01*
X179720433Y-125700125D01*
X179610982Y-125507827D01*
X179545230Y-125326408D01*
X179527162Y-125207767D01*
G37*
G36*
X182873188Y-126390204D02*
G01*
X183402765Y-126390204D01*
X183407595Y-126450586D01*
X183411210Y-126475703D01*
X183424495Y-126532864D01*
X183447802Y-126566615D01*
X183489573Y-126578369D01*
X183558250Y-126569539D01*
X183662275Y-126541539D01*
X183712757Y-126526188D01*
X183898836Y-126457197D01*
X184104846Y-126360950D01*
X184315060Y-126245313D01*
X184472190Y-126146472D01*
X184594129Y-126056830D01*
X184722815Y-125948274D01*
X184852413Y-125827239D01*
X184977090Y-125700163D01*
X185091012Y-125573483D01*
X185188345Y-125453634D01*
X185263255Y-125347053D01*
X185309908Y-125260177D01*
X185322991Y-125207767D01*
X185302818Y-125182054D01*
X185254352Y-125149057D01*
X185196071Y-125119301D01*
X185146453Y-125103313D01*
X185138541Y-125102689D01*
X185119809Y-125121555D01*
X185080229Y-125171529D01*
X185027595Y-125242675D01*
X185015439Y-125259619D01*
X184869201Y-125441015D01*
X184690889Y-125624756D01*
X184495584Y-125796415D01*
X184311819Y-125932640D01*
X184154259Y-126034985D01*
X184020113Y-126113683D01*
X183893894Y-126176577D01*
X183760115Y-126231508D01*
X183632686Y-126276523D01*
X183536603Y-126309630D01*
X183459955Y-126337579D01*
X183414148Y-126356140D01*
X183406536Y-126360397D01*
X183402765Y-126390204D01*
X182873188Y-126390204D01*
X182868218Y-126345409D01*
X182854970Y-126197477D01*
X182847339Y-126072477D01*
X182846221Y-126025228D01*
X182845787Y-125909244D01*
X182989425Y-125891298D01*
X183307646Y-125826828D01*
X183614280Y-125716415D01*
X183904251Y-125563740D01*
X184172484Y-125372484D01*
X184413904Y-125146328D01*
X184623434Y-124888953D01*
X184795999Y-124604039D01*
X184814072Y-124567990D01*
X184852686Y-124494707D01*
X184884651Y-124443734D01*
X184901421Y-124427024D01*
X184937838Y-124437136D01*
X185009465Y-124464538D01*
X185106406Y-124504829D01*
X185218767Y-124553608D01*
X185336653Y-124606475D01*
X185450169Y-124659028D01*
X185549420Y-124706866D01*
X185624510Y-124745589D01*
X185648474Y-124759286D01*
X185760830Y-124841481D01*
X185830643Y-124931632D01*
X185864294Y-125041925D01*
X185868433Y-125179423D01*
X185836159Y-125359164D01*
X185760377Y-125547002D01*
X185646228Y-125739280D01*
X185498855Y-125932337D01*
X185323398Y-126122516D01*
X185124999Y-126306157D01*
X184908799Y-126479600D01*
X184679939Y-126639188D01*
X184443561Y-126781261D01*
X184204805Y-126902159D01*
X183968814Y-126998225D01*
X183740728Y-127065799D01*
X183525689Y-127101222D01*
X183328838Y-127100835D01*
X183202549Y-127076704D01*
X183093520Y-127020870D01*
X183002428Y-126927503D01*
X182939445Y-126808514D01*
X182922873Y-126749245D01*
X182904050Y-126639049D01*
X182885205Y-126498518D01*
X182873188Y-126390204D01*
G37*
G36*
X180970336Y-120690721D02*
G01*
X181519576Y-120690721D01*
X181531631Y-120723320D01*
X181561423Y-120779013D01*
X181570839Y-120794798D01*
X181611430Y-120849769D01*
X181648932Y-120866901D01*
X181677100Y-120862451D01*
X181724503Y-120848823D01*
X181806417Y-120825637D01*
X181909136Y-120796763D01*
X181969925Y-120779751D01*
X182056792Y-120756440D01*
X182133035Y-120739304D01*
X182208928Y-120727402D01*
X182294745Y-120719794D01*
X182400761Y-120715540D01*
X182537249Y-120713699D01*
X182695640Y-120713328D01*
X182868617Y-120713728D01*
X183005183Y-120716140D01*
X183117763Y-120722383D01*
X183218783Y-120734277D01*
X183320669Y-120753640D01*
X183435845Y-120782293D01*
X183576738Y-120822054D01*
X183714179Y-120862451D01*
X183756994Y-120864320D01*
X183793982Y-120834027D01*
X183820440Y-120794798D01*
X183853290Y-120736230D01*
X183870812Y-120695861D01*
X183871704Y-120690721D01*
X183849264Y-120667240D01*
X183788212Y-120634338D01*
X183698187Y-120595875D01*
X183588833Y-120555711D01*
X183469791Y-120517706D01*
X183373728Y-120491366D01*
X183219444Y-120462841D01*
X183029792Y-120443633D01*
X182818577Y-120433742D01*
X182599607Y-120433166D01*
X182386688Y-120441907D01*
X182193625Y-120459965D01*
X182034226Y-120487338D01*
X182017552Y-120491366D01*
X181897709Y-120524845D01*
X181779814Y-120563581D01*
X181673508Y-120603715D01*
X181588433Y-120641387D01*
X181534230Y-120672737D01*
X181519576Y-120690721D01*
X180970336Y-120690721D01*
X180967529Y-120594220D01*
X180992228Y-120503655D01*
X181043894Y-120418820D01*
X181121834Y-120334138D01*
X181146329Y-120311447D01*
X181309212Y-120193866D01*
X181510960Y-120096031D01*
X181744448Y-120017941D01*
X182002551Y-119959597D01*
X182278143Y-119920999D01*
X182564101Y-119902147D01*
X182853298Y-119903041D01*
X183138610Y-119923680D01*
X183412913Y-119964065D01*
X183669081Y-120024196D01*
X183899990Y-120104072D01*
X184098514Y-120203694D01*
X184244950Y-120311447D01*
X184329611Y-120397003D01*
X184388178Y-120481261D01*
X184419959Y-120569799D01*
X184424259Y-120668192D01*
X184400384Y-120782018D01*
X184347640Y-120916853D01*
X184265334Y-121078273D01*
X184152772Y-121271855D01*
X184118447Y-121328171D01*
X183969922Y-121570107D01*
X183739431Y-121461065D01*
X183559799Y-121380193D01*
X183402975Y-121320771D01*
X183254750Y-121279741D01*
X183100913Y-121254045D01*
X182927254Y-121240622D01*
X182719563Y-121236415D01*
X182695640Y-121236384D01*
X182483631Y-121239814D01*
X182307119Y-121252144D01*
X182151894Y-121276434D01*
X182003747Y-121315741D01*
X181848468Y-121373124D01*
X181671845Y-121451642D01*
X181651848Y-121461065D01*
X181421357Y-121570107D01*
X181272833Y-121328171D01*
X181152286Y-121125309D01*
X181062176Y-120956059D01*
X181001810Y-120814845D01*
X180970492Y-120696091D01*
X180970336Y-120690721D01*
G37*
%TD*%
D10*
%TO.C,J1*%
X147319999Y-127099999D03*
D11*
X149859999Y-127099999D03*
X152399999Y-127099999D03*
%TD*%
D12*
%TO.C,C28*%
X179780000Y-109700000D03*
X178820000Y-109700000D03*
%TD*%
D13*
%TO.C,R3*%
X168216608Y-78496554D03*
X168216608Y-79516554D03*
%TD*%
D14*
%TO.C,U1*%
X169999999Y-76999999D03*
X169999999Y-78499999D03*
X169999999Y-79999999D03*
X169999999Y-81499999D03*
X169999999Y-82999999D03*
X169999999Y-84499999D03*
X169999999Y-85999999D03*
X169999999Y-87499999D03*
X169999999Y-88999999D03*
X187499999Y-88999999D03*
X187499999Y-87499999D03*
X187499999Y-85999999D03*
X187499999Y-84499999D03*
X187499999Y-82999999D03*
X187499999Y-81499999D03*
X187499999Y-79999999D03*
X187499999Y-78499999D03*
X187499999Y-76999999D03*
D15*
X178609999Y-82099999D03*
X179709999Y-82099999D03*
X180809999Y-82099999D03*
X178609999Y-83199999D03*
X179709999Y-83199999D03*
X180809999Y-83199999D03*
X178609999Y-84299999D03*
X179709999Y-84299999D03*
X180809999Y-84299999D03*
%TD*%
D16*
%TO.C,C3*%
X160000000Y-114380000D03*
X160000000Y-113420000D03*
%TD*%
D12*
%TO.C,C23*%
X187160000Y-113200000D03*
X186200000Y-113200000D03*
%TD*%
D17*
%TO.C,C4*%
X174900000Y-107820000D03*
X174900000Y-108780000D03*
%TD*%
D18*
%TO.C,D1*%
X147599999Y-87299999D03*
X147599999Y-88999999D03*
X147599999Y-90699999D03*
X152399999Y-90699999D03*
X152399999Y-88999999D03*
X152399999Y-87299999D03*
%TD*%
D16*
%TO.C,C18*%
X141100000Y-99667500D03*
X141100000Y-98707500D03*
%TD*%
D19*
%TO.C,SW1*%
X174209999Y-93299999D03*
X183389999Y-93299999D03*
%TD*%
D20*
%TO.C,SW4*%
X134399999Y-127389999D03*
X134399999Y-118209999D03*
%TD*%
D21*
%TO.C,IC7*%
X185862500Y-100350000D03*
X185862500Y-101300000D03*
X185862500Y-102250000D03*
X188137500Y-102250000D03*
X188137500Y-101300000D03*
X188137500Y-100350000D03*
%TD*%
D22*
%TO.C,R22*%
X135980000Y-84790500D03*
X137000000Y-84790500D03*
%TD*%
D23*
%TO.C,C16*%
X149248955Y-101505870D03*
X150208955Y-101505870D03*
%TD*%
D24*
%TO.C,IC5*%
X133495000Y-92066000D03*
X134765000Y-92066000D03*
X136035000Y-92066000D03*
X137305000Y-92066000D03*
X137305000Y-86666000D03*
X136035000Y-86666000D03*
X134765000Y-86666000D03*
X133495000Y-86666000D03*
%TD*%
D13*
%TO.C,R23*%
X131600000Y-109690000D03*
X131600000Y-110710000D03*
%TD*%
D22*
%TO.C,R18*%
X154790000Y-87300000D03*
X155810000Y-87300000D03*
%TD*%
D25*
%TO.C,IC1*%
X173075000Y-114150000D03*
X173075000Y-113650000D03*
X173075000Y-113150000D03*
X173075000Y-112650000D03*
X173075000Y-112150000D03*
X173075000Y-111650000D03*
X173075000Y-111150000D03*
X173075000Y-110650000D03*
X173075000Y-110150000D03*
X173075000Y-109650000D03*
X173075000Y-109150000D03*
X173075000Y-108650000D03*
X173075000Y-108150000D03*
X173075000Y-107650000D03*
X173075000Y-107150000D03*
X173075000Y-106650000D03*
D26*
X171150000Y-104725000D03*
X170650000Y-104725000D03*
X170150000Y-104725000D03*
X169650000Y-104725000D03*
X169150000Y-104725000D03*
X168650000Y-104725000D03*
X168150000Y-104725000D03*
X167650000Y-104725000D03*
X167150000Y-104725000D03*
X166650000Y-104725000D03*
X166150000Y-104725000D03*
X165650000Y-104725000D03*
X165150000Y-104725000D03*
X164650000Y-104725000D03*
X164150000Y-104725000D03*
X163650000Y-104725000D03*
D25*
X161725000Y-106650000D03*
X161725000Y-107150000D03*
X161725000Y-107650000D03*
X161725000Y-108150000D03*
X161725000Y-108650000D03*
X161725000Y-109150000D03*
X161725000Y-109650000D03*
X161725000Y-110150000D03*
X161725000Y-110650000D03*
X161725000Y-111150000D03*
X161725000Y-111650000D03*
X161725000Y-112150000D03*
X161725000Y-112650000D03*
X161725000Y-113150000D03*
X161725000Y-113650000D03*
X161725000Y-114150000D03*
D26*
X163650000Y-116075000D03*
X164150000Y-116075000D03*
X164650000Y-116075000D03*
X165150000Y-116075000D03*
X165650000Y-116075000D03*
X166150000Y-116075000D03*
X166650000Y-116075000D03*
X167150000Y-116075000D03*
X167650000Y-116075000D03*
X168150000Y-116075000D03*
X168650000Y-116075000D03*
X169150000Y-116075000D03*
X169650000Y-116075000D03*
X170150000Y-116075000D03*
X170650000Y-116075000D03*
X171150000Y-116075000D03*
%TD*%
D27*
%TO.C,C11*%
X167800000Y-75250000D03*
X167800000Y-73350000D03*
%TD*%
D13*
%TO.C,R4*%
X185797944Y-93302456D03*
X185797944Y-94322456D03*
%TD*%
D28*
%TO.C,C14*%
X101800000Y-97175000D03*
X101800000Y-94225000D03*
%TD*%
D29*
%TO.C,Y2*%
X177399999Y-108349999D03*
X178799999Y-108349999D03*
X178799999Y-107249999D03*
X177399999Y-107249999D03*
%TD*%
D30*
%TO.C,R6*%
X193809648Y-94200000D03*
X196734648Y-94200000D03*
%TD*%
D31*
%TO.C,R11*%
X143244664Y-97378358D03*
X143244664Y-96358358D03*
%TD*%
D32*
%TO.C,H4*%
X102600000Y-124000000D03*
X103302944Y-122302944D03*
X103302944Y-125697056D03*
X105000000Y-121600000D03*
D33*
X105000000Y-124000000D03*
D32*
X105000000Y-126400000D03*
X106697056Y-122302944D03*
X106697056Y-125697056D03*
X107400000Y-124000000D03*
%TD*%
D20*
%TO.C,SW3*%
X127099999Y-127389999D03*
X127099999Y-118209999D03*
%TD*%
D12*
%TO.C,C20*%
X197180000Y-108400000D03*
X196220000Y-108400000D03*
%TD*%
D34*
%TO.C,D2*%
X136449959Y-81139879D03*
X134550039Y-81139879D03*
X135499999Y-83441119D03*
%TD*%
D22*
%TO.C,R21*%
X133980000Y-84790500D03*
X135000000Y-84790500D03*
%TD*%
D16*
%TO.C,C27*%
X121008409Y-87628077D03*
X121008409Y-86668077D03*
%TD*%
D35*
%TO.C,IC4*%
X142749999Y-99932499D03*
X143249999Y-99932499D03*
D36*
X143744999Y-99687499D03*
X143744999Y-99187499D03*
X143744999Y-98687499D03*
D35*
X143249999Y-98442499D03*
X142749999Y-98442499D03*
D36*
X142254999Y-98687499D03*
X142254999Y-99187499D03*
X142254999Y-99687499D03*
%TD*%
D23*
%TO.C,C1*%
X169920000Y-102900000D03*
X170880000Y-102900000D03*
%TD*%
D16*
%TO.C,C26*%
X138690996Y-87623939D03*
X138690996Y-86663939D03*
%TD*%
D23*
%TO.C,C31*%
X179420000Y-111850546D03*
X180380000Y-111850546D03*
%TD*%
D37*
%TO.C,Y1*%
X177599999Y-114349999D03*
X177599999Y-111849999D03*
%TD*%
D16*
%TO.C,C25*%
X136031490Y-94729475D03*
X136031490Y-93769475D03*
%TD*%
D38*
%TO.C,C8*%
X165800000Y-102700000D03*
X165800000Y-101150000D03*
%TD*%
D17*
%TO.C,C12*%
X167033263Y-78497490D03*
X167033263Y-79457490D03*
%TD*%
D39*
%TO.C,C6*%
X175100000Y-115025000D03*
X175100000Y-116575000D03*
%TD*%
D40*
%TO.C,J4*%
X138500000Y-73000000D03*
D41*
X135999999Y-72999999D03*
X133499999Y-72999999D03*
%TD*%
D42*
%TO.C,R5*%
X167799689Y-86003800D03*
X166779689Y-86003800D03*
%TD*%
D43*
%TO.C,X1*%
X192229999Y-104999999D03*
X192229999Y-104499999D03*
X192229999Y-103999999D03*
X192229999Y-103499999D03*
X192229999Y-102999999D03*
X192229999Y-102499999D03*
X192229999Y-101499999D03*
X192229999Y-100999999D03*
X192229999Y-100499999D03*
X192229999Y-99999999D03*
X192229999Y-99499999D03*
X192229999Y-98999999D03*
D44*
X193529999Y-98899999D03*
D43*
X193529999Y-99749999D03*
X193529999Y-100249999D03*
X193529999Y-100749999D03*
X193529999Y-101249999D03*
X193529999Y-101749999D03*
X193529999Y-102249999D03*
X193529999Y-102749999D03*
X193529999Y-103249999D03*
X193529999Y-103749999D03*
X193529999Y-104249999D03*
D44*
X193529999Y-105099999D03*
D45*
X192639999Y-106319999D03*
X192639999Y-97679999D03*
D46*
X197999999Y-106319999D03*
D47*
X197999999Y-97679999D03*
%TD*%
D12*
%TO.C,C2*%
X171380000Y-117900000D03*
X170420000Y-117900000D03*
%TD*%
D31*
%TO.C,R24*%
X129600000Y-107700000D03*
X129600000Y-106680000D03*
%TD*%
D24*
%TO.C,IC6*%
X122595000Y-92066000D03*
X123865000Y-92066000D03*
X125135000Y-92066000D03*
X126405000Y-92066000D03*
X126405000Y-86666000D03*
X125135000Y-86666000D03*
X123865000Y-86666000D03*
X122595000Y-86666000D03*
%TD*%
D34*
%TO.C,Q2*%
X154304962Y-79939337D03*
X152405042Y-79939337D03*
X153355002Y-82240577D03*
%TD*%
D17*
%TO.C,C17*%
X147700000Y-98520000D03*
X147700000Y-99480000D03*
%TD*%
D23*
%TO.C,C5*%
X163420000Y-102900000D03*
X164380000Y-102900000D03*
%TD*%
D48*
%TO.C,C22*%
X197175000Y-109800000D03*
X195625000Y-109800000D03*
%TD*%
D34*
%TO.C,Q1*%
X159384178Y-79949379D03*
X157484258Y-79949379D03*
X158434218Y-82250619D03*
%TD*%
D16*
%TO.C,C32*%
X134400000Y-115680000D03*
X134400000Y-114720000D03*
%TD*%
D10*
%TO.C,J3*%
X149849999Y-70999999D03*
D11*
X152389999Y-70999999D03*
X154929999Y-70999999D03*
X157469999Y-70999999D03*
X160009999Y-70999999D03*
X162549999Y-70999999D03*
%TD*%
D22*
%TO.C,R20*%
X154790000Y-90700000D03*
X155810000Y-90700000D03*
%TD*%
D49*
%TO.C,R9*%
X104400000Y-94237500D03*
X104400000Y-97162500D03*
%TD*%
D16*
%TO.C,C15*%
X127100000Y-115680000D03*
X127100000Y-114720000D03*
%TD*%
D31*
%TO.C,R27*%
X129600000Y-102010000D03*
X129600000Y-100990000D03*
%TD*%
D16*
%TO.C,C19*%
X140000000Y-99687500D03*
X140000000Y-98727500D03*
%TD*%
D50*
%TO.C,IC3*%
X155642500Y-98500000D03*
X155642500Y-99500000D03*
X155642500Y-100500000D03*
X158512500Y-100500000D03*
X158512500Y-99500000D03*
X158512500Y-98500000D03*
D51*
X157077499Y-99499999D03*
%TD*%
D52*
%TO.C,X2*%
X104150000Y-102525000D03*
X104150000Y-110525000D03*
D53*
X114749999Y-109714999D03*
X114749999Y-108614999D03*
X114749900Y-107524999D03*
X114749900Y-106414999D03*
X114749900Y-105334999D03*
X114749999Y-104224999D03*
X114749900Y-103134999D03*
X114749999Y-102034999D03*
D54*
X114249999Y-99549999D03*
D53*
X114749999Y-100944999D03*
D55*
X104599999Y-99549999D03*
D56*
X114324999Y-114499999D03*
D55*
X104599999Y-115399999D03*
%TD*%
D34*
%TO.C,D4*%
X125549959Y-81139879D03*
X123650039Y-81139879D03*
X124599999Y-83441119D03*
%TD*%
D32*
%TO.C,H2*%
X192600000Y-74000000D03*
X193302944Y-72302944D03*
X193302944Y-75697056D03*
X195000000Y-71600000D03*
D33*
X195000000Y-74000000D03*
D32*
X195000000Y-76400000D03*
X196697056Y-72302944D03*
X196697056Y-75697056D03*
X197400000Y-74000000D03*
%TD*%
D23*
%TO.C,C29*%
X176320000Y-109700000D03*
X177280000Y-109700000D03*
%TD*%
D57*
%TO.C,IC2*%
X150749999Y-97839999D03*
X150249999Y-97839999D03*
X149749999Y-97839999D03*
X149249999Y-97839999D03*
D58*
X149089999Y-98499999D03*
X149089999Y-98999999D03*
X149089999Y-99499999D03*
D57*
X149249999Y-100159999D03*
X149749999Y-100159999D03*
X150249999Y-100159999D03*
X150749999Y-100159999D03*
D58*
X150909999Y-99499999D03*
X150909999Y-98999999D03*
X150909999Y-98499999D03*
%TD*%
D13*
%TO.C,R26*%
X129600000Y-103090000D03*
X129600000Y-104110000D03*
%TD*%
%TO.C,R1*%
X151052549Y-79946997D03*
X151052549Y-80966997D03*
%TD*%
D22*
%TO.C,R7*%
X186590000Y-97900000D03*
X187610000Y-97900000D03*
%TD*%
D59*
%TO.C,C7*%
X169725000Y-101400000D03*
X171275000Y-101400000D03*
%TD*%
D13*
%TO.C,R10*%
X152300000Y-99490000D03*
X152300000Y-100510000D03*
%TD*%
%TO.C,R17*%
X110600000Y-82590000D03*
X110600000Y-83610000D03*
%TD*%
D31*
%TO.C,R15*%
X117100000Y-100910000D03*
X117100000Y-99890000D03*
%TD*%
D42*
%TO.C,R16*%
X113261044Y-86151044D03*
X112241044Y-86151044D03*
%TD*%
D48*
%TO.C,C24*%
X187475000Y-114700000D03*
X185925000Y-114700000D03*
%TD*%
D22*
%TO.C,R13*%
X155590000Y-97000000D03*
X156610000Y-97000000D03*
%TD*%
D31*
%TO.C,R14*%
X131980289Y-87683337D03*
X131980289Y-86663337D03*
%TD*%
D42*
%TO.C,R12*%
X158610000Y-97000000D03*
X157590000Y-97000000D03*
%TD*%
D20*
%TO.C,SW2*%
X119799999Y-127389999D03*
X119799999Y-118209999D03*
%TD*%
D60*
%TO.C,C13*%
X196767148Y-91680000D03*
X193817148Y-91680000D03*
%TD*%
D32*
%TO.C,H3*%
X192600000Y-124000000D03*
X193302944Y-122302944D03*
X193302944Y-125697056D03*
X195000000Y-121600000D03*
D33*
X195000000Y-124000000D03*
D32*
X195000000Y-126400000D03*
X196697056Y-122302944D03*
X196697056Y-125697056D03*
X197400000Y-124000000D03*
%TD*%
D61*
%TO.C,IC8*%
X197149999Y-116699999D03*
X197149999Y-114399999D03*
D62*
X190849999Y-114399999D03*
D61*
X197149999Y-112099999D03*
%TD*%
D40*
%TO.C,J5*%
X125900000Y-73000000D03*
D41*
X123399999Y-72999999D03*
X120899999Y-72999999D03*
%TD*%
D23*
%TO.C,C30*%
X179420000Y-114350910D03*
X180380000Y-114350910D03*
%TD*%
D22*
%TO.C,R8*%
X186590000Y-104900000D03*
X187610000Y-104900000D03*
%TD*%
D16*
%TO.C,C9*%
X119800000Y-115680000D03*
X119800000Y-114720000D03*
%TD*%
D42*
%TO.C,R2*%
X156388446Y-78799055D03*
X155368446Y-78799055D03*
%TD*%
D10*
%TO.C,J2*%
X158699999Y-127099999D03*
D11*
X161239999Y-127099999D03*
X163779999Y-127099999D03*
X166319999Y-127099999D03*
X168859999Y-127099999D03*
X171399999Y-127099999D03*
%TD*%
D17*
%TO.C,C21*%
X159915908Y-99500623D03*
X159915908Y-100460623D03*
%TD*%
D13*
%TO.C,R28*%
X129600000Y-109690000D03*
X129600000Y-110710000D03*
%TD*%
D32*
%TO.C,H1*%
X102600000Y-74000000D03*
X103302944Y-72302944D03*
X103302944Y-75697056D03*
X105000000Y-71600000D03*
D33*
X105000000Y-74000000D03*
D32*
X105000000Y-76400000D03*
X106697056Y-72302944D03*
X106697056Y-75697056D03*
X107400000Y-74000000D03*
%TD*%
D63*
%TO.C,BZ1*%
X101699999Y-87099999D03*
X101699999Y-80099999D03*
X108699999Y-80099999D03*
X108699999Y-87099999D03*
%TD*%
D34*
%TO.C,Q3*%
X112245636Y-84895171D03*
X114145556Y-84895171D03*
X113195596Y-82593931D03*
%TD*%
D22*
%TO.C,R19*%
X154780000Y-89010000D03*
X155800000Y-89010000D03*
%TD*%
D31*
%TO.C,R25*%
X169145128Y-118910000D03*
X169145128Y-117890000D03*
%TD*%
D16*
%TO.C,C10*%
X166053324Y-75240951D03*
X166053324Y-74280951D03*
%TD*%
M02*
