%TF.GenerationSoftware,KiCad,Pcbnew,(7.0.0)*%
%TF.CreationDate,2023-05-17T20:16:57-03:00*%
%TF.ProjectId,d3vk1t,6433766b-3174-42e6-9b69-6361645f7063,rev?*%
%TF.SameCoordinates,Original*%
%TF.FileFunction,Legend,Top*%
%TF.FilePolarity,Positive*%
%FSLAX46Y46*%
G04 Gerber Fmt 4.6, Leading zero omitted, Abs format (unit mm)*
G04 Created by KiCad (PCBNEW (7.0.0)) date 2023-05-17 20:16:57*
%MOMM*%
%LPD*%
G01*
G04 APERTURE LIST*
%ADD10C,0.250000*%
%ADD11C,0.200000*%
%ADD12C,0.150000*%
%ADD13C,0.120000*%
%ADD14C,0.127000*%
%ADD15C,0.100000*%
%ADD16C,0.372000*%
%ADD17C,0.431000*%
%ADD18C,0.200660*%
G04 APERTURE END LIST*
D10*
X163942857Y-124819761D02*
X164085714Y-124867380D01*
X164085714Y-124867380D02*
X164323809Y-124867380D01*
X164323809Y-124867380D02*
X164419047Y-124819761D01*
X164419047Y-124819761D02*
X164466666Y-124772142D01*
X164466666Y-124772142D02*
X164514285Y-124676904D01*
X164514285Y-124676904D02*
X164514285Y-124581666D01*
X164514285Y-124581666D02*
X164466666Y-124486428D01*
X164466666Y-124486428D02*
X164419047Y-124438809D01*
X164419047Y-124438809D02*
X164323809Y-124391190D01*
X164323809Y-124391190D02*
X164133333Y-124343571D01*
X164133333Y-124343571D02*
X164038095Y-124295952D01*
X164038095Y-124295952D02*
X163990476Y-124248333D01*
X163990476Y-124248333D02*
X163942857Y-124153095D01*
X163942857Y-124153095D02*
X163942857Y-124057857D01*
X163942857Y-124057857D02*
X163990476Y-123962619D01*
X163990476Y-123962619D02*
X164038095Y-123915000D01*
X164038095Y-123915000D02*
X164133333Y-123867380D01*
X164133333Y-123867380D02*
X164371428Y-123867380D01*
X164371428Y-123867380D02*
X164514285Y-123915000D01*
X164847619Y-123867380D02*
X165085714Y-124867380D01*
X165085714Y-124867380D02*
X165276190Y-124153095D01*
X165276190Y-124153095D02*
X165466666Y-124867380D01*
X165466666Y-124867380D02*
X165704762Y-123867380D01*
X166085714Y-124867380D02*
X166085714Y-123867380D01*
X166085714Y-123867380D02*
X166323809Y-123867380D01*
X166323809Y-123867380D02*
X166466666Y-123915000D01*
X166466666Y-123915000D02*
X166561904Y-124010238D01*
X166561904Y-124010238D02*
X166609523Y-124105476D01*
X166609523Y-124105476D02*
X166657142Y-124295952D01*
X166657142Y-124295952D02*
X166657142Y-124438809D01*
X166657142Y-124438809D02*
X166609523Y-124629285D01*
X166609523Y-124629285D02*
X166561904Y-124724523D01*
X166561904Y-124724523D02*
X166466666Y-124819761D01*
X166466666Y-124819761D02*
X166323809Y-124867380D01*
X166323809Y-124867380D02*
X166085714Y-124867380D01*
X152847619Y-74043571D02*
X153180952Y-74043571D01*
X153323809Y-74567380D02*
X152847619Y-74567380D01*
X152847619Y-74567380D02*
X152847619Y-73567380D01*
X152847619Y-73567380D02*
X153323809Y-73567380D01*
X153704762Y-74519761D02*
X153847619Y-74567380D01*
X153847619Y-74567380D02*
X154085714Y-74567380D01*
X154085714Y-74567380D02*
X154180952Y-74519761D01*
X154180952Y-74519761D02*
X154228571Y-74472142D01*
X154228571Y-74472142D02*
X154276190Y-74376904D01*
X154276190Y-74376904D02*
X154276190Y-74281666D01*
X154276190Y-74281666D02*
X154228571Y-74186428D01*
X154228571Y-74186428D02*
X154180952Y-74138809D01*
X154180952Y-74138809D02*
X154085714Y-74091190D01*
X154085714Y-74091190D02*
X153895238Y-74043571D01*
X153895238Y-74043571D02*
X153800000Y-73995952D01*
X153800000Y-73995952D02*
X153752381Y-73948333D01*
X153752381Y-73948333D02*
X153704762Y-73853095D01*
X153704762Y-73853095D02*
X153704762Y-73757857D01*
X153704762Y-73757857D02*
X153752381Y-73662619D01*
X153752381Y-73662619D02*
X153800000Y-73615000D01*
X153800000Y-73615000D02*
X153895238Y-73567380D01*
X153895238Y-73567380D02*
X154133333Y-73567380D01*
X154133333Y-73567380D02*
X154276190Y-73615000D01*
X154704762Y-74567380D02*
X154704762Y-73567380D01*
X154704762Y-73567380D02*
X155085714Y-73567380D01*
X155085714Y-73567380D02*
X155180952Y-73615000D01*
X155180952Y-73615000D02*
X155228571Y-73662619D01*
X155228571Y-73662619D02*
X155276190Y-73757857D01*
X155276190Y-73757857D02*
X155276190Y-73900714D01*
X155276190Y-73900714D02*
X155228571Y-73995952D01*
X155228571Y-73995952D02*
X155180952Y-74043571D01*
X155180952Y-74043571D02*
X155085714Y-74091190D01*
X155085714Y-74091190D02*
X154704762Y-74091190D01*
X156638095Y-74043571D02*
X156304762Y-74043571D01*
X156304762Y-74567380D02*
X156304762Y-73567380D01*
X156304762Y-73567380D02*
X156780952Y-73567380D01*
X157638095Y-74567380D02*
X157161905Y-74567380D01*
X157161905Y-74567380D02*
X157161905Y-73567380D01*
X157923810Y-74281666D02*
X158400000Y-74281666D01*
X157828572Y-74567380D02*
X158161905Y-73567380D01*
X158161905Y-73567380D02*
X158495238Y-74567380D01*
X158780953Y-74519761D02*
X158923810Y-74567380D01*
X158923810Y-74567380D02*
X159161905Y-74567380D01*
X159161905Y-74567380D02*
X159257143Y-74519761D01*
X159257143Y-74519761D02*
X159304762Y-74472142D01*
X159304762Y-74472142D02*
X159352381Y-74376904D01*
X159352381Y-74376904D02*
X159352381Y-74281666D01*
X159352381Y-74281666D02*
X159304762Y-74186428D01*
X159304762Y-74186428D02*
X159257143Y-74138809D01*
X159257143Y-74138809D02*
X159161905Y-74091190D01*
X159161905Y-74091190D02*
X158971429Y-74043571D01*
X158971429Y-74043571D02*
X158876191Y-73995952D01*
X158876191Y-73995952D02*
X158828572Y-73948333D01*
X158828572Y-73948333D02*
X158780953Y-73853095D01*
X158780953Y-73853095D02*
X158780953Y-73757857D01*
X158780953Y-73757857D02*
X158828572Y-73662619D01*
X158828572Y-73662619D02*
X158876191Y-73615000D01*
X158876191Y-73615000D02*
X158971429Y-73567380D01*
X158971429Y-73567380D02*
X159209524Y-73567380D01*
X159209524Y-73567380D02*
X159352381Y-73615000D01*
X159780953Y-74567380D02*
X159780953Y-73567380D01*
X159780953Y-74043571D02*
X160352381Y-74043571D01*
X160352381Y-74567380D02*
X160352381Y-73567380D01*
X177442857Y-96443571D02*
X177585714Y-96491190D01*
X177585714Y-96491190D02*
X177633333Y-96538809D01*
X177633333Y-96538809D02*
X177680952Y-96634047D01*
X177680952Y-96634047D02*
X177680952Y-96776904D01*
X177680952Y-96776904D02*
X177633333Y-96872142D01*
X177633333Y-96872142D02*
X177585714Y-96919761D01*
X177585714Y-96919761D02*
X177490476Y-96967380D01*
X177490476Y-96967380D02*
X177109524Y-96967380D01*
X177109524Y-96967380D02*
X177109524Y-95967380D01*
X177109524Y-95967380D02*
X177442857Y-95967380D01*
X177442857Y-95967380D02*
X177538095Y-96015000D01*
X177538095Y-96015000D02*
X177585714Y-96062619D01*
X177585714Y-96062619D02*
X177633333Y-96157857D01*
X177633333Y-96157857D02*
X177633333Y-96253095D01*
X177633333Y-96253095D02*
X177585714Y-96348333D01*
X177585714Y-96348333D02*
X177538095Y-96395952D01*
X177538095Y-96395952D02*
X177442857Y-96443571D01*
X177442857Y-96443571D02*
X177109524Y-96443571D01*
X178300000Y-95967380D02*
X178490476Y-95967380D01*
X178490476Y-95967380D02*
X178585714Y-96015000D01*
X178585714Y-96015000D02*
X178680952Y-96110238D01*
X178680952Y-96110238D02*
X178728571Y-96300714D01*
X178728571Y-96300714D02*
X178728571Y-96634047D01*
X178728571Y-96634047D02*
X178680952Y-96824523D01*
X178680952Y-96824523D02*
X178585714Y-96919761D01*
X178585714Y-96919761D02*
X178490476Y-96967380D01*
X178490476Y-96967380D02*
X178300000Y-96967380D01*
X178300000Y-96967380D02*
X178204762Y-96919761D01*
X178204762Y-96919761D02*
X178109524Y-96824523D01*
X178109524Y-96824523D02*
X178061905Y-96634047D01*
X178061905Y-96634047D02*
X178061905Y-96300714D01*
X178061905Y-96300714D02*
X178109524Y-96110238D01*
X178109524Y-96110238D02*
X178204762Y-96015000D01*
X178204762Y-96015000D02*
X178300000Y-95967380D01*
X179347619Y-95967380D02*
X179538095Y-95967380D01*
X179538095Y-95967380D02*
X179633333Y-96015000D01*
X179633333Y-96015000D02*
X179728571Y-96110238D01*
X179728571Y-96110238D02*
X179776190Y-96300714D01*
X179776190Y-96300714D02*
X179776190Y-96634047D01*
X179776190Y-96634047D02*
X179728571Y-96824523D01*
X179728571Y-96824523D02*
X179633333Y-96919761D01*
X179633333Y-96919761D02*
X179538095Y-96967380D01*
X179538095Y-96967380D02*
X179347619Y-96967380D01*
X179347619Y-96967380D02*
X179252381Y-96919761D01*
X179252381Y-96919761D02*
X179157143Y-96824523D01*
X179157143Y-96824523D02*
X179109524Y-96634047D01*
X179109524Y-96634047D02*
X179109524Y-96300714D01*
X179109524Y-96300714D02*
X179157143Y-96110238D01*
X179157143Y-96110238D02*
X179252381Y-96015000D01*
X179252381Y-96015000D02*
X179347619Y-95967380D01*
X180061905Y-95967380D02*
X180633333Y-95967380D01*
X180347619Y-96967380D02*
X180347619Y-95967380D01*
X130067380Y-124714285D02*
X130876904Y-124714285D01*
X130876904Y-124714285D02*
X130972142Y-124666666D01*
X130972142Y-124666666D02*
X131019761Y-124619047D01*
X131019761Y-124619047D02*
X131067380Y-124523809D01*
X131067380Y-124523809D02*
X131067380Y-124333333D01*
X131067380Y-124333333D02*
X131019761Y-124238095D01*
X131019761Y-124238095D02*
X130972142Y-124190476D01*
X130972142Y-124190476D02*
X130876904Y-124142857D01*
X130876904Y-124142857D02*
X130067380Y-124142857D01*
X131019761Y-123714285D02*
X131067380Y-123571428D01*
X131067380Y-123571428D02*
X131067380Y-123333333D01*
X131067380Y-123333333D02*
X131019761Y-123238095D01*
X131019761Y-123238095D02*
X130972142Y-123190476D01*
X130972142Y-123190476D02*
X130876904Y-123142857D01*
X130876904Y-123142857D02*
X130781666Y-123142857D01*
X130781666Y-123142857D02*
X130686428Y-123190476D01*
X130686428Y-123190476D02*
X130638809Y-123238095D01*
X130638809Y-123238095D02*
X130591190Y-123333333D01*
X130591190Y-123333333D02*
X130543571Y-123523809D01*
X130543571Y-123523809D02*
X130495952Y-123619047D01*
X130495952Y-123619047D02*
X130448333Y-123666666D01*
X130448333Y-123666666D02*
X130353095Y-123714285D01*
X130353095Y-123714285D02*
X130257857Y-123714285D01*
X130257857Y-123714285D02*
X130162619Y-123666666D01*
X130162619Y-123666666D02*
X130115000Y-123619047D01*
X130115000Y-123619047D02*
X130067380Y-123523809D01*
X130067380Y-123523809D02*
X130067380Y-123285714D01*
X130067380Y-123285714D02*
X130115000Y-123142857D01*
X130543571Y-122714285D02*
X130543571Y-122380952D01*
X131067380Y-122238095D02*
X131067380Y-122714285D01*
X131067380Y-122714285D02*
X130067380Y-122714285D01*
X130067380Y-122714285D02*
X130067380Y-122238095D01*
X131067380Y-121238095D02*
X130591190Y-121571428D01*
X131067380Y-121809523D02*
X130067380Y-121809523D01*
X130067380Y-121809523D02*
X130067380Y-121428571D01*
X130067380Y-121428571D02*
X130115000Y-121333333D01*
X130115000Y-121333333D02*
X130162619Y-121285714D01*
X130162619Y-121285714D02*
X130257857Y-121238095D01*
X130257857Y-121238095D02*
X130400714Y-121238095D01*
X130400714Y-121238095D02*
X130495952Y-121285714D01*
X130495952Y-121285714D02*
X130543571Y-121333333D01*
X130543571Y-121333333D02*
X130591190Y-121428571D01*
X130591190Y-121428571D02*
X130591190Y-121809523D01*
D11*
X147782380Y-124861904D02*
X146782380Y-124861904D01*
X147782380Y-124385714D02*
X146782380Y-124385714D01*
X146782380Y-124385714D02*
X147782380Y-123814286D01*
X147782380Y-123814286D02*
X146782380Y-123814286D01*
D10*
X137943571Y-124457142D02*
X137991190Y-124314285D01*
X137991190Y-124314285D02*
X138038809Y-124266666D01*
X138038809Y-124266666D02*
X138134047Y-124219047D01*
X138134047Y-124219047D02*
X138276904Y-124219047D01*
X138276904Y-124219047D02*
X138372142Y-124266666D01*
X138372142Y-124266666D02*
X138419761Y-124314285D01*
X138419761Y-124314285D02*
X138467380Y-124409523D01*
X138467380Y-124409523D02*
X138467380Y-124790475D01*
X138467380Y-124790475D02*
X137467380Y-124790475D01*
X137467380Y-124790475D02*
X137467380Y-124457142D01*
X137467380Y-124457142D02*
X137515000Y-124361904D01*
X137515000Y-124361904D02*
X137562619Y-124314285D01*
X137562619Y-124314285D02*
X137657857Y-124266666D01*
X137657857Y-124266666D02*
X137753095Y-124266666D01*
X137753095Y-124266666D02*
X137848333Y-124314285D01*
X137848333Y-124314285D02*
X137895952Y-124361904D01*
X137895952Y-124361904D02*
X137943571Y-124457142D01*
X137943571Y-124457142D02*
X137943571Y-124790475D01*
X137467380Y-123599999D02*
X137467380Y-123409523D01*
X137467380Y-123409523D02*
X137515000Y-123314285D01*
X137515000Y-123314285D02*
X137610238Y-123219047D01*
X137610238Y-123219047D02*
X137800714Y-123171428D01*
X137800714Y-123171428D02*
X138134047Y-123171428D01*
X138134047Y-123171428D02*
X138324523Y-123219047D01*
X138324523Y-123219047D02*
X138419761Y-123314285D01*
X138419761Y-123314285D02*
X138467380Y-123409523D01*
X138467380Y-123409523D02*
X138467380Y-123599999D01*
X138467380Y-123599999D02*
X138419761Y-123695237D01*
X138419761Y-123695237D02*
X138324523Y-123790475D01*
X138324523Y-123790475D02*
X138134047Y-123838094D01*
X138134047Y-123838094D02*
X137800714Y-123838094D01*
X137800714Y-123838094D02*
X137610238Y-123790475D01*
X137610238Y-123790475D02*
X137515000Y-123695237D01*
X137515000Y-123695237D02*
X137467380Y-123599999D01*
X137467380Y-122552380D02*
X137467380Y-122361904D01*
X137467380Y-122361904D02*
X137515000Y-122266666D01*
X137515000Y-122266666D02*
X137610238Y-122171428D01*
X137610238Y-122171428D02*
X137800714Y-122123809D01*
X137800714Y-122123809D02*
X138134047Y-122123809D01*
X138134047Y-122123809D02*
X138324523Y-122171428D01*
X138324523Y-122171428D02*
X138419761Y-122266666D01*
X138419761Y-122266666D02*
X138467380Y-122361904D01*
X138467380Y-122361904D02*
X138467380Y-122552380D01*
X138467380Y-122552380D02*
X138419761Y-122647618D01*
X138419761Y-122647618D02*
X138324523Y-122742856D01*
X138324523Y-122742856D02*
X138134047Y-122790475D01*
X138134047Y-122790475D02*
X137800714Y-122790475D01*
X137800714Y-122790475D02*
X137610238Y-122742856D01*
X137610238Y-122742856D02*
X137515000Y-122647618D01*
X137515000Y-122647618D02*
X137467380Y-122552380D01*
X137467380Y-121838094D02*
X137467380Y-121266666D01*
X138467380Y-121552380D02*
X137467380Y-121552380D01*
X123767380Y-123447619D02*
X123291190Y-123780952D01*
X123767380Y-124019047D02*
X122767380Y-124019047D01*
X122767380Y-124019047D02*
X122767380Y-123638095D01*
X122767380Y-123638095D02*
X122815000Y-123542857D01*
X122815000Y-123542857D02*
X122862619Y-123495238D01*
X122862619Y-123495238D02*
X122957857Y-123447619D01*
X122957857Y-123447619D02*
X123100714Y-123447619D01*
X123100714Y-123447619D02*
X123195952Y-123495238D01*
X123195952Y-123495238D02*
X123243571Y-123542857D01*
X123243571Y-123542857D02*
X123291190Y-123638095D01*
X123291190Y-123638095D02*
X123291190Y-124019047D01*
X123719761Y-123066666D02*
X123767380Y-122923809D01*
X123767380Y-122923809D02*
X123767380Y-122685714D01*
X123767380Y-122685714D02*
X123719761Y-122590476D01*
X123719761Y-122590476D02*
X123672142Y-122542857D01*
X123672142Y-122542857D02*
X123576904Y-122495238D01*
X123576904Y-122495238D02*
X123481666Y-122495238D01*
X123481666Y-122495238D02*
X123386428Y-122542857D01*
X123386428Y-122542857D02*
X123338809Y-122590476D01*
X123338809Y-122590476D02*
X123291190Y-122685714D01*
X123291190Y-122685714D02*
X123243571Y-122876190D01*
X123243571Y-122876190D02*
X123195952Y-122971428D01*
X123195952Y-122971428D02*
X123148333Y-123019047D01*
X123148333Y-123019047D02*
X123053095Y-123066666D01*
X123053095Y-123066666D02*
X122957857Y-123066666D01*
X122957857Y-123066666D02*
X122862619Y-123019047D01*
X122862619Y-123019047D02*
X122815000Y-122971428D01*
X122815000Y-122971428D02*
X122767380Y-122876190D01*
X122767380Y-122876190D02*
X122767380Y-122638095D01*
X122767380Y-122638095D02*
X122815000Y-122495238D01*
X122767380Y-122209523D02*
X122767380Y-121638095D01*
X123767380Y-121923809D02*
X122767380Y-121923809D01*
D11*
X149282380Y-124671428D02*
X149282380Y-124480952D01*
X149282380Y-124480952D02*
X149330000Y-124385714D01*
X149330000Y-124385714D02*
X149425238Y-124290476D01*
X149425238Y-124290476D02*
X149615714Y-124242857D01*
X149615714Y-124242857D02*
X149949047Y-124242857D01*
X149949047Y-124242857D02*
X150139523Y-124290476D01*
X150139523Y-124290476D02*
X150234761Y-124385714D01*
X150234761Y-124385714D02*
X150282380Y-124480952D01*
X150282380Y-124480952D02*
X150282380Y-124671428D01*
X150282380Y-124671428D02*
X150234761Y-124766666D01*
X150234761Y-124766666D02*
X150139523Y-124861904D01*
X150139523Y-124861904D02*
X149949047Y-124909523D01*
X149949047Y-124909523D02*
X149615714Y-124909523D01*
X149615714Y-124909523D02*
X149425238Y-124861904D01*
X149425238Y-124861904D02*
X149330000Y-124766666D01*
X149330000Y-124766666D02*
X149282380Y-124671428D01*
X149282380Y-123814285D02*
X150091904Y-123814285D01*
X150091904Y-123814285D02*
X150187142Y-123766666D01*
X150187142Y-123766666D02*
X150234761Y-123719047D01*
X150234761Y-123719047D02*
X150282380Y-123623809D01*
X150282380Y-123623809D02*
X150282380Y-123433333D01*
X150282380Y-123433333D02*
X150234761Y-123338095D01*
X150234761Y-123338095D02*
X150187142Y-123290476D01*
X150187142Y-123290476D02*
X150091904Y-123242857D01*
X150091904Y-123242857D02*
X149282380Y-123242857D01*
X149282380Y-122909523D02*
X149282380Y-122338095D01*
X150282380Y-122623809D02*
X149282380Y-122623809D01*
X151830000Y-124238095D02*
X151782380Y-124333333D01*
X151782380Y-124333333D02*
X151782380Y-124476190D01*
X151782380Y-124476190D02*
X151830000Y-124619047D01*
X151830000Y-124619047D02*
X151925238Y-124714285D01*
X151925238Y-124714285D02*
X152020476Y-124761904D01*
X152020476Y-124761904D02*
X152210952Y-124809523D01*
X152210952Y-124809523D02*
X152353809Y-124809523D01*
X152353809Y-124809523D02*
X152544285Y-124761904D01*
X152544285Y-124761904D02*
X152639523Y-124714285D01*
X152639523Y-124714285D02*
X152734761Y-124619047D01*
X152734761Y-124619047D02*
X152782380Y-124476190D01*
X152782380Y-124476190D02*
X152782380Y-124380952D01*
X152782380Y-124380952D02*
X152734761Y-124238095D01*
X152734761Y-124238095D02*
X152687142Y-124190476D01*
X152687142Y-124190476D02*
X152353809Y-124190476D01*
X152353809Y-124190476D02*
X152353809Y-124380952D01*
X152782380Y-123761904D02*
X151782380Y-123761904D01*
X151782380Y-123761904D02*
X152782380Y-123190476D01*
X152782380Y-123190476D02*
X151782380Y-123190476D01*
X152782380Y-122714285D02*
X151782380Y-122714285D01*
X151782380Y-122714285D02*
X151782380Y-122476190D01*
X151782380Y-122476190D02*
X151830000Y-122333333D01*
X151830000Y-122333333D02*
X151925238Y-122238095D01*
X151925238Y-122238095D02*
X152020476Y-122190476D01*
X152020476Y-122190476D02*
X152210952Y-122142857D01*
X152210952Y-122142857D02*
X152353809Y-122142857D01*
X152353809Y-122142857D02*
X152544285Y-122190476D01*
X152544285Y-122190476D02*
X152639523Y-122238095D01*
X152639523Y-122238095D02*
X152734761Y-122333333D01*
X152734761Y-122333333D02*
X152782380Y-122476190D01*
X152782380Y-122476190D02*
X152782380Y-122714285D01*
D10*
X121804761Y-77867380D02*
X121471428Y-77391190D01*
X121233333Y-77867380D02*
X121233333Y-76867380D01*
X121233333Y-76867380D02*
X121614285Y-76867380D01*
X121614285Y-76867380D02*
X121709523Y-76915000D01*
X121709523Y-76915000D02*
X121757142Y-76962619D01*
X121757142Y-76962619D02*
X121804761Y-77057857D01*
X121804761Y-77057857D02*
X121804761Y-77200714D01*
X121804761Y-77200714D02*
X121757142Y-77295952D01*
X121757142Y-77295952D02*
X121709523Y-77343571D01*
X121709523Y-77343571D02*
X121614285Y-77391190D01*
X121614285Y-77391190D02*
X121233333Y-77391190D01*
X122185714Y-77819761D02*
X122328571Y-77867380D01*
X122328571Y-77867380D02*
X122566666Y-77867380D01*
X122566666Y-77867380D02*
X122661904Y-77819761D01*
X122661904Y-77819761D02*
X122709523Y-77772142D01*
X122709523Y-77772142D02*
X122757142Y-77676904D01*
X122757142Y-77676904D02*
X122757142Y-77581666D01*
X122757142Y-77581666D02*
X122709523Y-77486428D01*
X122709523Y-77486428D02*
X122661904Y-77438809D01*
X122661904Y-77438809D02*
X122566666Y-77391190D01*
X122566666Y-77391190D02*
X122376190Y-77343571D01*
X122376190Y-77343571D02*
X122280952Y-77295952D01*
X122280952Y-77295952D02*
X122233333Y-77248333D01*
X122233333Y-77248333D02*
X122185714Y-77153095D01*
X122185714Y-77153095D02*
X122185714Y-77057857D01*
X122185714Y-77057857D02*
X122233333Y-76962619D01*
X122233333Y-76962619D02*
X122280952Y-76915000D01*
X122280952Y-76915000D02*
X122376190Y-76867380D01*
X122376190Y-76867380D02*
X122614285Y-76867380D01*
X122614285Y-76867380D02*
X122757142Y-76915000D01*
X123614285Y-77200714D02*
X123614285Y-77867380D01*
X123376190Y-76819761D02*
X123138095Y-77534047D01*
X123138095Y-77534047D02*
X123757142Y-77534047D01*
X124280952Y-77295952D02*
X124185714Y-77248333D01*
X124185714Y-77248333D02*
X124138095Y-77200714D01*
X124138095Y-77200714D02*
X124090476Y-77105476D01*
X124090476Y-77105476D02*
X124090476Y-77057857D01*
X124090476Y-77057857D02*
X124138095Y-76962619D01*
X124138095Y-76962619D02*
X124185714Y-76915000D01*
X124185714Y-76915000D02*
X124280952Y-76867380D01*
X124280952Y-76867380D02*
X124471428Y-76867380D01*
X124471428Y-76867380D02*
X124566666Y-76915000D01*
X124566666Y-76915000D02*
X124614285Y-76962619D01*
X124614285Y-76962619D02*
X124661904Y-77057857D01*
X124661904Y-77057857D02*
X124661904Y-77105476D01*
X124661904Y-77105476D02*
X124614285Y-77200714D01*
X124614285Y-77200714D02*
X124566666Y-77248333D01*
X124566666Y-77248333D02*
X124471428Y-77295952D01*
X124471428Y-77295952D02*
X124280952Y-77295952D01*
X124280952Y-77295952D02*
X124185714Y-77343571D01*
X124185714Y-77343571D02*
X124138095Y-77391190D01*
X124138095Y-77391190D02*
X124090476Y-77486428D01*
X124090476Y-77486428D02*
X124090476Y-77676904D01*
X124090476Y-77676904D02*
X124138095Y-77772142D01*
X124138095Y-77772142D02*
X124185714Y-77819761D01*
X124185714Y-77819761D02*
X124280952Y-77867380D01*
X124280952Y-77867380D02*
X124471428Y-77867380D01*
X124471428Y-77867380D02*
X124566666Y-77819761D01*
X124566666Y-77819761D02*
X124614285Y-77772142D01*
X124614285Y-77772142D02*
X124661904Y-77676904D01*
X124661904Y-77676904D02*
X124661904Y-77486428D01*
X124661904Y-77486428D02*
X124614285Y-77391190D01*
X124614285Y-77391190D02*
X124566666Y-77343571D01*
X124566666Y-77343571D02*
X124471428Y-77295952D01*
X125566666Y-76867380D02*
X125090476Y-76867380D01*
X125090476Y-76867380D02*
X125042857Y-77343571D01*
X125042857Y-77343571D02*
X125090476Y-77295952D01*
X125090476Y-77295952D02*
X125185714Y-77248333D01*
X125185714Y-77248333D02*
X125423809Y-77248333D01*
X125423809Y-77248333D02*
X125519047Y-77295952D01*
X125519047Y-77295952D02*
X125566666Y-77343571D01*
X125566666Y-77343571D02*
X125614285Y-77438809D01*
X125614285Y-77438809D02*
X125614285Y-77676904D01*
X125614285Y-77676904D02*
X125566666Y-77772142D01*
X125566666Y-77772142D02*
X125519047Y-77819761D01*
X125519047Y-77819761D02*
X125423809Y-77867380D01*
X125423809Y-77867380D02*
X125185714Y-77867380D01*
X125185714Y-77867380D02*
X125090476Y-77819761D01*
X125090476Y-77819761D02*
X125042857Y-77772142D01*
X149209523Y-84967380D02*
X148876190Y-84491190D01*
X148638095Y-84967380D02*
X148638095Y-83967380D01*
X148638095Y-83967380D02*
X149019047Y-83967380D01*
X149019047Y-83967380D02*
X149114285Y-84015000D01*
X149114285Y-84015000D02*
X149161904Y-84062619D01*
X149161904Y-84062619D02*
X149209523Y-84157857D01*
X149209523Y-84157857D02*
X149209523Y-84300714D01*
X149209523Y-84300714D02*
X149161904Y-84395952D01*
X149161904Y-84395952D02*
X149114285Y-84443571D01*
X149114285Y-84443571D02*
X149019047Y-84491190D01*
X149019047Y-84491190D02*
X148638095Y-84491190D01*
X150161904Y-84015000D02*
X150066666Y-83967380D01*
X150066666Y-83967380D02*
X149923809Y-83967380D01*
X149923809Y-83967380D02*
X149780952Y-84015000D01*
X149780952Y-84015000D02*
X149685714Y-84110238D01*
X149685714Y-84110238D02*
X149638095Y-84205476D01*
X149638095Y-84205476D02*
X149590476Y-84395952D01*
X149590476Y-84395952D02*
X149590476Y-84538809D01*
X149590476Y-84538809D02*
X149638095Y-84729285D01*
X149638095Y-84729285D02*
X149685714Y-84824523D01*
X149685714Y-84824523D02*
X149780952Y-84919761D01*
X149780952Y-84919761D02*
X149923809Y-84967380D01*
X149923809Y-84967380D02*
X150019047Y-84967380D01*
X150019047Y-84967380D02*
X150161904Y-84919761D01*
X150161904Y-84919761D02*
X150209523Y-84872142D01*
X150209523Y-84872142D02*
X150209523Y-84538809D01*
X150209523Y-84538809D02*
X150019047Y-84538809D01*
X150971428Y-84443571D02*
X151114285Y-84491190D01*
X151114285Y-84491190D02*
X151161904Y-84538809D01*
X151161904Y-84538809D02*
X151209523Y-84634047D01*
X151209523Y-84634047D02*
X151209523Y-84776904D01*
X151209523Y-84776904D02*
X151161904Y-84872142D01*
X151161904Y-84872142D02*
X151114285Y-84919761D01*
X151114285Y-84919761D02*
X151019047Y-84967380D01*
X151019047Y-84967380D02*
X150638095Y-84967380D01*
X150638095Y-84967380D02*
X150638095Y-83967380D01*
X150638095Y-83967380D02*
X150971428Y-83967380D01*
X150971428Y-83967380D02*
X151066666Y-84015000D01*
X151066666Y-84015000D02*
X151114285Y-84062619D01*
X151114285Y-84062619D02*
X151161904Y-84157857D01*
X151161904Y-84157857D02*
X151161904Y-84253095D01*
X151161904Y-84253095D02*
X151114285Y-84348333D01*
X151114285Y-84348333D02*
X151066666Y-84395952D01*
X151066666Y-84395952D02*
X150971428Y-84443571D01*
X150971428Y-84443571D02*
X150638095Y-84443571D01*
X135457142Y-77572142D02*
X135409523Y-77619761D01*
X135409523Y-77619761D02*
X135266666Y-77667380D01*
X135266666Y-77667380D02*
X135171428Y-77667380D01*
X135171428Y-77667380D02*
X135028571Y-77619761D01*
X135028571Y-77619761D02*
X134933333Y-77524523D01*
X134933333Y-77524523D02*
X134885714Y-77429285D01*
X134885714Y-77429285D02*
X134838095Y-77238809D01*
X134838095Y-77238809D02*
X134838095Y-77095952D01*
X134838095Y-77095952D02*
X134885714Y-76905476D01*
X134885714Y-76905476D02*
X134933333Y-76810238D01*
X134933333Y-76810238D02*
X135028571Y-76715000D01*
X135028571Y-76715000D02*
X135171428Y-76667380D01*
X135171428Y-76667380D02*
X135266666Y-76667380D01*
X135266666Y-76667380D02*
X135409523Y-76715000D01*
X135409523Y-76715000D02*
X135457142Y-76762619D01*
X135838095Y-77381666D02*
X136314285Y-77381666D01*
X135742857Y-77667380D02*
X136076190Y-76667380D01*
X136076190Y-76667380D02*
X136409523Y-77667380D01*
X136742857Y-77667380D02*
X136742857Y-76667380D01*
X136742857Y-76667380D02*
X137314285Y-77667380D01*
X137314285Y-77667380D02*
X137314285Y-76667380D01*
D12*
%TO.C,BZ1*%
X106686428Y-87230951D02*
X106686428Y-86469047D01*
X107067380Y-86849999D02*
X106305476Y-86849999D01*
D13*
%TO.C,J1*%
X145990000Y-128430000D02*
X145990000Y-127100000D01*
X147320000Y-128430000D02*
X145990000Y-128430000D01*
X148590000Y-128430000D02*
X153730000Y-128430000D01*
X148590000Y-128430000D02*
X148590000Y-125770000D01*
X153730000Y-128430000D02*
X153730000Y-125770000D01*
X148590000Y-125770000D02*
X153730000Y-125770000D01*
%TO.C,C28*%
X179407836Y-110060000D02*
X179192164Y-110060000D01*
X179407836Y-109340000D02*
X179192164Y-109340000D01*
%TO.C,R3*%
X168596608Y-78852913D02*
X168596608Y-79160195D01*
X167836608Y-78852913D02*
X167836608Y-79160195D01*
D14*
%TO.C,U1*%
X169750000Y-69900000D02*
X169750000Y-76230000D01*
X169750000Y-89900000D02*
X169750000Y-89770000D01*
X169750000Y-89900000D02*
X187750000Y-89900000D01*
X187750000Y-69900000D02*
X169750000Y-69900000D01*
X187750000Y-76230000D02*
X187750000Y-69900000D01*
X187750000Y-89900000D02*
X187750000Y-89770000D01*
D11*
X168350000Y-77000000D02*
G75*
G03*
X168350000Y-77000000I-100000J0D01*
G01*
D13*
%TO.C,C3*%
X159640000Y-114007836D02*
X159640000Y-113792164D01*
X160360000Y-114007836D02*
X160360000Y-113792164D01*
%TO.C,C23*%
X186787836Y-113560000D02*
X186572164Y-113560000D01*
X186787836Y-112840000D02*
X186572164Y-112840000D01*
%TO.C,C4*%
X175260000Y-108192164D02*
X175260000Y-108407836D01*
X174540000Y-108192164D02*
X174540000Y-108407836D01*
%TO.C,D1*%
X146400000Y-86300000D02*
X152500000Y-86300000D01*
X146400000Y-87400000D02*
X146400000Y-86300000D01*
X152500000Y-91700000D02*
X147500000Y-91700000D01*
%TO.C,C18*%
X140740000Y-99295336D02*
X140740000Y-99079664D01*
X141460000Y-99295336D02*
X141460000Y-99079664D01*
%TO.C,SW1*%
X175740000Y-91490000D02*
X181860000Y-91490000D01*
X175740000Y-95110000D02*
X175740000Y-91490000D01*
X181860000Y-91490000D02*
X181860000Y-95110000D01*
X181860000Y-95110000D02*
X175740000Y-95110000D01*
%TO.C,SW4*%
X132590000Y-125860000D02*
X132590000Y-119740000D01*
X136210000Y-125860000D02*
X132590000Y-125860000D01*
X132590000Y-119740000D02*
X136210000Y-119740000D01*
X136210000Y-119740000D02*
X136210000Y-125860000D01*
%TO.C,IC7*%
X187000000Y-99740000D02*
X185200000Y-99740000D01*
X187000000Y-99740000D02*
X187800000Y-99740000D01*
X187000000Y-102860000D02*
X186200000Y-102860000D01*
X187000000Y-102860000D02*
X187800000Y-102860000D01*
%TO.C,R22*%
X136336359Y-84410500D02*
X136643641Y-84410500D01*
X136336359Y-85170500D02*
X136643641Y-85170500D01*
%TO.C,C16*%
X149621119Y-101145870D02*
X149836791Y-101145870D01*
X149621119Y-101865870D02*
X149836791Y-101865870D01*
D15*
%TO.C,IC5*%
X133241000Y-90923000D02*
X133495000Y-90923000D01*
X133495000Y-90923000D02*
X137686000Y-90923000D01*
X137686000Y-90923000D02*
X137686000Y-87875000D01*
X133241000Y-87875000D02*
X133241000Y-90923000D01*
X137686000Y-87875000D02*
X133241000Y-87875000D01*
D16*
X133681000Y-93463000D02*
G75*
G03*
X133681000Y-93463000I-186000J0D01*
G01*
D17*
X134091500Y-90288000D02*
G75*
G03*
X134091500Y-90288000I-215500J0D01*
G01*
D13*
%TO.C,R23*%
X131980000Y-110046359D02*
X131980000Y-110353641D01*
X131220000Y-110046359D02*
X131220000Y-110353641D01*
%TO.C,R18*%
X155146359Y-86920000D02*
X155453641Y-86920000D01*
X155146359Y-87680000D02*
X155453641Y-87680000D01*
%TO.C,IC1*%
X172510000Y-115510000D02*
X172510000Y-114560000D01*
X172510000Y-114560000D02*
X173850000Y-114560000D01*
X172510000Y-105290000D02*
X172510000Y-106240000D01*
X171560000Y-115510000D02*
X172510000Y-115510000D01*
X171560000Y-105290000D02*
X172510000Y-105290000D01*
X163240000Y-115510000D02*
X162290000Y-115510000D01*
X163240000Y-105290000D02*
X162290000Y-105290000D01*
X162290000Y-115510000D02*
X162290000Y-114560000D01*
X162290000Y-105290000D02*
X162290000Y-106240000D01*
%TO.C,C11*%
X167065000Y-74561252D02*
X167065000Y-74038748D01*
X168535000Y-74561252D02*
X168535000Y-74038748D01*
%TO.C,R4*%
X186177944Y-93658815D02*
X186177944Y-93966097D01*
X185417944Y-93658815D02*
X185417944Y-93966097D01*
%TO.C,C14*%
X100890000Y-96411252D02*
X100890000Y-94988748D01*
X102710000Y-96411252D02*
X102710000Y-94988748D01*
%TO.C,Y2*%
X176750000Y-106650000D02*
X176750000Y-108950000D01*
X176750000Y-108950000D02*
X179450000Y-108950000D01*
%TO.C,R6*%
X194545084Y-93290000D02*
X195999212Y-93290000D01*
X194545084Y-95110000D02*
X195999212Y-95110000D01*
%TO.C,R11*%
X142864664Y-97021999D02*
X142864664Y-96714717D01*
X143624664Y-97021999D02*
X143624664Y-96714717D01*
%TO.C,SW3*%
X125290000Y-125860000D02*
X125290000Y-119740000D01*
X128910000Y-125860000D02*
X125290000Y-125860000D01*
X125290000Y-119740000D02*
X128910000Y-119740000D01*
X128910000Y-119740000D02*
X128910000Y-125860000D01*
%TO.C,C20*%
X196807836Y-108760000D02*
X196592164Y-108760000D01*
X196807836Y-108040000D02*
X196592164Y-108040000D01*
D18*
%TO.C,D2*%
X136899540Y-82940740D02*
X134100460Y-82940740D01*
X136899540Y-81640260D02*
X136899540Y-82940740D01*
X134100460Y-82940740D02*
X134100460Y-81640260D01*
X134100460Y-81640260D02*
X136899540Y-81640260D01*
D13*
%TO.C,R21*%
X134336359Y-84410500D02*
X134643641Y-84410500D01*
X134336359Y-85170500D02*
X134643641Y-85170500D01*
%TO.C,C27*%
X120648409Y-87255913D02*
X120648409Y-87040241D01*
X121368409Y-87255913D02*
X121368409Y-87040241D01*
D11*
%TO.C,IC4*%
X142800000Y-100687500D02*
G75*
G03*
X142800000Y-100687500I-100000J0D01*
G01*
D13*
%TO.C,C1*%
X170292164Y-102540000D02*
X170507836Y-102540000D01*
X170292164Y-103260000D02*
X170507836Y-103260000D01*
%TO.C,C26*%
X138330996Y-87251775D02*
X138330996Y-87036103D01*
X139050996Y-87251775D02*
X139050996Y-87036103D01*
%TO.C,C31*%
X179792164Y-111490546D02*
X180007836Y-111490546D01*
X179792164Y-112210546D02*
X180007836Y-112210546D01*
%TO.C,Y1*%
X176700000Y-115050000D02*
X178500000Y-115050000D01*
X176650000Y-113650000D02*
X176650000Y-112550000D01*
X178550000Y-113650000D02*
X178550000Y-112550000D01*
%TO.C,C25*%
X135671490Y-94357311D02*
X135671490Y-94141639D01*
X136391490Y-94357311D02*
X136391490Y-94141639D01*
%TO.C,C8*%
X165290000Y-102065580D02*
X165290000Y-101784420D01*
X166310000Y-102065580D02*
X166310000Y-101784420D01*
%TO.C,C12*%
X167393263Y-78869654D02*
X167393263Y-79085326D01*
X166673263Y-78869654D02*
X166673263Y-79085326D01*
%TO.C,C6*%
X175610000Y-115659420D02*
X175610000Y-115940580D01*
X174590000Y-115659420D02*
X174590000Y-115940580D01*
%TO.C,J4*%
X141350000Y-75750000D02*
X141350000Y-74500000D01*
X141060000Y-75460000D02*
X141060000Y-69490000D01*
X141060000Y-69490000D02*
X130940000Y-69490000D01*
X141050000Y-75450000D02*
X141050000Y-74700000D01*
X141050000Y-74700000D02*
X139250000Y-74700000D01*
X141050000Y-73200000D02*
X140300000Y-73200000D01*
X140300000Y-73200000D02*
X140300000Y-70250000D01*
X140300000Y-70250000D02*
X136000000Y-70250000D01*
X140100000Y-75750000D02*
X141350000Y-75750000D01*
X139250000Y-75450000D02*
X141050000Y-75450000D01*
X139250000Y-74700000D02*
X139250000Y-75450000D01*
X137750000Y-75450000D02*
X137750000Y-74700000D01*
X137750000Y-74700000D02*
X134250000Y-74700000D01*
X134250000Y-75450000D02*
X137750000Y-75450000D01*
X134250000Y-74700000D02*
X134250000Y-75450000D01*
X132750000Y-75450000D02*
X132750000Y-74700000D01*
X132750000Y-74700000D02*
X130950000Y-74700000D01*
X131700000Y-73200000D02*
X131700000Y-70250000D01*
X131700000Y-70250000D02*
X136000000Y-70250000D01*
X130950000Y-75450000D02*
X132750000Y-75450000D01*
X130950000Y-74700000D02*
X130950000Y-75450000D01*
X130950000Y-73200000D02*
X131700000Y-73200000D01*
X130940000Y-75460000D02*
X141060000Y-75460000D01*
X130940000Y-69490000D02*
X130940000Y-75460000D01*
%TO.C,R5*%
X167443330Y-86383800D02*
X167136048Y-86383800D01*
X167443330Y-85623800D02*
X167136048Y-85623800D01*
D14*
%TO.C,X1*%
X196300000Y-106470000D02*
X194100000Y-106470000D01*
X199770000Y-106470000D02*
X199770000Y-97530000D01*
X196300000Y-97530000D02*
X194100000Y-97530000D01*
D11*
X191020000Y-105048000D02*
G75*
G03*
X191020000Y-105048000I-100000J0D01*
G01*
D13*
%TO.C,C2*%
X171007836Y-118260000D02*
X170792164Y-118260000D01*
X171007836Y-117540000D02*
X170792164Y-117540000D01*
%TO.C,R24*%
X129220000Y-107343641D02*
X129220000Y-107036359D01*
X129980000Y-107343641D02*
X129980000Y-107036359D01*
D15*
%TO.C,IC6*%
X122341000Y-90923000D02*
X122595000Y-90923000D01*
X122595000Y-90923000D02*
X126786000Y-90923000D01*
X126786000Y-90923000D02*
X126786000Y-87875000D01*
X122341000Y-87875000D02*
X122341000Y-90923000D01*
X126786000Y-87875000D02*
X122341000Y-87875000D01*
D16*
X122781000Y-93463000D02*
G75*
G03*
X122781000Y-93463000I-186000J0D01*
G01*
D17*
X123191500Y-90288000D02*
G75*
G03*
X123191500Y-90288000I-215500J0D01*
G01*
D18*
%TO.C,Q2*%
X154754543Y-81740198D02*
X151955463Y-81740198D01*
X154754543Y-80439718D02*
X154754543Y-81740198D01*
X151955463Y-81740198D02*
X151955463Y-80439718D01*
X151955463Y-80439718D02*
X154754543Y-80439718D01*
D13*
%TO.C,C17*%
X148060000Y-98892164D02*
X148060000Y-99107836D01*
X147340000Y-98892164D02*
X147340000Y-99107836D01*
%TO.C,C5*%
X163792164Y-102540000D02*
X164007836Y-102540000D01*
X163792164Y-103260000D02*
X164007836Y-103260000D01*
%TO.C,C22*%
X196540580Y-110310000D02*
X196259420Y-110310000D01*
X196540580Y-109290000D02*
X196259420Y-109290000D01*
D18*
%TO.C,Q1*%
X159833759Y-81750240D02*
X157034679Y-81750240D01*
X159833759Y-80449760D02*
X159833759Y-81750240D01*
X157034679Y-81750240D02*
X157034679Y-80449760D01*
X157034679Y-80449760D02*
X159833759Y-80449760D01*
D13*
%TO.C,C32*%
X134040000Y-115307836D02*
X134040000Y-115092164D01*
X134760000Y-115307836D02*
X134760000Y-115092164D01*
%TO.C,J3*%
X148520000Y-72330000D02*
X148520000Y-71000000D01*
X149850000Y-72330000D02*
X148520000Y-72330000D01*
X151120000Y-72330000D02*
X163880000Y-72330000D01*
X151120000Y-72330000D02*
X151120000Y-69670000D01*
X163880000Y-72330000D02*
X163880000Y-69670000D01*
X151120000Y-69670000D02*
X163880000Y-69670000D01*
%TO.C,R20*%
X155146359Y-90320000D02*
X155453641Y-90320000D01*
X155146359Y-91080000D02*
X155453641Y-91080000D01*
%TO.C,R9*%
X105310000Y-94972936D02*
X105310000Y-96427064D01*
X103490000Y-94972936D02*
X103490000Y-96427064D01*
%TO.C,C15*%
X126740000Y-115307836D02*
X126740000Y-115092164D01*
X127460000Y-115307836D02*
X127460000Y-115092164D01*
%TO.C,R27*%
X129220000Y-101653641D02*
X129220000Y-101346359D01*
X129980000Y-101653641D02*
X129980000Y-101346359D01*
%TO.C,C19*%
X139640000Y-99315336D02*
X139640000Y-99099664D01*
X140360000Y-99315336D02*
X140360000Y-99099664D01*
D11*
%TO.C,IC3*%
X154682500Y-98500000D02*
G75*
G03*
X154682500Y-98500000I-100000J0D01*
G01*
D13*
%TO.C,X2*%
X106000000Y-100075000D02*
X113250000Y-100075000D01*
X100750000Y-100075000D02*
X103200000Y-100075000D01*
X100750000Y-101025000D02*
X98500000Y-101025000D01*
X97700000Y-101825000D02*
X97700000Y-111225000D01*
X100750000Y-107575000D02*
X100750000Y-100075000D01*
X100650000Y-108875000D02*
X100750000Y-107575000D01*
X100450000Y-110075000D02*
X100650000Y-108875000D01*
X100050000Y-111675000D02*
X100450000Y-110075000D01*
X100050000Y-112025000D02*
X98500000Y-112025000D01*
X114750000Y-113375000D02*
X114750000Y-110175000D01*
X106000000Y-114925000D02*
X113300000Y-114925000D01*
X103200000Y-114925000D02*
X100050000Y-114925000D01*
X100050000Y-114925000D02*
X100050000Y-111675000D01*
X98500000Y-101025000D02*
G75*
G03*
X97700000Y-101825000I1J-800001D01*
G01*
X97700000Y-111225000D02*
G75*
G03*
X98500000Y-112025000I800000J0D01*
G01*
D18*
%TO.C,D4*%
X125999540Y-82940740D02*
X123200460Y-82940740D01*
X125999540Y-81640260D02*
X125999540Y-82940740D01*
X123200460Y-82940740D02*
X123200460Y-81640260D01*
X123200460Y-81640260D02*
X125999540Y-81640260D01*
D13*
%TO.C,C29*%
X176692164Y-109340000D02*
X176907836Y-109340000D01*
X176692164Y-110060000D02*
X176907836Y-110060000D01*
D15*
%TO.C,IC2*%
X151050000Y-96900000D02*
G75*
G03*
X151050000Y-96900000I-50000J0D01*
G01*
D13*
%TO.C,R26*%
X129980000Y-103446359D02*
X129980000Y-103753641D01*
X129220000Y-103446359D02*
X129220000Y-103753641D01*
%TO.C,R1*%
X151432549Y-80303356D02*
X151432549Y-80610638D01*
X150672549Y-80303356D02*
X150672549Y-80610638D01*
%TO.C,R7*%
X186946359Y-97520000D02*
X187253641Y-97520000D01*
X186946359Y-98280000D02*
X187253641Y-98280000D01*
%TO.C,C7*%
X170359420Y-100890000D02*
X170640580Y-100890000D01*
X170359420Y-101910000D02*
X170640580Y-101910000D01*
%TO.C,R10*%
X152680000Y-99846359D02*
X152680000Y-100153641D01*
X151920000Y-99846359D02*
X151920000Y-100153641D01*
%TO.C,R17*%
X110980000Y-82946359D02*
X110980000Y-83253641D01*
X110220000Y-82946359D02*
X110220000Y-83253641D01*
%TO.C,R15*%
X116720000Y-100553641D02*
X116720000Y-100246359D01*
X117480000Y-100553641D02*
X117480000Y-100246359D01*
%TO.C,R16*%
X112904685Y-86531044D02*
X112597403Y-86531044D01*
X112904685Y-85771044D02*
X112597403Y-85771044D01*
%TO.C,C24*%
X186840580Y-115210000D02*
X186559420Y-115210000D01*
X186840580Y-114190000D02*
X186559420Y-114190000D01*
%TO.C,R13*%
X155946359Y-96620000D02*
X156253641Y-96620000D01*
X155946359Y-97380000D02*
X156253641Y-97380000D01*
%TO.C,R14*%
X131600289Y-87326978D02*
X131600289Y-87019696D01*
X132360289Y-87326978D02*
X132360289Y-87019696D01*
%TO.C,R12*%
X158253641Y-97380000D02*
X157946359Y-97380000D01*
X158253641Y-96620000D02*
X157946359Y-96620000D01*
%TO.C,SW2*%
X117990000Y-125860000D02*
X117990000Y-119740000D01*
X121610000Y-125860000D02*
X117990000Y-125860000D01*
X117990000Y-119740000D02*
X121610000Y-119740000D01*
X121610000Y-119740000D02*
X121610000Y-125860000D01*
%TO.C,C13*%
X196003400Y-92590000D02*
X194580896Y-92590000D01*
X196003400Y-90770000D02*
X194580896Y-90770000D01*
%TO.C,IC8*%
X198100000Y-117810000D02*
X192090000Y-117810000D01*
X195850000Y-110990000D02*
X192090000Y-110990000D01*
X192090000Y-117810000D02*
X192090000Y-116550000D01*
X192090000Y-110990000D02*
X192090000Y-112250000D01*
%TO.C,J5*%
X128750000Y-75750000D02*
X128750000Y-74500000D01*
X128460000Y-75460000D02*
X128460000Y-69490000D01*
X128460000Y-69490000D02*
X118340000Y-69490000D01*
X128450000Y-75450000D02*
X128450000Y-74700000D01*
X128450000Y-74700000D02*
X126650000Y-74700000D01*
X128450000Y-73200000D02*
X127700000Y-73200000D01*
X127700000Y-73200000D02*
X127700000Y-70250000D01*
X127700000Y-70250000D02*
X123400000Y-70250000D01*
X127500000Y-75750000D02*
X128750000Y-75750000D01*
X126650000Y-75450000D02*
X128450000Y-75450000D01*
X126650000Y-74700000D02*
X126650000Y-75450000D01*
X125150000Y-75450000D02*
X125150000Y-74700000D01*
X125150000Y-74700000D02*
X121650000Y-74700000D01*
X121650000Y-75450000D02*
X125150000Y-75450000D01*
X121650000Y-74700000D02*
X121650000Y-75450000D01*
X120150000Y-75450000D02*
X120150000Y-74700000D01*
X120150000Y-74700000D02*
X118350000Y-74700000D01*
X119100000Y-73200000D02*
X119100000Y-70250000D01*
X119100000Y-70250000D02*
X123400000Y-70250000D01*
X118350000Y-75450000D02*
X120150000Y-75450000D01*
X118350000Y-74700000D02*
X118350000Y-75450000D01*
X118350000Y-73200000D02*
X119100000Y-73200000D01*
X118340000Y-75460000D02*
X128460000Y-75460000D01*
X118340000Y-69490000D02*
X118340000Y-75460000D01*
%TO.C,C30*%
X179792164Y-113990910D02*
X180007836Y-113990910D01*
X179792164Y-114710910D02*
X180007836Y-114710910D01*
%TO.C,R8*%
X186946359Y-104520000D02*
X187253641Y-104520000D01*
X186946359Y-105280000D02*
X187253641Y-105280000D01*
%TO.C,C9*%
X119440000Y-115307836D02*
X119440000Y-115092164D01*
X120160000Y-115307836D02*
X120160000Y-115092164D01*
%TO.C,R2*%
X156032087Y-79179055D02*
X155724805Y-79179055D01*
X156032087Y-78419055D02*
X155724805Y-78419055D01*
%TO.C,J2*%
X157370000Y-128430000D02*
X157370000Y-127100000D01*
X158700000Y-128430000D02*
X157370000Y-128430000D01*
X159970000Y-128430000D02*
X172730000Y-128430000D01*
X159970000Y-128430000D02*
X159970000Y-125770000D01*
X172730000Y-128430000D02*
X172730000Y-125770000D01*
X159970000Y-125770000D02*
X172730000Y-125770000D01*
%TO.C,C21*%
X160275908Y-99872787D02*
X160275908Y-100088459D01*
X159555908Y-99872787D02*
X159555908Y-100088459D01*
%TO.C,R28*%
X129980000Y-110046359D02*
X129980000Y-110353641D01*
X129220000Y-110046359D02*
X129220000Y-110353641D01*
%TO.C,BZ1*%
X100850000Y-81600000D02*
X100850000Y-85600000D01*
X103200000Y-87950000D02*
X107200000Y-87950000D01*
X107200000Y-79250000D02*
X103200000Y-79250000D01*
X109550000Y-85600000D02*
X109550000Y-81600000D01*
D18*
%TO.C,Q3*%
X111796057Y-83094312D02*
X114595137Y-83094312D01*
X111796057Y-84394792D02*
X111796057Y-83094312D01*
X114595137Y-83094312D02*
X114595137Y-84394792D01*
X114595137Y-84394792D02*
X111796057Y-84394792D01*
D13*
%TO.C,R19*%
X155136359Y-88630000D02*
X155443641Y-88630000D01*
X155136359Y-89390000D02*
X155443641Y-89390000D01*
%TO.C,R25*%
X168765128Y-118553641D02*
X168765128Y-118246359D01*
X169525128Y-118553641D02*
X169525128Y-118246359D01*
%TO.C,C10*%
X165693324Y-74868787D02*
X165693324Y-74653115D01*
X166413324Y-74868787D02*
X166413324Y-74653115D01*
%TD*%
M02*
