%TF.GenerationSoftware,KiCad,Pcbnew,(7.0.0)*%
%TF.CreationDate,2023-05-17T20:16:57-03:00*%
%TF.ProjectId,d3vk1t,6433766b-3174-42e6-9b69-6361645f7063,rev?*%
%TF.SameCoordinates,Original*%
%TF.FileFunction,Copper,L1,Top*%
%TF.FilePolarity,Positive*%
%FSLAX46Y46*%
G04 Gerber Fmt 4.6, Leading zero omitted, Abs format (unit mm)*
G04 Created by KiCad (PCBNEW (7.0.0)) date 2023-05-17 20:16:57*
%MOMM*%
%LPD*%
G01*
G04 APERTURE LIST*
G04 Aperture macros list*
%AMRoundRect*
0 Rectangle with rounded corners*
0 $1 Rounding radius*
0 $2 $3 $4 $5 $6 $7 $8 $9 X,Y pos of 4 corners*
0 Add a 4 corners polygon primitive as box body*
4,1,4,$2,$3,$4,$5,$6,$7,$8,$9,$2,$3,0*
0 Add four circle primitives for the rounded corners*
1,1,$1+$1,$2,$3*
1,1,$1+$1,$4,$5*
1,1,$1+$1,$6,$7*
1,1,$1+$1,$8,$9*
0 Add four rect primitives between the rounded corners*
20,1,$1+$1,$2,$3,$4,$5,0*
20,1,$1+$1,$4,$5,$6,$7,0*
20,1,$1+$1,$6,$7,$8,$9,0*
20,1,$1+$1,$8,$9,$2,$3,0*%
G04 Aperture macros list end*
%TA.AperFunction,ComponentPad*%
%ADD10R,1.700000X1.700000*%
%TD*%
%TA.AperFunction,ComponentPad*%
%ADD11O,1.700000X1.700000*%
%TD*%
%TA.AperFunction,SMDPad,CuDef*%
%ADD12RoundRect,0.140000X0.140000X0.170000X-0.140000X0.170000X-0.140000X-0.170000X0.140000X-0.170000X0*%
%TD*%
%TA.AperFunction,SMDPad,CuDef*%
%ADD13RoundRect,0.135000X-0.185000X0.135000X-0.185000X-0.135000X0.185000X-0.135000X0.185000X0.135000X0*%
%TD*%
%TA.AperFunction,SMDPad,CuDef*%
%ADD14R,1.500000X0.900000*%
%TD*%
%TA.AperFunction,SMDPad,CuDef*%
%ADD15R,0.700000X0.700000*%
%TD*%
%TA.AperFunction,ComponentPad*%
%ADD16C,0.400000*%
%TD*%
%TA.AperFunction,SMDPad,CuDef*%
%ADD17RoundRect,0.140000X0.170000X-0.140000X0.170000X0.140000X-0.170000X0.140000X-0.170000X-0.140000X0*%
%TD*%
%TA.AperFunction,SMDPad,CuDef*%
%ADD18RoundRect,0.140000X-0.170000X0.140000X-0.170000X-0.140000X0.170000X-0.140000X0.170000X0.140000X0*%
%TD*%
%TA.AperFunction,SMDPad,CuDef*%
%ADD19R,2.000000X1.100000*%
%TD*%
%TA.AperFunction,SMDPad,CuDef*%
%ADD20R,2.180000X1.600000*%
%TD*%
%TA.AperFunction,SMDPad,CuDef*%
%ADD21R,1.600000X2.180000*%
%TD*%
%TA.AperFunction,SMDPad,CuDef*%
%ADD22RoundRect,0.150000X-0.512500X-0.150000X0.512500X-0.150000X0.512500X0.150000X-0.512500X0.150000X0*%
%TD*%
%TA.AperFunction,SMDPad,CuDef*%
%ADD23RoundRect,0.135000X-0.135000X-0.185000X0.135000X-0.185000X0.135000X0.185000X-0.135000X0.185000X0*%
%TD*%
%TA.AperFunction,SMDPad,CuDef*%
%ADD24RoundRect,0.140000X-0.140000X-0.170000X0.140000X-0.170000X0.140000X0.170000X-0.140000X0.170000X0*%
%TD*%
%TA.AperFunction,SMDPad,CuDef*%
%ADD25RoundRect,0.147500X0.147500X-0.727500X0.147500X0.727500X-0.147500X0.727500X-0.147500X-0.727500X0*%
%TD*%
%TA.AperFunction,SMDPad,CuDef*%
%ADD26RoundRect,0.075000X0.700000X0.075000X-0.700000X0.075000X-0.700000X-0.075000X0.700000X-0.075000X0*%
%TD*%
%TA.AperFunction,SMDPad,CuDef*%
%ADD27RoundRect,0.075000X0.075000X0.700000X-0.075000X0.700000X-0.075000X-0.700000X0.075000X-0.700000X0*%
%TD*%
%TA.AperFunction,SMDPad,CuDef*%
%ADD28RoundRect,0.250000X0.475000X-0.250000X0.475000X0.250000X-0.475000X0.250000X-0.475000X-0.250000X0*%
%TD*%
%TA.AperFunction,SMDPad,CuDef*%
%ADD29RoundRect,0.250000X0.650000X-0.325000X0.650000X0.325000X-0.650000X0.325000X-0.650000X-0.325000X0*%
%TD*%
%TA.AperFunction,SMDPad,CuDef*%
%ADD30R,0.900000X0.800000*%
%TD*%
%TA.AperFunction,SMDPad,CuDef*%
%ADD31RoundRect,0.250000X-0.312500X-0.625000X0.312500X-0.625000X0.312500X0.625000X-0.312500X0.625000X0*%
%TD*%
%TA.AperFunction,SMDPad,CuDef*%
%ADD32RoundRect,0.135000X0.185000X-0.135000X0.185000X0.135000X-0.185000X0.135000X-0.185000X-0.135000X0*%
%TD*%
%TA.AperFunction,ComponentPad*%
%ADD33C,0.800000*%
%TD*%
%TA.AperFunction,ComponentPad*%
%ADD34C,6.400000*%
%TD*%
%TA.AperFunction,SMDPad,CuDef*%
%ADD35R,0.701040X0.800100*%
%TD*%
%TA.AperFunction,SMDPad,CuDef*%
%ADD36R,0.350000X0.430000*%
%TD*%
%TA.AperFunction,SMDPad,CuDef*%
%ADD37R,0.430000X0.350000*%
%TD*%
%TA.AperFunction,SMDPad,CuDef*%
%ADD38R,1.800000X1.000000*%
%TD*%
%TA.AperFunction,SMDPad,CuDef*%
%ADD39RoundRect,0.225000X0.250000X-0.225000X0.250000X0.225000X-0.250000X0.225000X-0.250000X-0.225000X0*%
%TD*%
%TA.AperFunction,SMDPad,CuDef*%
%ADD40RoundRect,0.225000X-0.250000X0.225000X-0.250000X-0.225000X0.250000X-0.225000X0.250000X0.225000X0*%
%TD*%
%TA.AperFunction,ComponentPad*%
%ADD41RoundRect,0.250000X0.600000X0.725000X-0.600000X0.725000X-0.600000X-0.725000X0.600000X-0.725000X0*%
%TD*%
%TA.AperFunction,ComponentPad*%
%ADD42O,1.700000X1.950000*%
%TD*%
%TA.AperFunction,SMDPad,CuDef*%
%ADD43RoundRect,0.135000X0.135000X0.185000X-0.135000X0.185000X-0.135000X-0.185000X0.135000X-0.185000X0*%
%TD*%
%TA.AperFunction,SMDPad,CuDef*%
%ADD44R,0.700000X0.300000*%
%TD*%
%TA.AperFunction,SMDPad,CuDef*%
%ADD45R,0.700000X1.000000*%
%TD*%
%TA.AperFunction,ComponentPad*%
%ADD46O,2.200000X1.200000*%
%TD*%
%TA.AperFunction,ComponentPad*%
%ADD47O,2.700000X1.200000*%
%TD*%
%TA.AperFunction,ComponentPad*%
%ADD48O,2.600000X1.200000*%
%TD*%
%TA.AperFunction,SMDPad,CuDef*%
%ADD49RoundRect,0.225000X0.225000X0.250000X-0.225000X0.250000X-0.225000X-0.250000X0.225000X-0.250000X0*%
%TD*%
%TA.AperFunction,SMDPad,CuDef*%
%ADD50RoundRect,0.250000X-0.625000X0.312500X-0.625000X-0.312500X0.625000X-0.312500X0.625000X0.312500X0*%
%TD*%
%TA.AperFunction,SMDPad,CuDef*%
%ADD51RoundRect,0.021000X-0.409000X-0.189000X0.409000X-0.189000X0.409000X0.189000X-0.409000X0.189000X0*%
%TD*%
%TA.AperFunction,SMDPad,CuDef*%
%ADD52R,1.500000X2.400000*%
%TD*%
%TA.AperFunction,SMDPad,CuDef*%
%ADD53R,1.800000X0.700000*%
%TD*%
%TA.AperFunction,SMDPad,CuDef*%
%ADD54R,1.800000X1.600000*%
%TD*%
%TA.AperFunction,SMDPad,CuDef*%
%ADD55R,2.600000X1.600000*%
%TD*%
%TA.AperFunction,SMDPad,CuDef*%
%ADD56R,1.800000X2.000000*%
%TD*%
%TA.AperFunction,SMDPad,CuDef*%
%ADD57R,0.350000X0.600000*%
%TD*%
%TA.AperFunction,SMDPad,CuDef*%
%ADD58R,0.600000X0.350000*%
%TD*%
%TA.AperFunction,SMDPad,CuDef*%
%ADD59RoundRect,0.225000X-0.225000X-0.250000X0.225000X-0.250000X0.225000X0.250000X-0.225000X0.250000X0*%
%TD*%
%TA.AperFunction,SMDPad,CuDef*%
%ADD60RoundRect,0.250000X0.325000X0.650000X-0.325000X0.650000X-0.325000X-0.650000X0.325000X-0.650000X0*%
%TD*%
%TA.AperFunction,SMDPad,CuDef*%
%ADD61R,2.000000X1.500000*%
%TD*%
%TA.AperFunction,SMDPad,CuDef*%
%ADD62R,2.000000X3.800000*%
%TD*%
%TA.AperFunction,SMDPad,CuDef*%
%ADD63R,2.000000X2.000000*%
%TD*%
%TA.AperFunction,ViaPad*%
%ADD64C,0.600000*%
%TD*%
%TA.AperFunction,Conductor*%
%ADD65C,0.150000*%
%TD*%
%TA.AperFunction,Conductor*%
%ADD66C,1.000000*%
%TD*%
%TA.AperFunction,Conductor*%
%ADD67C,0.300000*%
%TD*%
%TA.AperFunction,Conductor*%
%ADD68C,0.500000*%
%TD*%
%TA.AperFunction,Conductor*%
%ADD69C,0.250000*%
%TD*%
%TA.AperFunction,Conductor*%
%ADD70C,0.800000*%
%TD*%
%TA.AperFunction,Conductor*%
%ADD71C,0.200000*%
%TD*%
G04 APERTURE END LIST*
%TO.C,G\u002A\u002A\u002A*%
G36*
X179531522Y-125206654D02*
G01*
X180072648Y-125206654D01*
X180091502Y-125272340D01*
X180143436Y-125363060D01*
X180222616Y-125472377D01*
X180323207Y-125593851D01*
X180439375Y-125721046D01*
X180565285Y-125847523D01*
X180695102Y-125966843D01*
X180822991Y-126072569D01*
X180923251Y-126145221D01*
X181087612Y-126247909D01*
X181261038Y-126343471D01*
X181434362Y-126427864D01*
X181598418Y-126497047D01*
X181744040Y-126546980D01*
X181862062Y-126573619D01*
X181902269Y-126576910D01*
X181945200Y-126571459D01*
X181968593Y-126544172D01*
X181983303Y-126481530D01*
X181984429Y-126474590D01*
X181992113Y-126407858D01*
X181991463Y-126365143D01*
X181989104Y-126359284D01*
X181961576Y-126346546D01*
X181897891Y-126322449D01*
X181809452Y-126291221D01*
X181762953Y-126275410D01*
X181611211Y-126221138D01*
X181479843Y-126165392D01*
X181353362Y-126100329D01*
X181216279Y-126018108D01*
X181083820Y-125931527D01*
X180886249Y-125784065D01*
X180691637Y-125611100D01*
X180515066Y-125427056D01*
X180380200Y-125258506D01*
X180325792Y-125184133D01*
X180282778Y-125128816D01*
X180258951Y-125102491D01*
X180257098Y-125101576D01*
X180211861Y-125113126D01*
X180153900Y-125140759D01*
X180101692Y-125173946D01*
X180073716Y-125202163D01*
X180072648Y-125206654D01*
X179531522Y-125206654D01*
X179527206Y-125178310D01*
X179531920Y-125036894D01*
X179566617Y-124927424D01*
X179637677Y-124837712D01*
X179747166Y-124758173D01*
X179807617Y-124725202D01*
X179896839Y-124681064D01*
X180004938Y-124630160D01*
X180122018Y-124576892D01*
X180238185Y-124525661D01*
X180343544Y-124480866D01*
X180428199Y-124446910D01*
X180482257Y-124428192D01*
X180494218Y-124425911D01*
X180513830Y-124446595D01*
X180546857Y-124500508D01*
X180581567Y-124566877D01*
X180754786Y-124864114D01*
X180967363Y-125132452D01*
X181215294Y-125367851D01*
X181494574Y-125566274D01*
X181666775Y-125661540D01*
X181843323Y-125738547D01*
X182042963Y-125807204D01*
X182243606Y-125860700D01*
X182409567Y-125890604D01*
X182556557Y-125908969D01*
X182538996Y-126187194D01*
X182522148Y-126393764D01*
X182499678Y-126576523D01*
X182472752Y-126728812D01*
X182442533Y-126843975D01*
X182412183Y-126912401D01*
X182326349Y-126999466D01*
X182204194Y-127060607D01*
X182052972Y-127094523D01*
X181879935Y-127099912D01*
X181692337Y-127075473D01*
X181611428Y-127056130D01*
X181290734Y-126946470D01*
X180968455Y-126793116D01*
X180653285Y-126601357D01*
X180353918Y-126376481D01*
X180079390Y-126124127D01*
X179879092Y-125904159D01*
X179724793Y-125699012D01*
X179615342Y-125506714D01*
X179549590Y-125325295D01*
X179531522Y-125206654D01*
G37*
G36*
X182877548Y-126389091D02*
G01*
X183407125Y-126389091D01*
X183411955Y-126449473D01*
X183415570Y-126474590D01*
X183428855Y-126531751D01*
X183452162Y-126565502D01*
X183493933Y-126577256D01*
X183562610Y-126568426D01*
X183666635Y-126540426D01*
X183717117Y-126525075D01*
X183903196Y-126456084D01*
X184109206Y-126359837D01*
X184319420Y-126244200D01*
X184476550Y-126145359D01*
X184598489Y-126055717D01*
X184727175Y-125947161D01*
X184856773Y-125826126D01*
X184981450Y-125699050D01*
X185095372Y-125572370D01*
X185192705Y-125452521D01*
X185267615Y-125345940D01*
X185314268Y-125259064D01*
X185327351Y-125206654D01*
X185307178Y-125180941D01*
X185258712Y-125147944D01*
X185200431Y-125118188D01*
X185150813Y-125102200D01*
X185142901Y-125101576D01*
X185124169Y-125120442D01*
X185084589Y-125170416D01*
X185031955Y-125241562D01*
X185019799Y-125258506D01*
X184873561Y-125439902D01*
X184695249Y-125623643D01*
X184499944Y-125795302D01*
X184316179Y-125931527D01*
X184158619Y-126033872D01*
X184024473Y-126112570D01*
X183898254Y-126175464D01*
X183764475Y-126230395D01*
X183637046Y-126275410D01*
X183540963Y-126308517D01*
X183464315Y-126336466D01*
X183418508Y-126355027D01*
X183410896Y-126359284D01*
X183407125Y-126389091D01*
X182877548Y-126389091D01*
X182872578Y-126344296D01*
X182859330Y-126196364D01*
X182851699Y-126071364D01*
X182850581Y-126024115D01*
X182850147Y-125908131D01*
X182993785Y-125890185D01*
X183312006Y-125825715D01*
X183618640Y-125715302D01*
X183908611Y-125562627D01*
X184176844Y-125371371D01*
X184418264Y-125145215D01*
X184627794Y-124887840D01*
X184800359Y-124602926D01*
X184818432Y-124566877D01*
X184857046Y-124493594D01*
X184889011Y-124442621D01*
X184905781Y-124425911D01*
X184942198Y-124436023D01*
X185013825Y-124463425D01*
X185110766Y-124503716D01*
X185223127Y-124552495D01*
X185341013Y-124605362D01*
X185454529Y-124657915D01*
X185553780Y-124705753D01*
X185628870Y-124744476D01*
X185652834Y-124758173D01*
X185765190Y-124840368D01*
X185835003Y-124930519D01*
X185868654Y-125040812D01*
X185872793Y-125178310D01*
X185840519Y-125358051D01*
X185764737Y-125545889D01*
X185650588Y-125738167D01*
X185503215Y-125931224D01*
X185327758Y-126121403D01*
X185129359Y-126305044D01*
X184913159Y-126478487D01*
X184684299Y-126638075D01*
X184447921Y-126780148D01*
X184209165Y-126901046D01*
X183973174Y-126997112D01*
X183745088Y-127064686D01*
X183530049Y-127100109D01*
X183333198Y-127099722D01*
X183206909Y-127075591D01*
X183097880Y-127019757D01*
X183006788Y-126926390D01*
X182943805Y-126807401D01*
X182927233Y-126748132D01*
X182908410Y-126637936D01*
X182889565Y-126497405D01*
X182877548Y-126389091D01*
G37*
G36*
X181110908Y-124271797D02*
G01*
X181170120Y-124331996D01*
X181197206Y-124426875D01*
X181198522Y-124457643D01*
X181203596Y-124521398D01*
X181223683Y-124578356D01*
X181266079Y-124643923D01*
X181317389Y-124708601D01*
X181523655Y-124919869D01*
X181762010Y-125093881D01*
X182027831Y-125227401D01*
X182094363Y-125252760D01*
X182187661Y-125282972D01*
X182245679Y-125292577D01*
X182278069Y-125283014D01*
X182280796Y-125280543D01*
X182336473Y-125255289D01*
X182412600Y-125254376D01*
X182487029Y-125275877D01*
X182524827Y-125301773D01*
X182566818Y-125373475D01*
X182568736Y-125452017D01*
X182536540Y-125524601D01*
X182476194Y-125578430D01*
X182393657Y-125600704D01*
X182385579Y-125600728D01*
X182325977Y-125592844D01*
X182236904Y-125573294D01*
X182136414Y-125546102D01*
X182124433Y-125542513D01*
X181976037Y-125495010D01*
X181857766Y-125449623D01*
X181750857Y-125397748D01*
X181636550Y-125330781D01*
X181569040Y-125287840D01*
X181433993Y-125189929D01*
X181299760Y-125073663D01*
X181172432Y-124946310D01*
X181058099Y-124815137D01*
X180962853Y-124687409D01*
X180892784Y-124570395D01*
X180853984Y-124471361D01*
X180848177Y-124427785D01*
X180870292Y-124341215D01*
X180928897Y-124278399D01*
X181012377Y-124251075D01*
X181023349Y-124250739D01*
X181110908Y-124271797D01*
G37*
G36*
X184462304Y-124273090D02*
G01*
X184524455Y-124332322D01*
X184551489Y-124416696D01*
X184551822Y-124427785D01*
X184534705Y-124500265D01*
X184487364Y-124598200D01*
X184415819Y-124712527D01*
X184326089Y-124834183D01*
X184224191Y-124954105D01*
X184153488Y-125027615D01*
X183971529Y-125184301D01*
X183764620Y-125324525D01*
X183544655Y-125442150D01*
X183323531Y-125531041D01*
X183113143Y-125585065D01*
X183056804Y-125593221D01*
X182979108Y-125598306D01*
X182929708Y-125586938D01*
X182888079Y-125553669D01*
X182881428Y-125546660D01*
X182834583Y-125466886D01*
X182830512Y-125385631D01*
X182864106Y-125314823D01*
X182930253Y-125266390D01*
X183007803Y-125251724D01*
X183073671Y-125259953D01*
X183118459Y-125279824D01*
X183119203Y-125280543D01*
X183149069Y-125292401D01*
X183203357Y-125285270D01*
X183291718Y-125257711D01*
X183305636Y-125252760D01*
X183577291Y-125129313D01*
X183822574Y-124964606D01*
X184036865Y-124761877D01*
X184082610Y-124708601D01*
X184146715Y-124626301D01*
X184182995Y-124564255D01*
X184198747Y-124507059D01*
X184201477Y-124457643D01*
X184219306Y-124354223D01*
X184270273Y-124284286D01*
X184350600Y-124252292D01*
X184376650Y-124250739D01*
X184462304Y-124273090D01*
G37*
G36*
X182340863Y-123819324D02*
G01*
X182434211Y-123869036D01*
X182522588Y-123938370D01*
X182589702Y-124016266D01*
X182598644Y-124031012D01*
X182612624Y-124061611D01*
X182619927Y-124098183D01*
X182620125Y-124149682D01*
X182612787Y-124225063D01*
X182597483Y-124333280D01*
X182578257Y-124455485D01*
X182555015Y-124588463D01*
X182530679Y-124707675D01*
X182507692Y-124802402D01*
X182488496Y-124861922D01*
X182483297Y-124872188D01*
X182438213Y-124916881D01*
X182369721Y-124961055D01*
X182299290Y-124992554D01*
X182256616Y-125000498D01*
X182222174Y-124990644D01*
X182164583Y-124967964D01*
X182158718Y-124965432D01*
X182100626Y-124934976D01*
X182065532Y-124907131D01*
X182064417Y-124905498D01*
X182031178Y-124891281D01*
X181972165Y-124891850D01*
X181967571Y-124892537D01*
X181886781Y-124893549D01*
X181817893Y-124879001D01*
X181751146Y-124832449D01*
X181692032Y-124757199D01*
X181654909Y-124674081D01*
X181649059Y-124634050D01*
X181627526Y-124581124D01*
X181598249Y-124563335D01*
X181533064Y-124518738D01*
X181489088Y-124442305D01*
X181469977Y-124349074D01*
X181479387Y-124254078D01*
X181507550Y-124190433D01*
X181549259Y-124150762D01*
X181626628Y-124097514D01*
X181729051Y-124036199D01*
X181845920Y-123972323D01*
X181966628Y-123911396D01*
X182080569Y-123858925D01*
X182177134Y-123820419D01*
X182245717Y-123801386D01*
X182258834Y-123800295D01*
X182340863Y-123819324D01*
G37*
G36*
X183225652Y-123819420D02*
G01*
X183326856Y-123858683D01*
X183457724Y-123922348D01*
X183539756Y-123965184D01*
X183655967Y-124028993D01*
X183758143Y-124089426D01*
X183836943Y-124140644D01*
X183883026Y-124176805D01*
X183888812Y-124183462D01*
X183922111Y-124267926D01*
X183925467Y-124367792D01*
X183900425Y-124461733D01*
X183864782Y-124514635D01*
X183816310Y-124556174D01*
X183779743Y-124575820D01*
X183777196Y-124576059D01*
X183756743Y-124597261D01*
X183750941Y-124632364D01*
X183731279Y-124712355D01*
X183681993Y-124794915D01*
X183617272Y-124859329D01*
X183582106Y-124878823D01*
X183504015Y-124894909D01*
X183438746Y-124894204D01*
X183347254Y-124904371D01*
X183301110Y-124928715D01*
X183195377Y-124981055D01*
X183090433Y-124984018D01*
X183033465Y-124965531D01*
X182966534Y-124923721D01*
X182916795Y-124872334D01*
X182916645Y-124872100D01*
X182899304Y-124826935D01*
X182877343Y-124742937D01*
X182853203Y-124630825D01*
X182829325Y-124501314D01*
X182821742Y-124455485D01*
X182797802Y-124300038D01*
X182784661Y-124184510D01*
X182784355Y-124099543D01*
X182798919Y-124035779D01*
X182830389Y-123983862D01*
X182880800Y-123934432D01*
X182946363Y-123882572D01*
X183014467Y-123836136D01*
X183078013Y-123809338D01*
X183145556Y-123803369D01*
X183225652Y-123819420D01*
G37*
G36*
X179057497Y-123446459D02*
G01*
X179572262Y-123446459D01*
X179573591Y-123586461D01*
X179578631Y-123683530D01*
X179589663Y-123744760D01*
X179608967Y-123777245D01*
X179638824Y-123788080D01*
X179680894Y-123784468D01*
X179744780Y-123772489D01*
X179787056Y-123762848D01*
X179800651Y-123734835D01*
X179813189Y-123663271D01*
X179823739Y-123554654D01*
X179828903Y-123470974D01*
X179865413Y-123103950D01*
X179937885Y-122765634D01*
X180049223Y-122447159D01*
X180202330Y-122139654D01*
X180333461Y-121929806D01*
X180392499Y-121840441D01*
X180439138Y-121766160D01*
X180467294Y-121716858D01*
X180472807Y-121703010D01*
X180456283Y-121674131D01*
X180415221Y-121627779D01*
X180401459Y-121614209D01*
X180330111Y-121545853D01*
X180192317Y-121694687D01*
X180052728Y-121873171D01*
X179924158Y-122090989D01*
X179810204Y-122337981D01*
X179714463Y-122603984D01*
X179640532Y-122878839D01*
X179592006Y-123152383D01*
X179572484Y-123414455D01*
X179572262Y-123446459D01*
X179057497Y-123446459D01*
X179057410Y-123417372D01*
X179061779Y-123247492D01*
X179070858Y-123084696D01*
X179084491Y-122940350D01*
X179102521Y-122825820D01*
X179105617Y-122811822D01*
X179185856Y-122513476D01*
X179282522Y-122232728D01*
X179393169Y-121972710D01*
X179515347Y-121736552D01*
X179646610Y-121527386D01*
X179784508Y-121348341D01*
X179926595Y-121202548D01*
X180070423Y-121093139D01*
X180213542Y-121023244D01*
X180353507Y-120995994D01*
X180487868Y-121014520D01*
X180505935Y-121020885D01*
X180570987Y-121056089D01*
X180650757Y-121119225D01*
X180748934Y-121213783D01*
X180869205Y-121343253D01*
X180978341Y-121467943D01*
X181199751Y-121725640D01*
X181022249Y-121921267D01*
X180877817Y-122088516D01*
X180762541Y-122242522D01*
X180665265Y-122399708D01*
X180574834Y-122576498D01*
X180569569Y-122587689D01*
X180454226Y-122891324D01*
X180382419Y-123213048D01*
X180355407Y-123544163D01*
X180374448Y-123875970D01*
X180378657Y-123906923D01*
X180413568Y-124151185D01*
X180311809Y-124178624D01*
X180057250Y-124243366D01*
X179844744Y-124288514D01*
X179670441Y-124314419D01*
X179530490Y-124321429D01*
X179421040Y-124309897D01*
X179338241Y-124280173D01*
X179319715Y-124268911D01*
X179209832Y-124166954D01*
X179124665Y-124030400D01*
X179090143Y-123940407D01*
X179074116Y-123855854D01*
X179063422Y-123732919D01*
X179057905Y-123582970D01*
X179057497Y-123446459D01*
G37*
G36*
X184219691Y-121703010D02*
G01*
X184927192Y-121703010D01*
X184940397Y-121731228D01*
X184975960Y-121790733D01*
X185027798Y-121871629D01*
X185066539Y-121929806D01*
X185246094Y-122227982D01*
X185384156Y-122532326D01*
X185483623Y-122851712D01*
X185547398Y-123195011D01*
X185574071Y-123482360D01*
X185590344Y-123762758D01*
X185677931Y-123778232D01*
X185740557Y-123789424D01*
X185779078Y-123796542D01*
X185781367Y-123797001D01*
X185799153Y-123778878D01*
X185812306Y-123743990D01*
X185822986Y-123669764D01*
X185827613Y-123559429D01*
X185826608Y-123426504D01*
X185820389Y-123284509D01*
X185809375Y-123146964D01*
X185793985Y-123027388D01*
X185789264Y-123000617D01*
X185729644Y-122747930D01*
X185648329Y-122494856D01*
X185549885Y-122251650D01*
X185438881Y-122028571D01*
X185319885Y-121835876D01*
X185207682Y-121694687D01*
X185069888Y-121545853D01*
X184998540Y-121614209D01*
X184953007Y-121662568D01*
X184928533Y-121697782D01*
X184927192Y-121703010D01*
X184219691Y-121703010D01*
X184421658Y-121467943D01*
X184561307Y-121309430D01*
X184676042Y-121188497D01*
X184769552Y-121101655D01*
X184845523Y-121045412D01*
X184894064Y-121020885D01*
X185027454Y-120995759D01*
X185166787Y-121016843D01*
X185309615Y-121081006D01*
X185453490Y-121185118D01*
X185595965Y-121326048D01*
X185734592Y-121500665D01*
X185866921Y-121705838D01*
X185990507Y-121938437D01*
X186102900Y-122195330D01*
X186201653Y-122473388D01*
X186284318Y-122769479D01*
X186294382Y-122811822D01*
X186313063Y-122920860D01*
X186327370Y-123061432D01*
X186337147Y-123222170D01*
X186342238Y-123391709D01*
X186342487Y-123558683D01*
X186337738Y-123711724D01*
X186327836Y-123839467D01*
X186312625Y-123930546D01*
X186309856Y-123940407D01*
X186243173Y-124091106D01*
X186146531Y-124214712D01*
X186080285Y-124268911D01*
X185991351Y-124308009D01*
X185872697Y-124323548D01*
X185720100Y-124315496D01*
X185529337Y-124283824D01*
X185440197Y-124264256D01*
X185321664Y-124236368D01*
X185209775Y-124209369D01*
X185121065Y-124187279D01*
X185088191Y-124178691D01*
X184986431Y-124151185D01*
X185021343Y-123906923D01*
X185044783Y-123575499D01*
X185022052Y-123243948D01*
X184954407Y-122920969D01*
X184843108Y-122615261D01*
X184830430Y-122587689D01*
X184740054Y-122409261D01*
X184643479Y-122251386D01*
X184529551Y-122097644D01*
X184387113Y-121931611D01*
X184377750Y-121921267D01*
X184200248Y-121725640D01*
X184219691Y-121703010D01*
G37*
G36*
X181439217Y-122068256D02*
G01*
X181499966Y-122123989D01*
X181523357Y-122210792D01*
X181523459Y-122218906D01*
X181515398Y-122305423D01*
X181484528Y-122359563D01*
X181419478Y-122396856D01*
X181383705Y-122409749D01*
X181295909Y-122462385D01*
X181208826Y-122556886D01*
X181125976Y-122685148D01*
X181050879Y-122839067D01*
X180987055Y-123010537D01*
X180938026Y-123191453D01*
X180907311Y-123373712D01*
X180898226Y-123527446D01*
X180902907Y-123623379D01*
X180917838Y-123676208D01*
X180933472Y-123690268D01*
X180977838Y-123730758D01*
X181004997Y-123799414D01*
X181008522Y-123875527D01*
X181000653Y-123906783D01*
X180949571Y-123982986D01*
X180876067Y-124019668D01*
X180791172Y-124014536D01*
X180708471Y-123967522D01*
X180680443Y-123941679D01*
X180661504Y-123914704D01*
X180649868Y-123876836D01*
X180643747Y-123818318D01*
X180641357Y-123729389D01*
X180640911Y-123600291D01*
X180640910Y-123598409D01*
X180656175Y-123296513D01*
X180704164Y-123024506D01*
X180787741Y-122772113D01*
X180909770Y-122529057D01*
X180962899Y-122443047D01*
X181069418Y-122289678D01*
X181167303Y-122171124D01*
X181253316Y-122090719D01*
X181324217Y-122051794D01*
X181346289Y-122048571D01*
X181439217Y-122068256D01*
G37*
G36*
X184117986Y-122071768D02*
G01*
X184203132Y-122140110D01*
X184301734Y-122251722D01*
X184411942Y-122404731D01*
X184437100Y-122443047D01*
X184573473Y-122685259D01*
X184670378Y-122933159D01*
X184730677Y-123197024D01*
X184757235Y-123487129D01*
X184759089Y-123598409D01*
X184758656Y-123728063D01*
X184756300Y-123817427D01*
X184750237Y-123876261D01*
X184738679Y-123914323D01*
X184719841Y-123941374D01*
X184691936Y-123967171D01*
X184691528Y-123967522D01*
X184604625Y-124017302D01*
X184518247Y-124017261D01*
X184460151Y-123988564D01*
X184407305Y-123924987D01*
X184389320Y-123844343D01*
X184405748Y-123763775D01*
X184456140Y-123700425D01*
X184467889Y-123692697D01*
X184490318Y-123652556D01*
X184500744Y-123565132D01*
X184501598Y-123517525D01*
X184490734Y-123361442D01*
X184460739Y-123195232D01*
X184415001Y-123026839D01*
X184356908Y-122864207D01*
X184289850Y-122715278D01*
X184217216Y-122587997D01*
X184142393Y-122490306D01*
X184068771Y-122430150D01*
X184031788Y-122416278D01*
X183940481Y-122378857D01*
X183888894Y-122310998D01*
X183876157Y-122234468D01*
X183896736Y-122143386D01*
X183952218Y-122078249D01*
X184033226Y-122049194D01*
X184048143Y-122048571D01*
X184117986Y-122071768D01*
G37*
G36*
X181707573Y-122618384D02*
G01*
X181774772Y-122647778D01*
X181854175Y-122703915D01*
X181952069Y-122790571D01*
X182074737Y-122911524D01*
X182093152Y-122930292D01*
X182202605Y-123044239D01*
X182279352Y-123132493D01*
X182326862Y-123203948D01*
X182348603Y-123267499D01*
X182348042Y-123332042D01*
X182328648Y-123406473D01*
X182304501Y-123472396D01*
X182273814Y-123540288D01*
X182236078Y-123591939D01*
X182183357Y-123631199D01*
X182107715Y-123661919D01*
X182001214Y-123687947D01*
X181855917Y-123713134D01*
X181786601Y-123723622D01*
X181645437Y-123744658D01*
X181545145Y-123759299D01*
X181476990Y-123767778D01*
X181432234Y-123770328D01*
X181402141Y-123767178D01*
X181377974Y-123758562D01*
X181350997Y-123744711D01*
X181333228Y-123735649D01*
X181270454Y-123690801D01*
X181227405Y-123636088D01*
X181226873Y-123634943D01*
X181205063Y-123556357D01*
X181200149Y-123468542D01*
X181212683Y-123395396D01*
X181220942Y-123378234D01*
X181226221Y-123328043D01*
X181208200Y-123278135D01*
X181175348Y-123167493D01*
X181189562Y-123061583D01*
X181248095Y-122969971D01*
X181310748Y-122921344D01*
X181366464Y-122878410D01*
X181396837Y-122835435D01*
X181398719Y-122825238D01*
X181420182Y-122758886D01*
X181475331Y-122691861D01*
X181550303Y-122639111D01*
X181584649Y-122624717D01*
X181646293Y-122611956D01*
X181707573Y-122618384D01*
G37*
G36*
X183806951Y-122622062D02*
G01*
X183815350Y-122624717D01*
X183894538Y-122666915D01*
X183959773Y-122729721D01*
X183997193Y-122798182D01*
X184001280Y-122825238D01*
X184021303Y-122865047D01*
X184071166Y-122909728D01*
X184089251Y-122921344D01*
X184175943Y-122998025D01*
X184220159Y-123095411D01*
X184219150Y-123203939D01*
X184191799Y-123278135D01*
X184171929Y-123342569D01*
X184179057Y-123378234D01*
X184197619Y-123441121D01*
X184198480Y-123526750D01*
X184182205Y-123611266D01*
X184172985Y-123635252D01*
X184125548Y-123692755D01*
X184050344Y-123741851D01*
X183969471Y-123769842D01*
X183934937Y-123772039D01*
X183893304Y-123767118D01*
X183813456Y-123756049D01*
X183706624Y-123740441D01*
X183584039Y-123721900D01*
X183575862Y-123720642D01*
X183419776Y-123694198D01*
X183305192Y-123667291D01*
X183223711Y-123635582D01*
X183166935Y-123594732D01*
X183126467Y-123540399D01*
X183095498Y-123472396D01*
X183064511Y-123385081D01*
X183049818Y-123314169D01*
X183054886Y-123250762D01*
X183083183Y-123185968D01*
X183138178Y-123110889D01*
X183223338Y-123016631D01*
X183306847Y-122930292D01*
X183433263Y-122804520D01*
X183534073Y-122713544D01*
X183615561Y-122653587D01*
X183684014Y-122620872D01*
X183745715Y-122611623D01*
X183806951Y-122622062D01*
G37*
G36*
X182749835Y-123366204D02*
G01*
X182776030Y-123375273D01*
X182854874Y-123426739D01*
X182893749Y-123503474D01*
X182900197Y-123569066D01*
X182878742Y-123650161D01*
X182823133Y-123710182D01*
X182746506Y-123744450D01*
X182661993Y-123748285D01*
X182582730Y-123717007D01*
X182554214Y-123692328D01*
X182506736Y-123612445D01*
X182500594Y-123529474D01*
X182528812Y-123453391D01*
X182584410Y-123394169D01*
X182660410Y-123361782D01*
X182749835Y-123366204D01*
G37*
G36*
X182806735Y-121995098D02*
G01*
X182870608Y-122036059D01*
X182969251Y-122089584D01*
X183034794Y-122098620D01*
X183132845Y-122121643D01*
X183217645Y-122182703D01*
X183275538Y-122269791D01*
X183290872Y-122323842D01*
X183292793Y-122366668D01*
X183283662Y-122417645D01*
X183260453Y-122485225D01*
X183220143Y-122577860D01*
X183159705Y-122704004D01*
X183141891Y-122740159D01*
X183079839Y-122860571D01*
X183020297Y-122967027D01*
X182968828Y-123050204D01*
X182930995Y-123100777D01*
X182921689Y-123109273D01*
X182847354Y-123137781D01*
X182728722Y-123149338D01*
X182700000Y-123149655D01*
X182572374Y-123141375D01*
X182489534Y-123116232D01*
X182478310Y-123109273D01*
X182446828Y-123072897D01*
X182399683Y-123000520D01*
X182342439Y-122901466D01*
X182280657Y-122785059D01*
X182258108Y-122740159D01*
X182192397Y-122604728D01*
X182147537Y-122504830D01*
X182120504Y-122432014D01*
X182108274Y-122377827D01*
X182107821Y-122333817D01*
X182109127Y-122323842D01*
X182146640Y-122227635D01*
X182218491Y-122150921D01*
X182311024Y-122105709D01*
X182365206Y-122098620D01*
X182471058Y-122074224D01*
X182529391Y-122036059D01*
X182625241Y-121983373D01*
X182700000Y-121973497D01*
X182806735Y-121995098D01*
G37*
G36*
X182887667Y-121506281D02*
G01*
X183203356Y-121556611D01*
X183474188Y-121640787D01*
X183596089Y-121695636D01*
X183674486Y-121750990D01*
X183715636Y-121812696D01*
X183726009Y-121876171D01*
X183705794Y-121957327D01*
X183653658Y-122013773D01*
X183582368Y-122043338D01*
X183504688Y-122043853D01*
X183433386Y-122013148D01*
X183381226Y-121949052D01*
X183375580Y-121935739D01*
X183333929Y-121889439D01*
X183251556Y-121847473D01*
X183137724Y-121811607D01*
X183001694Y-121783608D01*
X182852728Y-121765243D01*
X182700088Y-121758279D01*
X182553036Y-121764481D01*
X182506059Y-121769889D01*
X182312887Y-121802247D01*
X182168912Y-121839847D01*
X182073533Y-121882895D01*
X182026152Y-121931597D01*
X182024419Y-121935739D01*
X181974772Y-122004128D01*
X181899571Y-122041726D01*
X181815165Y-122045115D01*
X181737898Y-122010881D01*
X181724039Y-121998522D01*
X181682685Y-121925124D01*
X181678734Y-121838299D01*
X181712704Y-121758446D01*
X181717783Y-121752129D01*
X181762884Y-121717585D01*
X181839200Y-121676581D01*
X181930286Y-121637940D01*
X181931134Y-121637626D01*
X182245466Y-121546776D01*
X182566341Y-121502999D01*
X182887667Y-121506281D01*
G37*
G36*
X180974696Y-120689608D02*
G01*
X181523936Y-120689608D01*
X181535991Y-120722207D01*
X181565783Y-120777900D01*
X181575199Y-120793685D01*
X181615790Y-120848656D01*
X181653292Y-120865788D01*
X181681460Y-120861338D01*
X181728863Y-120847710D01*
X181810777Y-120824524D01*
X181913496Y-120795650D01*
X181974285Y-120778638D01*
X182061152Y-120755327D01*
X182137395Y-120738191D01*
X182213288Y-120726289D01*
X182299105Y-120718681D01*
X182405121Y-120714427D01*
X182541609Y-120712586D01*
X182700000Y-120712215D01*
X182872977Y-120712615D01*
X183009543Y-120715027D01*
X183122123Y-120721270D01*
X183223143Y-120733164D01*
X183325029Y-120752527D01*
X183440205Y-120781180D01*
X183581098Y-120820941D01*
X183718539Y-120861338D01*
X183761354Y-120863207D01*
X183798342Y-120832914D01*
X183824800Y-120793685D01*
X183857650Y-120735117D01*
X183875172Y-120694748D01*
X183876064Y-120689608D01*
X183853624Y-120666127D01*
X183792572Y-120633225D01*
X183702547Y-120594762D01*
X183593193Y-120554598D01*
X183474151Y-120516593D01*
X183378088Y-120490253D01*
X183223804Y-120461728D01*
X183034152Y-120442520D01*
X182822937Y-120432629D01*
X182603967Y-120432053D01*
X182391048Y-120440794D01*
X182197985Y-120458852D01*
X182038586Y-120486225D01*
X182021912Y-120490253D01*
X181902069Y-120523732D01*
X181784174Y-120562468D01*
X181677868Y-120602602D01*
X181592793Y-120640274D01*
X181538590Y-120671624D01*
X181523936Y-120689608D01*
X180974696Y-120689608D01*
X180971889Y-120593107D01*
X180996588Y-120502542D01*
X181048254Y-120417707D01*
X181126194Y-120333025D01*
X181150689Y-120310334D01*
X181313572Y-120192753D01*
X181515320Y-120094918D01*
X181748808Y-120016828D01*
X182006911Y-119958484D01*
X182282503Y-119919886D01*
X182568461Y-119901034D01*
X182857658Y-119901928D01*
X183142970Y-119922567D01*
X183417273Y-119962952D01*
X183673441Y-120023083D01*
X183904350Y-120102959D01*
X184102874Y-120202581D01*
X184249310Y-120310334D01*
X184333971Y-120395890D01*
X184392538Y-120480148D01*
X184424319Y-120568686D01*
X184428619Y-120667079D01*
X184404744Y-120780905D01*
X184352000Y-120915740D01*
X184269694Y-121077160D01*
X184157132Y-121270742D01*
X184122807Y-121327058D01*
X183974282Y-121568994D01*
X183743791Y-121459952D01*
X183564159Y-121379080D01*
X183407335Y-121319658D01*
X183259110Y-121278628D01*
X183105273Y-121252932D01*
X182931614Y-121239509D01*
X182723923Y-121235302D01*
X182700000Y-121235271D01*
X182487991Y-121238701D01*
X182311479Y-121251031D01*
X182156254Y-121275321D01*
X182008107Y-121314628D01*
X181852828Y-121372011D01*
X181676205Y-121450529D01*
X181656208Y-121459952D01*
X181425717Y-121568994D01*
X181277193Y-121327058D01*
X181156646Y-121124196D01*
X181066536Y-120954946D01*
X181006170Y-120813732D01*
X180974852Y-120694978D01*
X180974696Y-120689608D01*
G37*
%TD*%
D10*
%TO.P,J1,1,Pin_1*%
%TO.N,/mcu/USART1_RX*%
X147319999Y-127099999D03*
D11*
%TO.P,J1,2,Pin_2*%
%TO.N,/mcu/USART1_TX*%
X149859999Y-127099999D03*
%TO.P,J1,3,Pin_3*%
%TO.N,GND*%
X152399999Y-127099999D03*
%TD*%
D12*
%TO.P,C28,1*%
%TO.N,/mcu/OSC_IN*%
X179780000Y-109700000D03*
%TO.P,C28,2*%
%TO.N,GND*%
X178820000Y-109700000D03*
%TD*%
D13*
%TO.P,R3,1*%
%TO.N,/wifi_ble/RESET*%
X168216608Y-78496554D03*
%TO.P,R3,2*%
%TO.N,+3.3V*%
X168216608Y-79516554D03*
%TD*%
D14*
%TO.P,U1,1,3V3*%
%TO.N,+3.3V*%
X169999999Y-76999999D03*
%TO.P,U1,2,EN*%
%TO.N,/wifi_ble/RESET*%
X169999999Y-78499999D03*
%TO.P,U1,3,IO4*%
%TO.N,unconnected-(U1-IO4-Pad3)*%
X169999999Y-79999999D03*
%TO.P,U1,4,IO5*%
%TO.N,unconnected-(U1-IO5-Pad4)*%
X169999999Y-81499999D03*
%TO.P,U1,5,IO6*%
%TO.N,USART2_TX*%
X169999999Y-82999999D03*
%TO.P,U1,6,IO7*%
%TO.N,USART2_RX*%
X169999999Y-84499999D03*
%TO.P,U1,7,IO8*%
%TO.N,/wifi_ble/GPIO8*%
X169999999Y-85999999D03*
%TO.P,U1,8,IO9*%
%TO.N,/wifi_ble/GPIO9*%
X169999999Y-87499999D03*
%TO.P,U1,9,GND*%
%TO.N,GND*%
X169999999Y-88999999D03*
%TO.P,U1,10,IO10*%
%TO.N,unconnected-(U1-IO10-Pad10)*%
X187499999Y-88999999D03*
%TO.P,U1,11,RXD*%
%TO.N,/wifi_ble/ESP_RX*%
X187499999Y-87499999D03*
%TO.P,U1,12,TXD*%
%TO.N,/wifi_ble/ESP_TX*%
X187499999Y-85999999D03*
%TO.P,U1,13,IO18*%
%TO.N,unconnected-(U1-IO18-Pad13)*%
X187499999Y-84499999D03*
%TO.P,U1,14,IO19*%
%TO.N,unconnected-(U1-IO19-Pad14)*%
X187499999Y-82999999D03*
%TO.P,U1,15,IO3*%
%TO.N,unconnected-(U1-IO3-Pad15)*%
X187499999Y-81499999D03*
%TO.P,U1,16,IO2*%
%TO.N,unconnected-(U1-IO2-Pad16)*%
X187499999Y-79999999D03*
%TO.P,U1,17,IO1*%
%TO.N,unconnected-(U1-IO1-Pad17)*%
X187499999Y-78499999D03*
%TO.P,U1,18,IO0*%
%TO.N,unconnected-(U1-IO0-Pad18)*%
X187499999Y-76999999D03*
D15*
%TO.P,U1,19,GND*%
%TO.N,GND*%
X178609999Y-82099999D03*
%TO.P,U1,20,GND*%
X179709999Y-82099999D03*
%TO.P,U1,21,GND*%
X180809999Y-82099999D03*
%TO.P,U1,22,GND*%
X178609999Y-83199999D03*
%TO.P,U1,23,GND*%
X179709999Y-83199999D03*
%TO.P,U1,24,GND*%
X180809999Y-83199999D03*
%TO.P,U1,25,GND*%
X178609999Y-84299999D03*
%TO.P,U1,26,GND*%
X179709999Y-84299999D03*
%TO.P,U1,27,GND*%
X180809999Y-84299999D03*
D16*
%TO.P,U1,28,GND*%
X179160000Y-82100000D03*
%TO.P,U1,29,GND*%
X180260000Y-82100000D03*
%TO.P,U1,30,GND*%
X178610000Y-82650000D03*
%TO.P,U1,31,GND*%
X179710000Y-82650000D03*
%TO.P,U1,32,GND*%
X180810000Y-82650000D03*
%TO.P,U1,33,GND*%
X179160000Y-83200000D03*
%TO.P,U1,34,GND*%
X180260000Y-83200000D03*
%TO.P,U1,35,GND*%
X178610000Y-83750000D03*
%TO.P,U1,36,GND*%
X179710000Y-83750000D03*
%TO.P,U1,37,GND*%
X180810000Y-83750000D03*
%TO.P,U1,38,GND*%
X179160000Y-84300000D03*
%TO.P,U1,39,GND*%
X180260000Y-84300000D03*
%TD*%
D17*
%TO.P,C3,1*%
%TO.N,+3.3V*%
X160000000Y-114380000D03*
%TO.P,C3,2*%
%TO.N,GND*%
X160000000Y-113420000D03*
%TD*%
D12*
%TO.P,C23,1*%
%TO.N,+3.3V*%
X187160000Y-113200000D03*
%TO.P,C23,2*%
%TO.N,GND*%
X186200000Y-113200000D03*
%TD*%
D18*
%TO.P,C4,1*%
%TO.N,+3.3V*%
X174900000Y-107820000D03*
%TO.P,C4,2*%
%TO.N,GND*%
X174900000Y-108780000D03*
%TD*%
D19*
%TO.P,D1,1,RK*%
%TO.N,GND*%
X147599999Y-87299999D03*
%TO.P,D1,2,GK*%
X147599999Y-88999999D03*
%TO.P,D1,3,BK*%
X147599999Y-90699999D03*
%TO.P,D1,4,BA*%
%TO.N,Net-(D1-BA)*%
X152399999Y-90699999D03*
%TO.P,D1,5,GA*%
%TO.N,Net-(D1-GA)*%
X152399999Y-88999999D03*
%TO.P,D1,6,RA*%
%TO.N,Net-(D1-RA)*%
X152399999Y-87299999D03*
%TD*%
D17*
%TO.P,C18,1*%
%TO.N,+3.3V*%
X141100000Y-99667500D03*
%TO.P,C18,2*%
%TO.N,GND*%
X141100000Y-98707500D03*
%TD*%
D20*
%TO.P,SW1,1,1*%
%TO.N,/wifi_ble/GPIO9*%
X174209999Y-93299999D03*
%TO.P,SW1,2,2*%
%TO.N,Net-(R4-Pad1)*%
X183389999Y-93299999D03*
%TD*%
D21*
%TO.P,SW4,1,1*%
%TO.N,+3.3V*%
X134399999Y-127389999D03*
%TO.P,SW4,2,2*%
%TO.N,/mcu/BOOT0*%
X134399999Y-118209999D03*
%TD*%
D22*
%TO.P,IC7,1,I/O1*%
%TO.N,USB_N*%
X185862500Y-100350000D03*
%TO.P,IC7,2,GND*%
%TO.N,GND*%
X185862500Y-101300000D03*
%TO.P,IC7,3,I/O2*%
%TO.N,USB_P*%
X185862500Y-102250000D03*
%TO.P,IC7,4,I/O2*%
%TO.N,/usb/USB_CON_P*%
X188137500Y-102250000D03*
%TO.P,IC7,5,VBUS*%
%TO.N,+5V*%
X188137500Y-101300000D03*
%TO.P,IC7,6,I/O1*%
%TO.N,/usb/USB_CON_N*%
X188137500Y-100350000D03*
%TD*%
D23*
%TO.P,R22,1*%
%TO.N,Net-(R21-Pad2)*%
X135980000Y-84790500D03*
%TO.P,R22,2*%
%TO.N,/comm/CAN_H*%
X137000000Y-84790500D03*
%TD*%
D24*
%TO.P,C16,1*%
%TO.N,+3.3V*%
X149248955Y-101505870D03*
%TO.P,C16,2*%
%TO.N,GND*%
X150208955Y-101505870D03*
%TD*%
D25*
%TO.P,IC5,1,TXD*%
%TO.N,CAN1_TX*%
X133495000Y-92066000D03*
%TO.P,IC5,2,GND*%
%TO.N,GND*%
X134765000Y-92066000D03*
%TO.P,IC5,3,VCC*%
%TO.N,+5V*%
X136035000Y-92066000D03*
%TO.P,IC5,4,RXD*%
%TO.N,CAN1_RX*%
X137305000Y-92066000D03*
%TO.P,IC5,5,VIO*%
%TO.N,+3.3V*%
X137305000Y-86666000D03*
%TO.P,IC5,6,CANL*%
%TO.N,/comm/CAN_H*%
X136035000Y-86666000D03*
%TO.P,IC5,7,CANH*%
%TO.N,/comm/CAN_L*%
X134765000Y-86666000D03*
%TO.P,IC5,8,STB*%
%TO.N,CAN_STB*%
X133495000Y-86666000D03*
%TD*%
D13*
%TO.P,R23,1*%
%TO.N,SDIO_D3*%
X131600000Y-109690000D03*
%TO.P,R23,2*%
%TO.N,+3.3V*%
X131600000Y-110710000D03*
%TD*%
D23*
%TO.P,R18,1*%
%TO.N,Net-(D1-RA)*%
X154790000Y-87300000D03*
%TO.P,R18,2*%
%TO.N,RGB_R*%
X155810000Y-87300000D03*
%TD*%
D26*
%TO.P,IC1,1,VBAT*%
%TO.N,+3.3V*%
X173075000Y-114150000D03*
%TO.P,IC1,2,PC13*%
%TO.N,ACC_INT*%
X173075000Y-113650000D03*
%TO.P,IC1,3,PC14*%
%TO.N,/mcu/OSC32_IN*%
X173075000Y-113150000D03*
%TO.P,IC1,4,PC15*%
%TO.N,/mcu/OSC32_OUT*%
X173075000Y-112650000D03*
%TO.P,IC1,5,PH0*%
%TO.N,/mcu/OSC_IN*%
X173075000Y-112150000D03*
%TO.P,IC1,6,PH1*%
%TO.N,/mcu/OSC_OUT*%
X173075000Y-111650000D03*
%TO.P,IC1,7,NRST*%
%TO.N,/mcu/NRST*%
X173075000Y-111150000D03*
%TO.P,IC1,8,PC0*%
%TO.N,ACC_CS*%
X173075000Y-110650000D03*
%TO.P,IC1,9,PC1*%
%TO.N,BARO_CS*%
X173075000Y-110150000D03*
%TO.P,IC1,10,PC2*%
%TO.N,SDIO_DET*%
X173075000Y-109650000D03*
%TO.P,IC1,11,PC3*%
%TO.N,unconnected-(IC1-PC3-Pad11)*%
X173075000Y-109150000D03*
%TO.P,IC1,12,VSSA*%
%TO.N,GND*%
X173075000Y-108650000D03*
%TO.P,IC1,13,VDDA*%
%TO.N,+3.3V*%
X173075000Y-108150000D03*
%TO.P,IC1,14,PA0*%
%TO.N,/mcu/USER*%
X173075000Y-107650000D03*
%TO.P,IC1,15,PA1*%
%TO.N,unconnected-(IC1-PA1-Pad15)*%
X173075000Y-107150000D03*
%TO.P,IC1,16,PA2*%
%TO.N,USART2_TX*%
X173075000Y-106650000D03*
D27*
%TO.P,IC1,17,PA3*%
%TO.N,USART2_RX*%
X171150000Y-104725000D03*
%TO.P,IC1,18,VSS*%
%TO.N,GND*%
X170650000Y-104725000D03*
%TO.P,IC1,19,VDD*%
%TO.N,+3.3V*%
X170150000Y-104725000D03*
%TO.P,IC1,20,PA4*%
%TO.N,unconnected-(IC1-PA4-Pad20)*%
X169650000Y-104725000D03*
%TO.P,IC1,21,PA5*%
%TO.N,SPI1_CLK*%
X169150000Y-104725000D03*
%TO.P,IC1,22,PA6*%
%TO.N,SPI1_MISO*%
X168650000Y-104725000D03*
%TO.P,IC1,23,PA7*%
%TO.N,SPI1_MOSI*%
X168150000Y-104725000D03*
%TO.P,IC1,24,PC4*%
%TO.N,unconnected-(IC1-PC4-Pad24)*%
X167650000Y-104725000D03*
%TO.P,IC1,25,PC5*%
%TO.N,USART3_RX*%
X167150000Y-104725000D03*
%TO.P,IC1,26,PB0*%
%TO.N,unconnected-(IC1-PB0-Pad26)*%
X166650000Y-104725000D03*
%TO.P,IC1,27,PB1*%
%TO.N,unconnected-(IC1-PB1-Pad27)*%
X166150000Y-104725000D03*
%TO.P,IC1,28,PB2*%
%TO.N,unconnected-(IC1-PB2-Pad28)*%
X165650000Y-104725000D03*
%TO.P,IC1,29,PB10*%
%TO.N,CAN_STB*%
X165150000Y-104725000D03*
%TO.P,IC1,30,VCAP_1*%
%TO.N,Net-(IC1-VCAP_1)*%
X164650000Y-104725000D03*
%TO.P,IC1,31,VSS*%
%TO.N,GND*%
X164150000Y-104725000D03*
%TO.P,IC1,32,VDD*%
%TO.N,+3.3V*%
X163650000Y-104725000D03*
D26*
%TO.P,IC1,33,PB12*%
%TO.N,unconnected-(IC1-PB12-Pad33)*%
X161725000Y-106650000D03*
%TO.P,IC1,34,PB13*%
%TO.N,unconnected-(IC1-PB13-Pad34)*%
X161725000Y-107150000D03*
%TO.P,IC1,35,PB14*%
%TO.N,BUZZER*%
X161725000Y-107650000D03*
%TO.P,IC1,36,PB15*%
%TO.N,unconnected-(IC1-PB15-Pad36)*%
X161725000Y-108150000D03*
%TO.P,IC1,37,PC6*%
%TO.N,RGB_R*%
X161725000Y-108650000D03*
%TO.P,IC1,38,PC7*%
%TO.N,RGB_G*%
X161725000Y-109150000D03*
%TO.P,IC1,39,PC8*%
%TO.N,RGB_B*%
X161725000Y-109650000D03*
%TO.P,IC1,40,PC9*%
%TO.N,unconnected-(IC1-PC9-Pad40)*%
X161725000Y-110150000D03*
%TO.P,IC1,41,PA8*%
%TO.N,SDIO_D1*%
X161725000Y-110650000D03*
%TO.P,IC1,42,PA9*%
%TO.N,SDIO_D2*%
X161725000Y-111150000D03*
%TO.P,IC1,43,PA10*%
%TO.N,/mcu/USART1_RX*%
X161725000Y-111650000D03*
%TO.P,IC1,44,PA11*%
%TO.N,USB_N*%
X161725000Y-112150000D03*
%TO.P,IC1,45,PA12*%
%TO.N,USB_P*%
X161725000Y-112650000D03*
%TO.P,IC1,46,PA13*%
%TO.N,/mcu/SWDIO*%
X161725000Y-113150000D03*
%TO.P,IC1,47,VSS*%
%TO.N,GND*%
X161725000Y-113650000D03*
%TO.P,IC1,48,VDD*%
%TO.N,+3.3V*%
X161725000Y-114150000D03*
D27*
%TO.P,IC1,49,PA14*%
%TO.N,/mcu/SWCLK*%
X163650000Y-116075000D03*
%TO.P,IC1,50,PA15*%
%TO.N,/mcu/USART1_TX*%
X164150000Y-116075000D03*
%TO.P,IC1,51,PC10*%
%TO.N,USART3_TX*%
X164650000Y-116075000D03*
%TO.P,IC1,52,PC11*%
%TO.N,RS485_DE*%
X165150000Y-116075000D03*
%TO.P,IC1,53,PC12*%
%TO.N,SDIO_CLK*%
X165650000Y-116075000D03*
%TO.P,IC1,54,PD2*%
%TO.N,SDIO_CMD*%
X166150000Y-116075000D03*
%TO.P,IC1,55,PB3*%
%TO.N,/mcu/SWO*%
X166650000Y-116075000D03*
%TO.P,IC1,56,PB4*%
%TO.N,SDIO_D0*%
X167150000Y-116075000D03*
%TO.P,IC1,57,PB5*%
%TO.N,SDIO_D3*%
X167650000Y-116075000D03*
%TO.P,IC1,58,PB6*%
%TO.N,I2C1_SCL*%
X168150000Y-116075000D03*
%TO.P,IC1,59,PB7*%
%TO.N,I2C1_SDA*%
X168650000Y-116075000D03*
%TO.P,IC1,60,BOOT0*%
%TO.N,/mcu/BOOT0*%
X169150000Y-116075000D03*
%TO.P,IC1,61,PB8*%
%TO.N,CAN1_RX*%
X169650000Y-116075000D03*
%TO.P,IC1,62,PB9*%
%TO.N,CAN1_TX*%
X170150000Y-116075000D03*
%TO.P,IC1,63,VSS*%
%TO.N,GND*%
X170650000Y-116075000D03*
%TO.P,IC1,64,VDD*%
%TO.N,+3.3V*%
X171150000Y-116075000D03*
%TD*%
D28*
%TO.P,C11,1*%
%TO.N,+3.3V*%
X167800000Y-75250000D03*
%TO.P,C11,2*%
%TO.N,GND*%
X167800000Y-73350000D03*
%TD*%
D13*
%TO.P,R4,1*%
%TO.N,Net-(R4-Pad1)*%
X185797944Y-93302456D03*
%TO.P,R4,2*%
%TO.N,GND*%
X185797944Y-94322456D03*
%TD*%
D29*
%TO.P,C14,1*%
%TO.N,Net-(X2-SHIELD)*%
X101800000Y-97175000D03*
%TO.P,C14,2*%
%TO.N,GND*%
X101800000Y-94225000D03*
%TD*%
D30*
%TO.P,Y2,1,1*%
%TO.N,/mcu/OSC_OUT*%
X177399999Y-108349999D03*
%TO.P,Y2,2,2*%
%TO.N,GND*%
X178799999Y-108349999D03*
%TO.P,Y2,3,3*%
%TO.N,/mcu/OSC_IN*%
X178799999Y-107249999D03*
%TO.P,Y2,4,4*%
%TO.N,GND*%
X177399999Y-107249999D03*
%TD*%
D31*
%TO.P,R6,1*%
%TO.N,GND*%
X193809648Y-94200000D03*
%TO.P,R6,2*%
%TO.N,Net-(C13-Pad1)*%
X196734648Y-94200000D03*
%TD*%
D32*
%TO.P,R11,1*%
%TO.N,BARO_CS*%
X143244664Y-97378358D03*
%TO.P,R11,2*%
%TO.N,+3.3V*%
X143244664Y-96358358D03*
%TD*%
D33*
%TO.P,H4,1*%
%TO.N,N/C*%
X102600000Y-124000000D03*
X103302944Y-122302944D03*
X103302944Y-125697056D03*
X105000000Y-121600000D03*
D34*
X105000000Y-124000000D03*
D33*
X105000000Y-126400000D03*
X106697056Y-122302944D03*
X106697056Y-125697056D03*
X107400000Y-124000000D03*
%TD*%
D21*
%TO.P,SW3,1,1*%
%TO.N,GND*%
X127099999Y-127389999D03*
%TO.P,SW3,2,2*%
%TO.N,/mcu/USER*%
X127099999Y-118209999D03*
%TD*%
D12*
%TO.P,C20,1*%
%TO.N,+5V*%
X197180000Y-108400000D03*
%TO.P,C20,2*%
%TO.N,GND*%
X196220000Y-108400000D03*
%TD*%
D35*
%TO.P,D2,1,C1*%
%TO.N,/comm/CAN_H*%
X136449959Y-81139879D03*
%TO.P,D2,2,C2*%
%TO.N,/comm/CAN_L*%
X134550039Y-81139879D03*
%TO.P,D2,3,C3*%
%TO.N,GND*%
X135499999Y-83441119D03*
%TD*%
D23*
%TO.P,R21,1*%
%TO.N,/comm/CAN_L*%
X133980000Y-84790500D03*
%TO.P,R21,2*%
%TO.N,Net-(R21-Pad2)*%
X135000000Y-84790500D03*
%TD*%
D17*
%TO.P,C27,1*%
%TO.N,GND*%
X121008409Y-87628077D03*
%TO.P,C27,2*%
%TO.N,+3.3V*%
X121008409Y-86668077D03*
%TD*%
D36*
%TO.P,IC4,1,VDD_IO*%
%TO.N,+3.3V*%
X142749999Y-99932499D03*
%TO.P,IC4,2,SCL/SPC*%
%TO.N,SPI1_CLK*%
X143249999Y-99932499D03*
D37*
%TO.P,IC4,3,RESERVED*%
%TO.N,GND*%
X143744999Y-99687499D03*
%TO.P,IC4,4,SDA/SDI/SDO*%
%TO.N,SPI1_MOSI*%
X143744999Y-99187499D03*
%TO.P,IC4,5,SDO/SA0*%
%TO.N,SPI1_MISO*%
X143744999Y-98687499D03*
D36*
%TO.P,IC4,6,CS*%
%TO.N,BARO_CS*%
X143249999Y-98442499D03*
%TO.P,IC4,7,INT_DRDY*%
%TO.N,unconnected-(IC4-INT_DRDY-Pad7)*%
X142749999Y-98442499D03*
D37*
%TO.P,IC4,8,GND*%
%TO.N,GND*%
X142254999Y-98687499D03*
%TO.P,IC4,9,GND*%
X142254999Y-99187499D03*
%TO.P,IC4,10,VDD*%
%TO.N,+3.3V*%
X142254999Y-99687499D03*
%TD*%
D24*
%TO.P,C1,1*%
%TO.N,+3.3V*%
X169920000Y-102900000D03*
%TO.P,C1,2*%
%TO.N,GND*%
X170880000Y-102900000D03*
%TD*%
D17*
%TO.P,C26,1*%
%TO.N,GND*%
X138690996Y-87623939D03*
%TO.P,C26,2*%
%TO.N,+3.3V*%
X138690996Y-86663939D03*
%TD*%
D24*
%TO.P,C31,1*%
%TO.N,/mcu/OSC32_OUT*%
X179420000Y-111850546D03*
%TO.P,C31,2*%
%TO.N,GND*%
X180380000Y-111850546D03*
%TD*%
D38*
%TO.P,Y1,1,1*%
%TO.N,/mcu/OSC32_IN*%
X177599999Y-114349999D03*
%TO.P,Y1,2,2*%
%TO.N,/mcu/OSC32_OUT*%
X177599999Y-111849999D03*
%TD*%
D17*
%TO.P,C25,1*%
%TO.N,GND*%
X136031490Y-94729475D03*
%TO.P,C25,2*%
%TO.N,+5V*%
X136031490Y-93769475D03*
%TD*%
D39*
%TO.P,C8,1*%
%TO.N,Net-(IC1-VCAP_1)*%
X165800000Y-102700000D03*
%TO.P,C8,2*%
%TO.N,GND*%
X165800000Y-101150000D03*
%TD*%
D18*
%TO.P,C12,1*%
%TO.N,/wifi_ble/RESET*%
X167033263Y-78497490D03*
%TO.P,C12,2*%
%TO.N,GND*%
X167033263Y-79457490D03*
%TD*%
D40*
%TO.P,C6,1*%
%TO.N,+3.3V*%
X175100000Y-115025000D03*
%TO.P,C6,2*%
%TO.N,GND*%
X175100000Y-116575000D03*
%TD*%
D41*
%TO.P,J4,1,Pin_1*%
%TO.N,/comm/CAN_H*%
X138500000Y-73000000D03*
D42*
%TO.P,J4,2,Pin_2*%
%TO.N,/comm/CAN_L*%
X135999999Y-72999999D03*
%TO.P,J4,3,Pin_3*%
%TO.N,GND*%
X133499999Y-72999999D03*
%TD*%
D43*
%TO.P,R5,1*%
%TO.N,/wifi_ble/GPIO8*%
X167799689Y-86003800D03*
%TO.P,R5,2*%
%TO.N,+3.3V*%
X166779689Y-86003800D03*
%TD*%
D44*
%TO.P,X1,A1,GND_A*%
%TO.N,GND*%
X192229999Y-104999999D03*
%TO.P,X1,A2,TX1+*%
%TO.N,unconnected-(X1-TX1+-PadA2)*%
X192229999Y-104499999D03*
%TO.P,X1,A3,TX1-*%
%TO.N,unconnected-(X1-TX1--PadA3)*%
X192229999Y-103999999D03*
%TO.P,X1,A4,VBUS_A*%
%TO.N,+5V*%
X192229999Y-103499999D03*
%TO.P,X1,A5,CC1*%
%TO.N,Net-(X1-CC1)*%
X192229999Y-102999999D03*
%TO.P,X1,A6,D1+*%
%TO.N,/usb/USB_CON_P*%
X192229999Y-102499999D03*
%TO.P,X1,A7,D1-*%
%TO.N,/usb/USB_CON_N*%
X192229999Y-101499999D03*
%TO.P,X1,A8,SBU1*%
%TO.N,unconnected-(X1-SBU1-PadA8)*%
X192229999Y-100999999D03*
%TO.P,X1,A9,VBUS_A*%
%TO.N,+5V*%
X192229999Y-100499999D03*
%TO.P,X1,A10,RX2-*%
%TO.N,unconnected-(X1-RX2--PadA10)*%
X192229999Y-99999999D03*
%TO.P,X1,A11,RX2+*%
%TO.N,unconnected-(X1-RX2+-PadA11)*%
X192229999Y-99499999D03*
%TO.P,X1,A12,GND_A*%
%TO.N,GND*%
X192229999Y-98999999D03*
D45*
%TO.P,X1,B1,GND_B*%
X193529999Y-98899999D03*
D44*
%TO.P,X1,B2,TX2+*%
%TO.N,unconnected-(X1-TX2+-PadB2)*%
X193529999Y-99749999D03*
%TO.P,X1,B3,TX2-*%
%TO.N,unconnected-(X1-TX2--PadB3)*%
X193529999Y-100249999D03*
%TO.P,X1,B4,VBUS_B*%
%TO.N,+5V*%
X193529999Y-100749999D03*
%TO.P,X1,B5,CC2*%
%TO.N,Net-(X1-CC2)*%
X193529999Y-101249999D03*
%TO.P,X1,B6,D2+*%
%TO.N,/usb/USB_CON_P*%
X193529999Y-101749999D03*
%TO.P,X1,B7,D2-*%
%TO.N,/usb/USB_CON_N*%
X193529999Y-102249999D03*
%TO.P,X1,B8,SBU2*%
%TO.N,unconnected-(X1-SBU2-PadB8)*%
X193529999Y-102749999D03*
%TO.P,X1,B9,VBUS_B*%
%TO.N,+5V*%
X193529999Y-103249999D03*
%TO.P,X1,B10,RX1-*%
%TO.N,unconnected-(X1-RX1--PadB10)*%
X193529999Y-103749999D03*
%TO.P,X1,B11,RX1+*%
%TO.N,unconnected-(X1-RX1+-PadB11)*%
X193529999Y-104249999D03*
D45*
%TO.P,X1,B12,GND_B*%
%TO.N,GND*%
X193529999Y-105099999D03*
D46*
%TO.P,X1,S1,SHIELD*%
%TO.N,Net-(C13-Pad1)*%
X192639999Y-106319999D03*
%TO.P,X1,S2,SHIELD*%
X192639999Y-97679999D03*
D47*
%TO.P,X1,S3,SHIELD*%
X197999999Y-106319999D03*
D48*
%TO.P,X1,S4,SHIELD*%
X197999999Y-97679999D03*
%TD*%
D12*
%TO.P,C2,1*%
%TO.N,+3.3V*%
X171380000Y-117900000D03*
%TO.P,C2,2*%
%TO.N,GND*%
X170420000Y-117900000D03*
%TD*%
D32*
%TO.P,R24,1*%
%TO.N,SDIO_CMD*%
X129600000Y-107700000D03*
%TO.P,R24,2*%
%TO.N,+3.3V*%
X129600000Y-106680000D03*
%TD*%
D25*
%TO.P,IC6,1,RO*%
%TO.N,USART3_RX*%
X122595000Y-92066000D03*
%TO.P,IC6,2,~{RE}*%
%TO.N,RS485_DE*%
X123865000Y-92066000D03*
%TO.P,IC6,3,DE*%
X125135000Y-92066000D03*
%TO.P,IC6,4,DI*%
%TO.N,USART3_TX*%
X126405000Y-92066000D03*
%TO.P,IC6,5,GND*%
%TO.N,GND*%
X126405000Y-86666000D03*
%TO.P,IC6,6,A*%
%TO.N,/comm/RS485_B*%
X125135000Y-86666000D03*
%TO.P,IC6,7,B*%
%TO.N,/comm/RS485_A*%
X123865000Y-86666000D03*
%TO.P,IC6,8,VCC*%
%TO.N,+3.3V*%
X122595000Y-86666000D03*
%TD*%
D35*
%TO.P,Q2,1*%
%TO.N,Net-(Q2-Pad1)*%
X154304962Y-79939337D03*
%TO.P,Q2,2*%
%TO.N,/wifi_ble/DTR*%
X152405042Y-79939337D03*
%TO.P,Q2,3*%
%TO.N,/wifi_ble/GPIO9*%
X153355002Y-82240577D03*
%TD*%
D18*
%TO.P,C17,1*%
%TO.N,+3.3V*%
X147700000Y-98520000D03*
%TO.P,C17,2*%
%TO.N,GND*%
X147700000Y-99480000D03*
%TD*%
D24*
%TO.P,C5,1*%
%TO.N,+3.3V*%
X163420000Y-102900000D03*
%TO.P,C5,2*%
%TO.N,GND*%
X164380000Y-102900000D03*
%TD*%
D49*
%TO.P,C22,1*%
%TO.N,+5V*%
X197175000Y-109800000D03*
%TO.P,C22,2*%
%TO.N,GND*%
X195625000Y-109800000D03*
%TD*%
D35*
%TO.P,Q1,1*%
%TO.N,Net-(Q1-Pad1)*%
X159384178Y-79949379D03*
%TO.P,Q1,2*%
%TO.N,/wifi_ble/RTS*%
X157484258Y-79949379D03*
%TO.P,Q1,3*%
%TO.N,/wifi_ble/RESET*%
X158434218Y-82250619D03*
%TD*%
D17*
%TO.P,C32,1*%
%TO.N,/mcu/BOOT0*%
X134400000Y-115680000D03*
%TO.P,C32,2*%
%TO.N,+3.3V*%
X134400000Y-114720000D03*
%TD*%
D10*
%TO.P,J3,1,Pin_1*%
%TO.N,+3.3V*%
X149849999Y-70999999D03*
D11*
%TO.P,J3,2,Pin_2*%
%TO.N,/wifi_ble/DTR*%
X152389999Y-70999999D03*
%TO.P,J3,3,Pin_3*%
%TO.N,GND*%
X154929999Y-70999999D03*
%TO.P,J3,4,Pin_4*%
%TO.N,/wifi_ble/RTS*%
X157469999Y-70999999D03*
%TO.P,J3,5,Pin_5*%
%TO.N,/wifi_ble/ESP_TX*%
X160009999Y-70999999D03*
%TO.P,J3,6,Pin_6*%
%TO.N,/wifi_ble/ESP_RX*%
X162549999Y-70999999D03*
%TD*%
D23*
%TO.P,R20,1*%
%TO.N,Net-(D1-BA)*%
X154790000Y-90700000D03*
%TO.P,R20,2*%
%TO.N,RGB_B*%
X155810000Y-90700000D03*
%TD*%
D50*
%TO.P,R9,1*%
%TO.N,GND*%
X104400000Y-94237500D03*
%TO.P,R9,2*%
%TO.N,Net-(X2-SHIELD)*%
X104400000Y-97162500D03*
%TD*%
D17*
%TO.P,C15,1*%
%TO.N,/mcu/USER*%
X127100000Y-115680000D03*
%TO.P,C15,2*%
%TO.N,GND*%
X127100000Y-114720000D03*
%TD*%
D32*
%TO.P,R27,1*%
%TO.N,SDIO_D1*%
X129600000Y-102010000D03*
%TO.P,R27,2*%
%TO.N,+3.3V*%
X129600000Y-100990000D03*
%TD*%
D17*
%TO.P,C19,1*%
%TO.N,+3.3V*%
X140000000Y-99687500D03*
%TO.P,C19,2*%
%TO.N,GND*%
X140000000Y-98727500D03*
%TD*%
D51*
%TO.P,IC3,1,SDA*%
%TO.N,I2C1_SDA*%
X155642500Y-98500000D03*
%TO.P,IC3,2,GND*%
%TO.N,GND*%
X155642500Y-99500000D03*
%TO.P,IC3,3,NC_3*%
%TO.N,unconnected-(IC3-NC_3-Pad3)*%
X155642500Y-100500000D03*
%TO.P,IC3,4,NC_4*%
%TO.N,unconnected-(IC3-NC_4-Pad4)*%
X158512500Y-100500000D03*
%TO.P,IC3,5,VDD*%
%TO.N,+3.3V*%
X158512500Y-99500000D03*
%TO.P,IC3,6,SCL*%
%TO.N,I2C1_SCL*%
X158512500Y-98500000D03*
D52*
%TO.P,IC3,7,EXP*%
%TO.N,GND*%
X157077499Y-99499999D03*
%TD*%
D53*
%TO.P,X2,1,DAT2*%
%TO.N,SDIO_D2*%
X114749999Y-109714999D03*
%TO.P,X2,2,DAT3/CD*%
%TO.N,SDIO_D3*%
X114749999Y-108614999D03*
%TO.P,X2,3,CMD*%
%TO.N,SDIO_CMD*%
X114749900Y-107524999D03*
%TO.P,X2,4,VDD*%
%TO.N,+3.3V*%
X114749900Y-106414999D03*
%TO.P,X2,5,CLK*%
%TO.N,SDIO_CLK*%
X114749900Y-105334999D03*
%TO.P,X2,6,VSS*%
%TO.N,GND*%
X114749999Y-104224999D03*
%TO.P,X2,7,DAT0*%
%TO.N,SDIO_D0*%
X114749900Y-103134999D03*
%TO.P,X2,8,DAT1*%
%TO.N,SDIO_D1*%
X114749999Y-102034999D03*
D54*
%TO.P,X2,9,DET_B*%
%TO.N,GND*%
X114249999Y-99549999D03*
D53*
%TO.P,X2,10,DET_A*%
%TO.N,SDIO_DET*%
X114749999Y-100944999D03*
D55*
%TO.P,X2,11,SHIELD*%
%TO.N,Net-(X2-SHIELD)*%
X104599999Y-99549999D03*
D56*
X114324999Y-114499999D03*
D55*
X104599999Y-115399999D03*
%TD*%
D35*
%TO.P,D4,1,A1*%
%TO.N,/comm/RS485_B*%
X125549959Y-81139879D03*
%TO.P,D4,2,A2*%
%TO.N,/comm/RS485_A*%
X123650039Y-81139879D03*
%TO.P,D4,3,common*%
%TO.N,GND*%
X124599999Y-83441119D03*
%TD*%
D33*
%TO.P,H2,1*%
%TO.N,N/C*%
X192600000Y-74000000D03*
X193302944Y-72302944D03*
X193302944Y-75697056D03*
X195000000Y-71600000D03*
D34*
X195000000Y-74000000D03*
D33*
X195000000Y-76400000D03*
X196697056Y-72302944D03*
X196697056Y-75697056D03*
X197400000Y-74000000D03*
%TD*%
D24*
%TO.P,C29,1*%
%TO.N,/mcu/OSC_OUT*%
X176320000Y-109700000D03*
%TO.P,C29,2*%
%TO.N,GND*%
X177280000Y-109700000D03*
%TD*%
D57*
%TO.P,IC2,1,SDO/SA0*%
%TO.N,SPI1_MISO*%
X150749999Y-97839999D03*
%TO.P,IC2,2,SDX*%
%TO.N,GND*%
X150249999Y-97839999D03*
%TO.P,IC2,3,SCX*%
X149749999Y-97839999D03*
%TO.P,IC2,4,INT1*%
%TO.N,ACC_INT*%
X149249999Y-97839999D03*
D58*
%TO.P,IC2,5,VDDIO*%
%TO.N,+3.3V*%
X149089999Y-98499999D03*
%TO.P,IC2,6,GND*%
%TO.N,GND*%
X149089999Y-98999999D03*
%TO.P,IC2,7,GND*%
X149089999Y-99499999D03*
D57*
%TO.P,IC2,8,VDD*%
%TO.N,+3.3V*%
X149249999Y-100159999D03*
%TO.P,IC2,9,INT2/DEN/MDRDY*%
%TO.N,unconnected-(IC2-INT2{slash}DEN{slash}MDRDY-Pad9)*%
X149749999Y-100159999D03*
%TO.P,IC2,10,OCS_AUX*%
%TO.N,unconnected-(IC2-OCS_AUX-Pad10)*%
X150249999Y-100159999D03*
%TO.P,IC2,11,SDO_AUX*%
%TO.N,unconnected-(IC2-SDO_AUX-Pad11)*%
X150749999Y-100159999D03*
D58*
%TO.P,IC2,12,CS*%
%TO.N,ACC_CS*%
X150909999Y-99499999D03*
%TO.P,IC2,13,SCL/SPC*%
%TO.N,SPI1_CLK*%
X150909999Y-98999999D03*
%TO.P,IC2,14,SDA/SDI/SDO*%
%TO.N,SPI1_MOSI*%
X150909999Y-98499999D03*
%TD*%
D13*
%TO.P,R26,1*%
%TO.N,SDIO_D0*%
X129600000Y-103090000D03*
%TO.P,R26,2*%
%TO.N,+3.3V*%
X129600000Y-104110000D03*
%TD*%
%TO.P,R1,1*%
%TO.N,/wifi_ble/DTR*%
X151052549Y-79946997D03*
%TO.P,R1,2*%
%TO.N,Net-(Q1-Pad1)*%
X151052549Y-80966997D03*
%TD*%
D23*
%TO.P,R7,1*%
%TO.N,GND*%
X186590000Y-97900000D03*
%TO.P,R7,2*%
%TO.N,Net-(X1-CC2)*%
X187610000Y-97900000D03*
%TD*%
D59*
%TO.P,C7,1*%
%TO.N,+3.3V*%
X169725000Y-101400000D03*
%TO.P,C7,2*%
%TO.N,GND*%
X171275000Y-101400000D03*
%TD*%
D13*
%TO.P,R10,1*%
%TO.N,ACC_CS*%
X152300000Y-99490000D03*
%TO.P,R10,2*%
%TO.N,+3.3V*%
X152300000Y-100510000D03*
%TD*%
%TO.P,R17,1*%
%TO.N,Net-(BZ1-+)*%
X110600000Y-82590000D03*
%TO.P,R17,2*%
%TO.N,+5V*%
X110600000Y-83610000D03*
%TD*%
D32*
%TO.P,R15,1*%
%TO.N,SDIO_DET*%
X117100000Y-100910000D03*
%TO.P,R15,2*%
%TO.N,+3.3V*%
X117100000Y-99890000D03*
%TD*%
D43*
%TO.P,R16,1*%
%TO.N,GND*%
X113261044Y-86151044D03*
%TO.P,R16,2*%
%TO.N,BUZZER*%
X112241044Y-86151044D03*
%TD*%
D49*
%TO.P,C24,1*%
%TO.N,+3.3V*%
X187475000Y-114700000D03*
%TO.P,C24,2*%
%TO.N,GND*%
X185925000Y-114700000D03*
%TD*%
D23*
%TO.P,R13,1*%
%TO.N,I2C1_SDA*%
X155590000Y-97000000D03*
%TO.P,R13,2*%
%TO.N,+3.3V*%
X156610000Y-97000000D03*
%TD*%
D32*
%TO.P,R14,1*%
%TO.N,GND*%
X131980289Y-87683337D03*
%TO.P,R14,2*%
%TO.N,CAN_STB*%
X131980289Y-86663337D03*
%TD*%
D43*
%TO.P,R12,1*%
%TO.N,I2C1_SCL*%
X158610000Y-97000000D03*
%TO.P,R12,2*%
%TO.N,+3.3V*%
X157590000Y-97000000D03*
%TD*%
D21*
%TO.P,SW2,1,1*%
%TO.N,GND*%
X119799999Y-127389999D03*
%TO.P,SW2,2,2*%
%TO.N,/mcu/NRST*%
X119799999Y-118209999D03*
%TD*%
D60*
%TO.P,C13,1*%
%TO.N,Net-(C13-Pad1)*%
X196767148Y-91680000D03*
%TO.P,C13,2*%
%TO.N,GND*%
X193817148Y-91680000D03*
%TD*%
D33*
%TO.P,H3,1*%
%TO.N,N/C*%
X192600000Y-124000000D03*
X193302944Y-122302944D03*
X193302944Y-125697056D03*
X195000000Y-121600000D03*
D34*
X195000000Y-124000000D03*
D33*
X195000000Y-126400000D03*
X196697056Y-122302944D03*
X196697056Y-125697056D03*
X197400000Y-124000000D03*
%TD*%
D61*
%TO.P,IC8,1,GND*%
%TO.N,GND*%
X197149999Y-116699999D03*
%TO.P,IC8,2,VO*%
%TO.N,+3.3V*%
X197149999Y-114399999D03*
D62*
X190849999Y-114399999D03*
D61*
%TO.P,IC8,3,VI*%
%TO.N,+5V*%
X197149999Y-112099999D03*
%TD*%
D41*
%TO.P,J5,1,Pin_1*%
%TO.N,/comm/RS485_B*%
X125900000Y-73000000D03*
D42*
%TO.P,J5,2,Pin_2*%
%TO.N,/comm/RS485_A*%
X123399999Y-72999999D03*
%TO.P,J5,3,Pin_3*%
%TO.N,GND*%
X120899999Y-72999999D03*
%TD*%
D24*
%TO.P,C30,1*%
%TO.N,/mcu/OSC32_IN*%
X179420000Y-114350910D03*
%TO.P,C30,2*%
%TO.N,GND*%
X180380000Y-114350910D03*
%TD*%
D23*
%TO.P,R8,1*%
%TO.N,GND*%
X186590000Y-104900000D03*
%TO.P,R8,2*%
%TO.N,Net-(X1-CC1)*%
X187610000Y-104900000D03*
%TD*%
D17*
%TO.P,C9,1*%
%TO.N,/mcu/NRST*%
X119800000Y-115680000D03*
%TO.P,C9,2*%
%TO.N,GND*%
X119800000Y-114720000D03*
%TD*%
D43*
%TO.P,R2,1*%
%TO.N,/wifi_ble/RTS*%
X156388446Y-78799055D03*
%TO.P,R2,2*%
%TO.N,Net-(Q2-Pad1)*%
X155368446Y-78799055D03*
%TD*%
D10*
%TO.P,J2,1,Pin_1*%
%TO.N,+3.3V*%
X158699999Y-127099999D03*
D11*
%TO.P,J2,2,Pin_2*%
%TO.N,/mcu/SWCLK*%
X161239999Y-127099999D03*
%TO.P,J2,3,Pin_3*%
%TO.N,GND*%
X163779999Y-127099999D03*
%TO.P,J2,4,Pin_4*%
%TO.N,/mcu/SWDIO*%
X166319999Y-127099999D03*
%TO.P,J2,5,Pin_5*%
%TO.N,/mcu/NRST*%
X168859999Y-127099999D03*
%TO.P,J2,6,Pin_6*%
%TO.N,/mcu/SWO*%
X171399999Y-127099999D03*
%TD*%
D18*
%TO.P,C21,1*%
%TO.N,+3.3V*%
X159915908Y-99500623D03*
%TO.P,C21,2*%
%TO.N,GND*%
X159915908Y-100460623D03*
%TD*%
D13*
%TO.P,R28,1*%
%TO.N,SDIO_D2*%
X129600000Y-109690000D03*
%TO.P,R28,2*%
%TO.N,+3.3V*%
X129600000Y-110710000D03*
%TD*%
D33*
%TO.P,H1,1*%
%TO.N,N/C*%
X102600000Y-74000000D03*
X103302944Y-72302944D03*
X103302944Y-75697056D03*
X105000000Y-71600000D03*
D34*
X105000000Y-74000000D03*
D33*
X105000000Y-76400000D03*
X106697056Y-72302944D03*
X106697056Y-75697056D03*
X107400000Y-74000000D03*
%TD*%
D63*
%TO.P,BZ1,4*%
%TO.N,N/C*%
X101699999Y-87099999D03*
%TO.P,BZ1,3*%
X101699999Y-80099999D03*
%TO.P,BZ1,2,+*%
%TO.N,Net-(BZ1-+)*%
X108699999Y-80099999D03*
%TO.P,BZ1,1,-*%
%TO.N,+5V*%
X108699999Y-87099999D03*
%TD*%
D35*
%TO.P,Q3,1,G*%
%TO.N,BUZZER*%
X112245636Y-84895171D03*
%TO.P,Q3,2,S*%
%TO.N,GND*%
X114145556Y-84895171D03*
%TO.P,Q3,3,D*%
%TO.N,Net-(BZ1-+)*%
X113195596Y-82593931D03*
%TD*%
D23*
%TO.P,R19,1*%
%TO.N,Net-(D1-GA)*%
X154780000Y-89010000D03*
%TO.P,R19,2*%
%TO.N,RGB_G*%
X155800000Y-89010000D03*
%TD*%
D32*
%TO.P,R25,1*%
%TO.N,GND*%
X169145128Y-118910000D03*
%TO.P,R25,2*%
%TO.N,/mcu/BOOT0*%
X169145128Y-117890000D03*
%TD*%
D17*
%TO.P,C10,1*%
%TO.N,+3.3V*%
X166053324Y-75240951D03*
%TO.P,C10,2*%
%TO.N,GND*%
X166053324Y-74280951D03*
%TD*%
D64*
%TO.N,ACC_INT*%
X170400000Y-111000000D03*
X168900000Y-109500000D03*
%TO.N,GND*%
X114251044Y-98076567D03*
%TO.N,I2C1_SDA*%
X155600000Y-103500000D03*
%TO.N,I2C1_SCL*%
X157700000Y-103600000D03*
X158614406Y-96119476D03*
%TO.N,I2C1_SDA*%
X155600000Y-96100000D03*
X144800000Y-108600000D03*
%TO.N,I2C1_SCL*%
X146000000Y-108600000D03*
%TO.N,GND*%
X185200000Y-113200000D03*
%TO.N,/mcu/USER*%
X175700000Y-107000000D03*
X172200000Y-122300000D03*
%TO.N,GND*%
X115076269Y-84891938D03*
X114063880Y-86155298D03*
%TO.N,+5V*%
X136982166Y-93774328D03*
X189400000Y-101300000D03*
X198600000Y-108700000D03*
X108700000Y-88900000D03*
X198600000Y-109800000D03*
X191200000Y-103500000D03*
X191300000Y-100500000D03*
%TO.N,+3.3V*%
X134400000Y-125410000D03*
X146877611Y-98520000D03*
X169743684Y-100347445D03*
X153170895Y-100503881D03*
X188200000Y-113200000D03*
X139170223Y-99669851D03*
X166000000Y-86000000D03*
X171409073Y-118728029D03*
X168222144Y-80297231D03*
X173891529Y-115034550D03*
X144160508Y-96357987D03*
X163434337Y-102075010D03*
X159200000Y-114400000D03*
X129600000Y-111600000D03*
X120041458Y-86618799D03*
X116300000Y-106400000D03*
X188800000Y-114800000D03*
X130700000Y-104100000D03*
X130700000Y-101000000D03*
X160800000Y-99500000D03*
X149249700Y-102340348D03*
X175720000Y-107800000D03*
X130700000Y-106700000D03*
X139633323Y-86661716D03*
X117100000Y-99100000D03*
X157584925Y-96125671D03*
X165200070Y-75228061D03*
X133580000Y-114700000D03*
%TO.N,GND*%
X145400000Y-89000000D03*
X119800000Y-125300000D03*
X181174755Y-114350910D03*
X184800000Y-114700000D03*
X192600000Y-93988663D03*
X197800000Y-118600000D03*
X127100000Y-125410000D03*
X196200000Y-118600000D03*
X173900000Y-116600000D03*
X139633323Y-87661219D03*
X139160099Y-98722487D03*
X181183332Y-111850620D03*
X146860221Y-99470223D03*
X168300000Y-118900000D03*
X120058764Y-87618152D03*
X177400000Y-106200000D03*
X178100000Y-109700000D03*
X145400000Y-90700000D03*
X184600000Y-101300000D03*
X104400000Y-93000000D03*
X126400000Y-88300000D03*
X164414337Y-102080336D03*
X144900000Y-100100000D03*
X186600000Y-104000000D03*
X175740224Y-108776567D03*
X167040598Y-80253165D03*
X190900000Y-99000000D03*
X166300000Y-73200000D03*
X171282032Y-100359902D03*
X160790614Y-100456729D03*
X192600000Y-91388663D03*
X150211045Y-102351691D03*
X116300000Y-104200000D03*
X165800000Y-100000000D03*
X124600000Y-84400000D03*
X135500000Y-82400000D03*
X190500000Y-104400000D03*
X185791716Y-95126591D03*
X159200000Y-113400000D03*
X168500000Y-89000000D03*
X170429073Y-118746985D03*
X150000000Y-96800000D03*
X118980000Y-114700000D03*
X154600000Y-99500000D03*
X126280000Y-114700000D03*
X134761716Y-93519104D03*
X101800000Y-93000000D03*
X195300000Y-108500000D03*
X136982166Y-94801605D03*
X145400000Y-87300000D03*
X186600126Y-97020430D03*
X131980288Y-88592573D03*
%TO.N,Net-(C13-Pad1)*%
X197972148Y-91700000D03*
X197972148Y-94300000D03*
%TO.N,/mcu/USER*%
X126280000Y-115700000D03*
%TO.N,/mcu/BOOT0*%
X133580000Y-115700000D03*
%TO.N,ACC_INT*%
X171700000Y-113636886D03*
X148600000Y-96800000D03*
%TO.N,ACC_CS*%
X153170895Y-99488656D03*
X166200000Y-108400000D03*
%TO.N,BARO_CS*%
X144135721Y-97381094D03*
X164900000Y-107800000D03*
%TO.N,SDIO_DET*%
X168000000Y-107200000D03*
X118000000Y-100900000D03*
%TO.N,SPI1_CLK*%
X164100000Y-94000000D03*
X154200000Y-94000000D03*
%TO.N,SPI1_MISO*%
X164000000Y-95000000D03*
X150750000Y-95200000D03*
%TO.N,SPI1_MOSI*%
X153300000Y-96100000D03*
X164000000Y-95900000D03*
X147400000Y-96100000D03*
%TO.N,USART3_RX*%
X121000000Y-92100000D03*
X164000000Y-96700000D03*
%TO.N,CAN_STB*%
X131980289Y-85877886D03*
X165156716Y-106054626D03*
%TO.N,BUZZER*%
X112240596Y-87091120D03*
X163296182Y-107650174D03*
%TO.N,SDIO_D2*%
X140000000Y-109700000D03*
X130600000Y-109700000D03*
%TO.N,/mcu/USART1_RX*%
X147367331Y-114789774D03*
%TO.N,USB_N*%
X182900000Y-100875000D03*
X155099479Y-113299479D03*
%TO.N,USB_P*%
X155700521Y-113900521D03*
X182900000Y-101725000D03*
%TO.N,/mcu/SWDIO*%
X162000000Y-117100000D03*
%TO.N,/mcu/SWCLK*%
X163300000Y-124100000D03*
X163657863Y-117829357D03*
%TO.N,/mcu/USART1_TX*%
X152700000Y-117800000D03*
%TO.N,USART3_TX*%
X126400000Y-93700000D03*
X164647206Y-114020430D03*
%TO.N,RS485_DE*%
X124500000Y-93800000D03*
X165900000Y-114025500D03*
%TO.N,/mcu/SWO*%
X166649475Y-119300000D03*
%TO.N,SDIO_D0*%
X159800000Y-116300000D03*
X167155545Y-114639837D03*
%TO.N,I2C1_SCL*%
X164400000Y-111400000D03*
%TO.N,I2C1_SDA*%
X165700000Y-110600000D03*
%TO.N,CAN1_RX*%
X138492578Y-92067320D03*
X164600000Y-109900000D03*
%TO.N,CAN1_TX*%
X163600000Y-109300000D03*
X132013324Y-92066687D03*
%TO.N,/usb/USB_CON_N*%
X194400000Y-102500000D03*
X191300000Y-101700000D03*
%TO.N,/wifi_ble/ESP_TX*%
X189000000Y-86000000D03*
%TO.N,/wifi_ble/ESP_RX*%
X189000000Y-87500000D03*
%TO.N,Net-(X1-CC2)*%
X188400000Y-97900000D03*
X194300000Y-100700000D03*
%TD*%
D65*
%TO.N,/mcu/NRST*%
X168225000Y-123525000D02*
X168860000Y-124160000D01*
X158775000Y-123525000D02*
X168225000Y-123525000D01*
X158400000Y-123900000D02*
X158775000Y-123525000D01*
%TO.N,ACC_INT*%
X168900000Y-109500000D02*
X170400000Y-111000000D01*
%TO.N,USART2_RX*%
X171600521Y-103400521D02*
X171150000Y-103851041D01*
X174599479Y-103400521D02*
X171600521Y-103400521D01*
X171150000Y-103851041D02*
X171150000Y-104725000D01*
X176100000Y-87400000D02*
X176100000Y-101900000D01*
X173200000Y-84500000D02*
X176100000Y-87400000D01*
X170000000Y-84500000D02*
X173200000Y-84500000D01*
X176100000Y-101900000D02*
X174599479Y-103400521D01*
%TO.N,RS485_DE*%
X165150000Y-114330809D02*
X165150000Y-116075000D01*
X165222206Y-114258603D02*
X165150000Y-114330809D01*
X165274500Y-114025500D02*
X165222206Y-114077794D01*
X165222206Y-114077794D02*
X165222206Y-114258603D01*
X165900000Y-114025500D02*
X165274500Y-114025500D01*
D66*
%TO.N,GND*%
X114250000Y-98077611D02*
X114251044Y-98076567D01*
X114250000Y-99550000D02*
X114250000Y-98077611D01*
D65*
%TO.N,I2C1_SCL*%
X157700000Y-103600000D02*
X157700000Y-106900000D01*
X157700000Y-106900000D02*
X156000000Y-108600000D01*
X156000000Y-108600000D02*
X146000000Y-108600000D01*
%TO.N,I2C1_SDA*%
X155600000Y-106000000D02*
X155600000Y-103500000D01*
X154200000Y-107400000D02*
X155600000Y-106000000D01*
X145300000Y-107400000D02*
X154200000Y-107400000D01*
X144800000Y-107900000D02*
X145300000Y-107400000D01*
X144800000Y-108600000D02*
X144800000Y-107900000D01*
%TO.N,I2C1_SCL*%
X158610000Y-96123882D02*
X158614406Y-96119476D01*
X158610000Y-97000000D02*
X158610000Y-96123882D01*
%TO.N,I2C1_SDA*%
X155590000Y-97000000D02*
X155590000Y-96110000D01*
X155590000Y-96110000D02*
X155600000Y-96100000D01*
%TO.N,RGB_B*%
X159650000Y-109650000D02*
X159000000Y-109000000D01*
X161725000Y-109650000D02*
X159650000Y-109650000D01*
X159000000Y-109000000D02*
X159000000Y-104900000D01*
X159000000Y-104900000D02*
X161800000Y-102100000D01*
X161800000Y-102100000D02*
X161800000Y-91300000D01*
X161800000Y-91300000D02*
X161200000Y-90700000D01*
X161200000Y-90700000D02*
X155810000Y-90700000D01*
%TO.N,RGB_G*%
X161725000Y-109150000D02*
X159950000Y-109150000D01*
X162300000Y-102500000D02*
X162300000Y-89600000D01*
X159950000Y-109150000D02*
X159500000Y-108700000D01*
X159500000Y-108700000D02*
X159500000Y-105300000D01*
X159500000Y-105300000D02*
X162300000Y-102500000D01*
X155810000Y-89000000D02*
X155800000Y-89010000D01*
X162300000Y-89600000D02*
X161700000Y-89000000D01*
X161700000Y-89000000D02*
X155810000Y-89000000D01*
%TO.N,RGB_R*%
X162800000Y-87900000D02*
X162200000Y-87300000D01*
X161725000Y-108650000D02*
X160350000Y-108650000D01*
X162200000Y-87300000D02*
X155810000Y-87300000D01*
X160000000Y-105550000D02*
X162800000Y-102750000D01*
X160350000Y-108650000D02*
X160000000Y-108300000D01*
X160000000Y-108300000D02*
X160000000Y-105550000D01*
X162800000Y-102750000D02*
X162800000Y-87900000D01*
%TO.N,SPI1_CLK*%
X143250000Y-99932500D02*
X143250000Y-101650000D01*
X143250000Y-101650000D02*
X144800000Y-103200000D01*
X144800000Y-103200000D02*
X153400000Y-103200000D01*
X153400000Y-103200000D02*
X153900000Y-102700000D01*
X153900000Y-102700000D02*
X153900000Y-99000000D01*
X153900000Y-99000000D02*
X153550000Y-98650000D01*
X153550000Y-98650000D02*
X153900000Y-98300000D01*
X154200000Y-96100000D02*
X154200000Y-94000000D01*
X153900000Y-96400000D02*
X154100000Y-96200000D01*
X153900000Y-98300000D02*
X153900000Y-96400000D01*
X154100000Y-96200000D02*
X154200000Y-96100000D01*
%TO.N,I2C1_SCL*%
X168150000Y-112250000D02*
X168150000Y-116075000D01*
X167300000Y-111400000D02*
X168150000Y-112250000D01*
X164400000Y-111400000D02*
X167300000Y-111400000D01*
%TO.N,GND*%
X144487500Y-99687500D02*
X143745000Y-99687500D01*
X144900000Y-100100000D02*
X144487500Y-99687500D01*
%TO.N,/mcu/NRST*%
X172320000Y-123500000D02*
X169520000Y-123500000D01*
X173120000Y-122700000D02*
X172320000Y-123500000D01*
X173120000Y-116220000D02*
X173120000Y-122700000D01*
X171000000Y-111700000D02*
X171000000Y-114100000D01*
X169520000Y-123500000D02*
X168860000Y-124160000D01*
X171550000Y-111150000D02*
X171000000Y-111700000D01*
X171000000Y-114100000D02*
X173120000Y-116220000D01*
X173075000Y-111150000D02*
X171550000Y-111150000D01*
%TO.N,SDIO_D1*%
X149375000Y-109950000D02*
X149375000Y-110650000D01*
X156575000Y-109950000D02*
X156575000Y-110650000D01*
X155375000Y-109950000D02*
X155375000Y-110650000D01*
X149975000Y-110650000D02*
X149975000Y-109950000D01*
X150575000Y-109950000D02*
X150575000Y-110650000D01*
X151775000Y-109950000D02*
X151775000Y-110650000D01*
X145775000Y-109950000D02*
X145775000Y-110650000D01*
X152375000Y-110650000D02*
X152375000Y-109950000D01*
X145175000Y-110650000D02*
X145175000Y-109950000D01*
X148775000Y-110650000D02*
X148775000Y-109950000D01*
X157175000Y-110650000D02*
X157175000Y-109950000D01*
X148175000Y-109950000D02*
X148175000Y-110650000D01*
X144575000Y-109950000D02*
X144575000Y-110650000D01*
X158375000Y-110650000D02*
X158375000Y-109950000D01*
X151175000Y-110650000D02*
X151175000Y-109950000D01*
X155975000Y-110650000D02*
X155975000Y-109950000D01*
X146975000Y-109950000D02*
X146975000Y-110650000D01*
X146375000Y-110650000D02*
X146375000Y-109950000D01*
X157775000Y-109950000D02*
X157775000Y-110650000D01*
X158975000Y-109950000D02*
X158975000Y-110350000D01*
X154175000Y-109950000D02*
X154175000Y-110650000D01*
X147575000Y-110650000D02*
X147575000Y-109950000D01*
X152975000Y-109950000D02*
X152975000Y-110650000D01*
X143975000Y-110650000D02*
X143975000Y-109950000D01*
X154775000Y-110650000D02*
X154775000Y-109950000D01*
X153575000Y-110650000D02*
X153575000Y-109950000D01*
X158675000Y-109650000D02*
G75*
G03*
X158375000Y-109950000I0J-300000D01*
G01*
X157775000Y-109950000D02*
G75*
G03*
X157475000Y-109650000I-300000J0D01*
G01*
X147875000Y-109650000D02*
G75*
G03*
X147575000Y-109950000I0J-300000D01*
G01*
X145775000Y-109950000D02*
G75*
G03*
X145475000Y-109650000I-300000J0D01*
G01*
X154175000Y-109950000D02*
G75*
G03*
X153875000Y-109650000I-300000J0D01*
G01*
X158975000Y-110350000D02*
G75*
G03*
X159275000Y-110650000I300000J0D01*
G01*
X144575000Y-109950000D02*
G75*
G03*
X144275000Y-109650000I-300000J0D01*
G01*
X150275000Y-109650000D02*
G75*
G03*
X149975000Y-109950000I0J-300000D01*
G01*
X146975000Y-109950000D02*
G75*
G03*
X146675000Y-109650000I-300000J0D01*
G01*
X158975000Y-109950000D02*
G75*
G03*
X158675000Y-109650000I-300000J0D01*
G01*
X156275000Y-109650000D02*
G75*
G03*
X155975000Y-109950000I0J-300000D01*
G01*
X144275000Y-109650000D02*
G75*
G03*
X143975000Y-109950000I0J-300000D01*
G01*
X149375000Y-109950000D02*
G75*
G03*
X149075000Y-109650000I-300000J0D01*
G01*
X151775000Y-109950000D02*
G75*
G03*
X151475000Y-109650000I-300000J0D01*
G01*
X155075000Y-109650000D02*
G75*
G03*
X154775000Y-109950000I0J-300000D01*
G01*
X153875000Y-109650000D02*
G75*
G03*
X153575000Y-109950000I0J-300000D01*
G01*
X157475000Y-109650000D02*
G75*
G03*
X157175000Y-109950000I0J-300000D01*
G01*
X150575000Y-109950000D02*
G75*
G03*
X150275000Y-109650000I-300000J0D01*
G01*
X155375000Y-109950000D02*
G75*
G03*
X155075000Y-109650000I-300000J0D01*
G01*
X148175000Y-109950000D02*
G75*
G03*
X147875000Y-109650000I-300000J0D01*
G01*
X146675000Y-109650000D02*
G75*
G03*
X146375000Y-109950000I0J-300000D01*
G01*
X156575000Y-109950000D02*
G75*
G03*
X156275000Y-109650000I-300000J0D01*
G01*
X145475000Y-109650000D02*
G75*
G03*
X145175000Y-109950000I0J-300000D01*
G01*
X149075000Y-109650000D02*
G75*
G03*
X148775000Y-109950000I0J-300000D01*
G01*
X151475000Y-109650000D02*
G75*
G03*
X151175000Y-109950000I0J-300000D01*
G01*
X152675000Y-109650000D02*
G75*
G03*
X152375000Y-109950000I0J-300000D01*
G01*
X152975000Y-109950000D02*
G75*
G03*
X152675000Y-109650000I-300000J0D01*
G01*
X145850000Y-110800000D02*
X146300000Y-110800000D01*
X144575000Y-110650000D02*
X144575000Y-110725000D01*
X150650000Y-110800000D02*
X151100000Y-110800000D01*
X143450000Y-110800000D02*
X143900000Y-110800000D01*
X144650000Y-110800000D02*
X145100000Y-110800000D01*
X148775000Y-110725000D02*
X148775000Y-110650000D01*
X151775000Y-110650000D02*
X151775000Y-110725000D01*
X154250000Y-110800000D02*
X154700000Y-110800000D01*
X155375000Y-110650000D02*
X155375000Y-110725000D01*
X154775000Y-110725000D02*
X154775000Y-110650000D01*
X157850000Y-110800000D02*
X158300000Y-110800000D01*
X155975000Y-110725000D02*
X155975000Y-110650000D01*
X147050000Y-110800000D02*
X147500000Y-110800000D01*
X153050000Y-110800000D02*
X153500000Y-110800000D01*
X152375000Y-110725000D02*
X152375000Y-110650000D01*
X145775000Y-110650000D02*
X145775000Y-110725000D01*
X143975000Y-110725000D02*
X143975000Y-110650000D01*
X157175000Y-110725000D02*
X157175000Y-110650000D01*
X151850000Y-110800000D02*
X152300000Y-110800000D01*
X153575000Y-110725000D02*
X153575000Y-110650000D01*
X145175000Y-110725000D02*
X145175000Y-110650000D01*
X146375000Y-110725000D02*
X146375000Y-110650000D01*
X152975000Y-110650000D02*
X152975000Y-110725000D01*
X149975000Y-110725000D02*
X149975000Y-110650000D01*
X155450000Y-110800000D02*
X155900000Y-110800000D01*
X148250000Y-110800000D02*
X148700000Y-110800000D01*
X156650000Y-110800000D02*
X157100000Y-110800000D01*
X156575000Y-110650000D02*
X156575000Y-110725000D01*
X149450000Y-110800000D02*
X149900000Y-110800000D01*
X148175000Y-110650000D02*
X148175000Y-110725000D01*
X150575000Y-110650000D02*
X150575000Y-110725000D01*
X157775000Y-110650000D02*
X157775000Y-110725000D01*
X154175000Y-110650000D02*
X154175000Y-110725000D01*
X142150000Y-110650000D02*
X143300000Y-110650000D01*
X158375000Y-110725000D02*
X158375000Y-110650000D01*
X147575000Y-110725000D02*
X147575000Y-110650000D01*
X146975000Y-110650000D02*
X146975000Y-110725000D01*
X151175000Y-110725000D02*
X151175000Y-110650000D01*
X149375000Y-110650000D02*
X149375000Y-110725000D01*
X154700000Y-110800000D02*
G75*
G03*
X154775000Y-110725000I0J75000D01*
G01*
X145775000Y-110725000D02*
G75*
G03*
X145850000Y-110800000I75000J0D01*
G01*
X149900000Y-110800000D02*
G75*
G03*
X149975000Y-110725000I0J75000D01*
G01*
X151100000Y-110800000D02*
G75*
G03*
X151175000Y-110725000I0J75000D01*
G01*
X143900000Y-110800000D02*
G75*
G03*
X143975000Y-110725000I0J75000D01*
G01*
X155900000Y-110800000D02*
G75*
G03*
X155975000Y-110725000I0J75000D01*
G01*
X148700000Y-110800000D02*
G75*
G03*
X148775000Y-110725000I0J75000D01*
G01*
X157775000Y-110725000D02*
G75*
G03*
X157850000Y-110800000I75000J0D01*
G01*
X149375000Y-110725000D02*
G75*
G03*
X149450000Y-110800000I75000J0D01*
G01*
X156575000Y-110725000D02*
G75*
G03*
X156650000Y-110800000I75000J0D01*
G01*
X155375000Y-110725000D02*
G75*
G03*
X155450000Y-110800000I75000J0D01*
G01*
X151775000Y-110725000D02*
G75*
G03*
X151850000Y-110800000I75000J0D01*
G01*
X157100000Y-110800000D02*
G75*
G03*
X157175000Y-110725000I0J75000D01*
G01*
X144575000Y-110725000D02*
G75*
G03*
X144650000Y-110800000I75000J0D01*
G01*
X148175000Y-110725000D02*
G75*
G03*
X148250000Y-110800000I75000J0D01*
G01*
X150575000Y-110725000D02*
G75*
G03*
X150650000Y-110800000I75000J0D01*
G01*
X147500000Y-110800000D02*
G75*
G03*
X147575000Y-110725000I0J75000D01*
G01*
X152300000Y-110800000D02*
G75*
G03*
X152375000Y-110725000I0J75000D01*
G01*
X145100000Y-110800000D02*
G75*
G03*
X145175000Y-110725000I0J75000D01*
G01*
X154175000Y-110725000D02*
G75*
G03*
X154250000Y-110800000I75000J0D01*
G01*
X143375000Y-110725000D02*
G75*
G03*
X143300000Y-110650000I-75000J0D01*
G01*
X152975000Y-110725000D02*
G75*
G03*
X153050000Y-110800000I75000J0D01*
G01*
X146300000Y-110800000D02*
G75*
G03*
X146375000Y-110725000I0J75000D01*
G01*
X158300000Y-110800000D02*
G75*
G03*
X158375000Y-110725000I0J75000D01*
G01*
X143375000Y-110725000D02*
G75*
G03*
X143450000Y-110800000I75000J0D01*
G01*
X146975000Y-110725000D02*
G75*
G03*
X147050000Y-110800000I75000J0D01*
G01*
X153500000Y-110800000D02*
G75*
G03*
X153575000Y-110725000I0J75000D01*
G01*
X140572958Y-109497223D02*
X140785090Y-109709355D01*
X141209353Y-109709356D02*
G75*
G03*
X140997223Y-109709356I-106065J-106065D01*
G01*
X159275000Y-110650000D02*
X160135813Y-110650000D01*
X136860658Y-105360658D02*
X137355631Y-104865682D01*
X137709184Y-106209184D02*
X138204157Y-105714208D01*
X138027380Y-107234487D02*
G75*
G03*
X138380934Y-107234487I176777J176778D01*
G01*
X141421487Y-109921487D02*
X142150000Y-110650000D01*
X140572959Y-109497224D02*
X140572958Y-109497223D01*
X137779896Y-105289949D02*
X137779897Y-105289948D01*
X141174001Y-108684052D02*
X140572958Y-109285091D01*
X160135813Y-110650000D02*
X161725000Y-110650000D01*
X138875906Y-108083013D02*
G75*
G03*
X139229460Y-108083013I176777J176778D01*
G01*
X140785091Y-109709354D02*
G75*
G03*
X140997221Y-109709354I106065J106065D01*
G01*
X141209354Y-109709355D02*
X141421487Y-109921487D01*
X140573001Y-109285134D02*
G75*
G03*
X140572959Y-109497224I105999J-106066D01*
G01*
X141174000Y-108684053D02*
X141174001Y-108684052D01*
X141173979Y-108684032D02*
G75*
G03*
X141174000Y-108259789I-212079J212132D01*
G01*
X124989568Y-102000000D02*
X133500000Y-102000000D01*
X122700000Y-101700000D02*
G75*
G03*
X123000000Y-102000000I300000J0D01*
G01*
X141174034Y-108259755D02*
G75*
G03*
X140749735Y-108259786I-212134J-212145D01*
G01*
X136683882Y-105537435D02*
X136860658Y-105360658D01*
X137956670Y-106810223D02*
G75*
G03*
X137956670Y-107163777I176730J-176777D01*
G01*
X140254762Y-108754762D02*
X140749735Y-108259786D01*
X140077986Y-108931539D02*
X140254762Y-108754762D01*
X136931380Y-104441433D02*
G75*
G03*
X136931371Y-104017158I-212180J212133D01*
G01*
X138628379Y-106138432D02*
G75*
G03*
X138628422Y-105714211I-212079J212132D01*
G01*
X139724432Y-108931539D02*
G75*
G03*
X140077986Y-108931539I176777J176778D01*
G01*
X139476948Y-106987001D02*
X139476949Y-106987000D01*
X136259571Y-105113124D02*
G75*
G03*
X136259619Y-105466724I176829J-176776D01*
G01*
X121800000Y-102667900D02*
G75*
G03*
X122100000Y-102367931I0J300000D01*
G01*
X139653722Y-108860829D02*
X139724432Y-108931539D01*
X139653770Y-108507323D02*
G75*
G03*
X139653722Y-108860829I176730J-176777D01*
G01*
X140325480Y-107835533D02*
G75*
G03*
X140325475Y-107411262I-212180J212133D01*
G01*
X140325475Y-107835526D02*
X139653722Y-108507275D01*
X140325474Y-107835527D02*
X140325475Y-107835526D01*
X136224265Y-104299999D02*
X136224264Y-104300000D01*
X140325434Y-107411303D02*
G75*
G03*
X139901209Y-107411260I-212134J-212097D01*
G01*
X137779934Y-104865647D02*
G75*
G03*
X137355631Y-104865682I-212134J-212153D01*
G01*
X139406236Y-107906236D02*
X139901209Y-107411260D01*
X137108170Y-105961723D02*
G75*
G03*
X137108144Y-106315251I176730J-176777D01*
G01*
X139229460Y-108083013D02*
X139406236Y-107906236D01*
X123000000Y-102000000D02*
X124989568Y-102000000D01*
X138380934Y-107234487D02*
X138557710Y-107057710D01*
X138805196Y-108012303D02*
X138875906Y-108083013D01*
X138805171Y-107658724D02*
G75*
G03*
X138805197Y-108012302I176829J-176776D01*
G01*
X139476949Y-106987000D02*
X138805196Y-107658749D01*
X139476980Y-106987033D02*
G75*
G03*
X139476949Y-106562736I-212180J212133D01*
G01*
X135799969Y-104300031D02*
G75*
G03*
X136224264Y-104299998I212131J212131D01*
G01*
X139476934Y-106562751D02*
G75*
G03*
X139052683Y-106562734I-212134J-212149D01*
G01*
X138557710Y-107057710D02*
X139052683Y-106562734D01*
X137532408Y-106385961D02*
X137709184Y-106209184D01*
X137956670Y-107163777D02*
X138027380Y-107234487D01*
X119100037Y-101382063D02*
G75*
G03*
X118800000Y-101082063I-300037J-37D01*
G01*
X138628423Y-106138474D02*
X137956670Y-106810223D01*
X138628422Y-106138475D02*
X138628423Y-106138474D01*
X119700000Y-102367931D02*
X119700000Y-102000000D01*
X138628434Y-105714199D02*
G75*
G03*
X138204157Y-105714208I-212134J-212101D01*
G01*
X136259618Y-105466725D02*
X136330328Y-105537435D01*
X137178854Y-106385961D02*
G75*
G03*
X137532408Y-106385961I176777J176778D01*
G01*
X137108144Y-106315251D02*
X137178854Y-106385961D01*
X137779897Y-105289948D02*
X137108144Y-105961697D01*
X137779879Y-105289932D02*
G75*
G03*
X137779896Y-104865685I-212079J212132D01*
G01*
X136330328Y-105537435D02*
G75*
G03*
X136683882Y-105537435I176777J176778D01*
G01*
X136931371Y-104441422D02*
X136259618Y-105113171D01*
X136931370Y-104441423D02*
X136931371Y-104441422D01*
X136931370Y-104017159D02*
G75*
G03*
X136507108Y-104017159I-212131J-212131D01*
G01*
X136224264Y-104300000D02*
X136507107Y-104017158D01*
X133500000Y-102000000D02*
X135800000Y-104300000D01*
X122700000Y-101382063D02*
X122700000Y-101700000D01*
X122700037Y-101382063D02*
G75*
G03*
X122400000Y-101082063I-300037J-37D01*
G01*
X122400000Y-101082100D02*
G75*
G03*
X122100000Y-101382063I0J-300000D01*
G01*
X122100000Y-102000000D02*
X122100000Y-101382063D01*
X122100000Y-102367931D02*
X122100000Y-102000000D01*
X121499969Y-102367931D02*
G75*
G03*
X121800000Y-102667931I300031J31D01*
G01*
X121500000Y-102000000D02*
X121500000Y-102367931D01*
X121500000Y-101382050D02*
X121500000Y-102000000D01*
X121500050Y-101382050D02*
G75*
G03*
X121200000Y-101082050I-300050J-50D01*
G01*
X121200000Y-101082100D02*
G75*
G03*
X120900000Y-101382050I0J-300000D01*
G01*
X120900000Y-102000000D02*
X120900000Y-101382050D01*
X120900000Y-102367931D02*
X120900000Y-102000000D01*
X120600000Y-102667900D02*
G75*
G03*
X120900000Y-102367931I0J300000D01*
G01*
X120299969Y-102367931D02*
G75*
G03*
X120600000Y-102667931I300031J31D01*
G01*
X120300000Y-102000000D02*
X120300000Y-102367931D01*
X120300000Y-101382063D02*
X120300000Y-102000000D01*
X120300037Y-101382063D02*
G75*
G03*
X120000000Y-101082063I-300037J-37D01*
G01*
X120000000Y-101082100D02*
G75*
G03*
X119700000Y-101382063I0J-300000D01*
G01*
X119700000Y-102000000D02*
X119700000Y-101382063D01*
X119400000Y-102667900D02*
G75*
G03*
X119700000Y-102367931I0J300000D01*
G01*
X119099969Y-102367931D02*
G75*
G03*
X119400000Y-102667931I300031J31D01*
G01*
X119100000Y-101700000D02*
X119100000Y-102367931D01*
X119100000Y-101382063D02*
X119100000Y-101700000D01*
X118800000Y-101082100D02*
G75*
G03*
X118500000Y-101382063I0J-300000D01*
G01*
X118500000Y-101700000D02*
X118500000Y-101382063D01*
X118200000Y-102000000D02*
G75*
G03*
X118500000Y-101700000I0J300000D01*
G01*
X115110000Y-102000000D02*
X118200000Y-102000000D01*
X114900000Y-102210000D02*
X115110000Y-102000000D01*
%TO.N,/mcu/SWO*%
X166649475Y-119300000D02*
X166649475Y-116075525D01*
X166649475Y-116075525D02*
X166650000Y-116075000D01*
%TO.N,/mcu/BOOT0*%
X169740128Y-118485000D02*
X169145128Y-117890000D01*
X168400000Y-121500000D02*
X169740128Y-120159872D01*
X157700000Y-121500000D02*
X168400000Y-121500000D01*
X157100000Y-122100000D02*
X157700000Y-121500000D01*
X135500000Y-122100000D02*
X157100000Y-122100000D01*
X134400000Y-121000000D02*
X135500000Y-122100000D01*
X169740128Y-120159872D02*
X169740128Y-118485000D01*
X134400000Y-118210000D02*
X134400000Y-121000000D01*
%TO.N,/mcu/USER*%
X158600000Y-122300000D02*
X157900000Y-123000000D01*
X172200000Y-122300000D02*
X158600000Y-122300000D01*
X157900000Y-123000000D02*
X138500000Y-123000000D01*
%TO.N,/mcu/NRST*%
X168860000Y-124160000D02*
X168860000Y-124340000D01*
X157200000Y-123900000D02*
X123500000Y-123900000D01*
X158400000Y-123900000D02*
X157200000Y-123900000D01*
%TO.N,/mcu/SWCLK*%
X162000000Y-124100000D02*
X163300000Y-124100000D01*
X161240000Y-124860000D02*
X162000000Y-124100000D01*
X161240000Y-127100000D02*
X161240000Y-124860000D01*
%TO.N,/mcu/NRST*%
X122600000Y-123000000D02*
X122600000Y-120100000D01*
X122600000Y-120100000D02*
X122500000Y-120000000D01*
X122500000Y-120000000D02*
X122500000Y-115900000D01*
X122500000Y-115900000D02*
X122280000Y-115680000D01*
X122280000Y-115680000D02*
X119800000Y-115680000D01*
X123500000Y-123900000D02*
X122600000Y-123000000D01*
%TO.N,/mcu/USER*%
X173948960Y-107650000D02*
X174598960Y-107000000D01*
X174598960Y-107000000D02*
X175700000Y-107000000D01*
X173075000Y-107650000D02*
X173948960Y-107650000D01*
X138500000Y-123000000D02*
X138600000Y-123000000D01*
X130500000Y-123000000D02*
X138500000Y-123000000D01*
X130100000Y-122600000D02*
X130500000Y-123000000D01*
X129700000Y-122200000D02*
X130100000Y-122600000D01*
X129500000Y-115800000D02*
X129700000Y-116000000D01*
X129380000Y-115680000D02*
X129500000Y-115800000D01*
X129700000Y-116000000D02*
X129700000Y-118200000D01*
X127100000Y-115680000D02*
X129380000Y-115680000D01*
X129700000Y-118200000D02*
X129700000Y-122200000D01*
%TO.N,GND*%
X115073035Y-84895172D02*
X115076269Y-84891938D01*
X114145557Y-84895172D02*
X115073035Y-84895172D01*
X114059626Y-86151044D02*
X114063880Y-86155298D01*
X113261044Y-86151044D02*
X114059626Y-86151044D01*
%TO.N,BARO_CS*%
X171450000Y-110150000D02*
X173075000Y-110150000D01*
X169100000Y-107800000D02*
X171450000Y-110150000D01*
X164900000Y-107800000D02*
X169100000Y-107800000D01*
D67*
%TO.N,+5V*%
X192230000Y-100500000D02*
X191300000Y-100500000D01*
D65*
X192230000Y-100500000D02*
X192800000Y-100500000D01*
D67*
X191200000Y-103500000D02*
X192230000Y-103500000D01*
D68*
X136031490Y-93769475D02*
X136031490Y-92069510D01*
D65*
X192700000Y-103500000D02*
X192230000Y-103500000D01*
X192800000Y-100500000D02*
X193050000Y-100750000D01*
D68*
X108700000Y-87100000D02*
X108700000Y-88900000D01*
X188137500Y-101300000D02*
X189400000Y-101300000D01*
X108700000Y-87100000D02*
X108700000Y-83900000D01*
X136031490Y-92069510D02*
X136035000Y-92066000D01*
X108700000Y-83900000D02*
X108990000Y-83610000D01*
X108990000Y-83610000D02*
X110600000Y-83610000D01*
D65*
X193530000Y-103250000D02*
X192950000Y-103250000D01*
X193050000Y-100750000D02*
X193530000Y-100750000D01*
D68*
X136031490Y-93769475D02*
X136977313Y-93769475D01*
X136977313Y-93769475D02*
X136982166Y-93774328D01*
D65*
X192950000Y-103250000D02*
X192700000Y-103500000D01*
D69*
%TO.N,Net-(BZ1-+)*%
X108700000Y-80100000D02*
X108700000Y-81900000D01*
X108700000Y-81900000D02*
X109390000Y-82590000D01*
X110600000Y-82590000D02*
X110603932Y-82593932D01*
X109390000Y-82590000D02*
X110600000Y-82590000D01*
X110603932Y-82593932D02*
X113195597Y-82593932D01*
D68*
%TO.N,+3.3V*%
X139631100Y-86663939D02*
X139633323Y-86661716D01*
D67*
X159220000Y-114380000D02*
X159200000Y-114400000D01*
D68*
X167790951Y-75240951D02*
X167800000Y-75250000D01*
D67*
X134400000Y-114700000D02*
X133580000Y-114700000D01*
X159915908Y-99500623D02*
X160799377Y-99500623D01*
X163420000Y-102900000D02*
X163420000Y-102089347D01*
D65*
X142500000Y-99932500D02*
X142255000Y-99687500D01*
X149250000Y-100160000D02*
X149250000Y-101504825D01*
D67*
X161725000Y-114150000D02*
X160230000Y-114150000D01*
D65*
X130690000Y-104110000D02*
X130700000Y-104100000D01*
D67*
X160000000Y-114380000D02*
X159220000Y-114380000D01*
D68*
X121008409Y-86668077D02*
X122592923Y-86668077D01*
D65*
X142255000Y-99687500D02*
X140000000Y-99687500D01*
D67*
X175700000Y-107820000D02*
X175720000Y-107800000D01*
X140000000Y-99687500D02*
X141080000Y-99687500D01*
D65*
X129600000Y-100990000D02*
X130690000Y-100990000D01*
D68*
X138688935Y-86666000D02*
X138690996Y-86663939D01*
D67*
X149248955Y-102339603D02*
X149249700Y-102340348D01*
X159915285Y-99500000D02*
X159915908Y-99500623D01*
D65*
X152300000Y-100510000D02*
X153164776Y-100510000D01*
D68*
X166053324Y-75240951D02*
X167790951Y-75240951D01*
X168216608Y-80291695D02*
X168222144Y-80297231D01*
D67*
X163420000Y-102089347D02*
X163434337Y-102075010D01*
D68*
X120041458Y-86618799D02*
X120090736Y-86668077D01*
D67*
X174050000Y-108150000D02*
X174400000Y-107800000D01*
D65*
X144160137Y-96358358D02*
X144160508Y-96357987D01*
D67*
X139187872Y-99687500D02*
X139170223Y-99669851D01*
X169900000Y-103500000D02*
X169900000Y-102920000D01*
X173075000Y-108150000D02*
X174050000Y-108150000D01*
X174820000Y-107820000D02*
X175700000Y-107820000D01*
X174400000Y-107800000D02*
X174880000Y-107800000D01*
X169920000Y-102420000D02*
X169725000Y-102225000D01*
X140000000Y-99687500D02*
X139187872Y-99687500D01*
D65*
X130690000Y-100990000D02*
X130700000Y-101000000D01*
X149250000Y-101504825D02*
X149248955Y-101505870D01*
D67*
X170150000Y-103750000D02*
X169900000Y-103500000D01*
X116285000Y-106415000D02*
X116300000Y-106400000D01*
D65*
X142750000Y-99932500D02*
X142500000Y-99932500D01*
D67*
X171150000Y-116075000D02*
X171150000Y-117050000D01*
D65*
X153164776Y-100510000D02*
X153170895Y-100503881D01*
D67*
X169725000Y-100366129D02*
X169743684Y-100347445D01*
X171150000Y-117050000D02*
X171400000Y-117300000D01*
D65*
X129600000Y-110710000D02*
X131600000Y-110710000D01*
D67*
X163650000Y-103130000D02*
X163420000Y-102900000D01*
X175100000Y-114400000D02*
X175100000Y-115025000D01*
X170150000Y-104725000D02*
X170150000Y-103750000D01*
D65*
X129600000Y-104110000D02*
X130690000Y-104110000D01*
X143244664Y-96358358D02*
X144160137Y-96358358D01*
D67*
X175100000Y-115025000D02*
X173901079Y-115025000D01*
D68*
X167800000Y-75250000D02*
X167800000Y-76500000D01*
D67*
X163650000Y-104725000D02*
X163650000Y-103130000D01*
D65*
X130680000Y-106680000D02*
X130700000Y-106700000D01*
D67*
X157590000Y-97000000D02*
X157590000Y-96130746D01*
D65*
X129600000Y-110710000D02*
X129600000Y-111600000D01*
D67*
X160230000Y-114150000D02*
X160000000Y-114380000D01*
X147720000Y-98500000D02*
X147700000Y-98520000D01*
D68*
X120090736Y-86668077D02*
X121008409Y-86668077D01*
D65*
X166003800Y-86003800D02*
X166000000Y-86000000D01*
D67*
X169900000Y-102920000D02*
X169920000Y-102900000D01*
X174850000Y-114150000D02*
X175100000Y-114400000D01*
D68*
X168216608Y-79516554D02*
X168216608Y-80291695D01*
D67*
X171400000Y-117300000D02*
X171400000Y-118718956D01*
X141080000Y-99687500D02*
X141100000Y-99667500D01*
D68*
X166053324Y-75240951D02*
X165212960Y-75240951D01*
D67*
X171400000Y-118718956D02*
X171409073Y-118728029D01*
D68*
X138690996Y-86663939D02*
X139631100Y-86663939D01*
D65*
X129600000Y-106680000D02*
X130680000Y-106680000D01*
D67*
X173901079Y-115025000D02*
X173891529Y-115034550D01*
D68*
X122592923Y-86668077D02*
X122595000Y-86666000D01*
D67*
X169725000Y-102225000D02*
X169725000Y-101400000D01*
X158512500Y-99500000D02*
X159915285Y-99500000D01*
D68*
X167800000Y-76500000D02*
X168300000Y-77000000D01*
D65*
X166779689Y-86003800D02*
X166003800Y-86003800D01*
D67*
X173075000Y-114150000D02*
X174850000Y-114150000D01*
X174820000Y-107900000D02*
X174900000Y-107820000D01*
X149090000Y-98500000D02*
X147720000Y-98500000D01*
D68*
X165212960Y-75240951D02*
X165200070Y-75228061D01*
X137305000Y-86666000D02*
X138688935Y-86666000D01*
D67*
X160799377Y-99500623D02*
X160800000Y-99500000D01*
X169920000Y-102900000D02*
X169920000Y-102420000D01*
D65*
X117100000Y-99890000D02*
X117100000Y-99100000D01*
D67*
X174880000Y-107800000D02*
X174900000Y-107820000D01*
X147700000Y-98520000D02*
X146877611Y-98520000D01*
D69*
X156610000Y-97000000D02*
X157590000Y-97000000D01*
D66*
X134400000Y-127500000D02*
X134400000Y-125410000D01*
D67*
X157590000Y-96130746D02*
X157584925Y-96125671D01*
D68*
X168300000Y-77000000D02*
X170000000Y-77000000D01*
D67*
X149248955Y-101505870D02*
X149248955Y-102339603D01*
X169725000Y-101400000D02*
X169725000Y-100366129D01*
X114749901Y-106415000D02*
X116285000Y-106415000D01*
D65*
%TO.N,GND*%
X141580000Y-99187500D02*
X141100000Y-98707500D01*
D67*
X170650000Y-103750000D02*
X170880000Y-103520000D01*
D65*
X174900000Y-108780000D02*
X175736791Y-108780000D01*
D69*
X135500000Y-83441120D02*
X135500000Y-82400000D01*
D67*
X116275000Y-104225000D02*
X116300000Y-104200000D01*
X160000000Y-113420000D02*
X159220000Y-113420000D01*
X164150000Y-104725000D02*
X164150000Y-103130000D01*
D68*
X121008409Y-87628077D02*
X120068689Y-87628077D01*
D67*
X114750000Y-104225000D02*
X116275000Y-104225000D01*
D65*
X150250000Y-97840000D02*
X150250000Y-97050000D01*
D67*
X190500000Y-104400000D02*
X191050000Y-104950000D01*
X168310000Y-118910000D02*
X168300000Y-118900000D01*
D68*
X120068689Y-87628077D02*
X120058764Y-87618152D01*
D65*
X150250000Y-97050000D02*
X150000000Y-96800000D01*
X178820000Y-108370000D02*
X178800000Y-108350000D01*
D69*
X190900000Y-99000000D02*
X192230000Y-99000000D01*
D67*
X185797944Y-94322456D02*
X185797944Y-95120363D01*
D68*
X126405000Y-86666000D02*
X126405000Y-88295000D01*
D67*
X164380000Y-102114673D02*
X164414337Y-102080336D01*
D65*
X148180000Y-99000000D02*
X147700000Y-99480000D01*
D67*
X170880000Y-102900000D02*
X170880000Y-102420000D01*
D65*
X174880000Y-108800000D02*
X174900000Y-108780000D01*
X178820000Y-109700000D02*
X178820000Y-108370000D01*
D67*
X141080000Y-98727500D02*
X141100000Y-98707500D01*
X139165112Y-98727500D02*
X139160099Y-98722487D01*
X170400000Y-118717912D02*
X170429073Y-118746985D01*
D68*
X186590000Y-104900000D02*
X186590000Y-104010000D01*
D67*
X170650000Y-117150000D02*
X170400000Y-117400000D01*
D65*
X142255000Y-99187500D02*
X141580000Y-99187500D01*
D67*
X174150000Y-108650000D02*
X174300000Y-108800000D01*
D65*
X177580000Y-109700000D02*
X178100000Y-109700000D01*
X149090000Y-99500000D02*
X147720000Y-99500000D01*
D68*
X170000000Y-89000000D02*
X168500000Y-89000000D01*
X167033263Y-80245830D02*
X167033263Y-79457490D01*
D65*
X149090000Y-99000000D02*
X148180000Y-99000000D01*
D67*
X175716791Y-108800000D02*
X175740224Y-108776567D01*
X150208955Y-101505870D02*
X150208955Y-102349601D01*
D65*
X149750000Y-97050000D02*
X150000000Y-96800000D01*
D68*
X139596043Y-87623939D02*
X139633323Y-87661219D01*
D67*
X171275000Y-102025000D02*
X171275000Y-101400000D01*
D65*
X175736791Y-108780000D02*
X175740224Y-108776567D01*
D67*
X193430000Y-105000000D02*
X193530000Y-105100000D01*
X171275000Y-101400000D02*
X171275000Y-100366934D01*
D65*
X178620000Y-108530000D02*
X178800000Y-108350000D01*
X170420000Y-118737912D02*
X170429073Y-118746985D01*
D66*
X119800000Y-127390000D02*
X119800000Y-125300000D01*
D68*
X136910036Y-94729475D02*
X136982166Y-94801605D01*
X180388577Y-111850620D02*
X181183332Y-111850620D01*
X134765000Y-92066000D02*
X134765000Y-93515820D01*
X131980289Y-88592572D02*
X131980288Y-88592573D01*
D65*
X174300000Y-108800000D02*
X174880000Y-108800000D01*
D67*
X191050000Y-104950000D02*
X191100000Y-105000000D01*
D66*
X127100000Y-127500000D02*
X127100000Y-125410000D01*
D65*
X177400000Y-107250000D02*
X177400000Y-106200000D01*
D67*
X191100000Y-105000000D02*
X192230000Y-105000000D01*
D68*
X185862500Y-101300000D02*
X184600000Y-101300000D01*
D67*
X171275000Y-100366934D02*
X171282032Y-100359902D01*
X174300000Y-108800000D02*
X175716791Y-108800000D01*
D69*
X192230000Y-99000000D02*
X193430000Y-99000000D01*
D66*
X147600000Y-87300000D02*
X145400000Y-87300000D01*
D67*
X186590000Y-97900000D02*
X186590000Y-97030556D01*
X169145128Y-118910000D02*
X168310000Y-118910000D01*
D68*
X136031490Y-94729475D02*
X136910036Y-94729475D01*
X134765000Y-93515820D02*
X134761716Y-93519104D01*
D67*
X155642500Y-99500000D02*
X154600000Y-99500000D01*
X175100000Y-116575000D02*
X173925000Y-116575000D01*
D65*
X164400000Y-102905326D02*
X164400000Y-102094673D01*
D67*
X140000000Y-98727500D02*
X141080000Y-98727500D01*
X159915908Y-100460623D02*
X160786720Y-100460623D01*
X170880000Y-103520000D02*
X170880000Y-102900000D01*
X159220000Y-113420000D02*
X159200000Y-113400000D01*
X140000000Y-98727500D02*
X139165112Y-98727500D01*
D68*
X186590000Y-104010000D02*
X186600000Y-104000000D01*
D66*
X147600000Y-89000000D02*
X145400000Y-89000000D01*
D67*
X160786720Y-100460623D02*
X160790614Y-100456729D01*
D65*
X149750000Y-97840000D02*
X149750000Y-97050000D01*
D67*
X127100000Y-114700000D02*
X126280000Y-114700000D01*
D68*
X167040598Y-80253165D02*
X167033263Y-80245830D01*
D67*
X164150000Y-103130000D02*
X164380000Y-102900000D01*
D66*
X147600000Y-90700000D02*
X145400000Y-90700000D01*
D67*
X170650000Y-116075000D02*
X170650000Y-117150000D01*
D70*
X165800000Y-101150000D02*
X165800000Y-100000000D01*
D67*
X119800000Y-114700000D02*
X118980000Y-114700000D01*
D68*
X131980289Y-87683337D02*
X131980289Y-88592572D01*
X126405000Y-88295000D02*
X126400000Y-88300000D01*
D65*
X178100000Y-109700000D02*
X178820000Y-109700000D01*
X147720000Y-99500000D02*
X147700000Y-99480000D01*
D67*
X164380000Y-102900000D02*
X164380000Y-102114673D01*
X150208955Y-102349601D02*
X150211045Y-102351691D01*
D68*
X124600000Y-83441120D02*
X124600000Y-84400000D01*
D65*
X164400000Y-102094673D02*
X164414337Y-102080336D01*
D67*
X173075000Y-108650000D02*
X174150000Y-108650000D01*
D68*
X180380000Y-114350910D02*
X181174755Y-114350910D01*
D67*
X160230000Y-113650000D02*
X160000000Y-113420000D01*
X146869998Y-99480000D02*
X146860221Y-99470223D01*
X173925000Y-116575000D02*
X173900000Y-116600000D01*
D68*
X138690996Y-87623939D02*
X139596043Y-87623939D01*
D67*
X192230000Y-105000000D02*
X193430000Y-105000000D01*
X161725000Y-113650000D02*
X160230000Y-113650000D01*
X170400000Y-117400000D02*
X170400000Y-118717912D01*
X185797944Y-95120363D02*
X185791716Y-95126591D01*
X155642500Y-99500000D02*
X157077500Y-99500000D01*
D65*
X140040000Y-98687500D02*
X142255000Y-98687500D01*
D67*
X147700000Y-99480000D02*
X146869998Y-99480000D01*
D65*
X140000000Y-98727500D02*
X140040000Y-98687500D01*
D67*
X186590000Y-97030556D02*
X186600126Y-97020430D01*
X170880000Y-102420000D02*
X171275000Y-102025000D01*
X170650000Y-104725000D02*
X170650000Y-103750000D01*
D69*
X193430000Y-99000000D02*
X193530000Y-98900000D01*
D65*
%TO.N,Net-(IC1-VCAP_1)*%
X164650000Y-104725000D02*
X164650000Y-103526899D01*
X164776899Y-103400000D02*
X165600000Y-103400000D01*
X165600000Y-103400000D02*
X165800000Y-103200000D01*
X164650000Y-103526899D02*
X164776899Y-103400000D01*
X165800000Y-103200000D02*
X165800000Y-102700000D01*
%TO.N,/mcu/NRST*%
X119800000Y-115680000D02*
X119800000Y-118210000D01*
X168860000Y-124340000D02*
X168860000Y-127100000D01*
%TO.N,/wifi_ble/RESET*%
X161649380Y-82250620D02*
X162400000Y-81500000D01*
X166102510Y-78497490D02*
X166100000Y-78500000D01*
X158434219Y-82250620D02*
X161649380Y-82250620D01*
X167033263Y-78497490D02*
X166102510Y-78497490D01*
X162400000Y-79100000D02*
X163000000Y-78500000D01*
X162400000Y-81500000D02*
X162400000Y-79100000D01*
X167033263Y-78497490D02*
X167035773Y-78500000D01*
X167035773Y-78500000D02*
X170000000Y-78500000D01*
X163000000Y-78500000D02*
X166100000Y-78500000D01*
%TO.N,/mcu/USER*%
X127100000Y-115700000D02*
X126280000Y-115700000D01*
X127100000Y-115680000D02*
X127100000Y-118210000D01*
%TO.N,/mcu/OSC_IN*%
X174644974Y-112150000D02*
X176194974Y-110600000D01*
X179800000Y-109480000D02*
X179580000Y-109700000D01*
X179800000Y-107400000D02*
X179800000Y-109480000D01*
X179600000Y-110600000D02*
X179800000Y-110400000D01*
X178100000Y-110600000D02*
X179200000Y-110600000D01*
X173075000Y-112150000D02*
X174644974Y-112150000D01*
X176194974Y-110600000D02*
X178100000Y-110600000D01*
X178100000Y-110600000D02*
X179600000Y-110600000D01*
X179800000Y-109720000D02*
X179780000Y-109700000D01*
X179800000Y-110400000D02*
X179800000Y-109720000D01*
X179650000Y-107250000D02*
X179800000Y-107400000D01*
X178800000Y-107250000D02*
X179650000Y-107250000D01*
%TO.N,/mcu/OSC_OUT*%
X177400000Y-108350000D02*
X177350000Y-108350000D01*
X173125000Y-111700000D02*
X174600000Y-111700000D01*
X174600000Y-111700000D02*
X175200000Y-111100000D01*
X175200000Y-110300000D02*
X175700000Y-109800000D01*
X176320000Y-108580000D02*
X176550000Y-108350000D01*
X176550000Y-108350000D02*
X177400000Y-108350000D01*
X173075000Y-111650000D02*
X173125000Y-111700000D01*
X175700000Y-109800000D02*
X176520000Y-109800000D01*
X175200000Y-111100000D02*
X175200000Y-110300000D01*
X176320000Y-109700000D02*
X176320000Y-108580000D01*
%TO.N,/mcu/OSC32_IN*%
X176050000Y-114350000D02*
X177600000Y-114350000D01*
X177600000Y-114350000D02*
X179419090Y-114350000D01*
X174850000Y-113150000D02*
X176050000Y-114350000D01*
X179419090Y-114350000D02*
X179420000Y-114350910D01*
X173075000Y-113150000D02*
X174850000Y-113150000D01*
%TO.N,/mcu/OSC32_OUT*%
X174850000Y-112650000D02*
X175650000Y-111850000D01*
X173075000Y-112650000D02*
X174850000Y-112650000D01*
X179419454Y-111850000D02*
X179420000Y-111850546D01*
X177600000Y-111850000D02*
X179419454Y-111850000D01*
X175650000Y-111850000D02*
X177600000Y-111850000D01*
%TO.N,/mcu/BOOT0*%
X134400000Y-115680000D02*
X134400000Y-118210000D01*
X134400000Y-115700000D02*
X133580000Y-115700000D01*
X169145128Y-117890000D02*
X169145128Y-116079872D01*
X169145128Y-116079872D02*
X169150000Y-116075000D01*
D69*
%TO.N,Net-(D1-BA)*%
X152400000Y-90700000D02*
X154790000Y-90700000D01*
%TO.N,Net-(D1-GA)*%
X152400000Y-89000000D02*
X154770000Y-89000000D01*
X154770000Y-89000000D02*
X154780000Y-89010000D01*
%TO.N,Net-(D1-RA)*%
X152400000Y-87300000D02*
X154790000Y-87300000D01*
D65*
%TO.N,ACC_INT*%
X171713114Y-113650000D02*
X173075000Y-113650000D01*
X149250000Y-96850000D02*
X149200000Y-96800000D01*
X149250000Y-97840000D02*
X149250000Y-96850000D01*
X171700000Y-113636886D02*
X171713114Y-113650000D01*
X149200000Y-96800000D02*
X148600000Y-96800000D01*
%TO.N,ACC_CS*%
X153169551Y-99490000D02*
X153170895Y-99488656D01*
X171250000Y-110650000D02*
X169000000Y-108400000D01*
X152300000Y-99490000D02*
X153169551Y-99490000D01*
X150910000Y-99500000D02*
X152290000Y-99500000D01*
X173075000Y-110650000D02*
X171250000Y-110650000D01*
X152290000Y-99500000D02*
X152300000Y-99490000D01*
X169000000Y-108400000D02*
X166200000Y-108400000D01*
%TO.N,BARO_CS*%
X144132985Y-97378358D02*
X144135721Y-97381094D01*
X143250000Y-97383694D02*
X143244664Y-97378358D01*
X143250000Y-98442500D02*
X143250000Y-97383694D01*
X143244664Y-97378358D02*
X144132985Y-97378358D01*
%TO.N,SDIO_DET*%
X173075000Y-109650000D02*
X171850000Y-109650000D01*
X117990000Y-100910000D02*
X118000000Y-100900000D01*
X115120000Y-100900000D02*
X116947490Y-100900000D01*
X171850000Y-109650000D02*
X169400000Y-107200000D01*
X116947490Y-100900000D02*
X117100000Y-101052510D01*
X114900000Y-101120000D02*
X115120000Y-100900000D01*
X169400000Y-107200000D02*
X168000000Y-107200000D01*
X117100000Y-100910000D02*
X117990000Y-100910000D01*
%TO.N,USART2_TX*%
X170000000Y-83000000D02*
X173900000Y-83000000D01*
X177300000Y-86400000D02*
X177300000Y-104500000D01*
X173900000Y-83000000D02*
X177300000Y-86400000D01*
X175150000Y-106650000D02*
X173075000Y-106650000D01*
X177300000Y-104500000D02*
X175150000Y-106650000D01*
%TO.N,SPI1_CLK*%
X164500000Y-94000000D02*
X164100000Y-94000000D01*
X152950000Y-98650000D02*
X153500000Y-98650000D01*
X152700000Y-98900000D02*
X152950000Y-98650000D01*
X169000000Y-101857107D02*
X169000000Y-94900000D01*
X153500000Y-98650000D02*
X153550000Y-98650000D01*
X169000000Y-94900000D02*
X168100000Y-94000000D01*
X168100000Y-94000000D02*
X164500000Y-94000000D01*
X169150000Y-102007107D02*
X169000000Y-101857107D01*
X151890172Y-99000000D02*
X151990172Y-98900000D01*
X164500000Y-94000000D02*
X164300000Y-94000000D01*
X169150000Y-104725000D02*
X169150000Y-102007107D01*
X150910000Y-99000000D02*
X151890172Y-99000000D01*
X151990172Y-98900000D02*
X152700000Y-98900000D01*
%TO.N,SPI1_MISO*%
X150750000Y-95200000D02*
X150750000Y-97840000D01*
X150750000Y-95200000D02*
X146400000Y-95200000D01*
X168650000Y-95950000D02*
X168650000Y-104725000D01*
X167700000Y-95000000D02*
X168650000Y-95950000D01*
X145400000Y-96200000D02*
X145400000Y-98500000D01*
X164000000Y-95000000D02*
X167700000Y-95000000D01*
X145212500Y-98687500D02*
X143745000Y-98687500D01*
X145400000Y-98500000D02*
X145212500Y-98687500D01*
X146400000Y-95200000D02*
X145400000Y-96200000D01*
%TO.N,SPI1_MOSI*%
X164000000Y-95900000D02*
X167400000Y-95900000D01*
X146000000Y-98800000D02*
X145612500Y-99187500D01*
X145612500Y-99187500D02*
X143745000Y-99187500D01*
X147400000Y-96100000D02*
X146600000Y-96100000D01*
X146600000Y-96100000D02*
X146000000Y-96700000D01*
X146000000Y-96700000D02*
X146000000Y-98800000D01*
X153300000Y-97500000D02*
X153300000Y-96100000D01*
X150910000Y-98500000D02*
X152300000Y-98500000D01*
X167400000Y-95900000D02*
X168150000Y-96650000D01*
X152300000Y-98500000D02*
X153300000Y-97500000D01*
X168150000Y-96650000D02*
X168150000Y-104725000D01*
%TO.N,USART3_RX*%
X166700000Y-96700000D02*
X167150000Y-97150000D01*
X164000000Y-96700000D02*
X166700000Y-96700000D01*
X167150000Y-97150000D02*
X167150000Y-104725000D01*
X122561000Y-92100000D02*
X122595000Y-92066000D01*
X121000000Y-92100000D02*
X122561000Y-92100000D01*
%TO.N,CAN_STB*%
X165150000Y-104725000D02*
X165150000Y-106047910D01*
X165150000Y-106047910D02*
X165156716Y-106054626D01*
X131980289Y-86663337D02*
X133492337Y-86663337D01*
X133500000Y-86671000D02*
X133495000Y-86666000D01*
X131980289Y-86663337D02*
X131980289Y-85877886D01*
X133492337Y-86663337D02*
X133495000Y-86666000D01*
%TO.N,BUZZER*%
X163296008Y-107650000D02*
X163296182Y-107650174D01*
X112245637Y-84895172D02*
X112245637Y-86146451D01*
X112241044Y-86151044D02*
X112240596Y-86151492D01*
X112240596Y-86151492D02*
X112240596Y-86955000D01*
X161725000Y-107650000D02*
X163296008Y-107650000D01*
X112245637Y-86146451D02*
X112241044Y-86151044D01*
X112240596Y-86955000D02*
X112240596Y-87091120D01*
%TO.N,SDIO_D2*%
X119300000Y-110000000D02*
X119300000Y-110400000D01*
X119900000Y-110400000D02*
X119900000Y-110000000D01*
X120500000Y-110000000D02*
X120500000Y-110400000D01*
X121100000Y-110400000D02*
X121100000Y-110000000D01*
X124700000Y-110400000D02*
X124700000Y-110000000D01*
X123500000Y-110400000D02*
X123500000Y-110000000D01*
X124100000Y-110000000D02*
X124100000Y-110400000D01*
X126500000Y-110000000D02*
X126500000Y-110400000D01*
X118100000Y-110000000D02*
X118100000Y-110400000D01*
X122900000Y-110000000D02*
X122900000Y-110400000D01*
X127400000Y-109700000D02*
X127573713Y-109700000D01*
X121700000Y-110000000D02*
X121700000Y-110400000D01*
X127100000Y-110400000D02*
X127100000Y-110000000D01*
X140000000Y-109700000D02*
X141450000Y-111150000D01*
X125300000Y-110000000D02*
X125300000Y-110400000D01*
X127573713Y-109700000D02*
X130600000Y-109700000D01*
X122300000Y-110400000D02*
X122300000Y-110000000D01*
X115090000Y-109700000D02*
X117800000Y-109700000D01*
X114900000Y-109890000D02*
X115090000Y-109700000D01*
X141450000Y-111150000D02*
X161725000Y-111150000D01*
X125900000Y-110400000D02*
X125900000Y-110000000D01*
X118700000Y-110400000D02*
X118700000Y-110000000D01*
X125300000Y-110000000D02*
G75*
G03*
X125000000Y-109700000I-300000J0D01*
G01*
X127400000Y-109700000D02*
G75*
G03*
X127100000Y-110000000I0J-300000D01*
G01*
X123800000Y-109700000D02*
G75*
G03*
X123500000Y-110000000I0J-300000D01*
G01*
X121700000Y-110400000D02*
G75*
G03*
X122000000Y-110700000I300000J0D01*
G01*
X124100000Y-110000000D02*
G75*
G03*
X123800000Y-109700000I-300000J0D01*
G01*
X126500000Y-110000000D02*
G75*
G03*
X126200000Y-109700000I-300000J0D01*
G01*
X122000000Y-110700000D02*
G75*
G03*
X122300000Y-110400000I0J300000D01*
G01*
X125000000Y-109700000D02*
G75*
G03*
X124700000Y-110000000I0J-300000D01*
G01*
X121700000Y-110000000D02*
G75*
G03*
X121400000Y-109700000I-300000J0D01*
G01*
X124100000Y-110400000D02*
G75*
G03*
X124400000Y-110700000I300000J0D01*
G01*
X119000000Y-109700000D02*
G75*
G03*
X118700000Y-110000000I0J-300000D01*
G01*
X121400000Y-109700000D02*
G75*
G03*
X121100000Y-110000000I0J-300000D01*
G01*
X123200000Y-110700000D02*
G75*
G03*
X123500000Y-110400000I0J300000D01*
G01*
X118400000Y-110700000D02*
G75*
G03*
X118700000Y-110400000I0J300000D01*
G01*
X122900000Y-110000000D02*
G75*
G03*
X122600000Y-109700000I-300000J0D01*
G01*
X126800000Y-110700000D02*
G75*
G03*
X127100000Y-110400000I0J300000D01*
G01*
X122900000Y-110400000D02*
G75*
G03*
X123200000Y-110700000I300000J0D01*
G01*
X119600000Y-110700000D02*
G75*
G03*
X119900000Y-110400000I0J300000D01*
G01*
X119300000Y-110000000D02*
G75*
G03*
X119000000Y-109700000I-300000J0D01*
G01*
X120500000Y-110400000D02*
G75*
G03*
X120800000Y-110700000I300000J0D01*
G01*
X125600000Y-110700000D02*
G75*
G03*
X125900000Y-110400000I0J300000D01*
G01*
X126500000Y-110400000D02*
G75*
G03*
X126800000Y-110700000I300000J0D01*
G01*
X126200000Y-109700000D02*
G75*
G03*
X125900000Y-110000000I0J-300000D01*
G01*
X120800000Y-110700000D02*
G75*
G03*
X121100000Y-110400000I0J300000D01*
G01*
X118100000Y-110000000D02*
G75*
G03*
X117800000Y-109700000I-300000J0D01*
G01*
X118100000Y-110400000D02*
G75*
G03*
X118400000Y-110700000I300000J0D01*
G01*
X120200000Y-109700000D02*
G75*
G03*
X119900000Y-110000000I0J-300000D01*
G01*
X119300000Y-110400000D02*
G75*
G03*
X119600000Y-110700000I300000J0D01*
G01*
X120500000Y-110000000D02*
G75*
G03*
X120200000Y-109700000I-300000J0D01*
G01*
X125300000Y-110400000D02*
G75*
G03*
X125600000Y-110700000I300000J0D01*
G01*
X122600000Y-109700000D02*
G75*
G03*
X122300000Y-110000000I0J-300000D01*
G01*
X124400000Y-110700000D02*
G75*
G03*
X124700000Y-110400000I0J300000D01*
G01*
%TO.N,/mcu/USART1_RX*%
X153700000Y-112400000D02*
X154450000Y-111650000D01*
X148100000Y-112400000D02*
X153700000Y-112400000D01*
X154450000Y-111650000D02*
X161725000Y-111650000D01*
X147367331Y-114789774D02*
X147367331Y-113132669D01*
X147367331Y-113132669D02*
X148100000Y-112400000D01*
%TO.N,USB_N*%
X183150000Y-101125000D02*
X182900000Y-100875000D01*
X161700001Y-112174999D02*
X156542158Y-112174999D01*
X156542158Y-112174999D02*
X155417678Y-113299479D01*
X185487500Y-100725000D02*
X184361827Y-100725000D01*
X185862500Y-100350000D02*
X185487500Y-100725000D01*
D69*
X161725000Y-112150000D02*
X161700001Y-112174999D01*
D65*
X184361827Y-100725000D02*
X183961827Y-101125000D01*
X183961827Y-101125000D02*
X183150000Y-101125000D01*
X155417678Y-113299479D02*
X155099479Y-113299479D01*
%TO.N,USB_P*%
X185487500Y-101875000D02*
X184361827Y-101875000D01*
X185862500Y-102250000D02*
X185487500Y-101875000D01*
X161700001Y-112625001D02*
X156657842Y-112625001D01*
D69*
X161725000Y-112650000D02*
X161700001Y-112625001D01*
D65*
X183961827Y-101475000D02*
X183150000Y-101475000D01*
X184361827Y-101875000D02*
X183961827Y-101475000D01*
X155700521Y-113582322D02*
X155700521Y-113900521D01*
X156657842Y-112625001D02*
X155700521Y-113582322D01*
X183150000Y-101475000D02*
X182900000Y-101725000D01*
%TO.N,/mcu/SWDIO*%
X162000000Y-115500000D02*
X162000000Y-117100000D01*
X161725000Y-113150000D02*
X162850000Y-113150000D01*
X163100000Y-113400000D02*
X163100000Y-114400000D01*
X163100000Y-114400000D02*
X162000000Y-115500000D01*
X162850000Y-113150000D02*
X163100000Y-113400000D01*
%TO.N,/mcu/SWCLK*%
X163657730Y-116082730D02*
X163650000Y-116075000D01*
X163657730Y-117829224D02*
X163657730Y-116082730D01*
X163657863Y-117829357D02*
X163657730Y-117829224D01*
%TO.N,/mcu/USART1_TX*%
X164150000Y-116075000D02*
X164150000Y-114950000D01*
X162600000Y-117800000D02*
X152700000Y-117800000D01*
X163047487Y-114947487D02*
X162900000Y-115094974D01*
X162900000Y-115094974D02*
X162900000Y-116500000D01*
X163300000Y-114700000D02*
X163294974Y-114700000D01*
X163294974Y-114700000D02*
X163047487Y-114947487D01*
X163900000Y-114700000D02*
X163500000Y-114700000D01*
X162900000Y-116500000D02*
X162900000Y-117500000D01*
X163500000Y-114700000D02*
X163300000Y-114700000D01*
X162900000Y-117500000D02*
X162600000Y-117800000D01*
X164150000Y-114950000D02*
X163900000Y-114700000D01*
%TO.N,USART3_TX*%
X126405000Y-93695000D02*
X126400000Y-93700000D01*
X126405000Y-92066000D02*
X126405000Y-93695000D01*
X164650000Y-114023224D02*
X164647206Y-114020430D01*
X164650000Y-116075000D02*
X164650000Y-114023224D01*
%TO.N,RS485_DE*%
X123865000Y-93665000D02*
X123865000Y-92066000D01*
X125135000Y-93624722D02*
X125135000Y-92066000D01*
X124500000Y-93800000D02*
X124959722Y-93800000D01*
X124959722Y-93800000D02*
X125135000Y-93624722D01*
X124500000Y-93800000D02*
X124000000Y-93800000D01*
X124000000Y-93800000D02*
X123865000Y-93665000D01*
%TO.N,SDIO_CLK*%
X150700000Y-117980194D02*
X150700000Y-118250000D01*
X122900000Y-105300000D02*
X122900000Y-106000000D01*
X147700000Y-118550000D02*
X147700000Y-117980220D01*
X120500000Y-105300000D02*
X120500000Y-106000000D01*
X122900000Y-104600000D02*
X122900000Y-105300000D01*
X150100000Y-118767108D02*
X150100000Y-118550000D01*
X123500000Y-105300000D02*
X123500000Y-104600000D01*
X124700000Y-105300000D02*
X124700000Y-104600000D01*
X118700000Y-106000000D02*
X118700000Y-105600000D01*
X130700000Y-105300000D02*
X130700000Y-105025000D01*
X122300000Y-105300000D02*
X122300000Y-104600000D01*
X118100000Y-105600000D02*
X118100000Y-106000000D01*
X147207958Y-118957958D02*
X147496021Y-118957958D01*
X121100000Y-105300000D02*
X121100000Y-104600000D01*
X153127990Y-118550000D02*
X164550000Y-118550000D01*
X148300000Y-118550000D02*
X148300000Y-118767108D01*
X126500000Y-104600000D02*
X126500000Y-105300000D01*
X119900000Y-106000000D02*
X119900000Y-105300000D01*
X122300000Y-106000000D02*
X122300000Y-105300000D01*
X124700000Y-106000000D02*
X124700000Y-105300000D01*
X125900000Y-106000000D02*
X125900000Y-105300000D01*
X150100000Y-118550000D02*
X150100000Y-117980194D01*
X164550000Y-118550000D02*
X165650000Y-117450000D01*
X124100000Y-105300000D02*
X124100000Y-106000000D01*
X145350000Y-118550000D02*
X146800000Y-118550000D01*
X147700000Y-118753979D02*
X147700000Y-118550000D01*
X115109901Y-105300000D02*
X117800000Y-105300000D01*
X121100000Y-106000000D02*
X121100000Y-105300000D01*
X114899901Y-105510000D02*
X115109901Y-105300000D01*
X165650000Y-117450000D02*
X165650000Y-116075000D01*
X119300000Y-105300000D02*
X119300000Y-106000000D01*
X131625000Y-105300000D02*
X132100000Y-105300000D01*
X124100000Y-104600000D02*
X124100000Y-105300000D01*
X128300000Y-105300000D02*
X128300000Y-104600000D01*
X132100000Y-105300000D02*
X145350000Y-118550000D01*
X130100000Y-105300000D02*
X130100000Y-105750000D01*
X125300000Y-105300000D02*
X125300000Y-106000000D01*
X149717107Y-118984215D02*
X149882893Y-118984215D01*
X127100000Y-106000000D02*
X127100000Y-105300000D01*
X118700000Y-105600000D02*
X118700000Y-104600000D01*
X151000000Y-118550000D02*
X153127990Y-118550000D01*
X148900000Y-118767108D02*
X148900000Y-118550000D01*
X128900000Y-105300000D02*
X128900000Y-105850000D01*
X129500000Y-105850000D02*
X129500000Y-105300000D01*
X121700000Y-104600000D02*
X121700000Y-105300000D01*
X125900000Y-105300000D02*
X125900000Y-104600000D01*
X148517107Y-118984215D02*
X148682893Y-118984215D01*
X131575000Y-105300000D02*
X131625000Y-105300000D01*
X130700000Y-105750000D02*
X130700000Y-105300000D01*
X148300000Y-117980220D02*
X148300000Y-118550000D01*
X127100000Y-105300000D02*
X127100000Y-104600000D01*
X119900000Y-105300000D02*
X119900000Y-104600000D01*
X128900000Y-104600000D02*
X128900000Y-105300000D01*
X120500000Y-104600000D02*
X120500000Y-105300000D01*
X128300000Y-106000000D02*
X128300000Y-105300000D01*
X149500000Y-118550000D02*
X149500000Y-118767108D01*
X123500000Y-106000000D02*
X123500000Y-105300000D01*
X130100000Y-105000000D02*
X130100000Y-105300000D01*
X127700000Y-105300000D02*
X127700000Y-106000000D01*
X148900000Y-118550000D02*
X148900000Y-117980220D01*
X130975000Y-104750000D02*
X131025000Y-104750000D01*
X126500000Y-105300000D02*
X126500000Y-106000000D01*
X121700000Y-105300000D02*
X121700000Y-106000000D01*
X129500000Y-105300000D02*
X129500000Y-105000000D01*
X127700000Y-104600000D02*
X127700000Y-105300000D01*
X119300000Y-104600000D02*
X119300000Y-105300000D01*
X149500000Y-117980220D02*
X149500000Y-118550000D01*
X125300000Y-104600000D02*
X125300000Y-105300000D01*
X120200000Y-104300000D02*
G75*
G03*
X119900000Y-104600000I0J-300000D01*
G01*
X129200000Y-106150000D02*
G75*
G03*
X129500000Y-105850000I0J300000D01*
G01*
X120500000Y-106000000D02*
G75*
G03*
X120800000Y-106300000I300000J0D01*
G01*
X122000000Y-106300000D02*
G75*
G03*
X122300000Y-106000000I0J300000D01*
G01*
X129800000Y-104700000D02*
G75*
G03*
X129500000Y-105000000I0J-300000D01*
G01*
X118400000Y-106300000D02*
G75*
G03*
X118700000Y-106000000I0J300000D01*
G01*
X149882893Y-118984200D02*
G75*
G03*
X150100000Y-118767108I7J217100D01*
G01*
X125300000Y-104600000D02*
G75*
G03*
X125000000Y-104300000I-300000J0D01*
G01*
X124100000Y-104600000D02*
G75*
G03*
X123800000Y-104300000I-300000J0D01*
G01*
X122900000Y-104600000D02*
G75*
G03*
X122600000Y-104300000I-300000J0D01*
G01*
X126800000Y-106300000D02*
G75*
G03*
X127100000Y-106000000I0J300000D01*
G01*
X148000000Y-117680200D02*
G75*
G03*
X147700000Y-117980220I0J-300000D01*
G01*
X130400000Y-106050000D02*
G75*
G03*
X130700000Y-105750000I0J300000D01*
G01*
X149499985Y-118767108D02*
G75*
G03*
X149717107Y-118984215I217115J8D01*
G01*
X126200000Y-104300000D02*
G75*
G03*
X125900000Y-104600000I0J-300000D01*
G01*
X126500000Y-106000000D02*
G75*
G03*
X126800000Y-106300000I300000J0D01*
G01*
X147496021Y-118958000D02*
G75*
G03*
X147700000Y-118753979I-21J204000D01*
G01*
X120800000Y-106300000D02*
G75*
G03*
X121100000Y-106000000I0J300000D01*
G01*
X119000000Y-104300000D02*
G75*
G03*
X118700000Y-104600000I0J-300000D01*
G01*
X118100000Y-106000000D02*
G75*
G03*
X118400000Y-106300000I300000J0D01*
G01*
X121400000Y-104300000D02*
G75*
G03*
X121100000Y-104600000I0J-300000D01*
G01*
X148682893Y-118984200D02*
G75*
G03*
X148900000Y-118767108I7J217100D01*
G01*
X125300000Y-106000000D02*
G75*
G03*
X125600000Y-106300000I300000J0D01*
G01*
X150400000Y-117680200D02*
G75*
G03*
X150100000Y-117980194I0J-300000D01*
G01*
X130100000Y-105000000D02*
G75*
G03*
X129800000Y-104700000I-300000J0D01*
G01*
X128600000Y-104300000D02*
G75*
G03*
X128300000Y-104600000I0J-300000D01*
G01*
X148299985Y-118767108D02*
G75*
G03*
X148517107Y-118984215I217115J8D01*
G01*
X131300000Y-105025000D02*
G75*
G03*
X131575000Y-105300000I275000J0D01*
G01*
X147004042Y-118753979D02*
G75*
G03*
X147207958Y-118957958I203958J-21D01*
G01*
X127400000Y-104300000D02*
G75*
G03*
X127100000Y-104600000I0J-300000D01*
G01*
X149200000Y-117680200D02*
G75*
G03*
X148900000Y-117980220I0J-300000D01*
G01*
X122900000Y-106000000D02*
G75*
G03*
X123200000Y-106300000I300000J0D01*
G01*
X120500000Y-104600000D02*
G75*
G03*
X120200000Y-104300000I-300000J0D01*
G01*
X128000000Y-106300000D02*
G75*
G03*
X128300000Y-106000000I0J300000D01*
G01*
X119600000Y-106300000D02*
G75*
G03*
X119900000Y-106000000I0J300000D01*
G01*
X124100000Y-106000000D02*
G75*
G03*
X124400000Y-106300000I300000J0D01*
G01*
X119300000Y-106000000D02*
G75*
G03*
X119600000Y-106300000I300000J0D01*
G01*
X130975000Y-104750000D02*
G75*
G03*
X130700000Y-105025000I0J-275000D01*
G01*
X150700006Y-117980194D02*
G75*
G03*
X150400000Y-117680194I-300006J-6D01*
G01*
X128900000Y-104600000D02*
G75*
G03*
X128600000Y-104300000I-300000J0D01*
G01*
X123200000Y-106300000D02*
G75*
G03*
X123500000Y-106000000I0J300000D01*
G01*
X149499980Y-117980220D02*
G75*
G03*
X149200000Y-117680220I-299980J20D01*
G01*
X147004000Y-118753979D02*
G75*
G03*
X146800000Y-118550000I-204000J-21D01*
G01*
X122600000Y-104300000D02*
G75*
G03*
X122300000Y-104600000I0J-300000D01*
G01*
X119300000Y-104600000D02*
G75*
G03*
X119000000Y-104300000I-300000J0D01*
G01*
X125000000Y-104300000D02*
G75*
G03*
X124700000Y-104600000I0J-300000D01*
G01*
X126500000Y-104600000D02*
G75*
G03*
X126200000Y-104300000I-300000J0D01*
G01*
X123800000Y-104300000D02*
G75*
G03*
X123500000Y-104600000I0J-300000D01*
G01*
X130100000Y-105750000D02*
G75*
G03*
X130400000Y-106050000I300000J0D01*
G01*
X150700000Y-118250000D02*
G75*
G03*
X151000000Y-118550000I300000J0D01*
G01*
X121700000Y-104600000D02*
G75*
G03*
X121400000Y-104300000I-300000J0D01*
G01*
X128900000Y-105850000D02*
G75*
G03*
X129200000Y-106150000I300000J0D01*
G01*
X148299980Y-117980220D02*
G75*
G03*
X148000000Y-117680220I-299980J20D01*
G01*
X121700000Y-106000000D02*
G75*
G03*
X122000000Y-106300000I300000J0D01*
G01*
X127700000Y-104600000D02*
G75*
G03*
X127400000Y-104300000I-300000J0D01*
G01*
X131300000Y-105025000D02*
G75*
G03*
X131025000Y-104750000I-275000J0D01*
G01*
X124400000Y-106300000D02*
G75*
G03*
X124700000Y-106000000I0J300000D01*
G01*
X125600000Y-106300000D02*
G75*
G03*
X125900000Y-106000000I0J300000D01*
G01*
X118100000Y-105600000D02*
G75*
G03*
X117800000Y-105300000I-300000J0D01*
G01*
X127700000Y-106000000D02*
G75*
G03*
X128000000Y-106300000I300000J0D01*
G01*
%TO.N,SDIO_CMD*%
X135263239Y-110238974D02*
X135508718Y-109993494D01*
X137630030Y-112114825D02*
X137630030Y-112114826D01*
X137808826Y-112784561D02*
X138054295Y-112539091D01*
X134660163Y-108720718D02*
X134660164Y-108720719D01*
X121500000Y-107950000D02*
X121500000Y-107600000D01*
X122700000Y-107950000D02*
X122700000Y-107600000D01*
X125100000Y-107950000D02*
X125100000Y-107600000D01*
X141202941Y-116178677D02*
X141202942Y-116178677D01*
X135932963Y-110417778D02*
X135687502Y-110663238D01*
X142721186Y-117206018D02*
X142721186Y-117206019D01*
X164500000Y-119500000D02*
X144100000Y-119500000D01*
X136960297Y-111936032D02*
X137205745Y-111690583D01*
X123300000Y-107600000D02*
X123300000Y-107950000D01*
X125700000Y-106900000D02*
X125700000Y-107600000D01*
X139505883Y-114905883D02*
X139505884Y-114905884D01*
X135932963Y-110417777D02*
X135932963Y-110417778D01*
X134660164Y-108720719D02*
X134660162Y-108720717D01*
X133744989Y-110060156D02*
X134202573Y-109602573D01*
X141202941Y-116602941D02*
X141202942Y-116602942D01*
X119700000Y-107600000D02*
X119700000Y-107950000D01*
X132896422Y-109635927D02*
X132896419Y-109635924D01*
X138054296Y-112114826D02*
X138054295Y-112114826D01*
X140354413Y-115330148D02*
X140599873Y-115084687D01*
X137630030Y-112114826D02*
X137384560Y-112360295D01*
X142899999Y-117875735D02*
X142900000Y-117875735D01*
X119100000Y-107300000D02*
X119100000Y-106900000D01*
X133811633Y-107872184D02*
X133811632Y-107872183D01*
X140175608Y-114660422D02*
X140175608Y-114660423D01*
X135263238Y-110238974D02*
X135263239Y-110238974D01*
X138657354Y-113633090D02*
X138657355Y-113633090D01*
X138657355Y-113633090D02*
X138902779Y-113387665D01*
X166150000Y-116075000D02*
X166155545Y-116080545D01*
X166155545Y-117844455D02*
X164500000Y-119500000D01*
X166155545Y-116080545D02*
X166155545Y-117844455D01*
X126300000Y-107600000D02*
X126300000Y-106900000D01*
X114999901Y-107600000D02*
X114899901Y-107700000D01*
X140354412Y-115754412D02*
X140354413Y-115754413D01*
X139505884Y-114481619D02*
X139751344Y-114236158D01*
X124500000Y-107600000D02*
X124500000Y-107950000D01*
X135084452Y-109569228D02*
X134838972Y-109814707D01*
X121500000Y-107600000D02*
X121500000Y-106900000D01*
X133744992Y-110484423D02*
X133744989Y-110484420D01*
X118500000Y-106900000D02*
X118500000Y-107300000D01*
X140175608Y-114660423D02*
X139930147Y-114905883D01*
X134235898Y-108720717D02*
X133778307Y-109178307D01*
X132200000Y-107600000D02*
X127800000Y-107600000D01*
X142051471Y-117027206D02*
X142296931Y-116781745D01*
X135508718Y-109569230D02*
X135508716Y-109569228D01*
X118200000Y-107600000D02*
X114999901Y-107600000D01*
X139327079Y-113811893D02*
X139327079Y-113811894D01*
X142051470Y-117027206D02*
X142051471Y-117027206D01*
X136960295Y-112360295D02*
X136960297Y-112360297D01*
X125100000Y-107600000D02*
X125100000Y-106900000D01*
X136960296Y-111936032D02*
X136960297Y-111936032D01*
X127500000Y-107300000D02*
X127500000Y-106900000D01*
X142721186Y-117206019D02*
X142475734Y-117451470D01*
X126300000Y-107950000D02*
X126300000Y-107600000D01*
X142051470Y-117451470D02*
X142051471Y-117451471D01*
X141024101Y-115508987D02*
X141024101Y-115508988D01*
X138478514Y-112963400D02*
X138478514Y-112963401D01*
X122100000Y-106900000D02*
X122100000Y-107600000D01*
X132717644Y-108117644D02*
X132200000Y-107600000D01*
X135263238Y-110663238D02*
X135263239Y-110663239D01*
X120900000Y-107600000D02*
X120900000Y-107950000D01*
X123900000Y-107950000D02*
X123900000Y-107600000D01*
X141872666Y-116357481D02*
X141627205Y-116602941D01*
X141872666Y-116357480D02*
X141872666Y-116357481D01*
X136111768Y-111087503D02*
X136357228Y-110842042D01*
X136960295Y-112360296D02*
X136960295Y-112360295D01*
X119700000Y-106900000D02*
X119700000Y-107600000D01*
X122700000Y-107600000D02*
X122700000Y-106900000D01*
X137808825Y-113208825D02*
X137808826Y-113208826D01*
X136111767Y-111511767D02*
X136111768Y-111511768D01*
X138657354Y-114057354D02*
X138657355Y-114057355D01*
X141024101Y-115508988D02*
X140778676Y-115754412D01*
X132896419Y-109211660D02*
X133354040Y-108754040D01*
X136781480Y-111266318D02*
X136781480Y-111266319D01*
X137808825Y-112784561D02*
X137808826Y-112784561D01*
X133778307Y-109178307D02*
X133320686Y-109635927D01*
X119100000Y-107950000D02*
X119100000Y-107300000D01*
X136781480Y-111266319D02*
X136536031Y-111511767D01*
X126900000Y-106900000D02*
X126900000Y-107600000D01*
X132717643Y-108117643D02*
X132717644Y-108117644D01*
X123900000Y-107600000D02*
X123900000Y-106900000D01*
X122100000Y-107600000D02*
X122100000Y-107950000D01*
X139327079Y-113811894D02*
X139081618Y-114057354D01*
X120900000Y-106900000D02*
X120900000Y-107600000D01*
X134626840Y-110026839D02*
X134626841Y-110026841D01*
X133354040Y-108754040D02*
X133811633Y-108296448D01*
X141202942Y-116178677D02*
X141448366Y-115933252D01*
X120300000Y-107600000D02*
X120300000Y-106900000D01*
X125700000Y-107600000D02*
X125700000Y-107950000D01*
X120300000Y-107950000D02*
X120300000Y-107600000D01*
X144100000Y-119500000D02*
X142900000Y-118300000D01*
X139505883Y-114481619D02*
X139505884Y-114481619D01*
X138478514Y-112963401D02*
X138233089Y-113208825D01*
X142900000Y-117875735D02*
X143145451Y-117630283D01*
X133387368Y-107872183D02*
X133141907Y-108117643D01*
X123300000Y-106900000D02*
X123300000Y-107600000D01*
X134202573Y-109602573D02*
X134660164Y-109144983D01*
X136111767Y-111087503D02*
X136111768Y-111087503D01*
X134838972Y-109814707D02*
X134626840Y-110026839D01*
X124500000Y-106900000D02*
X124500000Y-107600000D01*
X126900000Y-107600000D02*
X126900000Y-107950000D01*
X140354412Y-115330148D02*
X140354413Y-115330148D01*
X134626841Y-110026841D02*
X134169256Y-110484423D01*
X122400000Y-106600000D02*
G75*
G03*
X122100000Y-106900000I0J-300000D01*
G01*
X122700000Y-106900000D02*
G75*
G03*
X122400000Y-106600000I-300000J0D01*
G01*
X135508755Y-109993531D02*
G75*
G03*
X135508717Y-109569231I-212155J212131D01*
G01*
X127500000Y-106900000D02*
G75*
G03*
X127200000Y-106600000I-300000J0D01*
G01*
X122700000Y-107950000D02*
G75*
G03*
X123000000Y-108250000I300000J0D01*
G01*
X121200000Y-106600000D02*
G75*
G03*
X120900000Y-106900000I0J-300000D01*
G01*
X142051432Y-117027168D02*
G75*
G03*
X142051471Y-117451471I212168J-212132D01*
G01*
X137205733Y-111266331D02*
G75*
G03*
X136781480Y-111266318I-212133J-212069D01*
G01*
X124200000Y-108250000D02*
G75*
G03*
X124500000Y-107950000I0J300000D01*
G01*
X133811631Y-107872184D02*
G75*
G03*
X133387369Y-107872184I-212131J-212131D01*
G01*
X121800000Y-108250000D02*
G75*
G03*
X122100000Y-107950000I0J300000D01*
G01*
X132896428Y-109211669D02*
G75*
G03*
X132896420Y-109635923I212172J-212131D01*
G01*
X133744993Y-110484422D02*
G75*
G03*
X134169255Y-110484422I212131J212131D01*
G01*
X118200000Y-107600000D02*
G75*
G03*
X118500000Y-107300000I0J300000D01*
G01*
X125100000Y-107950000D02*
G75*
G03*
X125400000Y-108250000I300000J0D01*
G01*
X142900032Y-117875769D02*
G75*
G03*
X142900000Y-118300000I212068J-212131D01*
G01*
X126300000Y-107950000D02*
G75*
G03*
X126600000Y-108250000I300000J0D01*
G01*
X141202942Y-116602940D02*
G75*
G03*
X141627204Y-116602940I212131J212131D01*
G01*
X140354413Y-115754411D02*
G75*
G03*
X140778675Y-115754411I212131J212131D01*
G01*
X123000000Y-108250000D02*
G75*
G03*
X123300000Y-107950000I0J300000D01*
G01*
X120300000Y-106900000D02*
G75*
G03*
X120000000Y-106600000I-300000J0D01*
G01*
X142296918Y-116781732D02*
G75*
G03*
X142296931Y-116357481I-212118J212132D01*
G01*
X125400000Y-108250000D02*
G75*
G03*
X125700000Y-107950000I0J300000D01*
G01*
X141448333Y-115509021D02*
G75*
G03*
X141024101Y-115508987I-212133J-212079D01*
G01*
X141448345Y-115933231D02*
G75*
G03*
X141448365Y-115508989I-212145J212131D01*
G01*
X118800000Y-106600000D02*
G75*
G03*
X118500000Y-106900000I0J-300000D01*
G01*
X123600000Y-106600000D02*
G75*
G03*
X123300000Y-106900000I0J-300000D01*
G01*
X135263239Y-110663237D02*
G75*
G03*
X135687501Y-110663237I212131J212131D01*
G01*
X142051471Y-117451469D02*
G75*
G03*
X142475733Y-117451469I212131J212131D01*
G01*
X136357233Y-110417773D02*
G75*
G03*
X135932963Y-110417777I-212133J-212127D01*
G01*
X135508715Y-109569229D02*
G75*
G03*
X135084453Y-109569229I-212131J-212131D01*
G01*
X143145432Y-117206038D02*
G75*
G03*
X142721187Y-117206019I-212132J-212062D01*
G01*
X137808826Y-113208824D02*
G75*
G03*
X138233088Y-113208824I212131J212131D01*
G01*
X133745001Y-110060168D02*
G75*
G03*
X133744989Y-110484420I212099J-212132D01*
G01*
X123900000Y-107950000D02*
G75*
G03*
X124200000Y-108250000I300000J0D01*
G01*
X119100000Y-107950000D02*
G75*
G03*
X119400000Y-108250000I300000J0D01*
G01*
X138657355Y-114057353D02*
G75*
G03*
X139081617Y-114057353I212131J212131D01*
G01*
X119400000Y-108250000D02*
G75*
G03*
X119700000Y-107950000I0J300000D01*
G01*
X133811617Y-108296432D02*
G75*
G03*
X133811633Y-107872184I-212117J212132D01*
G01*
X142296932Y-116357480D02*
G75*
G03*
X141872667Y-116357481I-212132J-212120D01*
G01*
X120000000Y-106600000D02*
G75*
G03*
X119700000Y-106900000I0J-300000D01*
G01*
X136357218Y-110842032D02*
G75*
G03*
X136357228Y-110417778I-212118J212132D01*
G01*
X140599833Y-114660463D02*
G75*
G03*
X140175608Y-114660422I-212133J-212137D01*
G01*
X141202932Y-116178668D02*
G75*
G03*
X141202942Y-116602942I212168J-212132D01*
G01*
X121500000Y-106900000D02*
G75*
G03*
X121200000Y-106600000I-300000J0D01*
G01*
X136960332Y-111936069D02*
G75*
G03*
X136960297Y-112360297I212068J-212131D01*
G01*
X124800000Y-106600000D02*
G75*
G03*
X124500000Y-106900000I0J-300000D01*
G01*
X140354432Y-115330168D02*
G75*
G03*
X140354413Y-115754413I212068J-212132D01*
G01*
X134660161Y-108720718D02*
G75*
G03*
X134235899Y-108720718I-212131J-212131D01*
G01*
X121500000Y-107950000D02*
G75*
G03*
X121800000Y-108250000I300000J0D01*
G01*
X137808832Y-112784568D02*
G75*
G03*
X137808826Y-113208826I212168J-212132D01*
G01*
X137205793Y-111690631D02*
G75*
G03*
X137205744Y-111266320I-212193J212131D01*
G01*
X139505932Y-114481669D02*
G75*
G03*
X139505884Y-114905884I212068J-212131D01*
G01*
X132896423Y-109635926D02*
G75*
G03*
X133320685Y-109635926I212131J212131D01*
G01*
X127500000Y-107300000D02*
G75*
G03*
X127800000Y-107600000I300000J0D01*
G01*
X136111768Y-111511766D02*
G75*
G03*
X136536030Y-111511766I212131J212131D01*
G01*
X138054333Y-112114788D02*
G75*
G03*
X137630030Y-112114825I-212133J-212212D01*
G01*
X120600000Y-108250000D02*
G75*
G03*
X120900000Y-107950000I0J300000D01*
G01*
X136960268Y-112360323D02*
G75*
G03*
X137384560Y-112360295I212132J212123D01*
G01*
X139751318Y-114236132D02*
G75*
G03*
X139751344Y-113811894I-212118J212132D01*
G01*
X139751333Y-113811905D02*
G75*
G03*
X139327079Y-113811893I-212133J-212095D01*
G01*
X126300000Y-106900000D02*
G75*
G03*
X126000000Y-106600000I-300000J0D01*
G01*
X125100000Y-106900000D02*
G75*
G03*
X124800000Y-106600000I-300000J0D01*
G01*
X135263232Y-110238968D02*
G75*
G03*
X135263239Y-110663239I212168J-212132D01*
G01*
X126000000Y-106600000D02*
G75*
G03*
X125700000Y-106900000I0J-300000D01*
G01*
X123900000Y-106900000D02*
G75*
G03*
X123600000Y-106600000I-300000J0D01*
G01*
X120300000Y-107950000D02*
G75*
G03*
X120600000Y-108250000I300000J0D01*
G01*
X136111732Y-111087468D02*
G75*
G03*
X136111768Y-111511768I212168J-212132D01*
G01*
X132717644Y-108117642D02*
G75*
G03*
X133141906Y-108117642I212131J212131D01*
G01*
X138054337Y-112539133D02*
G75*
G03*
X138054296Y-112114826I-212137J212133D01*
G01*
X126600000Y-108250000D02*
G75*
G03*
X126900000Y-107950000I0J300000D01*
G01*
X119100000Y-106900000D02*
G75*
G03*
X118800000Y-106600000I-300000J0D01*
G01*
X143145500Y-117630332D02*
G75*
G03*
X143145451Y-117206019I-212200J212132D01*
G01*
X134660213Y-109145032D02*
G75*
G03*
X134660163Y-108720718I-212213J212132D01*
G01*
X139505884Y-114905882D02*
G75*
G03*
X139930146Y-114905882I212131J212131D01*
G01*
X127200000Y-106600000D02*
G75*
G03*
X126900000Y-106900000I0J-300000D01*
G01*
X138657332Y-113633068D02*
G75*
G03*
X138657355Y-114057355I212168J-212132D01*
G01*
X138902745Y-113387631D02*
G75*
G03*
X138902778Y-112963402I-212145J212131D01*
G01*
X140599917Y-115084731D02*
G75*
G03*
X140599872Y-114660424I-212217J212131D01*
G01*
X138902732Y-112963448D02*
G75*
G03*
X138478515Y-112963401I-212132J-212052D01*
G01*
%TO.N,SDIO_D0*%
X140698706Y-110978827D02*
X140698705Y-110978826D01*
X140493735Y-111593735D02*
X140698705Y-111388766D01*
X144100000Y-114775735D02*
X144371560Y-114504174D01*
X159800000Y-116300000D02*
X145200000Y-116300000D01*
X138856096Y-108988711D02*
X138372403Y-109472403D01*
X142674520Y-112382819D02*
X142674518Y-112382817D01*
X143463601Y-114563600D02*
X143463602Y-114563602D01*
X139355172Y-110186701D02*
X139220936Y-110320936D01*
X139220936Y-110320936D02*
X138737224Y-110804647D01*
X143675733Y-114351468D02*
X143463601Y-114563600D01*
X133917608Y-105017608D02*
X132000000Y-103100000D01*
X134918798Y-106986275D02*
X135402537Y-106502537D01*
X135767319Y-107834820D02*
X136251070Y-107351070D01*
X134613469Y-104746010D02*
X134341871Y-105017607D01*
X115109901Y-103100000D02*
X114899901Y-103310000D01*
X136251070Y-107351070D02*
X136734763Y-106867378D01*
X135826804Y-106926804D02*
X135343065Y-107410542D01*
X140698705Y-110978826D02*
X140684379Y-110964500D01*
X134918801Y-107410542D02*
X134918798Y-107410539D01*
X143463602Y-114563602D02*
X142979862Y-115047339D01*
X140009999Y-112501740D02*
X140009996Y-112501737D01*
X137523870Y-108623870D02*
X137040167Y-109107572D01*
X137159059Y-107291616D02*
X136675337Y-107775337D01*
X134554004Y-105654004D02*
X135037734Y-105170275D01*
X135037734Y-104746011D02*
X135037733Y-104746010D01*
X140918002Y-112018002D02*
X140434263Y-112501740D01*
X142555595Y-114623072D02*
X143039334Y-114139334D01*
X139280362Y-108988713D02*
X139280360Y-108988711D01*
X138431884Y-108140123D02*
X138431885Y-108140124D01*
X134070255Y-106137752D02*
X134554004Y-105654004D01*
X139161499Y-111228904D02*
X139645202Y-110745202D01*
X137099603Y-108199603D02*
X137583325Y-107715882D01*
X141330993Y-111605012D02*
X140918002Y-112018002D01*
X140009996Y-112077473D02*
X140493735Y-111593735D01*
X145200000Y-116300000D02*
X144100000Y-115200000D01*
X137464397Y-109531874D02*
X137948136Y-109048136D01*
X141707101Y-114198770D02*
X141707098Y-114198767D01*
X138431885Y-108140124D02*
X138431883Y-108140122D01*
X135402537Y-106502537D02*
X135886286Y-106018789D01*
X144371560Y-114079910D02*
X144371558Y-114079908D01*
X142250254Y-112382817D02*
X141766535Y-112866535D01*
X138312957Y-110380380D02*
X138796669Y-109896669D01*
X134070258Y-106562019D02*
X134070255Y-106562016D01*
X143098817Y-113231320D02*
X142615068Y-113715068D01*
X141766535Y-112866535D02*
X141282823Y-113350246D01*
X143947294Y-114079908D02*
X143675733Y-114351468D01*
X139161502Y-111653171D02*
X139161499Y-111653168D01*
X135886286Y-105594525D02*
X135886284Y-105594523D01*
X138007619Y-108140122D02*
X137523870Y-108623870D01*
X137948136Y-109048136D02*
X138431885Y-108564388D01*
X140858559Y-113350246D02*
X140858556Y-113350243D01*
X140274439Y-110964500D02*
X139585766Y-111653171D01*
X138796669Y-109896669D02*
X139280362Y-109412977D01*
X136310497Y-106443112D02*
X135826804Y-106926804D01*
X135767322Y-108259087D02*
X135767319Y-108259084D01*
X143039334Y-114139334D02*
X143523083Y-113655586D01*
X141755259Y-111605014D02*
X141755257Y-111605012D01*
X167150000Y-114645382D02*
X167155545Y-114639837D01*
X135462020Y-105594523D02*
X134978271Y-106078271D01*
X138312960Y-110804647D02*
X138312957Y-110804644D01*
X137464400Y-109956141D02*
X137464397Y-109956138D01*
X167150000Y-116075000D02*
X167150000Y-114645382D01*
X137583325Y-107291618D02*
X137583323Y-107291616D01*
X136615900Y-108683305D02*
X137099603Y-108199603D01*
X136675337Y-107775337D02*
X136191586Y-108259087D01*
X143523083Y-113231322D02*
X143523081Y-113231320D01*
X134978271Y-106078271D02*
X134494522Y-106562019D01*
X140274440Y-110964499D02*
X140274439Y-110964500D01*
X135886285Y-105594524D02*
X135886286Y-105594525D01*
X141342268Y-112442268D02*
X141755259Y-112029278D01*
X138372403Y-109472403D02*
X137888664Y-109956141D01*
X142615068Y-113715068D02*
X142131365Y-114198770D01*
X141707098Y-113774503D02*
X142190801Y-113290801D01*
X142190801Y-113290801D02*
X142674520Y-112807083D01*
X132000000Y-103100000D02*
X115109901Y-103100000D01*
X136734763Y-106443114D02*
X136734761Y-106443112D01*
X139645202Y-110745202D02*
X139779438Y-110610967D01*
X140858556Y-112925979D02*
X141342268Y-112442268D01*
X144099999Y-114775735D02*
X144100000Y-114775735D01*
X136615903Y-109107572D02*
X136615900Y-109107569D01*
X133917607Y-105017607D02*
X133917608Y-105017608D01*
X139779438Y-110342497D02*
X139623642Y-110186701D01*
X142555598Y-115047339D02*
X142555595Y-115047336D01*
X143523082Y-113231321D02*
X143523083Y-113231322D01*
X134070257Y-106562018D02*
X134070258Y-106562019D01*
X139779406Y-110610935D02*
G75*
G03*
X139779438Y-110342497I-134206J134235D01*
G01*
X140009991Y-112077468D02*
G75*
G03*
X140009996Y-112501737I212109J-212132D01*
G01*
X141707063Y-113774468D02*
G75*
G03*
X141707098Y-114198767I212137J-212132D01*
G01*
X139161503Y-111653170D02*
G75*
G03*
X139585765Y-111653170I212131J212131D01*
G01*
X143523080Y-113231321D02*
G75*
G03*
X143098818Y-113231321I-212131J-212131D01*
G01*
X133917608Y-105017606D02*
G75*
G03*
X134341870Y-105017606I212131J212131D01*
G01*
X134070267Y-106562008D02*
G75*
G03*
X134494522Y-106562019I212133J212108D01*
G01*
X143523128Y-113655631D02*
G75*
G03*
X143523081Y-113231322I-212128J212131D01*
G01*
X138431928Y-108564431D02*
G75*
G03*
X138431883Y-108140124I-212128J212131D01*
G01*
X138431882Y-108140123D02*
G75*
G03*
X138007620Y-108140123I-212131J-212131D01*
G01*
X139161463Y-111228868D02*
G75*
G03*
X139161499Y-111653168I212137J-212132D01*
G01*
X136615863Y-108683268D02*
G75*
G03*
X136615900Y-109107569I212137J-212132D01*
G01*
X144371518Y-114504132D02*
G75*
G03*
X144371560Y-114079910I-212118J212132D01*
G01*
X137583375Y-107715932D02*
G75*
G03*
X137583325Y-107291618I-212175J212132D01*
G01*
X142674569Y-112807132D02*
G75*
G03*
X142674520Y-112382819I-212169J212132D01*
G01*
X137464401Y-109956140D02*
G75*
G03*
X137888663Y-109956140I212131J212131D01*
G01*
X134918802Y-107410541D02*
G75*
G03*
X135343064Y-107410541I212131J212131D01*
G01*
X139280359Y-108988712D02*
G75*
G03*
X138856097Y-108988712I-212131J-212131D01*
G01*
X135037690Y-105170231D02*
G75*
G03*
X135037733Y-104746012I-212090J212131D01*
G01*
X144100032Y-114775769D02*
G75*
G03*
X144100000Y-115200000I212068J-212131D01*
G01*
X134070272Y-106137769D02*
G75*
G03*
X134070256Y-106562015I212128J-212131D01*
G01*
X140010000Y-112501739D02*
G75*
G03*
X140434262Y-112501739I212131J212131D01*
G01*
X141707102Y-114198769D02*
G75*
G03*
X142131364Y-114198769I212131J212131D01*
G01*
X134918791Y-106986268D02*
G75*
G03*
X134918798Y-107410539I212109J-212132D01*
G01*
X140858545Y-112925968D02*
G75*
G03*
X140858556Y-113350243I212155J-212132D01*
G01*
X136615904Y-109107571D02*
G75*
G03*
X137040166Y-109107571I212131J212131D01*
G01*
X135886328Y-106018831D02*
G75*
G03*
X135886284Y-105594525I-212128J212131D01*
G01*
X142555599Y-115047338D02*
G75*
G03*
X142979861Y-115047338I212131J212131D01*
G01*
X137464391Y-109531868D02*
G75*
G03*
X137464397Y-109956138I212109J-212132D01*
G01*
X140684370Y-110964509D02*
G75*
G03*
X140274440Y-110964499I-204970J-204991D01*
G01*
X137583322Y-107291617D02*
G75*
G03*
X137159060Y-107291617I-212131J-212131D01*
G01*
X138312945Y-110380368D02*
G75*
G03*
X138312957Y-110804644I212155J-212132D01*
G01*
X141755213Y-112029232D02*
G75*
G03*
X141755259Y-111605014I-212113J212132D01*
G01*
X140858560Y-113350245D02*
G75*
G03*
X141282822Y-113350245I212131J212131D01*
G01*
X140698708Y-111388769D02*
G75*
G03*
X140698705Y-110978828I-205008J204969D01*
G01*
X144371557Y-114079909D02*
G75*
G03*
X143947295Y-114079909I-212131J-212131D01*
G01*
X135767323Y-108259086D02*
G75*
G03*
X136191585Y-108259086I212131J212131D01*
G01*
X142674517Y-112382818D02*
G75*
G03*
X142250255Y-112382818I-212131J-212131D01*
G01*
X142555591Y-114623068D02*
G75*
G03*
X142555595Y-115047336I212109J-212132D01*
G01*
X139623641Y-110186702D02*
G75*
G03*
X139355173Y-110186702I-134234J-134234D01*
G01*
X141755256Y-111605013D02*
G75*
G03*
X141330994Y-111605013I-212131J-212131D01*
G01*
X135037732Y-104746011D02*
G75*
G03*
X134613470Y-104746011I-212131J-212131D01*
G01*
X136734717Y-106867332D02*
G75*
G03*
X136734763Y-106443114I-212117J212132D01*
G01*
X138312961Y-110804646D02*
G75*
G03*
X138737223Y-110804646I212131J212131D01*
G01*
X136734760Y-106443113D02*
G75*
G03*
X136310498Y-106443113I-212131J-212131D01*
G01*
X135886283Y-105594524D02*
G75*
G03*
X135462021Y-105594524I-212131J-212131D01*
G01*
X139280317Y-109412932D02*
G75*
G03*
X139280362Y-108988713I-212117J212132D01*
G01*
X135767367Y-107834868D02*
G75*
G03*
X135767319Y-108259084I212133J-212132D01*
G01*
%TO.N,SDIO_D3*%
X148500000Y-120500000D02*
X148500000Y-121164851D01*
X131600000Y-108900000D02*
X131600000Y-109890000D01*
X155100000Y-121164850D02*
X155100000Y-120800000D01*
X135654159Y-112164212D02*
X135654160Y-112164211D01*
X153300000Y-120500000D02*
X153300000Y-121164850D01*
X152700000Y-121164850D02*
X152700000Y-120500000D01*
X138199737Y-114709790D02*
X138199738Y-114709789D01*
X150300000Y-121164851D02*
X150300000Y-120500000D01*
X145500000Y-121164851D02*
X145500000Y-120800000D01*
X148500000Y-120185150D02*
X148500000Y-120500000D01*
X150300000Y-120500000D02*
X150300000Y-120185149D01*
X138482578Y-116972525D02*
X138482577Y-116972526D01*
X143000000Y-120500000D02*
X144600000Y-120500000D01*
X123200000Y-108900000D02*
X123200000Y-109050000D01*
X122600000Y-109050000D02*
X122600000Y-108900000D01*
X137351211Y-113861264D02*
X137351212Y-113861263D01*
X135088474Y-113578421D02*
X135088473Y-113578422D01*
X134805634Y-111315685D02*
X133815683Y-112305632D01*
X152700000Y-120500000D02*
X152700000Y-120185148D01*
X166400000Y-120500000D02*
X167650000Y-119250000D01*
X141593842Y-118103893D02*
X140603891Y-119093840D01*
X122000000Y-108900000D02*
X122000000Y-109050000D01*
X135936999Y-114426948D02*
X136926946Y-113436997D01*
X135937000Y-114426947D02*
X135936999Y-114426948D01*
X146100000Y-120185150D02*
X146100000Y-120500000D01*
X134805633Y-111315686D02*
X134805634Y-111315685D01*
X140745315Y-117255368D02*
X140745316Y-117255367D01*
X120800000Y-108900000D02*
X120800000Y-109050000D01*
X123800000Y-109050000D02*
X123800000Y-108900000D01*
X156390473Y-120500000D02*
X166400000Y-120500000D01*
X119600000Y-108900000D02*
X119600000Y-109050000D01*
X125000000Y-109050000D02*
X125000000Y-108900000D01*
X141593841Y-118103894D02*
X141593842Y-118103893D01*
X151500000Y-121164850D02*
X151500000Y-120500000D01*
X126500000Y-108600000D02*
X127150000Y-108600000D01*
X119000000Y-109050000D02*
X119000000Y-108900000D01*
X115090000Y-108600000D02*
X117500000Y-108600000D01*
X124400000Y-108900000D02*
X124400000Y-109050000D01*
X140179630Y-118669577D02*
X140179629Y-118669578D01*
X150900000Y-120185149D02*
X150900000Y-120500000D01*
X127150000Y-108600000D02*
X131300000Y-108600000D01*
X126200000Y-109050000D02*
X126200000Y-108900000D01*
X141028156Y-119518103D02*
X141028155Y-119518104D01*
X144900000Y-120800000D02*
X144900000Y-121164851D01*
X138199738Y-114709789D02*
X137209787Y-115699736D01*
X139048264Y-115558315D02*
X138058313Y-116548262D01*
X139331104Y-117821051D02*
X139331103Y-117821052D01*
X149100000Y-120500000D02*
X149100000Y-120185150D01*
X147900000Y-120500000D02*
X147900000Y-120185150D01*
X134239947Y-112729896D02*
X135229894Y-111739945D01*
X118400000Y-108250000D02*
X118400000Y-108300000D01*
X137634051Y-116124000D02*
X138623998Y-115134049D01*
X146100000Y-120500000D02*
X146100000Y-121164851D01*
X150900000Y-120500000D02*
X150900000Y-121164850D01*
X114900000Y-108790000D02*
X115090000Y-108600000D01*
X154500000Y-120500000D02*
X154500000Y-121164850D01*
X136502685Y-113012738D02*
X136502686Y-113012737D01*
X139896790Y-116406841D02*
X138906839Y-117396788D01*
X133391421Y-111881370D02*
X134381368Y-110891419D01*
X149700000Y-120185150D02*
X149700000Y-120500000D01*
X147300000Y-120500000D02*
X147300000Y-121164851D01*
X121400000Y-109050000D02*
X121400000Y-108900000D01*
X136785526Y-115275473D02*
X136785525Y-115275474D01*
X132750000Y-110250000D02*
X133250000Y-110750000D01*
X142442367Y-118952420D02*
X142442368Y-118952419D01*
X118400000Y-108300000D02*
X118400000Y-109050000D01*
X140745316Y-117255367D02*
X139755365Y-118245314D01*
X132750000Y-110250000D02*
X132190000Y-109690000D01*
X137634052Y-116123999D02*
X137634051Y-116124000D01*
X152100000Y-120500000D02*
X152100000Y-121164850D01*
X146700000Y-120500000D02*
X146700000Y-120185150D01*
X147900000Y-121164851D02*
X147900000Y-120500000D01*
X140179629Y-118669578D02*
X141169576Y-117679627D01*
X146700000Y-121164851D02*
X146700000Y-120500000D01*
X117800000Y-108300000D02*
X117800000Y-108250000D01*
X135088473Y-113578422D02*
X136078420Y-112588471D01*
X141028155Y-119518104D02*
X142018102Y-118528153D01*
X151500000Y-120500000D02*
X151500000Y-120185149D01*
X136785525Y-115275474D02*
X137775472Y-114285523D01*
X139048263Y-115558316D02*
X139048264Y-115558315D01*
X149100000Y-121164851D02*
X149100000Y-120500000D01*
X153900000Y-121164850D02*
X153900000Y-120500000D01*
X132390000Y-109890000D02*
X132750000Y-110250000D01*
X142159525Y-119659525D02*
X143000000Y-120500000D01*
X153300000Y-120185148D02*
X153300000Y-120500000D01*
X135654160Y-112164211D02*
X134664209Y-113154158D01*
X125600000Y-108900000D02*
X125600000Y-109050000D01*
X142442368Y-118952419D02*
X142159524Y-119235260D01*
X167650000Y-119250000D02*
X167650000Y-116075000D01*
X134239948Y-112729895D02*
X134239947Y-112729896D01*
X131300000Y-108600000D02*
X131600000Y-108900000D01*
X133391422Y-111881369D02*
X133391421Y-111881370D01*
X152100000Y-120185149D02*
X152100000Y-120500000D01*
X149700000Y-120500000D02*
X149700000Y-121164851D01*
X133249999Y-111174265D02*
X133250000Y-111174264D01*
X147300000Y-120185150D02*
X147300000Y-120500000D01*
X155400000Y-120500000D02*
X156390473Y-120500000D01*
X139896789Y-116406842D02*
X139896790Y-116406841D01*
X136502686Y-113012737D02*
X135512735Y-114002684D01*
X133250000Y-111174264D02*
X132967157Y-111457106D01*
X137351212Y-113861263D02*
X136361261Y-114851210D01*
X142159524Y-119659524D02*
X142159525Y-119659525D01*
X154500000Y-120185146D02*
X154500000Y-120500000D01*
X132190000Y-109690000D02*
X131600000Y-109690000D01*
X153900000Y-120500000D02*
X153900000Y-120185146D01*
X120200000Y-109050000D02*
X120200000Y-108900000D01*
X138482577Y-116972526D02*
X139472524Y-115982575D01*
X145500000Y-120800000D02*
X145500000Y-120185150D01*
X139331103Y-117821052D02*
X140321050Y-116831101D01*
X137209769Y-116124018D02*
G75*
G03*
X137634051Y-116123998I212131J212118D01*
G01*
X139048280Y-115558333D02*
G75*
G03*
X139048264Y-115134051I-212180J212133D01*
G01*
X133815720Y-112305669D02*
G75*
G03*
X133815684Y-112729895I212080J-212131D01*
G01*
X125300000Y-108600000D02*
G75*
G03*
X125000000Y-108900000I0J-300000D01*
G01*
X126500000Y-108600000D02*
G75*
G03*
X126200000Y-108900000I0J-300000D01*
G01*
X146400000Y-121464900D02*
G75*
G03*
X146700000Y-121164851I0J300000D01*
G01*
X125600000Y-109050000D02*
G75*
G03*
X125900000Y-109350000I300000J0D01*
G01*
X153600000Y-121464800D02*
G75*
G03*
X153900000Y-121164850I0J300000D01*
G01*
X147300050Y-120185150D02*
G75*
G03*
X147000000Y-119885150I-300050J-50D01*
G01*
X121700000Y-108600000D02*
G75*
G03*
X121400000Y-108900000I0J-300000D01*
G01*
X145800000Y-119885200D02*
G75*
G03*
X145500000Y-120185150I0J-300000D01*
G01*
X136502679Y-113012732D02*
G75*
G03*
X136502685Y-112588474I-212079J212132D01*
G01*
X139896834Y-115982533D02*
G75*
G03*
X139472524Y-115982575I-212134J-212167D01*
G01*
X152099951Y-120185149D02*
G75*
G03*
X151800000Y-119885149I-299951J49D01*
G01*
X123200000Y-108900000D02*
G75*
G03*
X122900000Y-108600000I-300000J0D01*
G01*
X154800000Y-121464800D02*
G75*
G03*
X155100000Y-121164850I0J300000D01*
G01*
X122900000Y-108600000D02*
G75*
G03*
X122600000Y-108900000I0J-300000D01*
G01*
X138199780Y-114709833D02*
G75*
G03*
X138199738Y-114285525I-212180J212133D01*
G01*
X123200000Y-109050000D02*
G75*
G03*
X123500000Y-109350000I300000J0D01*
G01*
X154200000Y-119885100D02*
G75*
G03*
X153900000Y-120185146I0J-300000D01*
G01*
X135512719Y-114002668D02*
G75*
G03*
X135512735Y-114426948I212181J-212132D01*
G01*
X118400000Y-109050000D02*
G75*
G03*
X118700000Y-109350000I300000J0D01*
G01*
X142159532Y-119235268D02*
G75*
G03*
X142159524Y-119659524I212168J-212132D01*
G01*
X140745334Y-116831085D02*
G75*
G03*
X140321050Y-116831101I-212134J-212115D01*
G01*
X144900000Y-120800000D02*
G75*
G03*
X144600000Y-120500000I-300000J0D01*
G01*
X119300000Y-108600000D02*
G75*
G03*
X119000000Y-108900000I0J-300000D01*
G01*
X119600000Y-109050000D02*
G75*
G03*
X119900000Y-109350000I300000J0D01*
G01*
X138058320Y-116548269D02*
G75*
G03*
X138058314Y-116972525I212080J-212131D01*
G01*
X144900049Y-121164851D02*
G75*
G03*
X145200000Y-121464851I299951J-49D01*
G01*
X124700000Y-109350000D02*
G75*
G03*
X125000000Y-109050000I0J300000D01*
G01*
X141593834Y-117679637D02*
G75*
G03*
X141169576Y-117679627I-212134J-212163D01*
G01*
X135654180Y-112164233D02*
G75*
G03*
X135654160Y-111739947I-212180J212133D01*
G01*
X120800000Y-108900000D02*
G75*
G03*
X120500000Y-108600000I-300000J0D01*
G01*
X123500000Y-109350000D02*
G75*
G03*
X123800000Y-109050000I0J300000D01*
G01*
X135654133Y-111739974D02*
G75*
G03*
X135229895Y-111739946I-212133J-212126D01*
G01*
X153299952Y-120185148D02*
G75*
G03*
X153000000Y-119885148I-299952J48D01*
G01*
X124400000Y-109050000D02*
G75*
G03*
X124700000Y-109350000I300000J0D01*
G01*
X148500049Y-121164851D02*
G75*
G03*
X148800000Y-121464851I299951J-49D01*
G01*
X136502733Y-112588426D02*
G75*
G03*
X136078421Y-112588472I-212133J-212174D01*
G01*
X138058268Y-116972571D02*
G75*
G03*
X138482578Y-116972525I212132J212171D01*
G01*
X134664169Y-113578462D02*
G75*
G03*
X135088473Y-113578420I212131J212162D01*
G01*
X155400000Y-120500000D02*
G75*
G03*
X155100000Y-120800000I0J-300000D01*
G01*
X150899950Y-121164850D02*
G75*
G03*
X151200000Y-121464850I300050J50D01*
G01*
X148800000Y-121464900D02*
G75*
G03*
X149100000Y-121164851I0J300000D01*
G01*
X152400000Y-121464800D02*
G75*
G03*
X152700000Y-121164850I0J300000D01*
G01*
X137209820Y-115699769D02*
G75*
G03*
X137209788Y-116123999I212080J-212131D01*
G01*
X136361268Y-115275467D02*
G75*
G03*
X136785526Y-115275473I212132J212167D01*
G01*
X134664220Y-113154169D02*
G75*
G03*
X134664210Y-113578421I212080J-212131D01*
G01*
X138906819Y-117396768D02*
G75*
G03*
X138906839Y-117821052I212181J-212132D01*
G01*
X146100050Y-120185150D02*
G75*
G03*
X145800000Y-119885150I-300050J-50D01*
G01*
X151800000Y-119885100D02*
G75*
G03*
X151500000Y-120185149I0J-300000D01*
G01*
X151200000Y-121464800D02*
G75*
G03*
X151500000Y-121164850I0J300000D01*
G01*
X124400000Y-108900000D02*
G75*
G03*
X124100000Y-108600000I-300000J0D01*
G01*
X135512769Y-114426914D02*
G75*
G03*
X135936999Y-114426946I212131J212114D01*
G01*
X154499954Y-120185146D02*
G75*
G03*
X154200000Y-119885146I-299954J46D01*
G01*
X142442334Y-118528189D02*
G75*
G03*
X142018102Y-118528153I-212134J-212111D01*
G01*
X118700000Y-109350000D02*
G75*
G03*
X119000000Y-109050000I0J300000D01*
G01*
X150000000Y-121464900D02*
G75*
G03*
X150300000Y-121164851I0J300000D01*
G01*
X149700049Y-121164851D02*
G75*
G03*
X150000000Y-121464851I299951J-49D01*
G01*
X145200000Y-121464900D02*
G75*
G03*
X145500000Y-121164851I0J300000D01*
G01*
X125600000Y-108900000D02*
G75*
G03*
X125300000Y-108600000I-300000J0D01*
G01*
X146100049Y-121164851D02*
G75*
G03*
X146400000Y-121464851I299951J-49D01*
G01*
X132967168Y-111881359D02*
G75*
G03*
X133391422Y-111881369I212132J212159D01*
G01*
X140603868Y-119518127D02*
G75*
G03*
X141028156Y-119518103I212132J212127D01*
G01*
X121100000Y-109350000D02*
G75*
G03*
X121400000Y-109050000I0J300000D01*
G01*
X140745279Y-117255332D02*
G75*
G03*
X140745315Y-116831104I-212079J212132D01*
G01*
X142442380Y-118952433D02*
G75*
G03*
X142442368Y-118528155I-212180J212133D01*
G01*
X122000000Y-108900000D02*
G75*
G03*
X121700000Y-108600000I-300000J0D01*
G01*
X147600000Y-121464900D02*
G75*
G03*
X147900000Y-121164851I0J300000D01*
G01*
X147300049Y-121164851D02*
G75*
G03*
X147600000Y-121464851I299951J-49D01*
G01*
X154499950Y-121164850D02*
G75*
G03*
X154800000Y-121464850I300050J50D01*
G01*
X119600000Y-108900000D02*
G75*
G03*
X119300000Y-108600000I-300000J0D01*
G01*
X137351234Y-113436977D02*
G75*
G03*
X136926946Y-113436997I-212134J-212123D01*
G01*
X136361219Y-114851168D02*
G75*
G03*
X136361261Y-115275474I212181J-212132D01*
G01*
X141593880Y-118103933D02*
G75*
G03*
X141593842Y-117679629I-212180J212133D01*
G01*
X125900000Y-109350000D02*
G75*
G03*
X126200000Y-109050000I0J300000D01*
G01*
X150600000Y-119885100D02*
G75*
G03*
X150300000Y-120185149I0J-300000D01*
G01*
X133815668Y-112729911D02*
G75*
G03*
X134239948Y-112729895I212132J212111D01*
G01*
X132967119Y-111457068D02*
G75*
G03*
X132967157Y-111881370I212181J-212132D01*
G01*
X153299950Y-121164850D02*
G75*
G03*
X153600000Y-121464850I300050J50D01*
G01*
X118100000Y-107950000D02*
G75*
G03*
X117800000Y-108250000I0J-300000D01*
G01*
X148500050Y-120185150D02*
G75*
G03*
X148200000Y-119885150I-300050J-50D01*
G01*
X139048234Y-115134081D02*
G75*
G03*
X138623998Y-115134049I-212134J-212119D01*
G01*
X149700050Y-120185150D02*
G75*
G03*
X149400000Y-119885150I-300050J-50D01*
G01*
X140603920Y-119093869D02*
G75*
G03*
X140603892Y-119518103I212080J-212131D01*
G01*
X120800000Y-109050000D02*
G75*
G03*
X121100000Y-109350000I300000J0D01*
G01*
X120500000Y-108600000D02*
G75*
G03*
X120200000Y-108900000I0J-300000D01*
G01*
X124100000Y-108600000D02*
G75*
G03*
X123800000Y-108900000I0J-300000D01*
G01*
X134805634Y-110891421D02*
G75*
G03*
X134381368Y-110891419I-212134J-212179D01*
G01*
X139755319Y-118245268D02*
G75*
G03*
X139755365Y-118669578I212181J-212132D01*
G01*
X139755368Y-118669575D02*
G75*
G03*
X140179630Y-118669577I212132J212175D01*
G01*
X134805680Y-111315733D02*
G75*
G03*
X134805634Y-110891421I-212180J212133D01*
G01*
X150899951Y-120185149D02*
G75*
G03*
X150600000Y-119885149I-299951J49D01*
G01*
X152099950Y-121164850D02*
G75*
G03*
X152400000Y-121464850I300050J50D01*
G01*
X118400000Y-108250000D02*
G75*
G03*
X118100000Y-107950000I-300000J0D01*
G01*
X148200000Y-119885200D02*
G75*
G03*
X147900000Y-120185150I0J-300000D01*
G01*
X119900000Y-109350000D02*
G75*
G03*
X120200000Y-109050000I0J300000D01*
G01*
X139896779Y-116406832D02*
G75*
G03*
X139896789Y-115982578I-212079J212132D01*
G01*
X133249967Y-111174232D02*
G75*
G03*
X133250000Y-110750000I-212067J212132D01*
G01*
X147000000Y-119885200D02*
G75*
G03*
X146700000Y-120185150I0J-300000D01*
G01*
X138199733Y-114285530D02*
G75*
G03*
X137775473Y-114285524I-212133J-212170D01*
G01*
X122300000Y-109350000D02*
G75*
G03*
X122600000Y-109050000I0J300000D01*
G01*
X122000000Y-109050000D02*
G75*
G03*
X122300000Y-109350000I300000J0D01*
G01*
X117500000Y-108600000D02*
G75*
G03*
X117800000Y-108300000I0J300000D01*
G01*
X149400000Y-119885200D02*
G75*
G03*
X149100000Y-120185150I0J-300000D01*
G01*
X137351179Y-113861232D02*
G75*
G03*
X137351211Y-113437000I-212079J212132D01*
G01*
X153000000Y-119885100D02*
G75*
G03*
X152700000Y-120185148I0J-300000D01*
G01*
X138906868Y-117821023D02*
G75*
G03*
X139331104Y-117821051I212132J212123D01*
G01*
%TO.N,I2C1_SCL*%
X158512500Y-97097500D02*
X158610000Y-97000000D01*
X158512500Y-98500000D02*
X158512500Y-97097500D01*
%TO.N,I2C1_SDA*%
X167400000Y-110600000D02*
X165700000Y-110600000D01*
X168650000Y-111850000D02*
X167400000Y-110600000D01*
X155642500Y-97052500D02*
X155590000Y-97000000D01*
X168650000Y-116075000D02*
X168650000Y-111850000D01*
X155642500Y-98500000D02*
X155642500Y-97052500D01*
%TO.N,CAN1_RX*%
X169650000Y-116075000D02*
X169650000Y-111750000D01*
X138491258Y-92066000D02*
X138492578Y-92067320D01*
X167800000Y-109900000D02*
X164600000Y-109900000D01*
X137305000Y-92066000D02*
X138491258Y-92066000D01*
X169650000Y-111750000D02*
X167800000Y-109900000D01*
%TO.N,CAN1_TX*%
X170150000Y-111650000D02*
X167800000Y-109300000D01*
X170150000Y-116075000D02*
X170150000Y-111650000D01*
X133494313Y-92066687D02*
X132013324Y-92066687D01*
X167800000Y-109300000D02*
X163600000Y-109300000D01*
X133495000Y-92066000D02*
X133494313Y-92066687D01*
D71*
%TO.N,/usb/USB_CON_P*%
X190700000Y-101923992D02*
X190700000Y-101948529D01*
X188137500Y-102250000D02*
X188487500Y-101900000D01*
X190700000Y-101948529D02*
X191051471Y-102300000D01*
X190301009Y-101525001D02*
X190700000Y-101923992D01*
D65*
X192400000Y-102500000D02*
X192700000Y-102200000D01*
X192980000Y-101750000D02*
X193530000Y-101750000D01*
X192230000Y-102500000D02*
X192400000Y-102500000D01*
D71*
X189648529Y-101900000D02*
X190023528Y-101525001D01*
D65*
X192700000Y-102200000D02*
X192700000Y-102030000D01*
D71*
X190023528Y-101525001D02*
X190301009Y-101525001D01*
X191504999Y-102300000D02*
X191704999Y-102500000D01*
X191051471Y-102300000D02*
X191504999Y-102300000D01*
D65*
X192700000Y-102030000D02*
X192980000Y-101750000D01*
D71*
X188487500Y-101900000D02*
X189648529Y-101900000D01*
X191704999Y-102500000D02*
X192230000Y-102500000D01*
%TO.N,/usb/USB_CON_N*%
X188137500Y-100350000D02*
X188487500Y-100700000D01*
X189648529Y-100700000D02*
X190023528Y-101074999D01*
D65*
X193530000Y-102250000D02*
X194150000Y-102250000D01*
D71*
X190023528Y-101074999D02*
X190416693Y-101074999D01*
D65*
X191400000Y-101600000D02*
X191300000Y-101700000D01*
D71*
X191116694Y-101775000D02*
X191429999Y-101775000D01*
X190416693Y-101074999D02*
X191116694Y-101775000D01*
D65*
X194150000Y-102250000D02*
X194400000Y-102500000D01*
D71*
X191704999Y-101500000D02*
X192230000Y-101500000D01*
X191429999Y-101775000D02*
X191704999Y-101500000D01*
X188487500Y-100700000D02*
X189648529Y-100700000D01*
D65*
%TO.N,/wifi_ble/DTR*%
X152390000Y-79924295D02*
X152405043Y-79939338D01*
X152390000Y-71000000D02*
X152390000Y-79924295D01*
X152397384Y-79946997D02*
X152405043Y-79939338D01*
X151052549Y-79946997D02*
X152397384Y-79946997D01*
X152390000Y-79906656D02*
X152350040Y-79946616D01*
%TO.N,/wifi_ble/RTS*%
X157068181Y-78799055D02*
X157470000Y-78397236D01*
X156388446Y-78799055D02*
X157000000Y-78799055D01*
X157470000Y-78397236D02*
X157470000Y-71000000D01*
X157470000Y-79197236D02*
X157470000Y-79866576D01*
X157000000Y-78799055D02*
X157071819Y-78799055D01*
X157698840Y-79947856D02*
X157700080Y-79946616D01*
X157470000Y-79866576D02*
X157550040Y-79946616D01*
X157000000Y-78799055D02*
X157068181Y-78799055D01*
X157071819Y-78799055D02*
X157470000Y-79197236D01*
D69*
%TO.N,/wifi_ble/ESP_TX*%
X187500000Y-86000000D02*
X189000000Y-86000000D01*
%TO.N,/wifi_ble/ESP_RX*%
X187500000Y-87500000D02*
X189000000Y-87500000D01*
D65*
%TO.N,Net-(Q1-Pad1)*%
X159384179Y-80663057D02*
X159384179Y-79949380D01*
X151052549Y-80966997D02*
X159080239Y-80966997D01*
X159080239Y-80966997D02*
X159384179Y-80663057D01*
%TO.N,/wifi_ble/GPIO9*%
X153355003Y-84055003D02*
X153900000Y-84600000D01*
X172300000Y-87500000D02*
X170000000Y-87500000D01*
X174241182Y-89441182D02*
X172300000Y-87500000D01*
X174241182Y-92656318D02*
X174241182Y-89441182D01*
X153355003Y-84055003D02*
X153355003Y-82240578D01*
X164300000Y-87100000D02*
X164700000Y-87500000D01*
X163800000Y-84600000D02*
X164300000Y-85100000D01*
X164700000Y-87500000D02*
X170000000Y-87500000D01*
X164300000Y-85100000D02*
X164300000Y-87100000D01*
X153900000Y-84600000D02*
X163800000Y-84600000D01*
%TO.N,Net-(Q2-Pad1)*%
X154304963Y-79939338D02*
X154304963Y-79094092D01*
X155368446Y-78799055D02*
X154600000Y-78799055D01*
X154351200Y-79947856D02*
X154349960Y-79946616D01*
X154304963Y-79094092D02*
X154600000Y-78799055D01*
%TO.N,Net-(R4-Pad1)*%
X183602500Y-93300000D02*
X185795488Y-93300000D01*
X185795488Y-93300000D02*
X185797944Y-93302456D01*
%TO.N,/wifi_ble/GPIO8*%
X167799689Y-86003800D02*
X167803489Y-86000000D01*
X167803489Y-86000000D02*
X170000000Y-86000000D01*
D67*
%TO.N,Net-(X1-CC2)*%
X187610000Y-97900000D02*
X188400000Y-97900000D01*
D65*
X194300000Y-101030000D02*
X194300000Y-100700000D01*
X194283438Y-100716562D02*
X194300000Y-100700000D01*
X193530000Y-101250000D02*
X194080000Y-101250000D01*
X194080000Y-101250000D02*
X194300000Y-101030000D01*
%TO.N,Net-(X1-CC1)*%
X187610000Y-104900000D02*
X188700000Y-104900000D01*
X192208732Y-103021268D02*
X192230000Y-103000000D01*
X188700000Y-104900000D02*
X190700000Y-102900000D01*
X190700000Y-102900000D02*
X191413173Y-102900000D01*
X191413173Y-102900000D02*
X191534441Y-103021268D01*
X191534441Y-103021268D02*
X192208732Y-103021268D01*
D69*
%TO.N,Net-(R21-Pad2)*%
X135000000Y-84790500D02*
X135980000Y-84790500D01*
%TO.N,/comm/CAN_L*%
X133980000Y-84790500D02*
X134765000Y-85575500D01*
X136900000Y-75700000D02*
X136000000Y-74800000D01*
X133980000Y-84020000D02*
X134550040Y-83449960D01*
X136900000Y-78300000D02*
X136900000Y-75700000D01*
X134550040Y-81139880D02*
X134550040Y-80649960D01*
X134550040Y-80649960D02*
X136900000Y-78300000D01*
X134765000Y-85575500D02*
X134765000Y-86666000D01*
X136000000Y-74800000D02*
X136000000Y-73000000D01*
X134550040Y-83449960D02*
X134550040Y-81139880D01*
X133980000Y-84790500D02*
X133980000Y-84020000D01*
%TO.N,/comm/CAN_H*%
X136035000Y-85755500D02*
X137000000Y-84790500D01*
X138500000Y-74800000D02*
X138500000Y-73000000D01*
X137600000Y-78800000D02*
X137600000Y-75700000D01*
X136449960Y-79950040D02*
X137600000Y-78800000D01*
X137000000Y-84200000D02*
X136449960Y-83649960D01*
X137600000Y-75700000D02*
X138500000Y-74800000D01*
X136449960Y-81139880D02*
X136449960Y-79950040D01*
X137000000Y-84790500D02*
X137000000Y-84200000D01*
X136449960Y-83649960D02*
X136449960Y-81139880D01*
X136035000Y-86666000D02*
X136035000Y-85755500D01*
%TO.N,/comm/RS485_B*%
X126200000Y-82900000D02*
X125549960Y-82249960D01*
X125150000Y-75750000D02*
X125900000Y-75000000D01*
X125549960Y-79949960D02*
X125150000Y-79550000D01*
X125135000Y-85265000D02*
X126200000Y-84200000D01*
X126200000Y-84200000D02*
X126200000Y-82900000D01*
X125135000Y-86666000D02*
X125135000Y-85265000D01*
X125900000Y-75000000D02*
X125900000Y-73000000D01*
X125549960Y-81139880D02*
X125549960Y-79949960D01*
X125549960Y-82249960D02*
X125549960Y-81139880D01*
X125150000Y-79550000D02*
X125150000Y-75750000D01*
%TO.N,/comm/RS485_A*%
X123400000Y-74800000D02*
X123400000Y-73000000D01*
X123865000Y-85065000D02*
X123000000Y-84200000D01*
X123650040Y-81139880D02*
X123650040Y-80249960D01*
X123650040Y-82349960D02*
X123650040Y-81139880D01*
X123000000Y-83000000D02*
X123650040Y-82349960D01*
X124400000Y-79500000D02*
X124400000Y-75800000D01*
X123650040Y-80249960D02*
X124400000Y-79500000D01*
X123000000Y-84200000D02*
X123000000Y-83000000D01*
X124400000Y-75800000D02*
X123400000Y-74800000D01*
X123865000Y-86666000D02*
X123865000Y-85065000D01*
%TD*%
%TA.AperFunction,Conductor*%
%TO.N,GND*%
G36*
X194538000Y-90305276D02*
G01*
X194583387Y-90350663D01*
X194600000Y-90412663D01*
X194600000Y-95264663D01*
X194583387Y-95326663D01*
X194538000Y-95372050D01*
X194476000Y-95388663D01*
X192224000Y-95388663D01*
X192162000Y-95372050D01*
X192116613Y-95326663D01*
X192100000Y-95264663D01*
X192100000Y-90412663D01*
X192116613Y-90350663D01*
X192162000Y-90305276D01*
X192224000Y-90288663D01*
X194476000Y-90288663D01*
X194538000Y-90305276D01*
G37*
%TD.AperFunction*%
%TD*%
%TA.AperFunction,Conductor*%
%TO.N,GND*%
G36*
X106438000Y-92516613D02*
G01*
X106483387Y-92562000D01*
X106500000Y-92624000D01*
X106500000Y-94876000D01*
X106483387Y-94938000D01*
X106438000Y-94983387D01*
X106376000Y-95000000D01*
X100151362Y-95000000D01*
X100103909Y-94990561D01*
X100063681Y-94963681D01*
X100036819Y-94936819D01*
X100009939Y-94896591D01*
X100000500Y-94849138D01*
X100000500Y-92624000D01*
X100017113Y-92562000D01*
X100062500Y-92516613D01*
X100124500Y-92500000D01*
X106376000Y-92500000D01*
X106438000Y-92516613D01*
G37*
%TD.AperFunction*%
%TD*%
%TA.AperFunction,Conductor*%
%TO.N,Net-(X2-SHIELD)*%
G36*
X106438000Y-96316613D02*
G01*
X106483387Y-96362000D01*
X106500000Y-96424000D01*
X106500000Y-113200000D01*
X115476000Y-113200000D01*
X115538000Y-113216613D01*
X115583387Y-113262000D01*
X115600000Y-113324000D01*
X115600000Y-116576000D01*
X115583387Y-116638000D01*
X115538000Y-116683387D01*
X115476000Y-116700000D01*
X100124500Y-116700000D01*
X100062500Y-116683387D01*
X100017113Y-116638000D01*
X100000500Y-116576000D01*
X100000500Y-110478683D01*
X103295740Y-110478683D01*
X103305755Y-110663407D01*
X103307552Y-110669882D01*
X103307553Y-110669883D01*
X103353446Y-110835179D01*
X103353448Y-110835186D01*
X103355246Y-110841659D01*
X103358392Y-110847594D01*
X103358395Y-110847600D01*
X103438750Y-110999164D01*
X103438753Y-110999169D01*
X103441900Y-111005104D01*
X103446248Y-111010224D01*
X103446251Y-111010227D01*
X103508465Y-111083471D01*
X103561663Y-111146100D01*
X103708936Y-111258054D01*
X103876833Y-111335732D01*
X104057503Y-111375500D01*
X104192754Y-111375500D01*
X104196113Y-111375500D01*
X104333910Y-111360514D01*
X104509221Y-111301444D01*
X104667736Y-111206070D01*
X104802041Y-111078849D01*
X104905858Y-110925730D01*
X104974331Y-110753875D01*
X105004260Y-110571317D01*
X104994245Y-110386593D01*
X104944754Y-110208341D01*
X104920578Y-110162740D01*
X104861249Y-110050835D01*
X104861247Y-110050832D01*
X104858100Y-110044896D01*
X104795460Y-109971151D01*
X104742691Y-109909026D01*
X104738337Y-109903900D01*
X104591064Y-109791946D01*
X104423167Y-109714268D01*
X104242497Y-109674500D01*
X104103887Y-109674500D01*
X104100552Y-109674862D01*
X104100546Y-109674863D01*
X103972772Y-109688759D01*
X103972769Y-109688759D01*
X103966090Y-109689486D01*
X103959729Y-109691629D01*
X103959721Y-109691631D01*
X103797152Y-109746408D01*
X103797146Y-109746410D01*
X103790779Y-109748556D01*
X103785026Y-109752017D01*
X103785016Y-109752022D01*
X103638027Y-109840462D01*
X103638023Y-109840464D01*
X103632264Y-109843930D01*
X103627386Y-109848550D01*
X103627379Y-109848556D01*
X103502839Y-109966528D01*
X103497959Y-109971151D01*
X103494191Y-109976707D01*
X103494187Y-109976713D01*
X103397914Y-110118706D01*
X103394142Y-110124270D01*
X103391654Y-110130513D01*
X103391653Y-110130516D01*
X103328159Y-110289874D01*
X103328157Y-110289879D01*
X103325669Y-110296125D01*
X103324580Y-110302763D01*
X103324580Y-110302766D01*
X103311899Y-110380116D01*
X103295740Y-110478683D01*
X100000500Y-110478683D01*
X100000500Y-102478683D01*
X103295740Y-102478683D01*
X103305755Y-102663407D01*
X103307552Y-102669882D01*
X103307553Y-102669883D01*
X103353446Y-102835179D01*
X103353448Y-102835186D01*
X103355246Y-102841659D01*
X103358392Y-102847594D01*
X103358395Y-102847600D01*
X103438750Y-102999164D01*
X103438753Y-102999169D01*
X103441900Y-103005104D01*
X103446248Y-103010224D01*
X103446251Y-103010227D01*
X103508465Y-103083471D01*
X103561663Y-103146100D01*
X103708936Y-103258054D01*
X103876833Y-103335732D01*
X104057503Y-103375500D01*
X104192754Y-103375500D01*
X104196113Y-103375500D01*
X104333910Y-103360514D01*
X104509221Y-103301444D01*
X104667736Y-103206070D01*
X104802041Y-103078849D01*
X104905858Y-102925730D01*
X104974331Y-102753875D01*
X105004260Y-102571317D01*
X104994245Y-102386593D01*
X104944754Y-102208341D01*
X104921914Y-102165261D01*
X104861249Y-102050835D01*
X104861247Y-102050832D01*
X104858100Y-102044896D01*
X104795460Y-101971151D01*
X104742691Y-101909026D01*
X104738337Y-101903900D01*
X104591064Y-101791946D01*
X104423167Y-101714268D01*
X104242497Y-101674500D01*
X104103887Y-101674500D01*
X104100552Y-101674862D01*
X104100546Y-101674863D01*
X103972772Y-101688759D01*
X103972769Y-101688759D01*
X103966090Y-101689486D01*
X103959729Y-101691629D01*
X103959721Y-101691631D01*
X103797152Y-101746408D01*
X103797146Y-101746410D01*
X103790779Y-101748556D01*
X103785026Y-101752017D01*
X103785016Y-101752022D01*
X103638027Y-101840462D01*
X103638023Y-101840464D01*
X103632264Y-101843930D01*
X103627386Y-101848550D01*
X103627379Y-101848556D01*
X103528093Y-101942606D01*
X103497959Y-101971151D01*
X103494191Y-101976707D01*
X103494187Y-101976713D01*
X103397914Y-102118706D01*
X103394142Y-102124270D01*
X103391654Y-102130513D01*
X103391653Y-102130516D01*
X103328159Y-102289874D01*
X103328157Y-102289879D01*
X103325669Y-102296125D01*
X103324580Y-102302763D01*
X103324580Y-102302766D01*
X103296828Y-102472045D01*
X103295740Y-102478683D01*
X100000500Y-102478683D01*
X100000500Y-96424000D01*
X100017113Y-96362000D01*
X100062500Y-96316613D01*
X100124500Y-96300000D01*
X106376000Y-96300000D01*
X106438000Y-96316613D01*
G37*
%TD.AperFunction*%
%TD*%
%TA.AperFunction,Conductor*%
%TO.N,GND*%
G36*
X196296091Y-107809439D02*
G01*
X196336319Y-107836319D01*
X196463681Y-107963681D01*
X196490561Y-108003909D01*
X196500000Y-108051362D01*
X196500000Y-108948638D01*
X196490561Y-108996091D01*
X196463681Y-109036319D01*
X196308638Y-109191361D01*
X196308635Y-109191364D01*
X196300000Y-109200000D01*
X196300000Y-109212211D01*
X196300000Y-110248638D01*
X196290561Y-110296091D01*
X196263681Y-110336319D01*
X196136319Y-110463681D01*
X196096091Y-110490561D01*
X196048638Y-110500000D01*
X195024000Y-110500000D01*
X194962000Y-110483387D01*
X194916613Y-110438000D01*
X194900000Y-110376000D01*
X194900000Y-108251362D01*
X194909439Y-108203909D01*
X194936319Y-108163681D01*
X195263681Y-107836319D01*
X195303909Y-107809439D01*
X195351362Y-107800000D01*
X196248638Y-107800000D01*
X196296091Y-107809439D01*
G37*
%TD.AperFunction*%
%TD*%
%TA.AperFunction,Conductor*%
%TO.N,+5V*%
G36*
X197796091Y-107809439D02*
G01*
X197836319Y-107836319D01*
X198100000Y-108100000D01*
X198848638Y-108100000D01*
X198896091Y-108109439D01*
X198936319Y-108136319D01*
X199163681Y-108363681D01*
X199190561Y-108403909D01*
X199200000Y-108451362D01*
X199200000Y-112448638D01*
X199190561Y-112496091D01*
X199163681Y-112536319D01*
X198636319Y-113063681D01*
X198596091Y-113090561D01*
X198548638Y-113100000D01*
X196351362Y-113100000D01*
X196303909Y-113090561D01*
X196263681Y-113063681D01*
X196136319Y-112936319D01*
X196109439Y-112896091D01*
X196100000Y-112848638D01*
X196100000Y-110951362D01*
X196109439Y-110903909D01*
X196136319Y-110863681D01*
X196136319Y-110863680D01*
X196400000Y-110600000D01*
X196400000Y-110589503D01*
X196411491Y-110557390D01*
X196433168Y-110528163D01*
X196444347Y-110516985D01*
X196476120Y-110478269D01*
X196503000Y-110438041D01*
X196526612Y-110393868D01*
X196541152Y-110345937D01*
X196550591Y-110298484D01*
X196555500Y-110248638D01*
X196555500Y-109357194D01*
X196564939Y-109309741D01*
X196591819Y-109269513D01*
X196591819Y-109269512D01*
X196644347Y-109216985D01*
X196676120Y-109178269D01*
X196703000Y-109138041D01*
X196726612Y-109093868D01*
X196741152Y-109045937D01*
X196750591Y-108998484D01*
X196755500Y-108948638D01*
X196755500Y-108051362D01*
X196750591Y-108001516D01*
X196741152Y-107954063D01*
X196741004Y-107953577D01*
X196739986Y-107898320D01*
X196763542Y-107847712D01*
X196806909Y-107812565D01*
X196861298Y-107800000D01*
X197748638Y-107800000D01*
X197796091Y-107809439D01*
G37*
%TD.AperFunction*%
%TD*%
%TA.AperFunction,Conductor*%
%TO.N,Net-(C13-Pad1)*%
G36*
X198410148Y-90316613D02*
G01*
X198455535Y-90362000D01*
X198472148Y-90424000D01*
X198472148Y-95276000D01*
X198455535Y-95338000D01*
X198410148Y-95383387D01*
X198348148Y-95400000D01*
X196096148Y-95400000D01*
X196034148Y-95383387D01*
X195988761Y-95338000D01*
X195972148Y-95276000D01*
X195972148Y-90424000D01*
X195988761Y-90362000D01*
X196034148Y-90316613D01*
X196096148Y-90300000D01*
X198348148Y-90300000D01*
X198410148Y-90316613D01*
G37*
%TD.AperFunction*%
%TD*%
%TA.AperFunction,Conductor*%
%TO.N,GND*%
G36*
X198796091Y-115709439D02*
G01*
X198836319Y-115736319D01*
X199363681Y-116263681D01*
X199390561Y-116303909D01*
X199400000Y-116351362D01*
X199400000Y-118548638D01*
X199390561Y-118596091D01*
X199363681Y-118636319D01*
X198736319Y-119263681D01*
X198696091Y-119290561D01*
X198648638Y-119300000D01*
X195551362Y-119300000D01*
X195503909Y-119290561D01*
X195463681Y-119263681D01*
X194636319Y-118436319D01*
X194609439Y-118396091D01*
X194600000Y-118348638D01*
X194600000Y-116651362D01*
X194609439Y-116603909D01*
X194636319Y-116563681D01*
X195463681Y-115736319D01*
X195503909Y-115709439D01*
X195551362Y-115700000D01*
X198748638Y-115700000D01*
X198796091Y-115709439D01*
G37*
%TD.AperFunction*%
%TD*%
%TA.AperFunction,Conductor*%
%TO.N,GND*%
G36*
X186396091Y-112609439D02*
G01*
X186436319Y-112636319D01*
X186608036Y-112808036D01*
X186638286Y-112857399D01*
X186642828Y-112915115D01*
X186630263Y-112994444D01*
X186630262Y-112994451D01*
X186629500Y-112999265D01*
X186629500Y-113004142D01*
X186629500Y-113004143D01*
X186629500Y-113395864D01*
X186629500Y-113395876D01*
X186629501Y-113400734D01*
X186630261Y-113405538D01*
X186630262Y-113405540D01*
X186642456Y-113482538D01*
X186642457Y-113482542D01*
X186643983Y-113492175D01*
X186648411Y-113500866D01*
X186648412Y-113500868D01*
X186686485Y-113575589D01*
X186700000Y-113631884D01*
X186700000Y-115148638D01*
X186690561Y-115196091D01*
X186663681Y-115236319D01*
X186536319Y-115363681D01*
X186496091Y-115390561D01*
X186448638Y-115400000D01*
X184651362Y-115400000D01*
X184603909Y-115390561D01*
X184563681Y-115363681D01*
X184536319Y-115336319D01*
X184509439Y-115296091D01*
X184500000Y-115248638D01*
X184500000Y-112751362D01*
X184509439Y-112703909D01*
X184536319Y-112663681D01*
X184563681Y-112636319D01*
X184603909Y-112609439D01*
X184651362Y-112600000D01*
X186348638Y-112600000D01*
X186396091Y-112609439D01*
G37*
%TD.AperFunction*%
%TD*%
%TA.AperFunction,Conductor*%
%TO.N,GND*%
G36*
X168596091Y-72509439D02*
G01*
X168636319Y-72536319D01*
X168863681Y-72763681D01*
X168890561Y-72803909D01*
X168900000Y-72851362D01*
X168900000Y-73948638D01*
X168890561Y-73996091D01*
X168863681Y-74036319D01*
X168736319Y-74163681D01*
X168696091Y-74190561D01*
X168648638Y-74200000D01*
X167200000Y-74200000D01*
X167191364Y-74208635D01*
X167191361Y-74208638D01*
X166836319Y-74563681D01*
X166796091Y-74590561D01*
X166748638Y-74600000D01*
X165824000Y-74600000D01*
X165762000Y-74583387D01*
X165716613Y-74538000D01*
X165700000Y-74476000D01*
X165700000Y-72851362D01*
X165709439Y-72803909D01*
X165736319Y-72763681D01*
X165963681Y-72536319D01*
X166003909Y-72509439D01*
X166051362Y-72500000D01*
X168548638Y-72500000D01*
X168596091Y-72509439D01*
G37*
%TD.AperFunction*%
%TD*%
%TA.AperFunction,Conductor*%
%TO.N,+3.3V*%
G36*
X193196091Y-111209439D02*
G01*
X193236319Y-111236318D01*
X195200000Y-113200000D01*
X195987306Y-113200000D01*
X196034759Y-113209439D01*
X196074987Y-113236319D01*
X196083015Y-113244347D01*
X196121731Y-113276120D01*
X196161959Y-113303000D01*
X196206132Y-113326612D01*
X196254063Y-113341152D01*
X196301516Y-113350591D01*
X196351362Y-113355500D01*
X196354413Y-113355500D01*
X198104138Y-113355500D01*
X198151591Y-113364939D01*
X198191819Y-113391819D01*
X198363681Y-113563681D01*
X198390561Y-113603909D01*
X198400000Y-113651362D01*
X198400000Y-115248638D01*
X198390561Y-115296091D01*
X198363681Y-115336319D01*
X198291819Y-115408181D01*
X198251591Y-115435061D01*
X198204138Y-115444500D01*
X195551362Y-115444500D01*
X195548326Y-115444798D01*
X195548325Y-115444799D01*
X195504540Y-115449111D01*
X195504536Y-115449111D01*
X195501516Y-115449409D01*
X195498545Y-115449999D01*
X195498531Y-115450002D01*
X195457061Y-115458251D01*
X195457048Y-115458254D01*
X195454063Y-115458848D01*
X195451148Y-115459732D01*
X195451137Y-115459735D01*
X195411969Y-115471617D01*
X195411966Y-115471618D01*
X195406132Y-115473388D01*
X195400755Y-115476262D01*
X195400753Y-115476263D01*
X195364641Y-115495566D01*
X195364635Y-115495569D01*
X195361959Y-115497000D01*
X195359448Y-115498677D01*
X195359436Y-115498685D01*
X195324260Y-115522189D01*
X195324244Y-115522200D01*
X195321731Y-115523880D01*
X195319381Y-115525808D01*
X195319375Y-115525813D01*
X195285374Y-115553716D01*
X195285361Y-115553727D01*
X195283015Y-115555653D01*
X195280863Y-115557804D01*
X195280853Y-115557814D01*
X195274987Y-115563681D01*
X195234759Y-115590561D01*
X195187306Y-115600000D01*
X195100000Y-115600000D01*
X195091364Y-115608635D01*
X195091361Y-115608638D01*
X193136319Y-117563681D01*
X193096091Y-117590561D01*
X193048638Y-117600000D01*
X187951362Y-117600000D01*
X187903909Y-117590561D01*
X187863681Y-117563681D01*
X187036319Y-116736319D01*
X187009439Y-116696091D01*
X187000000Y-116648638D01*
X187000000Y-112251362D01*
X187009439Y-112203909D01*
X187036319Y-112163681D01*
X187963681Y-111236319D01*
X188003909Y-111209439D01*
X188051362Y-111200000D01*
X193148638Y-111200000D01*
X193196091Y-111209439D01*
G37*
%TD.AperFunction*%
%TD*%
%TA.AperFunction,Conductor*%
%TO.N,GND*%
G36*
X181938000Y-81416613D02*
G01*
X181983387Y-81462000D01*
X182000000Y-81524000D01*
X182000000Y-84976000D01*
X181983387Y-85038000D01*
X181938000Y-85083387D01*
X181876000Y-85100000D01*
X177624000Y-85100000D01*
X177562000Y-85083387D01*
X177516613Y-85038000D01*
X177500000Y-84976000D01*
X177500000Y-81524000D01*
X177516613Y-81462000D01*
X177562000Y-81416613D01*
X177624000Y-81400000D01*
X181876000Y-81400000D01*
X181938000Y-81416613D01*
G37*
%TD.AperFunction*%
%TD*%
M02*
