M48
; DRILL file {KiCad (7.0.0)} date Wed May 17 20:17:04 2023
; FORMAT={-:-/ absolute / inch / decimal}
; #@! TF.CreationDate,2023-05-17T20:17:04-03:00
; #@! TF.GenerationSoftware,Kicad,Pcbnew,(7.0.0)
; #@! TF.FileFunction,Plated,1,4,PTH
FMAT,2
INCH
; #@! TA.AperFunction,Plated,PTH,ViaDrill
T1C0.0118
; #@! TA.AperFunction,Plated,PTH,ComponentDrill
T2C0.0118
; #@! TA.AperFunction,Plated,PTH,ComponentDrill
T3C0.0197
; #@! TA.AperFunction,Plated,PTH,ComponentDrill
T4C0.0256
; #@! TA.AperFunction,Plated,PTH,ComponentDrill
T5C0.0374
; #@! TA.AperFunction,Plated,PTH,ComponentDrill
T6C0.0394
; #@! TA.AperFunction,Plated,PTH,ComponentDrill
T7C0.1260
%
G90
G05
T1
X4.0079Y-3.6614
X4.1102Y-3.6614
X4.2795Y-3.5
X4.4189Y-3.4288
X4.4907Y-3.3919
X4.4981Y-3.8613
X4.5306Y-3.3422
X4.5787Y-4.1024
X4.5787Y-4.189
X4.6102Y-3.9016
X4.6457Y-3.9724
X4.6843Y-4.5157
X4.7165Y-4.9331
X4.726Y-3.4102
X4.7267Y-3.4495
X4.7638Y-3.626
X4.9016Y-3.6929
X4.9055Y-3.3228
X4.9717Y-4.5157
X4.9717Y-4.5551
X4.9764Y-3.4764
X4.9764Y-3.689
X5.0039Y-4.9374
X5.1024Y-4.3937
X5.1417Y-4.3189
X5.1457Y-3.9764
X5.1457Y-4.0984
X5.1457Y-4.2008
X5.1961Y-3.4879
X5.1961Y-3.381
X5.1974Y-3.6247
X5.2591Y-4.5157
X5.2591Y-4.5551
X5.2913Y-4.9374
X5.3056Y-3.6819
X5.3346Y-3.2441
X5.393Y-3.6919
X5.393Y-3.7323
X5.4525Y-3.6247
X5.4787Y-3.8867
X5.4791Y-3.924
X5.4974Y-3.4119
X5.4974Y-3.4512
X5.5118Y-4.3189
X5.6746Y-3.8339
X5.6756Y-3.7936
X5.7008Y-4.2756
X5.7047Y-3.9409
X5.7244Y-3.437
X5.7244Y-3.5039
X5.7244Y-3.5709
X5.748Y-4.2756
X5.7819Y-3.9162
X5.7826Y-3.8787
X5.8019Y-4.5193
X5.8031Y-3.7835
X5.8504Y-3.811
X5.876Y-4.0291
X5.9055Y-3.811
X5.9138Y-4.0296
X5.935Y-3.748
X6.0118Y-4.6378
X6.0304Y-3.9169
X6.0304Y-3.9568
X6.0354Y-3.7835
X6.0709Y-3.7008
X6.0866Y-3.9173
X6.1063Y-4.4606
X6.126Y-3.7835
X6.126Y-4.0748
X6.1299Y-4.4843
X6.2041Y-3.7845
X6.2087Y-4.0787
X6.2447Y-3.7842
X6.2677Y-4.4646
X6.2677Y-4.5039
X6.2913Y-4.5787
X6.3303Y-3.955
X6.3307Y-3.9173
X6.378Y-4.6102
X6.429Y-4.2382
X6.4291Y-4.8858
X6.4344Y-4.0187
X6.4409Y-4.3031
X6.4432Y-4.639
X6.4567Y-3.7402
X6.4567Y-3.7756
X6.4567Y-3.8071
X6.4606Y-3.7008
X6.4724Y-4.3858
X6.473Y-4.0189
X6.4803Y-4.3268
X6.4822Y-4.489
X6.4921Y-4.2441
X6.5022Y-4.1754
X6.5039Y-2.9617
X6.5236Y-4.3543
X6.5276Y-3.937
X6.5315Y-4.4892
X6.5354Y-3.3858
X6.5433Y-4.2677
X6.5472Y-2.8819
X6.561Y-4.6969
X6.5764Y-3.1596
X6.5809Y-4.5134
X6.6142Y-4.2205
X6.6229Y-3.1613
X6.626Y-4.6811
X6.6339Y-3.5039
X6.6496Y-4.311
X6.6828Y-3.9507
X6.7087Y-4.3701
X6.7098Y-4.6751
X6.7434Y-3.9512
X6.7484Y-4.6743
X6.7598Y-4.4739
X6.7795Y-4.815
X6.8461Y-4.5289
X6.8465Y-4.5906
X6.9173Y-4.2126
X6.9181Y-4.2441
X6.9189Y-4.2825
X6.9843Y-4.1811
X7.0118Y-4.3189
X7.1329Y-4.502
X7.1332Y-4.4036
X7.2008Y-3.9715
X7.2008Y-4.0049
X7.2677Y-3.9882
X7.2756Y-4.5157
X7.2913Y-4.4567
X7.3146Y-3.7451
X7.3465Y-4.0945
X7.3465Y-3.8197
X7.4094Y-4.4567
X7.4173Y-3.8543
X7.4331Y-4.5197
X7.4409Y-3.3858
X7.4409Y-3.4449
X7.4567Y-3.9882
X7.5Y-4.1102
X7.5157Y-3.8976
X7.5276Y-4.0748
X7.5315Y-3.9567
X7.5315Y-4.0039
X7.5827Y-3.598
X7.5827Y-3.7003
X7.6496Y-3.9646
X7.6535Y-4.0354
X7.689Y-4.2717
X7.7244Y-4.6693
X7.7874Y-4.6693
X7.7942Y-3.6102
X7.7942Y-3.7126
X7.8189Y-4.2795
X7.8189Y-4.3228
T2
X7.0319Y-3.2539
X7.0319Y-3.2972
X7.0535Y-3.2323
X7.0535Y-3.2756
X7.0535Y-3.3189
X7.0752Y-3.2539
X7.0752Y-3.2972
X7.0969Y-3.2323
X7.0969Y-3.2756
X7.0969Y-3.3189
X7.1185Y-3.2539
X7.1185Y-3.2972
T3
X4.0394Y-2.9134
X4.0394Y-4.8819
X4.067Y-2.8466
X4.067Y-2.9802
X4.067Y-4.8151
X4.067Y-4.9487
X4.1339Y-2.8189
X4.1339Y-3.0079
X4.1339Y-4.7874
X4.1339Y-4.9764
X4.2007Y-2.8466
X4.2007Y-2.9802
X4.2007Y-4.8151
X4.2007Y-4.9487
X4.2283Y-2.9134
X4.2283Y-4.8819
X7.5827Y-2.9134
X7.5827Y-4.8819
X7.6104Y-2.8466
X7.6104Y-2.9802
X7.6104Y-4.8151
X7.6104Y-4.9487
X7.6772Y-2.8189
X7.6772Y-3.0079
X7.6772Y-4.7874
X7.6772Y-4.9764
X7.744Y-2.8466
X7.744Y-2.9802
X7.744Y-4.8151
X7.744Y-4.9487
X7.7717Y-2.9134
X7.7717Y-4.8819
T5
X4.7598Y-2.874
X4.8583Y-2.874
X4.9567Y-2.874
X5.2559Y-2.874
X5.3543Y-2.874
X5.4528Y-2.874
T6
X5.8Y-5.0039
X5.8996Y-2.7953
X5.9Y-5.0039
X5.9996Y-2.7953
X6.0Y-5.0039
X6.0996Y-2.7953
X6.1996Y-2.7953
X6.248Y-5.0039
X6.2996Y-2.7953
X6.348Y-5.0039
X6.3996Y-2.7953
X6.448Y-5.0039
X6.548Y-5.0039
X6.648Y-5.0039
X6.748Y-5.0039
T7
X4.1339Y-2.9134
X4.1339Y-4.8819
X7.6772Y-2.9134
X7.6772Y-4.8819
T4
G00X7.5631Y-3.8457
M15
G01X7.6054Y-3.8457
M16
G05
G00X7.5636Y-4.1858
M15
G01X7.6049Y-4.1858
M16
G05
G00X7.7652Y-3.8457
M15
G01X7.8253Y-3.8457
M16
G05
G00X7.7652Y-4.1858
M15
G01X7.8253Y-4.1858
M16
G05
T0
M30
